<svg width="335" height="517" viewBox="0 0 335 517" fill="none" xmlns="http://www.w3.org/2000/svg">
<rect y="187" width="335" height="203" rx="16" fill="#45A694"/>
<path d="M219.434 269.756C219.145 270.12 218.804 270.395 218.412 270.582C218.02 270.769 217.591 270.862 217.124 270.862C216.583 270.862 216.055 270.722 215.542 270.442C215.038 270.162 214.483 269.705 213.876 269.07C212.915 269.07 212.047 268.855 211.272 268.426C210.507 267.987 209.905 267.39 209.466 266.634C209.027 265.878 208.808 265.033 208.808 264.1C208.808 263.167 209.027 262.322 209.466 261.566C209.914 260.81 210.525 260.217 211.3 259.788C212.075 259.349 212.943 259.13 213.904 259.13C214.865 259.13 215.733 259.345 216.508 259.774C217.283 260.203 217.889 260.796 218.328 261.552C218.776 262.308 219 263.157 219 264.1C219 264.94 218.818 265.71 218.454 266.41C218.099 267.101 217.605 267.675 216.97 268.132C216.335 268.58 215.612 268.869 214.8 269C215.603 269.84 216.377 270.26 217.124 270.26C217.88 270.26 218.524 269.947 219.056 269.322L219.434 269.756ZM209.522 264.1C209.522 264.903 209.713 265.635 210.096 266.298C210.479 266.951 211.001 267.469 211.664 267.852C212.336 268.225 213.083 268.412 213.904 268.412C214.725 268.412 215.467 268.225 216.13 267.852C216.793 267.469 217.315 266.951 217.698 266.298C218.081 265.635 218.272 264.903 218.272 264.1C218.272 263.297 218.081 262.569 217.698 261.916C217.315 261.253 216.793 260.735 216.13 260.362C215.467 259.979 214.725 259.788 213.904 259.788C213.083 259.788 212.336 259.979 211.664 260.362C211.001 260.735 210.479 261.253 210.096 261.916C209.713 262.569 209.522 263.297 209.522 264.1ZM228.071 261.692V269H227.399V267.432C227.156 267.945 226.797 268.347 226.321 268.636C225.845 268.916 225.285 269.056 224.641 269.056C223.689 269.056 222.942 268.79 222.401 268.258C221.859 267.726 221.589 266.961 221.589 265.962V261.692H222.289V265.906C222.289 266.727 222.499 267.353 222.919 267.782C223.339 268.211 223.931 268.426 224.697 268.426C225.518 268.426 226.167 268.169 226.643 267.656C227.128 267.143 227.371 266.452 227.371 265.584V261.692H228.071ZM237.632 265.514H231.346C231.364 266.083 231.509 266.592 231.78 267.04C232.05 267.479 232.414 267.819 232.872 268.062C233.338 268.305 233.861 268.426 234.44 268.426C234.916 268.426 235.354 268.342 235.756 268.174C236.166 267.997 236.507 267.74 236.778 267.404L237.184 267.866C236.866 268.249 236.465 268.543 235.98 268.748C235.504 268.953 234.986 269.056 234.426 269.056C233.698 269.056 233.049 268.897 232.48 268.58C231.91 268.263 231.462 267.824 231.136 267.264C230.818 266.704 230.66 266.065 230.66 265.346C230.66 264.637 230.809 264.002 231.108 263.442C231.416 262.873 231.836 262.429 232.368 262.112C232.9 261.795 233.497 261.636 234.16 261.636C234.822 261.636 235.415 261.795 235.938 262.112C236.47 262.42 236.885 262.854 237.184 263.414C237.492 263.974 237.646 264.609 237.646 265.318L237.632 265.514ZM234.16 262.252C233.646 262.252 233.184 262.369 232.774 262.602C232.363 262.826 232.032 263.148 231.78 263.568C231.537 263.979 231.397 264.445 231.36 264.968H236.96C236.932 264.445 236.792 263.979 236.54 263.568C236.288 263.157 235.956 262.835 235.546 262.602C235.135 262.369 234.673 262.252 234.16 262.252ZM240.903 263.288C241.127 262.756 241.477 262.35 241.953 262.07C242.429 261.781 243.008 261.636 243.689 261.636V262.322L243.521 262.308C242.709 262.308 242.075 262.565 241.617 263.078C241.16 263.582 240.931 264.287 240.931 265.192V269H240.231V261.692H240.903V263.288ZM248.868 269.056C248.158 269.056 247.524 268.897 246.964 268.58C246.404 268.263 245.965 267.824 245.648 267.264C245.33 266.695 245.172 266.055 245.172 265.346C245.172 264.627 245.33 263.988 245.648 263.428C245.965 262.859 246.404 262.42 246.964 262.112C247.524 261.795 248.158 261.636 248.868 261.636C249.456 261.636 249.988 261.753 250.464 261.986C250.949 262.21 251.341 262.541 251.64 262.98L251.122 263.358C250.86 262.994 250.534 262.723 250.142 262.546C249.759 262.359 249.334 262.266 248.868 262.266C248.298 262.266 247.785 262.397 247.328 262.658C246.88 262.91 246.525 263.269 246.264 263.736C246.012 264.203 245.886 264.739 245.886 265.346C245.886 265.953 246.012 266.489 246.264 266.956C246.525 267.423 246.88 267.787 247.328 268.048C247.785 268.3 248.298 268.426 248.868 268.426C249.334 268.426 249.759 268.337 250.142 268.16C250.534 267.973 250.86 267.698 251.122 267.334L251.64 267.712C251.341 268.151 250.949 268.487 250.464 268.72C249.988 268.944 249.456 269.056 248.868 269.056ZM260.553 261.692V269H259.881V267.432C259.639 267.945 259.279 268.347 258.803 268.636C258.327 268.916 257.767 269.056 257.123 269.056C256.171 269.056 255.425 268.79 254.883 268.258C254.342 267.726 254.071 266.961 254.071 265.962V261.692H254.771V265.906C254.771 266.727 254.981 267.353 255.401 267.782C255.821 268.211 256.414 268.426 257.179 268.426C258.001 268.426 258.649 268.169 259.125 267.656C259.611 267.143 259.853 266.452 259.853 265.584V261.692H260.553ZM265.788 269.056C265.2 269.056 264.64 268.967 264.108 268.79C263.576 268.613 263.161 268.389 262.862 268.118L263.184 267.558C263.483 267.81 263.866 268.02 264.332 268.188C264.808 268.356 265.303 268.44 265.816 268.44C266.554 268.44 267.095 268.319 267.44 268.076C267.795 267.833 267.972 267.497 267.972 267.068C267.972 266.76 267.874 266.517 267.678 266.34C267.492 266.163 267.258 266.032 266.978 265.948C266.698 265.864 266.311 265.775 265.816 265.682C265.238 265.579 264.771 265.467 264.416 265.346C264.062 265.225 263.758 265.029 263.506 264.758C263.254 264.487 263.128 264.114 263.128 263.638C263.128 263.059 263.366 262.583 263.842 262.21C264.328 261.827 265.014 261.636 265.9 261.636C266.367 261.636 266.829 261.701 267.286 261.832C267.744 261.963 268.117 262.135 268.406 262.35L268.084 262.91C267.786 262.695 267.445 262.532 267.062 262.42C266.68 262.308 266.288 262.252 265.886 262.252C265.205 262.252 264.692 262.378 264.346 262.63C264.001 262.882 263.828 263.213 263.828 263.624C263.828 263.951 263.926 264.207 264.122 264.394C264.318 264.571 264.556 264.707 264.836 264.8C265.126 264.884 265.527 264.977 266.04 265.08C266.61 265.183 267.067 265.295 267.412 265.416C267.767 265.528 268.066 265.715 268.308 265.976C268.551 266.237 268.672 266.597 268.672 267.054C268.672 267.661 268.42 268.146 267.916 268.51C267.412 268.874 266.703 269.056 265.788 269.056ZM275.734 263.288C275.958 262.756 276.308 262.35 276.784 262.07C277.26 261.781 277.838 261.636 278.52 261.636V262.322L278.352 262.308C277.54 262.308 276.905 262.565 276.448 263.078C275.99 263.582 275.762 264.287 275.762 265.192V269H275.062V261.692H275.734V263.288ZM283.656 269.056C282.965 269.056 282.34 268.897 281.78 268.58C281.229 268.263 280.795 267.824 280.478 267.264C280.161 266.695 280.002 266.055 280.002 265.346C280.002 264.637 280.161 264.002 280.478 263.442C280.795 262.873 281.229 262.429 281.78 262.112C282.34 261.795 282.965 261.636 283.656 261.636C284.347 261.636 284.967 261.795 285.518 262.112C286.078 262.429 286.517 262.873 286.834 263.442C287.151 264.002 287.31 264.637 287.31 265.346C287.31 266.055 287.151 266.695 286.834 267.264C286.517 267.824 286.078 268.263 285.518 268.58C284.967 268.897 284.347 269.056 283.656 269.056ZM283.656 268.426C284.216 268.426 284.715 268.295 285.154 268.034C285.602 267.773 285.952 267.409 286.204 266.942C286.465 266.475 286.596 265.943 286.596 265.346C286.596 264.749 286.465 264.217 286.204 263.75C285.952 263.283 285.602 262.919 285.154 262.658C284.715 262.397 284.216 262.266 283.656 262.266C283.096 262.266 282.592 262.397 282.144 262.658C281.705 262.919 281.355 263.283 281.094 263.75C280.842 264.217 280.716 264.749 280.716 265.346C280.716 265.943 280.842 266.475 281.094 266.942C281.355 267.409 281.705 267.773 282.144 268.034C282.592 268.295 283.096 268.426 283.656 268.426ZM293.57 261.636C294.251 261.636 294.867 261.795 295.418 262.112C295.968 262.42 296.398 262.859 296.706 263.428C297.023 263.988 297.182 264.627 297.182 265.346C297.182 266.065 297.023 266.704 296.706 267.264C296.398 267.824 295.968 268.263 295.418 268.58C294.867 268.897 294.251 269.056 293.57 269.056C292.916 269.056 292.324 268.902 291.792 268.594C291.269 268.277 290.863 267.838 290.574 267.278V269H289.902V258.612H290.602V263.358C290.891 262.817 291.297 262.397 291.82 262.098C292.342 261.79 292.926 261.636 293.57 261.636ZM293.528 268.426C294.088 268.426 294.592 268.295 295.04 268.034C295.488 267.773 295.838 267.409 296.09 266.942C296.351 266.475 296.482 265.943 296.482 265.346C296.482 264.749 296.351 264.217 296.09 263.75C295.838 263.283 295.488 262.919 295.04 262.658C294.592 262.397 294.088 262.266 293.528 262.266C292.968 262.266 292.464 262.397 292.016 262.658C291.577 262.919 291.227 263.283 290.966 263.75C290.714 264.217 290.588 264.749 290.588 265.346C290.588 265.943 290.714 266.475 290.966 266.942C291.227 267.409 291.577 267.773 292.016 268.034C292.464 268.295 292.968 268.426 293.528 268.426ZM306.167 261.692V269H305.495V267.432C305.252 267.945 304.893 268.347 304.417 268.636C303.941 268.916 303.381 269.056 302.737 269.056C301.785 269.056 301.038 268.79 300.497 268.258C299.956 267.726 299.685 266.961 299.685 265.962V261.692H300.385V265.906C300.385 266.727 300.595 267.353 301.015 267.782C301.435 268.211 302.028 268.426 302.793 268.426C303.614 268.426 304.263 268.169 304.739 267.656C305.224 267.143 305.467 266.452 305.467 265.584V261.692H306.167ZM310.226 263.288C310.45 262.756 310.8 262.35 311.276 262.07C311.752 261.781 312.331 261.636 313.012 261.636V262.322L312.844 262.308C312.032 262.308 311.398 262.565 310.94 263.078C310.483 263.582 310.254 264.287 310.254 265.192V269H309.554V261.692H310.226V263.288Z" fill="white"/>
<path d="M246.763 284.844V289.03H251.985V289.674H246.763V294H246.049V284.2H252.601V284.844H246.763ZM257.213 286.636C258.118 286.636 258.814 286.869 259.299 287.336C259.784 287.793 260.027 288.47 260.027 289.366V294H259.355V292.698C259.122 293.127 258.781 293.463 258.333 293.706C257.885 293.939 257.348 294.056 256.723 294.056C255.911 294.056 255.267 293.865 254.791 293.482C254.324 293.099 254.091 292.595 254.091 291.97C254.091 291.363 254.306 290.873 254.735 290.5C255.174 290.117 255.869 289.926 256.821 289.926H259.327V289.338C259.327 288.657 259.14 288.139 258.767 287.784C258.403 287.429 257.866 287.252 257.157 287.252C256.672 287.252 256.205 287.336 255.757 287.504C255.318 287.672 254.945 287.896 254.637 288.176L254.287 287.672C254.651 287.345 255.09 287.093 255.603 286.916C256.116 286.729 256.653 286.636 257.213 286.636ZM256.821 293.482C257.428 293.482 257.941 293.342 258.361 293.062C258.79 292.782 259.112 292.376 259.327 291.844V290.472H256.835C256.116 290.472 255.594 290.603 255.267 290.864C254.95 291.125 254.791 291.485 254.791 291.942C254.791 292.418 254.968 292.796 255.323 293.076C255.678 293.347 256.177 293.482 256.821 293.482ZM269.925 286.692V293.216C269.925 294.429 269.631 295.325 269.043 295.904C268.455 296.483 267.568 296.772 266.383 296.772C265.711 296.772 265.076 296.669 264.479 296.464C263.882 296.259 263.401 295.974 263.037 295.61L263.415 295.078C263.779 295.414 264.218 295.675 264.731 295.862C265.244 296.049 265.79 296.142 266.369 296.142C267.34 296.142 268.058 295.909 268.525 295.442C268.992 294.985 269.225 294.271 269.225 293.3V292.068C268.926 292.6 268.511 293.011 267.979 293.3C267.447 293.589 266.85 293.734 266.187 293.734C265.506 293.734 264.885 293.585 264.325 293.286C263.774 292.978 263.34 292.553 263.023 292.012C262.706 291.471 262.547 290.859 262.547 290.178C262.547 289.497 262.706 288.885 263.023 288.344C263.34 287.803 263.774 287.383 264.325 287.084C264.885 286.785 265.506 286.636 266.187 286.636C266.859 286.636 267.466 286.785 268.007 287.084C268.548 287.383 268.964 287.803 269.253 288.344V286.692H269.925ZM266.243 293.104C266.812 293.104 267.326 292.983 267.783 292.74C268.24 292.488 268.595 292.143 268.847 291.704C269.108 291.256 269.239 290.747 269.239 290.178C269.239 289.609 269.108 289.105 268.847 288.666C268.595 288.227 268.24 287.887 267.783 287.644C267.326 287.392 266.812 287.266 266.243 287.266C265.674 287.266 265.16 287.392 264.703 287.644C264.255 287.887 263.9 288.227 263.639 288.666C263.387 289.105 263.261 289.609 263.261 290.178C263.261 290.747 263.387 291.256 263.639 291.704C263.9 292.143 264.255 292.488 264.703 292.74C265.16 292.983 265.674 293.104 266.243 293.104ZM275.772 286.636C276.677 286.636 277.373 286.869 277.858 287.336C278.343 287.793 278.586 288.47 278.586 289.366V294H277.914V292.698C277.681 293.127 277.34 293.463 276.892 293.706C276.444 293.939 275.907 294.056 275.282 294.056C274.47 294.056 273.826 293.865 273.35 293.482C272.883 293.099 272.65 292.595 272.65 291.97C272.65 291.363 272.865 290.873 273.294 290.5C273.733 290.117 274.428 289.926 275.38 289.926H277.886V289.338C277.886 288.657 277.699 288.139 277.326 287.784C276.962 287.429 276.425 287.252 275.716 287.252C275.231 287.252 274.764 287.336 274.316 287.504C273.877 287.672 273.504 287.896 273.196 288.176L272.846 287.672C273.21 287.345 273.649 287.093 274.162 286.916C274.675 286.729 275.212 286.636 275.772 286.636ZM275.38 293.482C275.987 293.482 276.5 293.342 276.92 293.062C277.349 292.782 277.671 292.376 277.886 291.844V290.472H275.394C274.675 290.472 274.153 290.603 273.826 290.864C273.509 291.125 273.35 291.485 273.35 291.942C273.35 292.418 273.527 292.796 273.882 293.076C274.237 293.347 274.736 293.482 275.38 293.482ZM284.802 294.056C284.092 294.056 283.458 293.897 282.898 293.58C282.338 293.263 281.899 292.824 281.582 292.264C281.264 291.695 281.106 291.055 281.106 290.346C281.106 289.627 281.264 288.988 281.582 288.428C281.899 287.859 282.338 287.42 282.898 287.112C283.458 286.795 284.092 286.636 284.802 286.636C285.39 286.636 285.922 286.753 286.398 286.986C286.883 287.21 287.275 287.541 287.574 287.98L287.056 288.358C286.794 287.994 286.468 287.723 286.076 287.546C285.693 287.359 285.268 287.266 284.802 287.266C284.232 287.266 283.719 287.397 283.262 287.658C282.814 287.91 282.459 288.269 282.198 288.736C281.946 289.203 281.82 289.739 281.82 290.346C281.82 290.953 281.946 291.489 282.198 291.956C282.459 292.423 282.814 292.787 283.262 293.048C283.719 293.3 284.232 293.426 284.802 293.426C285.268 293.426 285.693 293.337 286.076 293.16C286.468 292.973 286.794 292.698 287.056 292.334L287.574 292.712C287.275 293.151 286.883 293.487 286.398 293.72C285.922 293.944 285.39 294.056 284.802 294.056ZM296.14 290.514H289.854C289.873 291.083 290.018 291.592 290.288 292.04C290.559 292.479 290.923 292.819 291.38 293.062C291.847 293.305 292.37 293.426 292.948 293.426C293.424 293.426 293.863 293.342 294.264 293.174C294.675 292.997 295.016 292.74 295.286 292.404L295.692 292.866C295.375 293.249 294.974 293.543 294.488 293.748C294.012 293.953 293.494 294.056 292.934 294.056C292.206 294.056 291.558 293.897 290.988 293.58C290.419 293.263 289.971 292.824 289.644 292.264C289.327 291.704 289.168 291.065 289.168 290.346C289.168 289.637 289.318 289.002 289.616 288.442C289.924 287.873 290.344 287.429 290.876 287.112C291.408 286.795 292.006 286.636 292.668 286.636C293.331 286.636 293.924 286.795 294.446 287.112C294.978 287.42 295.394 287.854 295.692 288.414C296 288.974 296.154 289.609 296.154 290.318L296.14 290.514ZM292.668 287.252C292.155 287.252 291.693 287.369 291.282 287.602C290.872 287.826 290.54 288.148 290.288 288.568C290.046 288.979 289.906 289.445 289.868 289.968H295.468C295.44 289.445 295.3 288.979 295.048 288.568C294.796 288.157 294.465 287.835 294.054 287.602C293.644 287.369 293.182 287.252 292.668 287.252ZM300.999 286.636C301.904 286.636 302.599 286.869 303.085 287.336C303.57 287.793 303.813 288.47 303.813 289.366V294H303.141V292.698C302.907 293.127 302.567 293.463 302.119 293.706C301.671 293.939 301.134 294.056 300.509 294.056C299.697 294.056 299.053 293.865 298.577 293.482C298.11 293.099 297.877 292.595 297.877 291.97C297.877 291.363 298.091 290.873 298.521 290.5C298.959 290.117 299.655 289.926 300.607 289.926H303.113V289.338C303.113 288.657 302.926 288.139 302.553 287.784C302.189 287.429 301.652 287.252 300.943 287.252C300.457 287.252 299.991 287.336 299.543 287.504C299.104 287.672 298.731 287.896 298.423 288.176L298.073 287.672C298.437 287.345 298.875 287.093 299.389 286.916C299.902 286.729 300.439 286.636 300.999 286.636ZM300.607 293.482C301.213 293.482 301.727 293.342 302.147 293.062C302.576 292.782 302.898 292.376 303.113 291.844V290.472H300.621C299.902 290.472 299.379 290.603 299.053 290.864C298.735 291.125 298.577 291.485 298.577 291.942C298.577 292.418 298.754 292.796 299.109 293.076C299.463 293.347 299.963 293.482 300.607 293.482ZM313.304 290.514H307.018C307.037 291.083 307.182 291.592 307.452 292.04C307.723 292.479 308.087 292.819 308.544 293.062C309.011 293.305 309.534 293.426 310.112 293.426C310.588 293.426 311.027 293.342 311.428 293.174C311.839 292.997 312.18 292.74 312.45 292.404L312.856 292.866C312.539 293.249 312.138 293.543 311.652 293.748C311.176 293.953 310.658 294.056 310.098 294.056C309.37 294.056 308.722 293.897 308.152 293.58C307.583 293.263 307.135 292.824 306.808 292.264C306.491 291.704 306.332 291.065 306.332 290.346C306.332 289.637 306.482 289.002 306.78 288.442C307.088 287.873 307.508 287.429 308.04 287.112C308.572 286.795 309.17 286.636 309.832 286.636C310.495 286.636 311.088 286.795 311.61 287.112C312.142 287.42 312.558 287.854 312.856 288.414C313.164 288.974 313.318 289.609 313.318 290.318L313.304 290.514ZM309.832 287.252C309.319 287.252 308.857 287.369 308.446 287.602C308.036 287.826 307.704 288.148 307.452 288.568C307.21 288.979 307.07 289.445 307.032 289.968H312.632C312.604 289.445 312.464 288.979 312.212 288.568C311.96 288.157 311.629 287.835 311.218 287.602C310.808 287.369 310.346 287.252 309.832 287.252Z" fill="white"/>
<path d="M205.652 316.408H202.992V318.998H202.362V316.408H199.702V315.806H202.362V313.202H202.992V315.806H205.652V316.408ZM211.383 309.212H212.027L207.407 322.4H206.763L211.383 309.212ZM211.928 316.926H215.526V317.556H211.928V316.926ZM224.579 315.47C225.662 315.498 226.483 315.764 227.043 316.268C227.613 316.763 227.897 317.421 227.897 318.242C227.897 318.793 227.767 319.283 227.505 319.712C227.244 320.132 226.852 320.463 226.329 320.706C225.816 320.949 225.195 321.07 224.467 321.07C223.758 321.07 223.091 320.953 222.465 320.72C221.84 320.477 221.355 320.155 221.009 319.754L221.373 319.208C221.691 319.563 222.12 319.852 222.661 320.076C223.212 320.3 223.814 320.412 224.467 320.412C225.335 320.412 226.003 320.221 226.469 319.838C226.936 319.446 227.169 318.914 227.169 318.242C227.169 317.561 226.931 317.029 226.455 316.646C225.979 316.263 225.265 316.072 224.313 316.072H223.697V315.554L226.595 311.844H221.373V311.2H227.519V311.704L224.579 315.47ZM233.66 321.07C232.913 321.07 232.246 320.869 231.658 320.468C231.079 320.057 230.627 319.479 230.3 318.732C229.983 317.985 229.824 317.108 229.824 316.1C229.824 315.092 229.983 314.215 230.3 313.468C230.627 312.721 231.079 312.147 231.658 311.746C232.246 311.335 232.913 311.13 233.66 311.13C234.407 311.13 235.069 311.335 235.648 311.746C236.236 312.147 236.689 312.721 237.006 313.468C237.333 314.215 237.496 315.092 237.496 316.1C237.496 317.108 237.333 317.985 237.006 318.732C236.689 319.479 236.236 320.057 235.648 320.468C235.069 320.869 234.407 321.07 233.66 321.07ZM233.66 320.412C234.276 320.412 234.817 320.244 235.284 319.908C235.76 319.563 236.129 319.068 236.39 318.424C236.651 317.771 236.782 316.996 236.782 316.1C236.782 315.204 236.651 314.434 236.39 313.79C236.129 313.137 235.76 312.642 235.284 312.306C234.817 311.961 234.276 311.788 233.66 311.788C233.044 311.788 232.498 311.961 232.022 312.306C231.555 312.642 231.191 313.137 230.93 313.79C230.669 314.434 230.538 315.204 230.538 316.1C230.538 316.996 230.669 317.771 230.93 318.424C231.191 319.068 231.555 319.563 232.022 319.908C232.498 320.244 233.044 320.412 233.66 320.412ZM243.295 321.07C242.548 321.07 241.881 320.869 241.293 320.468C240.714 320.057 240.261 319.479 239.935 318.732C239.617 317.985 239.459 317.108 239.459 316.1C239.459 315.092 239.617 314.215 239.935 313.468C240.261 312.721 240.714 312.147 241.293 311.746C241.881 311.335 242.548 311.13 243.295 311.13C244.041 311.13 244.704 311.335 245.283 311.746C245.871 312.147 246.323 312.721 246.641 313.468C246.967 314.215 247.131 315.092 247.131 316.1C247.131 317.108 246.967 317.985 246.641 318.732C246.323 319.479 245.871 320.057 245.283 320.468C244.704 320.869 244.041 321.07 243.295 321.07ZM243.295 320.412C243.911 320.412 244.452 320.244 244.919 319.908C245.395 319.563 245.763 319.068 246.025 318.424C246.286 317.771 246.417 316.996 246.417 316.1C246.417 315.204 246.286 314.434 246.025 313.79C245.763 313.137 245.395 312.642 244.919 312.306C244.452 311.961 243.911 311.788 243.295 311.788C242.679 311.788 242.133 311.961 241.657 312.306C241.19 312.642 240.826 313.137 240.565 313.79C240.303 314.434 240.173 315.204 240.173 316.1C240.173 316.996 240.303 317.771 240.565 318.424C240.826 319.068 241.19 319.563 241.657 319.908C242.133 320.244 242.679 320.412 243.295 320.412ZM249.315 316.926H252.913V317.556H249.315V316.926ZM263.268 318.284H261.21V321H260.51V318.284H254.924V317.766L260.244 311.2H261.042L255.82 317.654H260.524V315.26H261.21V317.654H263.268V318.284ZM268.508 321.07C267.761 321.07 267.094 320.869 266.506 320.468C265.927 320.057 265.475 319.479 265.148 318.732C264.831 317.985 264.672 317.108 264.672 316.1C264.672 315.092 264.831 314.215 265.148 313.468C265.475 312.721 265.927 312.147 266.506 311.746C267.094 311.335 267.761 311.13 268.508 311.13C269.255 311.13 269.917 311.335 270.496 311.746C271.084 312.147 271.537 312.721 271.854 313.468C272.181 314.215 272.344 315.092 272.344 316.1C272.344 317.108 272.181 317.985 271.854 318.732C271.537 319.479 271.084 320.057 270.496 320.468C269.917 320.869 269.255 321.07 268.508 321.07ZM268.508 320.412C269.124 320.412 269.665 320.244 270.132 319.908C270.608 319.563 270.977 319.068 271.238 318.424C271.499 317.771 271.63 316.996 271.63 316.1C271.63 315.204 271.499 314.434 271.238 313.79C270.977 313.137 270.608 312.642 270.132 312.306C269.665 311.961 269.124 311.788 268.508 311.788C267.892 311.788 267.346 311.961 266.87 312.306C266.403 312.642 266.039 313.137 265.778 313.79C265.517 314.434 265.386 315.204 265.386 316.1C265.386 316.996 265.517 317.771 265.778 318.424C266.039 319.068 266.403 319.563 266.87 319.908C267.346 320.244 267.892 320.412 268.508 320.412ZM278.143 321.07C277.396 321.07 276.729 320.869 276.141 320.468C275.562 320.057 275.109 319.479 274.783 318.732C274.465 317.985 274.307 317.108 274.307 316.1C274.307 315.092 274.465 314.215 274.783 313.468C275.109 312.721 275.562 312.147 276.141 311.746C276.729 311.335 277.396 311.13 278.143 311.13C278.889 311.13 279.552 311.335 280.131 311.746C280.719 312.147 281.171 312.721 281.489 313.468C281.815 314.215 281.979 315.092 281.979 316.1C281.979 317.108 281.815 317.985 281.489 318.732C281.171 319.479 280.719 320.057 280.131 320.468C279.552 320.869 278.889 321.07 278.143 321.07ZM278.143 320.412C278.759 320.412 279.3 320.244 279.767 319.908C280.243 319.563 280.611 319.068 280.873 318.424C281.134 317.771 281.265 316.996 281.265 316.1C281.265 315.204 281.134 314.434 280.873 313.79C280.611 313.137 280.243 312.642 279.767 312.306C279.3 311.961 278.759 311.788 278.143 311.788C277.527 311.788 276.981 311.961 276.505 312.306C276.038 312.642 275.674 313.137 275.413 313.79C275.151 314.434 275.021 315.204 275.021 316.1C275.021 316.996 275.151 317.771 275.413 318.424C275.674 319.068 276.038 319.563 276.505 319.908C276.981 320.244 277.527 320.412 278.143 320.412ZM287.467 323.772C287.159 323.772 286.875 323.73 286.613 323.646C286.343 323.562 286.123 323.441 285.955 323.282L286.235 322.764C286.534 323.035 286.931 323.17 287.425 323.17C287.855 323.17 288.181 323.044 288.405 322.792C288.629 322.54 288.741 322.176 288.741 321.7V313.692H289.441V321.728C289.441 322.353 289.269 322.848 288.923 323.212C288.578 323.585 288.093 323.772 287.467 323.772ZM289.091 311.914C288.933 311.914 288.797 311.863 288.685 311.76C288.573 311.648 288.517 311.513 288.517 311.354C288.517 311.195 288.573 311.06 288.685 310.948C288.797 310.836 288.933 310.78 289.091 310.78C289.25 310.78 289.385 310.836 289.497 310.948C289.609 311.051 289.665 311.181 289.665 311.34C289.665 311.499 289.609 311.634 289.497 311.746C289.385 311.858 289.25 311.914 289.091 311.914ZM295.274 313.636C296.179 313.636 296.875 313.869 297.36 314.336C297.845 314.793 298.088 315.47 298.088 316.366V321H297.416V319.698C297.183 320.127 296.842 320.463 296.394 320.706C295.946 320.939 295.409 321.056 294.784 321.056C293.972 321.056 293.328 320.865 292.852 320.482C292.385 320.099 292.152 319.595 292.152 318.97C292.152 318.363 292.367 317.873 292.796 317.5C293.235 317.117 293.93 316.926 294.882 316.926H297.388V316.338C297.388 315.657 297.201 315.139 296.828 314.784C296.464 314.429 295.927 314.252 295.218 314.252C294.733 314.252 294.266 314.336 293.818 314.504C293.379 314.672 293.006 314.896 292.698 315.176L292.348 314.672C292.712 314.345 293.151 314.093 293.664 313.916C294.177 313.729 294.714 313.636 295.274 313.636ZM294.882 320.482C295.489 320.482 296.002 320.342 296.422 320.062C296.851 319.782 297.173 319.376 297.388 318.844V317.472H294.896C294.177 317.472 293.655 317.603 293.328 317.864C293.011 318.125 292.852 318.485 292.852 318.942C292.852 319.418 293.029 319.796 293.384 320.076C293.739 320.347 294.238 320.482 294.882 320.482ZM303.856 313.636C304.761 313.636 305.457 313.869 305.942 314.336C306.427 314.793 306.67 315.47 306.67 316.366V321H305.998V319.698C305.765 320.127 305.424 320.463 304.976 320.706C304.528 320.939 303.991 321.056 303.366 321.056C302.554 321.056 301.91 320.865 301.434 320.482C300.967 320.099 300.734 319.595 300.734 318.97C300.734 318.363 300.949 317.873 301.378 317.5C301.817 317.117 302.512 316.926 303.464 316.926H305.97V316.338C305.97 315.657 305.783 315.139 305.41 314.784C305.046 314.429 304.509 314.252 303.8 314.252C303.315 314.252 302.848 314.336 302.4 314.504C301.961 314.672 301.588 314.896 301.28 315.176L300.93 314.672C301.294 314.345 301.733 314.093 302.246 313.916C302.759 313.729 303.296 313.636 303.856 313.636ZM303.464 320.482C304.071 320.482 304.584 320.342 305.004 320.062C305.433 319.782 305.755 319.376 305.97 318.844V317.472H303.478C302.759 317.472 302.237 317.603 301.91 317.864C301.593 318.125 301.434 318.485 301.434 318.942C301.434 319.418 301.611 319.796 301.966 320.076C302.321 320.347 302.82 320.482 303.464 320.482ZM310.646 315.288C310.87 314.756 311.22 314.35 311.696 314.07C312.172 313.781 312.751 313.636 313.432 313.636V314.322L313.264 314.308C312.452 314.308 311.818 314.565 311.36 315.078C310.903 315.582 310.674 316.287 310.674 317.192V321H309.974V313.692H310.646V315.288Z" fill="white"/>
<path d="M228.198 341.47C229.281 341.498 230.102 341.764 230.662 342.268C231.232 342.763 231.516 343.421 231.516 344.242C231.516 344.793 231.386 345.283 231.124 345.712C230.863 346.132 230.471 346.463 229.948 346.706C229.435 346.949 228.814 347.07 228.086 347.07C227.377 347.07 226.71 346.953 226.084 346.72C225.459 346.477 224.974 346.155 224.628 345.754L224.992 345.208C225.31 345.563 225.739 345.852 226.28 346.076C226.831 346.3 227.433 346.412 228.086 346.412C228.954 346.412 229.622 346.221 230.088 345.838C230.555 345.446 230.788 344.914 230.788 344.242C230.788 343.561 230.55 343.029 230.074 342.646C229.598 342.263 228.884 342.072 227.932 342.072H227.316V341.554L230.214 337.844H224.992V337.2H231.138V337.704L228.198 341.47ZM235.7 341.302C237.128 341.302 238.164 341.554 238.808 342.058C239.452 342.553 239.774 343.257 239.774 344.172C239.774 344.732 239.644 345.231 239.382 345.67C239.13 346.099 238.748 346.44 238.234 346.692C237.721 346.944 237.091 347.07 236.344 347.07C235.635 347.07 234.968 346.949 234.342 346.706C233.726 346.463 233.246 346.146 232.9 345.754L233.264 345.208C233.572 345.563 233.997 345.852 234.538 346.076C235.089 346.3 235.686 346.412 236.33 346.412C237.208 346.412 237.88 346.211 238.346 345.81C238.822 345.409 239.06 344.872 239.06 344.2C239.06 343.463 238.79 342.903 238.248 342.52C237.716 342.137 236.816 341.946 235.546 341.946H233.558L234.076 337.2H239.27V337.844H234.678L234.3 341.302H235.7ZM241.631 342.926H245.229V343.556H241.631V342.926ZM255.584 344.284H253.526V347H252.826V344.284H247.24V343.766L252.56 337.2H253.358L248.136 343.654H252.84V341.26H253.526V343.654H255.584V344.284ZM260.824 347.07C260.078 347.07 259.41 346.869 258.822 346.468C258.244 346.057 257.791 345.479 257.464 344.732C257.147 343.985 256.988 343.108 256.988 342.1C256.988 341.092 257.147 340.215 257.464 339.468C257.791 338.721 258.244 338.147 258.822 337.746C259.41 337.335 260.078 337.13 260.824 337.13C261.571 337.13 262.234 337.335 262.812 337.746C263.4 338.147 263.853 338.721 264.17 339.468C264.497 340.215 264.66 341.092 264.66 342.1C264.66 343.108 264.497 343.985 264.17 344.732C263.853 345.479 263.4 346.057 262.812 346.468C262.234 346.869 261.571 347.07 260.824 347.07ZM260.824 346.412C261.44 346.412 261.982 346.244 262.448 345.908C262.924 345.563 263.293 345.068 263.554 344.424C263.816 343.771 263.946 342.996 263.946 342.1C263.946 341.204 263.816 340.434 263.554 339.79C263.293 339.137 262.924 338.642 262.448 338.306C261.982 337.961 261.44 337.788 260.824 337.788C260.208 337.788 259.662 337.961 259.186 338.306C258.72 338.642 258.356 339.137 258.094 339.79C257.833 340.434 257.702 341.204 257.702 342.1C257.702 342.996 257.833 343.771 258.094 344.424C258.356 345.068 258.72 345.563 259.186 345.908C259.662 346.244 260.208 346.412 260.824 346.412ZM280.453 339.636C281.358 339.636 282.068 339.902 282.581 340.434C283.104 340.966 283.365 341.731 283.365 342.73V347H282.665V342.786C282.665 341.965 282.464 341.339 282.063 340.91C281.662 340.481 281.102 340.266 280.383 340.266C279.562 340.266 278.908 340.523 278.423 341.036C277.947 341.549 277.709 342.24 277.709 343.108V347H277.009V342.786C277.009 341.965 276.808 341.339 276.407 340.91C276.006 340.481 275.446 340.266 274.727 340.266C273.906 340.266 273.252 340.523 272.767 341.036C272.291 341.549 272.053 342.24 272.053 343.108V347H271.353V339.692H272.025V341.26C272.268 340.747 272.627 340.35 273.103 340.07C273.588 339.781 274.162 339.636 274.825 339.636C275.488 339.636 276.048 339.785 276.505 340.084C276.972 340.383 277.303 340.821 277.499 341.4C277.742 340.859 278.12 340.429 278.633 340.112C279.156 339.795 279.762 339.636 280.453 339.636ZM292.863 343.514H286.577C286.596 344.083 286.74 344.592 287.011 345.04C287.282 345.479 287.646 345.819 288.103 346.062C288.57 346.305 289.092 346.426 289.671 346.426C290.147 346.426 290.586 346.342 290.987 346.174C291.398 345.997 291.738 345.74 292.009 345.404L292.415 345.866C292.098 346.249 291.696 346.543 291.211 346.748C290.735 346.953 290.217 347.056 289.657 347.056C288.929 347.056 288.28 346.897 287.711 346.58C287.142 346.263 286.694 345.824 286.367 345.264C286.05 344.704 285.891 344.065 285.891 343.346C285.891 342.637 286.04 342.002 286.339 341.442C286.647 340.873 287.067 340.429 287.599 340.112C288.131 339.795 288.728 339.636 289.391 339.636C290.054 339.636 290.646 339.795 291.169 340.112C291.701 340.42 292.116 340.854 292.415 341.414C292.723 341.974 292.877 342.609 292.877 343.318L292.863 343.514ZM289.391 340.252C288.878 340.252 288.416 340.369 288.005 340.602C287.594 340.826 287.263 341.148 287.011 341.568C286.768 341.979 286.628 342.445 286.591 342.968H292.191C292.163 342.445 292.023 341.979 291.771 341.568C291.519 341.157 291.188 340.835 290.777 340.602C290.366 340.369 289.904 340.252 289.391 340.252ZM299.088 346.538C298.911 346.706 298.687 346.837 298.416 346.93C298.155 347.014 297.88 347.056 297.59 347.056C296.956 347.056 296.466 346.883 296.12 346.538C295.775 346.183 295.602 345.693 295.602 345.068V340.294H294.258V339.692H295.602V338.096H296.302V339.692H298.626V340.294H296.302V344.998C296.302 345.474 296.414 345.838 296.638 346.09C296.872 346.333 297.212 346.454 297.66 346.454C298.118 346.454 298.496 346.319 298.794 346.048L299.088 346.538ZM307.375 343.514H301.089C301.107 344.083 301.252 344.592 301.523 345.04C301.793 345.479 302.157 345.819 302.615 346.062C303.081 346.305 303.604 346.426 304.183 346.426C304.659 346.426 305.097 346.342 305.499 346.174C305.909 345.997 306.25 345.74 306.521 345.404L306.927 345.866C306.609 346.249 306.208 346.543 305.723 346.748C305.247 346.953 304.729 347.056 304.169 347.056C303.441 347.056 302.792 346.897 302.223 346.58C301.653 346.263 301.205 345.824 300.879 345.264C300.561 344.704 300.403 344.065 300.403 343.346C300.403 342.637 300.552 342.002 300.851 341.442C301.159 340.873 301.579 340.429 302.111 340.112C302.643 339.795 303.24 339.636 303.903 339.636C304.565 339.636 305.158 339.795 305.681 340.112C306.213 340.42 306.628 340.854 306.927 341.414C307.235 341.974 307.389 342.609 307.389 343.318L307.375 343.514ZM303.903 340.252C303.389 340.252 302.927 340.369 302.517 340.602C302.106 340.826 301.775 341.148 301.523 341.568C301.28 341.979 301.14 342.445 301.103 342.968H306.703C306.675 342.445 306.535 341.979 306.283 341.568C306.031 341.157 305.699 340.835 305.289 340.602C304.878 340.369 304.416 340.252 303.903 340.252ZM310.646 341.288C310.87 340.756 311.22 340.35 311.696 340.07C312.172 339.781 312.751 339.636 313.432 339.636V340.322L313.264 340.308C312.452 340.308 311.818 340.565 311.36 341.078C310.903 341.582 310.674 342.287 310.674 343.192V347H309.974V339.692H310.646V341.288Z" fill="white"/>
<path d="M31.688 259.2V269H31.1L24.422 260.488V269H23.708V259.2H24.31L30.974 267.712V259.2H31.688ZM37.7703 261.636C38.6757 261.636 39.371 261.869 39.8563 262.336C40.3417 262.793 40.5843 263.47 40.5843 264.366V269H39.9123V267.698C39.679 268.127 39.3383 268.463 38.8903 268.706C38.4423 268.939 37.9057 269.056 37.2803 269.056C36.4683 269.056 35.8243 268.865 35.3483 268.482C34.8817 268.099 34.6483 267.595 34.6483 266.97C34.6483 266.363 34.863 265.873 35.2923 265.5C35.731 265.117 36.4263 264.926 37.3783 264.926H39.8843V264.338C39.8843 263.657 39.6977 263.139 39.3243 262.784C38.9603 262.429 38.4237 262.252 37.7143 262.252C37.229 262.252 36.7623 262.336 36.3143 262.504C35.8757 262.672 35.5023 262.896 35.1943 263.176L34.8443 262.672C35.2083 262.345 35.647 262.093 36.1603 261.916C36.6737 261.729 37.2103 261.636 37.7703 261.636ZM37.3783 268.482C37.985 268.482 38.4983 268.342 38.9183 268.062C39.3477 267.782 39.6697 267.376 39.8843 266.844V265.472H37.3923C36.6737 265.472 36.151 265.603 35.8243 265.864C35.507 266.125 35.3483 266.485 35.3483 266.942C35.3483 267.418 35.5257 267.796 35.8803 268.076C36.235 268.347 36.7343 268.482 37.3783 268.482ZM46.3525 261.636C47.2578 261.636 47.9531 261.869 48.4385 262.336C48.9238 262.793 49.1665 263.47 49.1665 264.366V269H48.4945V267.698C48.2611 268.127 47.9205 268.463 47.4725 268.706C47.0245 268.939 46.4878 269.056 45.8625 269.056C45.0505 269.056 44.4065 268.865 43.9305 268.482C43.4638 268.099 43.2305 267.595 43.2305 266.97C43.2305 266.363 43.4451 265.873 43.8745 265.5C44.3131 265.117 45.0085 264.926 45.9605 264.926H48.4665V264.338C48.4665 263.657 48.2798 263.139 47.9065 262.784C47.5425 262.429 47.0058 262.252 46.2965 262.252C45.8111 262.252 45.3445 262.336 44.8965 262.504C44.4578 262.672 44.0845 262.896 43.7765 263.176L43.4265 262.672C43.7905 262.345 44.2291 262.093 44.7425 261.916C45.2558 261.729 45.7925 261.636 46.3525 261.636ZM45.9605 268.482C46.5671 268.482 47.0805 268.342 47.5005 268.062C47.9298 267.782 48.2518 267.376 48.4665 266.844V265.472H45.9745C45.2558 265.472 44.7331 265.603 44.4065 265.864C44.0891 266.125 43.9305 266.485 43.9305 266.942C43.9305 267.418 44.1078 267.796 44.4625 268.076C44.8171 268.347 45.3165 268.482 45.9605 268.482ZM61.5706 261.636C62.4759 261.636 63.1852 261.902 63.6986 262.434C64.2212 262.966 64.4826 263.731 64.4826 264.73V269H63.7826V264.786C63.7826 263.965 63.5819 263.339 63.1806 262.91C62.7792 262.481 62.2192 262.266 61.5006 262.266C60.6792 262.266 60.0259 262.523 59.5406 263.036C59.0646 263.549 58.8266 264.24 58.8266 265.108V269H58.1266V264.786C58.1266 263.965 57.9259 263.339 57.5246 262.91C57.1232 262.481 56.5632 262.266 55.8446 262.266C55.0232 262.266 54.3699 262.523 53.8846 263.036C53.4086 263.549 53.1706 264.24 53.1706 265.108V269H52.4706V261.692H53.1426V263.26C53.3852 262.747 53.7446 262.35 54.2206 262.07C54.7059 261.781 55.2799 261.636 55.9426 261.636C56.6052 261.636 57.1652 261.785 57.6226 262.084C58.0892 262.383 58.4206 262.821 58.6166 263.4C58.8592 262.859 59.2372 262.429 59.7506 262.112C60.2732 261.795 60.8799 261.636 61.5706 261.636Z" fill="white"/>
<path d="M23.422 285.844V290.03H28.644V290.674H23.422V295H22.708V285.2H29.26V285.844H23.422ZM33.8719 287.636C34.7772 287.636 35.4726 287.869 35.9579 288.336C36.4432 288.793 36.6859 289.47 36.6859 290.366V295H36.0139V293.698C35.7806 294.127 35.4399 294.463 34.9919 294.706C34.5439 294.939 34.0072 295.056 33.3819 295.056C32.5699 295.056 31.9259 294.865 31.4499 294.482C30.9832 294.099 30.7499 293.595 30.7499 292.97C30.7499 292.363 30.9646 291.873 31.3939 291.5C31.8326 291.117 32.5279 290.926 33.4799 290.926H35.9859V290.338C35.9859 289.657 35.7992 289.139 35.4259 288.784C35.0619 288.429 34.5252 288.252 33.8159 288.252C33.3306 288.252 32.8639 288.336 32.4159 288.504C31.9772 288.672 31.6039 288.896 31.2959 289.176L30.9459 288.672C31.3099 288.345 31.7486 288.093 32.2619 287.916C32.7752 287.729 33.3119 287.636 33.8719 287.636ZM33.4799 294.482C34.0866 294.482 34.5999 294.342 35.0199 294.062C35.4492 293.782 35.7712 293.376 35.9859 292.844V291.472H33.4939C32.7752 291.472 32.2526 291.603 31.9259 291.864C31.6086 292.125 31.4499 292.485 31.4499 292.942C31.4499 293.418 31.6272 293.796 31.9819 294.076C32.3366 294.347 32.8359 294.482 33.4799 294.482ZM49.09 287.636C49.9953 287.636 50.7047 287.902 51.218 288.434C51.7407 288.966 52.002 289.731 52.002 290.73V295H51.302V290.786C51.302 289.965 51.1013 289.339 50.7 288.91C50.2987 288.481 49.7387 288.266 49.02 288.266C48.1987 288.266 47.5453 288.523 47.06 289.036C46.584 289.549 46.346 290.24 46.346 291.108V295H45.646V290.786C45.646 289.965 45.4453 289.339 45.044 288.91C44.6427 288.481 44.0827 288.266 43.364 288.266C42.5427 288.266 41.8893 288.523 41.404 289.036C40.928 289.549 40.69 290.24 40.69 291.108V295H39.99V287.692H40.662V289.26C40.9047 288.747 41.264 288.35 41.74 288.07C42.2253 287.781 42.7993 287.636 43.462 287.636C44.1247 287.636 44.6847 287.785 45.142 288.084C45.6087 288.383 45.94 288.821 46.136 289.4C46.3787 288.859 46.7567 288.429 47.27 288.112C47.7927 287.795 48.3993 287.636 49.09 287.636ZM55.3124 287.692H56.0124V295H55.3124V287.692ZM55.6624 285.914C55.5037 285.914 55.3684 285.863 55.2564 285.76C55.1444 285.648 55.0884 285.513 55.0884 285.354C55.0884 285.195 55.1444 285.06 55.2564 284.948C55.3684 284.836 55.5037 284.78 55.6624 284.78C55.821 284.78 55.9564 284.836 56.0684 284.948C56.1804 285.051 56.2364 285.181 56.2364 285.34C56.2364 285.499 56.1804 285.634 56.0684 285.746C55.9564 285.858 55.821 285.914 55.6624 285.914ZM59.3828 284.612H60.0828V295H59.3828V284.612ZM63.4531 287.692H64.1531V295H63.4531V287.692ZM63.8031 285.914C63.6445 285.914 63.5091 285.863 63.3971 285.76C63.2851 285.648 63.2291 285.513 63.2291 285.354C63.2291 285.195 63.2851 285.06 63.3971 284.948C63.5091 284.836 63.6445 284.78 63.8031 284.78C63.9618 284.78 64.0971 284.836 64.2091 284.948C64.3211 285.051 64.3771 285.181 64.3771 285.34C64.3771 285.499 64.3211 285.634 64.2091 285.746C64.0971 285.858 63.9618 285.914 63.8031 285.914ZM73.6975 291.514H67.4115C67.4302 292.083 67.5749 292.592 67.8455 293.04C68.1162 293.479 68.4802 293.819 68.9375 294.062C69.4042 294.305 69.9269 294.426 70.5055 294.426C70.9815 294.426 71.4202 294.342 71.8215 294.174C72.2322 293.997 72.5729 293.74 72.8435 293.404L73.2495 293.866C72.9322 294.249 72.5309 294.543 72.0455 294.748C71.5695 294.953 71.0515 295.056 70.4915 295.056C69.7635 295.056 69.1149 294.897 68.5455 294.58C67.9762 294.263 67.5282 293.824 67.2015 293.264C66.8842 292.704 66.7255 292.065 66.7255 291.346C66.7255 290.637 66.8749 290.002 67.1735 289.442C67.4815 288.873 67.9015 288.429 68.4335 288.112C68.9655 287.795 69.5629 287.636 70.2255 287.636C70.8882 287.636 71.4809 287.795 72.0035 288.112C72.5355 288.42 72.9509 288.854 73.2495 289.414C73.5575 289.974 73.7115 290.609 73.7115 291.318L73.6975 291.514ZM70.2255 288.252C69.7122 288.252 69.2502 288.369 68.8395 288.602C68.4289 288.826 68.0975 289.148 67.8455 289.568C67.6029 289.979 67.4629 290.445 67.4255 290.968H73.0255C72.9975 290.445 72.8575 289.979 72.6055 289.568C72.3535 289.157 72.0222 288.835 71.6115 288.602C71.2009 288.369 70.7389 288.252 70.2255 288.252Z" fill="white"/>
<path d="M23.708 311.2H24.422V320.356H30.064V321H23.708V311.2ZM38.1444 317.514H31.8584C31.8771 318.083 32.0217 318.592 32.2924 319.04C32.5631 319.479 32.9271 319.819 33.3844 320.062C33.8511 320.305 34.3737 320.426 34.9524 320.426C35.4284 320.426 35.8671 320.342 36.2684 320.174C36.6791 319.997 37.0197 319.74 37.2904 319.404L37.6964 319.866C37.3791 320.249 36.9777 320.543 36.4924 320.748C36.0164 320.953 35.4984 321.056 34.9384 321.056C34.2104 321.056 33.5617 320.897 32.9924 320.58C32.4231 320.263 31.9751 319.824 31.6484 319.264C31.3311 318.704 31.1724 318.065 31.1724 317.346C31.1724 316.637 31.3217 316.002 31.6204 315.442C31.9284 314.873 32.3484 314.429 32.8804 314.112C33.4124 313.795 34.0097 313.636 34.6724 313.636C35.3351 313.636 35.9277 313.795 36.4504 314.112C36.9824 314.42 37.3977 314.854 37.6964 315.414C38.0044 315.974 38.1584 316.609 38.1584 317.318L38.1444 317.514ZM34.6724 314.252C34.1591 314.252 33.6971 314.369 33.2864 314.602C32.8757 314.826 32.5444 315.148 32.2924 315.568C32.0497 315.979 31.9097 316.445 31.8724 316.968H37.4724C37.4444 316.445 37.3044 315.979 37.0524 315.568C36.8004 315.157 36.4691 314.835 36.0584 314.602C35.6477 314.369 35.1857 314.252 34.6724 314.252ZM46.9179 317.514H40.6319C40.6506 318.083 40.7953 318.592 41.0659 319.04C41.3366 319.479 41.7006 319.819 42.1579 320.062C42.6246 320.305 43.1473 320.426 43.7259 320.426C44.2019 320.426 44.6406 320.342 45.0419 320.174C45.4526 319.997 45.7933 319.74 46.0639 319.404L46.4699 319.866C46.1526 320.249 45.7513 320.543 45.2659 320.748C44.7899 320.953 44.2719 321.056 43.7119 321.056C42.9839 321.056 42.3353 320.897 41.7659 320.58C41.1966 320.263 40.7486 319.824 40.4219 319.264C40.1046 318.704 39.9459 318.065 39.9459 317.346C39.9459 316.637 40.0953 316.002 40.3939 315.442C40.7019 314.873 41.1219 314.429 41.6539 314.112C42.1859 313.795 42.7833 313.636 43.4459 313.636C44.1086 313.636 44.7013 313.795 45.2239 314.112C45.7559 314.42 46.1713 314.854 46.4699 315.414C46.7779 315.974 46.9319 316.609 46.9319 317.318L46.9179 317.514ZM43.4459 314.252C42.9326 314.252 42.4706 314.369 42.0599 314.602C41.6493 314.826 41.3179 315.148 41.0659 315.568C40.8233 315.979 40.6833 316.445 40.6459 316.968H46.2459C46.2179 316.445 46.0779 315.979 45.8259 315.568C45.5739 315.157 45.2426 314.835 44.8319 314.602C44.4213 314.369 43.9593 314.252 43.4459 314.252ZM51.7154 311.158C50.8008 311.158 50.3434 311.648 50.3434 312.628V313.692H52.6814V314.294H50.3574V321H49.6574V314.294H48.3134V313.692H49.6574V312.572C49.6574 311.956 49.8348 311.466 50.1894 311.102C50.5441 310.738 51.0434 310.556 51.6874 310.556C51.9674 310.556 52.2334 310.598 52.4854 310.682C52.7468 310.757 52.9614 310.873 53.1294 311.032L52.8494 311.564C52.5508 311.293 52.1728 311.158 51.7154 311.158ZM58.1572 320.538C57.9799 320.706 57.7559 320.837 57.4852 320.93C57.2239 321.014 56.9485 321.056 56.6592 321.056C56.0245 321.056 55.5345 320.883 55.1892 320.538C54.8439 320.183 54.6712 319.693 54.6712 319.068V314.294H53.3272V313.692H54.6712V312.096H55.3712V313.692H57.6952V314.294H55.3712V318.998C55.3712 319.474 55.4832 319.838 55.7072 320.09C55.9405 320.333 56.2812 320.454 56.7292 320.454C57.1865 320.454 57.5645 320.319 57.8632 320.048L58.1572 320.538ZM60.5293 313.692H61.2293V321H60.5293V313.692ZM60.8793 311.914C60.7206 311.914 60.5853 311.863 60.4733 311.76C60.3613 311.648 60.3053 311.513 60.3053 311.354C60.3053 311.195 60.3613 311.06 60.4733 310.948C60.5853 310.836 60.7206 310.78 60.8793 310.78C61.038 310.78 61.1733 310.836 61.2853 310.948C61.3973 311.051 61.4533 311.181 61.4533 311.34C61.4533 311.499 61.3973 311.634 61.2853 311.746C61.1733 311.858 61.038 311.914 60.8793 311.914ZM63.3957 323.772C63.0877 323.772 62.803 323.73 62.5417 323.646C62.271 323.562 62.0517 323.441 61.8837 323.282L62.1637 322.764C62.4624 323.035 62.859 323.17 63.3537 323.17C63.783 323.17 64.1097 323.044 64.3337 322.792C64.5577 322.54 64.6697 322.176 64.6697 321.7V313.692H65.3697V321.728C65.3697 322.353 65.197 322.848 64.8517 323.212C64.5064 323.585 64.021 323.772 63.3957 323.772ZM65.0197 311.914C64.861 311.914 64.7257 311.863 64.6137 311.76C64.5017 311.648 64.4457 311.513 64.4457 311.354C64.4457 311.195 64.5017 311.06 64.6137 310.948C64.7257 310.836 64.861 310.78 65.0197 310.78C65.1784 310.78 65.3137 310.836 65.4257 310.948C65.5377 311.051 65.5937 311.181 65.5937 311.34C65.5937 311.499 65.5377 311.634 65.4257 311.746C65.3137 311.858 65.1784 311.914 65.0197 311.914ZM75.2345 310.612V321H74.5485V319.278C74.2591 319.847 73.8531 320.286 73.3305 320.594C72.8078 320.902 72.2151 321.056 71.5525 321.056C70.8711 321.056 70.2551 320.897 69.7045 320.58C69.1538 320.263 68.7198 319.824 68.4025 319.264C68.0945 318.704 67.9405 318.065 67.9405 317.346C67.9405 316.627 68.0945 315.988 68.4025 315.428C68.7198 314.859 69.1538 314.42 69.7045 314.112C70.2551 313.795 70.8711 313.636 71.5525 313.636C72.2058 313.636 72.7891 313.79 73.3025 314.098C73.8251 314.406 74.2358 314.835 74.5345 315.386V310.612H75.2345ZM71.5945 320.426C72.1545 320.426 72.6538 320.295 73.0925 320.034C73.5405 319.773 73.8905 319.409 74.1425 318.942C74.4038 318.475 74.5345 317.943 74.5345 317.346C74.5345 316.749 74.4038 316.217 74.1425 315.75C73.8905 315.283 73.5405 314.919 73.0925 314.658C72.6538 314.397 72.1545 314.266 71.5945 314.266C71.0345 314.266 70.5305 314.397 70.0825 314.658C69.6438 314.919 69.2938 315.283 69.0325 315.75C68.7805 316.217 68.6545 316.749 68.6545 317.346C68.6545 317.943 68.7805 318.475 69.0325 318.942C69.2938 319.409 69.6438 319.773 70.0825 320.034C70.5305 320.295 71.0345 320.426 71.5945 320.426Z" fill="white"/>
<path d="M22.708 337.2H23.422V346.356H29.064V347H22.708V337.2ZM37.1444 343.514H30.8584C30.8771 344.083 31.0217 344.592 31.2924 345.04C31.5631 345.479 31.9271 345.819 32.3844 346.062C32.8511 346.305 33.3737 346.426 33.9524 346.426C34.4284 346.426 34.8671 346.342 35.2684 346.174C35.6791 345.997 36.0197 345.74 36.2904 345.404L36.6964 345.866C36.3791 346.249 35.9777 346.543 35.4924 346.748C35.0164 346.953 34.4984 347.056 33.9384 347.056C33.2104 347.056 32.5617 346.897 31.9924 346.58C31.4231 346.263 30.9751 345.824 30.6484 345.264C30.3311 344.704 30.1724 344.065 30.1724 343.346C30.1724 342.637 30.3217 342.002 30.6204 341.442C30.9284 340.873 31.3484 340.429 31.8804 340.112C32.4124 339.795 33.0097 339.636 33.6724 339.636C34.3351 339.636 34.9277 339.795 35.4504 340.112C35.9824 340.42 36.3977 340.854 36.6964 341.414C37.0044 341.974 37.1584 342.609 37.1584 343.318L37.1444 343.514ZM33.6724 340.252C33.1591 340.252 32.6971 340.369 32.2864 340.602C31.8757 340.826 31.5444 341.148 31.2924 341.568C31.0497 341.979 30.9097 342.445 30.8724 342.968H36.4724C36.4444 342.445 36.3044 341.979 36.0524 341.568C35.8004 341.157 35.4691 340.835 35.0584 340.602C34.6477 340.369 34.1857 340.252 33.6724 340.252ZM43.3139 339.636C44.2286 339.636 44.9519 339.902 45.4839 340.434C46.0159 340.966 46.2819 341.731 46.2819 342.73V347H45.5819V342.786C45.5819 341.965 45.3719 341.339 44.9519 340.91C44.5413 340.481 43.9626 340.266 43.2159 340.266C42.3573 340.266 41.6806 340.523 41.1859 341.036C40.6913 341.549 40.4439 342.24 40.4439 343.108V347H39.7439V339.692H40.4159V341.274C40.6679 340.761 41.0413 340.359 41.5359 340.07C42.0399 339.781 42.6326 339.636 43.3139 339.636ZM56.1775 339.692V346.216C56.1775 347.429 55.8835 348.325 55.2955 348.904C54.7075 349.483 53.8208 349.772 52.6355 349.772C51.9635 349.772 51.3288 349.669 50.7315 349.464C50.1342 349.259 49.6535 348.974 49.2895 348.61L49.6675 348.078C50.0315 348.414 50.4702 348.675 50.9835 348.862C51.4968 349.049 52.0428 349.142 52.6215 349.142C53.5922 349.142 54.3108 348.909 54.7775 348.442C55.2442 347.985 55.4775 347.271 55.4775 346.3V345.068C55.1788 345.6 54.7635 346.011 54.2315 346.3C53.6995 346.589 53.1022 346.734 52.4395 346.734C51.7582 346.734 51.1375 346.585 50.5775 346.286C50.0268 345.978 49.5928 345.553 49.2755 345.012C48.9582 344.471 48.7995 343.859 48.7995 343.178C48.7995 342.497 48.9582 341.885 49.2755 341.344C49.5928 340.803 50.0268 340.383 50.5775 340.084C51.1375 339.785 51.7582 339.636 52.4395 339.636C53.1115 339.636 53.7182 339.785 54.2595 340.084C54.8008 340.383 55.2162 340.803 55.5055 341.344V339.692H56.1775ZM52.4955 346.104C53.0648 346.104 53.5782 345.983 54.0355 345.74C54.4928 345.488 54.8475 345.143 55.0995 344.704C55.3608 344.256 55.4915 343.747 55.4915 343.178C55.4915 342.609 55.3608 342.105 55.0995 341.666C54.8475 341.227 54.4928 340.887 54.0355 340.644C53.5782 340.392 53.0648 340.266 52.4955 340.266C51.9262 340.266 51.4128 340.392 50.9555 340.644C50.5075 340.887 50.1528 341.227 49.8915 341.666C49.6395 342.105 49.5135 342.609 49.5135 343.178C49.5135 343.747 49.6395 344.256 49.8915 344.704C50.1528 345.143 50.5075 345.488 50.9555 345.74C51.4128 345.983 51.9262 346.104 52.4955 346.104ZM63.1865 346.538C63.0092 346.706 62.7852 346.837 62.5145 346.93C62.2532 347.014 61.9778 347.056 61.6885 347.056C61.0538 347.056 60.5638 346.883 60.2185 346.538C59.8732 346.183 59.7005 345.693 59.7005 345.068V340.294H58.3565V339.692H59.7005V338.096H60.4005V339.692H62.7245V340.294H60.4005V344.998C60.4005 345.474 60.5125 345.838 60.7365 346.09C60.9698 346.333 61.3105 346.454 61.7585 346.454C62.2158 346.454 62.5938 346.319 62.8925 346.048L63.1865 346.538ZM71.4728 343.514H65.1868C65.2055 344.083 65.3502 344.592 65.6208 345.04C65.8915 345.479 66.2555 345.819 66.7128 346.062C67.1795 346.305 67.7022 346.426 68.2808 346.426C68.7568 346.426 69.1955 346.342 69.5968 346.174C70.0075 345.997 70.3482 345.74 70.6188 345.404L71.0248 345.866C70.7075 346.249 70.3062 346.543 69.8208 346.748C69.3448 346.953 68.8268 347.056 68.2668 347.056C67.5388 347.056 66.8902 346.897 66.3208 346.58C65.7515 346.263 65.3035 345.824 64.9768 345.264C64.6595 344.704 64.5008 344.065 64.5008 343.346C64.5008 342.637 64.6502 342.002 64.9488 341.442C65.2568 340.873 65.6768 340.429 66.2088 340.112C66.7408 339.795 67.3382 339.636 68.0008 339.636C68.6635 339.636 69.2562 339.795 69.7788 340.112C70.3108 340.42 70.7262 340.854 71.0248 341.414C71.3328 341.974 71.4868 342.609 71.4868 343.318L71.4728 343.514ZM68.0008 340.252C67.4875 340.252 67.0255 340.369 66.6148 340.602C66.2042 340.826 65.8728 341.148 65.6208 341.568C65.3782 341.979 65.2382 342.445 65.2008 342.968H70.8008C70.7728 342.445 70.6328 341.979 70.3808 341.568C70.1288 341.157 69.7975 340.835 69.3868 340.602C68.9762 340.369 68.5142 340.252 68.0008 340.252Z" fill="white"/>
<path d="M164.868 264.926H168.466V265.556H164.868V264.926Z" fill="white"/>
<path d="M164.868 290.926H168.466V291.556H164.868V290.926Z" fill="white"/>
<path d="M164.868 316.926H168.466V317.556H164.868V316.926Z" fill="white"/>
<path d="M165.868 342.926H169.466V343.556H165.868V342.926Z" fill="white"/>
<path d="M166.747 215.883L70 159.942L166.747 104L263.553 159.942L166.747 215.883Z" fill="#B9C95E"/>
<path d="M166.747 253.197L70 197.256V159.941L166.747 215.883V253.197Z" fill="#936037"/>
<path d="M166.747 253.197L263.554 197.256V159.941L166.747 215.883V253.197Z" fill="#B17F4A"/>
<path d="M166.747 225.256L70 169.315V159.941L166.747 215.883V225.256Z" fill="#A5AE44"/>
<path d="M166.747 225.256L263.554 169.255V159.941L166.747 215.883V225.256Z" fill="#CED67B"/>
<path d="M166.747 290L70 234.058V196.744L166.747 252.686V290Z" fill="url(#paint0_linear)" fill-opacity="0.4"/>
<path d="M166.776 290L263.583 234.058V196.744L166.776 252.686V290Z" fill="url(#paint1_linear)" fill-opacity="0.4"/>
<path d="M166.5 177C180.031 177 191 170.655 191 162.829C191 155.003 180.031 148.658 166.5 148.658C152.969 148.658 142 155.003 142 162.829C142 170.655 152.969 177 166.5 177Z" fill="#A8B249"/>
<path d="M178.344 161.364L166.5 168.205L154.655 161.364V73.4063L166.337 66.4023L178.344 73.4063V161.364Z" fill="#B17F4A"/>
<path d="M166.5 66.5652L166.337 66.4023L154.655 73.4063V161.364L166.5 168.205V66.5652Z" fill="#936037"/>
<path d="M191 134.487L166.5 148.658L142 134.487V69.1709L166.338 55L191 69.1709V134.487Z" fill="#5E9E4C"/>
<path d="M166.5 55V148.658L191 134.487V69.1709L166.5 55Z" fill="#79BC68"/>
<path d="M166.175 82.2016L142 69.1709L166.338 55L191 69.1709L166.175 82.2016Z" fill="#8EC57B"/>
<path d="M123.864 21.464V23H110.088V21.776L121.224 7.736H110.256V6.2H123.576V7.424L112.464 21.464H123.864ZM131.825 23.12C130.609 23.12 129.513 22.848 128.537 22.304C127.561 21.744 126.793 20.976 126.233 20C125.673 19.024 125.393 17.92 125.393 16.688C125.393 15.456 125.673 14.352 126.233 13.376C126.793 12.4 127.561 11.64 128.537 11.096C129.513 10.552 130.609 10.28 131.825 10.28C133.041 10.28 134.137 10.552 135.113 11.096C136.089 11.64 136.849 12.4 137.393 13.376C137.953 14.352 138.233 15.456 138.233 16.688C138.233 17.92 137.953 19.024 137.393 20C136.849 20.976 136.089 21.744 135.113 22.304C134.137 22.848 133.041 23.12 131.825 23.12ZM131.825 21.608C132.721 21.608 133.521 21.408 134.225 21.008C134.945 20.592 135.505 20.008 135.905 19.256C136.305 18.504 136.505 17.648 136.505 16.688C136.505 15.728 136.305 14.872 135.905 14.12C135.505 13.368 134.945 12.792 134.225 12.392C133.521 11.976 132.721 11.768 131.825 11.768C130.929 11.768 130.121 11.976 129.401 12.392C128.697 12.792 128.137 13.368 127.721 14.12C127.321 14.872 127.121 15.728 127.121 16.688C127.121 17.648 127.321 18.504 127.721 19.256C128.137 20.008 128.697 20.592 129.401 21.008C130.121 21.408 130.929 21.608 131.825 21.608ZM157.456 10.28C159.04 10.28 160.28 10.736 161.176 11.648C162.088 12.56 162.544 13.904 162.544 15.68V23H160.84V15.848C160.84 14.536 160.52 13.536 159.88 12.848C159.256 12.16 158.368 11.816 157.216 11.816C155.904 11.816 154.872 12.224 154.12 13.04C153.368 13.84 152.992 14.952 152.992 16.376V23H151.288V15.848C151.288 14.536 150.968 13.536 150.328 12.848C149.704 12.16 148.808 11.816 147.64 11.816C146.344 11.816 145.312 12.224 144.544 13.04C143.792 13.84 143.416 14.952 143.416 16.376V23H141.712V10.376H143.344V12.68C143.792 11.912 144.416 11.32 145.216 10.904C146.016 10.488 146.936 10.28 147.976 10.28C149.032 10.28 149.944 10.504 150.712 10.952C151.496 11.4 152.08 12.064 152.464 12.944C152.928 12.112 153.592 11.464 154.456 11C155.336 10.52 156.336 10.28 157.456 10.28ZM178.204 17.216H167.644C167.74 18.528 168.244 19.592 169.156 20.408C170.068 21.208 171.22 21.608 172.612 21.608C173.396 21.608 174.116 21.472 174.772 21.2C175.428 20.912 175.996 20.496 176.476 19.952L177.436 21.056C176.876 21.728 176.172 22.24 175.324 22.592C174.492 22.944 173.572 23.12 172.564 23.12C171.268 23.12 170.116 22.848 169.108 22.304C168.116 21.744 167.34 20.976 166.78 20C166.22 19.024 165.94 17.92 165.94 16.688C165.94 15.456 166.204 14.352 166.732 13.376C167.276 12.4 168.012 11.64 168.94 11.096C169.884 10.552 170.94 10.28 172.108 10.28C173.276 10.28 174.324 10.552 175.252 11.096C176.18 11.64 176.908 12.4 177.436 13.376C177.964 14.336 178.228 15.44 178.228 16.688L178.204 17.216ZM172.108 11.744C170.892 11.744 169.868 12.136 169.036 12.92C168.22 13.688 167.756 14.696 167.644 15.944H176.596C176.484 14.696 176.012 13.688 175.18 12.92C174.364 12.136 173.34 11.744 172.108 11.744ZM183.328 12.848C183.728 12 184.32 11.36 185.104 10.928C185.904 10.496 186.888 10.28 188.056 10.28V11.936L187.648 11.912C186.32 11.912 185.28 12.32 184.528 13.136C183.776 13.952 183.4 15.096 183.4 16.568V23H181.696V10.376H183.328V12.848ZM202.016 17.216H191.456C191.552 18.528 192.056 19.592 192.968 20.408C193.88 21.208 195.032 21.608 196.424 21.608C197.208 21.608 197.928 21.472 198.584 21.2C199.24 20.912 199.808 20.496 200.288 19.952L201.248 21.056C200.688 21.728 199.984 22.24 199.136 22.592C198.304 22.944 197.384 23.12 196.376 23.12C195.08 23.12 193.928 22.848 192.92 22.304C191.928 21.744 191.152 20.976 190.592 20C190.032 19.024 189.752 17.92 189.752 16.688C189.752 15.456 190.016 14.352 190.544 13.376C191.088 12.4 191.824 11.64 192.752 11.096C193.696 10.552 194.752 10.28 195.92 10.28C197.088 10.28 198.136 10.552 199.064 11.096C199.992 11.64 200.72 12.4 201.248 13.376C201.776 14.336 202.04 15.44 202.04 16.688L202.016 17.216ZM195.92 11.744C194.704 11.744 193.68 12.136 192.848 12.92C192.032 13.688 191.568 14.696 191.456 15.944H200.408C200.296 14.696 199.824 13.688 198.992 12.92C198.176 12.136 197.152 11.744 195.92 11.744ZM205.509 10.376H207.213V23H205.509V10.376ZM206.373 7.616C206.021 7.616 205.725 7.496 205.485 7.256C205.245 7.016 205.125 6.728 205.125 6.392C205.125 6.072 205.245 5.792 205.485 5.552C205.725 5.312 206.021 5.192 206.373 5.192C206.725 5.192 207.021 5.312 207.261 5.552C207.501 5.776 207.621 6.048 207.621 6.368C207.621 6.72 207.501 7.016 207.261 7.256C207.021 7.496 206.725 7.616 206.373 7.616ZM216.634 16.664L213.658 19.4V23H211.954V5.192H213.658V17.264L221.194 10.376H223.306L217.906 15.536L223.81 23H221.722L216.634 16.664Z" fill="white"/>
<path d="M102.5 418H102.371L83 429.266V481.194L93.0728 487.022V502.561L99.6589 506.446L102.5 508L111.927 502.561V487.022L122 481.194V429.266L102.5 418Z" fill="#278B79"/>
<path d="M153.798 500.465C153.798 500.536 153.798 500.593 153.798 500.65C153.798 502.213 153.798 503.775 153.798 505.338C153.798 505.849 154.295 506.19 154.807 505.963C155.091 505.835 155.19 505.607 155.19 505.295C155.19 502.383 155.19 499.485 155.19 496.573C155.19 496.517 155.19 496.474 155.19 496.417C155.276 496.417 155.332 496.417 155.403 496.417C155.403 496.474 155.403 496.517 155.403 496.559C155.403 497.482 155.403 498.392 155.403 499.315C155.403 499.357 155.403 499.414 155.403 499.457C155.418 499.698 155.602 499.897 155.844 499.911C156.156 499.94 156.369 499.713 156.369 499.357C156.369 498.122 156.369 496.9 156.369 495.664C156.369 495.409 156.27 495.224 156.071 495.096C155.83 494.926 155.56 494.826 155.276 494.784C154.253 494.599 153.23 494.627 152.207 494.755C151.895 494.798 151.597 494.883 151.327 495.053C151.114 495.181 151 495.352 151 495.622C151.014 496.872 151 498.107 151 499.357C151 499.386 151 499.428 151 499.457C151.014 499.755 151.256 499.968 151.554 499.926C151.81 499.883 151.966 499.684 151.966 499.386C151.966 498.448 151.966 497.497 151.966 496.559C151.966 496.517 151.966 496.474 151.966 496.431C152.051 496.431 152.108 496.431 152.179 496.431C152.179 496.488 152.179 496.531 152.179 496.588C152.179 499.471 152.179 502.355 152.179 505.224C152.179 505.281 152.179 505.338 152.179 505.409C152.193 505.607 152.278 505.764 152.42 505.877C152.662 506.062 152.918 506.076 153.188 505.963C153.457 505.849 153.571 505.622 153.571 505.338C153.571 503.761 153.571 502.198 153.571 500.622C153.571 500.579 153.571 500.522 153.571 500.465C153.656 500.465 153.713 500.465 153.798 500.465ZM153.685 494.286C154.324 494.286 154.821 493.789 154.821 493.15C154.821 492.525 154.324 492.014 153.685 492.014C153.045 492.014 152.534 492.511 152.534 493.15C152.548 493.789 153.045 494.286 153.685 494.286Z" fill="#278B79"/>
<path d="M153.799 500.468C153.728 500.468 153.671 500.468 153.586 500.468C153.586 500.524 153.586 500.567 153.586 500.624C153.586 502.2 153.586 503.763 153.586 505.34C153.586 505.624 153.472 505.851 153.202 505.965C152.932 506.078 152.677 506.064 152.435 505.879C152.279 505.766 152.194 505.595 152.194 505.411C152.194 505.354 152.194 505.297 152.194 505.226C152.194 502.343 152.194 499.459 152.194 496.59C152.194 496.547 152.194 496.49 152.194 496.433C152.123 496.433 152.066 496.433 151.981 496.433C151.981 496.476 151.981 496.519 151.981 496.561C151.981 497.499 151.981 498.45 151.981 499.388C151.981 499.686 151.824 499.885 151.569 499.928C151.27 499.97 151.029 499.757 151.015 499.459C151.015 499.431 151.015 499.388 151.015 499.36C151.015 498.11 151.015 496.874 151.015 495.624C151.015 495.354 151.128 495.183 151.341 495.056C151.611 494.885 151.91 494.8 152.222 494.757C153.245 494.629 154.267 494.601 155.29 494.786C155.574 494.843 155.844 494.928 156.086 495.098C156.285 495.24 156.384 495.425 156.384 495.666C156.384 496.902 156.384 498.124 156.384 499.36C156.384 499.7 156.157 499.942 155.858 499.914C155.617 499.885 155.432 499.7 155.418 499.459C155.418 499.416 155.418 499.36 155.418 499.317C155.418 498.394 155.418 497.485 155.418 496.561C155.418 496.519 155.418 496.462 155.418 496.419C155.347 496.419 155.276 496.419 155.205 496.419C155.205 496.476 155.205 496.519 155.205 496.575C155.205 499.487 155.205 502.385 155.205 505.297C155.205 505.595 155.106 505.837 154.821 505.965C154.31 506.192 153.813 505.851 153.813 505.34C153.813 503.777 153.813 502.215 153.813 500.652C153.799 500.581 153.799 500.539 153.799 500.468Z" fill="#278B79"/>
<path d="M153.685 494.287C153.046 494.287 152.549 493.776 152.549 493.136C152.549 492.497 153.06 492 153.699 492C154.324 492 154.836 492.511 154.836 493.136C154.836 493.79 154.324 494.301 153.685 494.287Z" fill="#278B79"/>
<rect x="103" y="418" width="99" height="1" fill="url(#paint2_linear)"/>
<path d="M223.533 418.47C224.616 418.498 225.437 418.764 225.997 419.268C226.566 419.763 226.851 420.421 226.851 421.242C226.851 421.793 226.72 422.283 226.459 422.712C226.198 423.132 225.806 423.463 225.283 423.706C224.77 423.949 224.149 424.07 223.421 424.07C222.712 424.07 222.044 423.953 221.419 423.72C220.794 423.477 220.308 423.155 219.963 422.754L220.327 422.208C220.644 422.563 221.074 422.852 221.615 423.076C222.166 423.3 222.768 423.412 223.421 423.412C224.289 423.412 224.956 423.221 225.423 422.838C225.89 422.446 226.123 421.914 226.123 421.242C226.123 420.561 225.885 420.029 225.409 419.646C224.933 419.263 224.219 419.072 223.267 419.072H222.651V418.554L225.549 414.844H220.327V414.2H226.473V414.704L223.533 418.47ZM231.035 418.302C232.463 418.302 233.499 418.554 234.143 419.058C234.787 419.553 235.109 420.257 235.109 421.172C235.109 421.732 234.978 422.231 234.717 422.67C234.465 423.099 234.082 423.44 233.569 423.692C233.056 423.944 232.426 424.07 231.679 424.07C230.97 424.07 230.302 423.949 229.677 423.706C229.061 423.463 228.58 423.146 228.235 422.754L228.599 422.208C228.907 422.563 229.332 422.852 229.873 423.076C230.424 423.3 231.021 423.412 231.665 423.412C232.542 423.412 233.214 423.211 233.681 422.81C234.157 422.409 234.395 421.872 234.395 421.2C234.395 420.463 234.124 419.903 233.583 419.52C233.051 419.137 232.15 418.946 230.881 418.946H228.893L229.411 414.2H234.605V414.844H230.013L229.635 418.302H231.035ZM246.682 416.636C247.587 416.636 248.296 416.902 248.81 417.434C249.332 417.966 249.594 418.731 249.594 419.73V424H248.894V419.786C248.894 418.965 248.693 418.339 248.292 417.91C247.89 417.481 247.33 417.266 246.612 417.266C245.79 417.266 245.137 417.523 244.652 418.036C244.176 418.549 243.938 419.24 243.938 420.108V424H243.238V419.786C243.238 418.965 243.037 418.339 242.636 417.91C242.234 417.481 241.674 417.266 240.956 417.266C240.134 417.266 239.481 417.523 238.996 418.036C238.52 418.549 238.282 419.24 238.282 420.108V424H237.582V416.692H238.254V418.26C238.496 417.747 238.856 417.35 239.332 417.07C239.817 416.781 240.391 416.636 241.054 416.636C241.716 416.636 242.276 416.785 242.734 417.084C243.2 417.383 243.532 417.821 243.728 418.4C243.97 417.859 244.348 417.429 244.862 417.112C245.384 416.795 245.991 416.636 246.682 416.636Z" fill="white"/>
<rect x="153" y="491" width="49" height="1" fill="url(#paint3_linear)"/>
<path d="M214.382 489.2V499H213.668V489.844H211.274V489.2H214.382ZM217.904 499.056C217.745 499.056 217.605 499 217.484 498.888C217.372 498.767 217.316 498.622 217.316 498.454C217.316 498.286 217.372 498.146 217.484 498.034C217.605 497.922 217.745 497.866 217.904 497.866C218.062 497.866 218.198 497.922 218.31 498.034C218.431 498.146 218.492 498.286 218.492 498.454C218.492 498.622 218.431 498.767 218.31 498.888C218.198 499 218.062 499.056 217.904 499.056ZM227.08 489.2V489.704L222.866 499H222.082L226.254 489.844H220.752V491.72H220.052V489.2H227.08ZM231.035 493.302C232.463 493.302 233.499 493.554 234.143 494.058C234.787 494.553 235.109 495.257 235.109 496.172C235.109 496.732 234.978 497.231 234.717 497.67C234.465 498.099 234.082 498.44 233.569 498.692C233.056 498.944 232.426 499.07 231.679 499.07C230.97 499.07 230.302 498.949 229.677 498.706C229.061 498.463 228.58 498.146 228.235 497.754L228.599 497.208C228.907 497.563 229.332 497.852 229.873 498.076C230.424 498.3 231.021 498.412 231.665 498.412C232.542 498.412 233.214 498.211 233.681 497.81C234.157 497.409 234.395 496.872 234.395 496.2C234.395 495.463 234.124 494.903 233.583 494.52C233.051 494.137 232.15 493.946 230.881 493.946H228.893L229.411 489.2H234.605V489.844H230.013L229.635 493.302H231.035ZM246.682 491.636C247.587 491.636 248.296 491.902 248.81 492.434C249.332 492.966 249.594 493.731 249.594 494.73V499H248.894V494.786C248.894 493.965 248.693 493.339 248.292 492.91C247.89 492.481 247.33 492.266 246.612 492.266C245.79 492.266 245.137 492.523 244.652 493.036C244.176 493.549 243.938 494.24 243.938 495.108V499H243.238V494.786C243.238 493.965 243.037 493.339 242.636 492.91C242.234 492.481 241.674 492.266 240.956 492.266C240.134 492.266 239.481 492.523 238.996 493.036C238.52 493.549 238.282 494.24 238.282 495.108V499H237.582V491.692H238.254V493.26C238.496 492.747 238.856 492.35 239.332 492.07C239.817 491.781 240.391 491.636 241.054 491.636C241.716 491.636 242.276 491.785 242.734 492.084C243.2 492.383 243.532 492.821 243.728 493.4C243.97 492.859 244.348 492.429 244.862 492.112C245.384 491.795 245.991 491.636 246.682 491.636Z" fill="white"/>
<defs>
<linearGradient id="paint0_linear" x1="118.373" y1="196.744" x2="91.7747" y2="246.745" gradientUnits="userSpaceOnUse">
<stop stop-color="#936037"/>
<stop offset="1" stop-color="#936037" stop-opacity="0"/>
</linearGradient>
<linearGradient id="paint1_linear" x1="215.18" y1="196.744" x2="242.181" y2="241.1" gradientUnits="userSpaceOnUse">
<stop stop-color="#B17F4A"/>
<stop offset="1" stop-color="#B17F4A" stop-opacity="0"/>
</linearGradient>
<linearGradient id="paint2_linear" x1="152.5" y1="418" x2="103" y2="419" gradientUnits="userSpaceOnUse">
<stop stop-color="#278B79"/>
<stop offset="1" stop-color="#278B79" stop-opacity="0"/>
</linearGradient>
<linearGradient id="paint3_linear" x1="177.5" y1="491" x2="152.992" y2="491.245" gradientUnits="userSpaceOnUse">
<stop stop-color="#278B79"/>
<stop offset="1" stop-color="#278B79" stop-opacity="0"/>
</linearGradient>
</defs>
</svg>
