<svg width="335" height="517" viewBox="0 0 335 517" fill="none" xmlns="http://www.w3.org/2000/svg">
<rect y="187" width="335" height="206" rx="16" fill="#45A694"/>
<path d="M256.736 266.242H251.052L249.806 269H249.036L253.544 259.2H254.258L258.766 269H257.996L256.736 266.242ZM256.47 265.64L253.894 259.984L251.332 265.64H256.47ZM266.847 265.514H260.561C260.58 266.083 260.724 266.592 260.995 267.04C261.266 267.479 261.63 267.819 262.087 268.062C262.554 268.305 263.076 268.426 263.655 268.426C264.131 268.426 264.57 268.342 264.971 268.174C265.382 267.997 265.722 267.74 265.993 267.404L266.399 267.866C266.082 268.249 265.68 268.543 265.195 268.748C264.719 268.953 264.201 269.056 263.641 269.056C262.913 269.056 262.264 268.897 261.695 268.58C261.126 268.263 260.678 267.824 260.351 267.264C260.034 266.704 259.875 266.065 259.875 265.346C259.875 264.637 260.024 264.002 260.323 263.442C260.631 262.873 261.051 262.429 261.583 262.112C262.115 261.795 262.712 261.636 263.375 261.636C264.038 261.636 264.63 261.795 265.153 262.112C265.685 262.42 266.1 262.854 266.399 263.414C266.707 263.974 266.861 264.609 266.861 265.318L266.847 265.514ZM263.375 262.252C262.862 262.252 262.4 262.369 261.989 262.602C261.578 262.826 261.247 263.148 260.995 263.568C260.752 263.979 260.612 264.445 260.575 264.968H266.175C266.147 264.445 266.007 263.979 265.755 263.568C265.503 263.157 265.172 262.835 264.761 262.602C264.35 262.369 263.888 262.252 263.375 262.252ZM271.294 269.056C270.706 269.056 270.146 268.967 269.614 268.79C269.082 268.613 268.667 268.389 268.368 268.118L268.69 267.558C268.989 267.81 269.372 268.02 269.838 268.188C270.314 268.356 270.809 268.44 271.322 268.44C272.06 268.44 272.601 268.319 272.946 268.076C273.301 267.833 273.478 267.497 273.478 267.068C273.478 266.76 273.38 266.517 273.184 266.34C272.998 266.163 272.764 266.032 272.484 265.948C272.204 265.864 271.817 265.775 271.322 265.682C270.744 265.579 270.277 265.467 269.922 265.346C269.568 265.225 269.264 265.029 269.012 264.758C268.76 264.487 268.634 264.114 268.634 263.638C268.634 263.059 268.872 262.583 269.348 262.21C269.834 261.827 270.52 261.636 271.406 261.636C271.873 261.636 272.335 261.701 272.792 261.832C273.25 261.963 273.623 262.135 273.912 262.35L273.59 262.91C273.292 262.695 272.951 262.532 272.568 262.42C272.186 262.308 271.794 262.252 271.392 262.252C270.711 262.252 270.198 262.378 269.852 262.63C269.507 262.882 269.334 263.213 269.334 263.624C269.334 263.951 269.432 264.207 269.628 264.394C269.824 264.571 270.062 264.707 270.342 264.8C270.632 264.884 271.033 264.977 271.546 265.08C272.116 265.183 272.573 265.295 272.918 265.416C273.273 265.528 273.572 265.715 273.814 265.976C274.057 266.237 274.178 266.597 274.178 267.054C274.178 267.661 273.926 268.146 273.422 268.51C272.918 268.874 272.209 269.056 271.294 269.056ZM279.45 269.056C278.741 269.056 278.106 268.897 277.546 268.58C276.986 268.263 276.547 267.824 276.23 267.264C275.913 266.695 275.754 266.055 275.754 265.346C275.754 264.627 275.913 263.988 276.23 263.428C276.547 262.859 276.986 262.42 277.546 262.112C278.106 261.795 278.741 261.636 279.45 261.636C280.038 261.636 280.57 261.753 281.046 261.986C281.531 262.21 281.923 262.541 282.222 262.98L281.704 263.358C281.443 262.994 281.116 262.723 280.724 262.546C280.341 262.359 279.917 262.266 279.45 262.266C278.881 262.266 278.367 262.397 277.91 262.658C277.462 262.91 277.107 263.269 276.846 263.736C276.594 264.203 276.468 264.739 276.468 265.346C276.468 265.953 276.594 266.489 276.846 266.956C277.107 267.423 277.462 267.787 277.91 268.048C278.367 268.3 278.881 268.426 279.45 268.426C279.917 268.426 280.341 268.337 280.724 268.16C281.116 267.973 281.443 267.698 281.704 267.334L282.222 267.712C281.923 268.151 281.531 268.487 281.046 268.72C280.57 268.944 280.038 269.056 279.45 269.056ZM291.136 261.692V269H290.464V267.432C290.221 267.945 289.862 268.347 289.386 268.636C288.91 268.916 288.35 269.056 287.706 269.056C286.754 269.056 286.007 268.79 285.466 268.258C284.924 267.726 284.654 266.961 284.654 265.962V261.692H285.354V265.906C285.354 266.727 285.564 267.353 285.984 267.782C286.404 268.211 286.996 268.426 287.762 268.426C288.583 268.426 289.232 268.169 289.708 267.656C290.193 267.143 290.436 266.452 290.436 265.584V261.692H291.136ZM294.523 258.612H295.223V269H294.523V258.612ZM304.991 261.692V269H304.319V267.432C304.077 267.945 303.717 268.347 303.241 268.636C302.765 268.916 302.205 269.056 301.561 269.056C300.609 269.056 299.863 268.79 299.321 268.258C298.78 267.726 298.509 266.961 298.509 265.962V261.692H299.209V265.906C299.209 266.727 299.419 267.353 299.839 267.782C300.259 268.211 300.852 268.426 301.617 268.426C302.439 268.426 303.087 268.169 303.563 267.656C304.049 267.143 304.291 266.452 304.291 265.584V261.692H304.991ZM310.226 269.056C309.638 269.056 309.078 268.967 308.546 268.79C308.014 268.613 307.599 268.389 307.3 268.118L307.622 267.558C307.921 267.81 308.304 268.02 308.77 268.188C309.246 268.356 309.741 268.44 310.254 268.44C310.992 268.44 311.533 268.319 311.878 268.076C312.233 267.833 312.41 267.497 312.41 267.068C312.41 266.76 312.312 266.517 312.116 266.34C311.93 266.163 311.696 266.032 311.416 265.948C311.136 265.864 310.749 265.775 310.254 265.682C309.676 265.579 309.209 265.467 308.854 265.346C308.5 265.225 308.196 265.029 307.944 264.758C307.692 264.487 307.566 264.114 307.566 263.638C307.566 263.059 307.804 262.583 308.28 262.21C308.766 261.827 309.452 261.636 310.338 261.636C310.805 261.636 311.267 261.701 311.724 261.832C312.182 261.963 312.555 262.135 312.844 262.35L312.522 262.91C312.224 262.695 311.883 262.532 311.5 262.42C311.118 262.308 310.726 262.252 310.324 262.252C309.643 262.252 309.13 262.378 308.784 262.63C308.439 262.882 308.266 263.213 308.266 263.624C308.266 263.951 308.364 264.207 308.56 264.394C308.756 264.571 308.994 264.707 309.274 264.8C309.564 264.884 309.965 264.977 310.478 265.08C311.048 265.183 311.505 265.295 311.85 265.416C312.205 265.528 312.504 265.715 312.746 265.976C312.989 266.237 313.11 266.597 313.11 267.054C313.11 267.661 312.858 268.146 312.354 268.51C311.85 268.874 311.141 269.056 310.226 269.056ZM194.539 281.636C195.454 281.636 196.177 281.902 196.709 282.434C197.241 282.966 197.507 283.731 197.507 284.73V289H196.807V284.786C196.807 283.965 196.597 283.339 196.177 282.91C195.767 282.481 195.188 282.266 194.441 282.266C193.583 282.266 192.906 282.523 192.411 283.036C191.917 283.549 191.669 284.24 191.669 285.108V289H190.969V278.612H191.669V283.218C191.921 282.714 192.295 282.327 192.789 282.056C193.284 281.776 193.867 281.636 194.539 281.636ZM200.809 281.692H201.509V289H200.809V281.692ZM201.159 279.914C201.001 279.914 200.865 279.863 200.753 279.76C200.641 279.648 200.585 279.513 200.585 279.354C200.585 279.195 200.641 279.06 200.753 278.948C200.865 278.836 201.001 278.78 201.159 278.78C201.318 278.78 201.453 278.836 201.565 278.948C201.677 279.051 201.733 279.181 201.733 279.34C201.733 279.499 201.677 279.634 201.565 279.746C201.453 279.858 201.318 279.914 201.159 279.914ZM208.548 281.636C209.229 281.636 209.845 281.795 210.396 282.112C210.946 282.429 211.376 282.868 211.684 283.428C212.001 283.988 212.16 284.627 212.16 285.346C212.16 286.065 212.001 286.709 211.684 287.278C211.376 287.838 210.946 288.277 210.396 288.594C209.845 288.902 209.229 289.056 208.548 289.056C207.904 289.056 207.32 288.907 206.798 288.608C206.275 288.3 205.869 287.875 205.58 287.334V291.716H204.88V281.692H205.552V283.414C205.841 282.854 206.247 282.42 206.77 282.112C207.302 281.795 207.894 281.636 208.548 281.636ZM208.506 288.426C209.066 288.426 209.57 288.295 210.018 288.034C210.466 287.773 210.816 287.409 211.068 286.942C211.329 286.475 211.46 285.943 211.46 285.346C211.46 284.749 211.329 284.217 211.068 283.75C210.816 283.283 210.466 282.919 210.018 282.658C209.57 282.397 209.066 282.266 208.506 282.266C207.946 282.266 207.442 282.397 206.994 282.658C206.555 282.919 206.205 283.283 205.944 283.75C205.692 284.217 205.566 284.749 205.566 285.346C205.566 285.943 205.692 286.475 205.944 286.942C206.205 287.409 206.555 287.773 206.994 288.034C207.442 288.295 207.946 288.426 208.506 288.426ZM218.415 281.636C219.096 281.636 219.712 281.795 220.263 282.112C220.814 282.429 221.243 282.868 221.551 283.428C221.868 283.988 222.027 284.627 222.027 285.346C222.027 286.065 221.868 286.709 221.551 287.278C221.243 287.838 220.814 288.277 220.263 288.594C219.712 288.902 219.096 289.056 218.415 289.056C217.771 289.056 217.188 288.907 216.665 288.608C216.142 288.3 215.736 287.875 215.447 287.334V291.716H214.747V281.692H215.419V283.414C215.708 282.854 216.114 282.42 216.637 282.112C217.169 281.795 217.762 281.636 218.415 281.636ZM218.373 288.426C218.933 288.426 219.437 288.295 219.885 288.034C220.333 287.773 220.683 287.409 220.935 286.942C221.196 286.475 221.327 285.943 221.327 285.346C221.327 284.749 221.196 284.217 220.935 283.75C220.683 283.283 220.333 282.919 219.885 282.658C219.437 282.397 218.933 282.266 218.373 282.266C217.813 282.266 217.309 282.397 216.861 282.658C216.422 282.919 216.072 283.283 215.811 283.75C215.559 284.217 215.433 284.749 215.433 285.346C215.433 285.943 215.559 286.475 215.811 286.942C216.072 287.409 216.422 287.773 216.861 288.034C217.309 288.295 217.813 288.426 218.373 288.426ZM227.47 289.056C226.779 289.056 226.154 288.897 225.594 288.58C225.043 288.263 224.609 287.824 224.292 287.264C223.975 286.695 223.816 286.055 223.816 285.346C223.816 284.637 223.975 284.002 224.292 283.442C224.609 282.873 225.043 282.429 225.594 282.112C226.154 281.795 226.779 281.636 227.47 281.636C228.161 281.636 228.781 281.795 229.332 282.112C229.892 282.429 230.331 282.873 230.648 283.442C230.965 284.002 231.124 284.637 231.124 285.346C231.124 286.055 230.965 286.695 230.648 287.264C230.331 287.824 229.892 288.263 229.332 288.58C228.781 288.897 228.161 289.056 227.47 289.056ZM227.47 288.426C228.03 288.426 228.529 288.295 228.968 288.034C229.416 287.773 229.766 287.409 230.018 286.942C230.279 286.475 230.41 285.943 230.41 285.346C230.41 284.749 230.279 284.217 230.018 283.75C229.766 283.283 229.416 282.919 228.968 282.658C228.529 282.397 228.03 282.266 227.47 282.266C226.91 282.266 226.406 282.397 225.958 282.658C225.519 282.919 225.169 283.283 224.908 283.75C224.656 284.217 224.53 284.749 224.53 285.346C224.53 285.943 224.656 286.475 224.908 286.942C225.169 287.409 225.519 287.773 225.958 288.034C226.406 288.295 226.91 288.426 227.47 288.426ZM236.614 289.056C235.904 289.056 235.27 288.897 234.71 288.58C234.15 288.263 233.711 287.824 233.394 287.264C233.076 286.695 232.918 286.055 232.918 285.346C232.918 284.627 233.076 283.988 233.394 283.428C233.711 282.859 234.15 282.42 234.71 282.112C235.27 281.795 235.904 281.636 236.614 281.636C237.202 281.636 237.734 281.753 238.21 281.986C238.695 282.21 239.087 282.541 239.386 282.98L238.868 283.358C238.606 282.994 238.28 282.723 237.888 282.546C237.505 282.359 237.08 282.266 236.614 282.266C236.044 282.266 235.531 282.397 235.074 282.658C234.626 282.91 234.271 283.269 234.01 283.736C233.758 284.203 233.632 284.739 233.632 285.346C233.632 285.953 233.758 286.489 234.01 286.956C234.271 287.423 234.626 287.787 235.074 288.048C235.531 288.3 236.044 288.426 236.614 288.426C237.08 288.426 237.505 288.337 237.888 288.16C238.28 287.973 238.606 287.698 238.868 287.334L239.386 287.712C239.087 288.151 238.695 288.487 238.21 288.72C237.734 288.944 237.202 289.056 236.614 289.056ZM244.365 281.636C245.271 281.636 245.966 281.869 246.451 282.336C246.937 282.793 247.179 283.47 247.179 284.366V289H246.507V287.698C246.274 288.127 245.933 288.463 245.485 288.706C245.037 288.939 244.501 289.056 243.875 289.056C243.063 289.056 242.419 288.865 241.943 288.482C241.477 288.099 241.243 287.595 241.243 286.97C241.243 286.363 241.458 285.873 241.887 285.5C242.326 285.117 243.021 284.926 243.973 284.926H246.479V284.338C246.479 283.657 246.293 283.139 245.919 282.784C245.555 282.429 245.019 282.252 244.309 282.252C243.824 282.252 243.357 282.336 242.909 282.504C242.471 282.672 242.097 282.896 241.789 283.176L241.439 282.672C241.803 282.345 242.242 282.093 242.755 281.916C243.269 281.729 243.805 281.636 244.365 281.636ZM243.973 288.482C244.58 288.482 245.093 288.342 245.513 288.062C245.943 287.782 246.265 287.376 246.479 286.844V285.472H243.987C243.269 285.472 242.746 285.603 242.419 285.864C242.102 286.125 241.943 286.485 241.943 286.942C241.943 287.418 242.121 287.796 242.475 288.076C242.83 288.347 243.329 288.482 243.973 288.482ZM252.332 289.056C251.744 289.056 251.184 288.967 250.652 288.79C250.12 288.613 249.704 288.389 249.406 288.118L249.728 287.558C250.026 287.81 250.409 288.02 250.876 288.188C251.352 288.356 251.846 288.44 252.36 288.44C253.097 288.44 253.638 288.319 253.984 288.076C254.338 287.833 254.516 287.497 254.516 287.068C254.516 286.76 254.418 286.517 254.222 286.34C254.035 286.163 253.802 286.032 253.522 285.948C253.242 285.864 252.854 285.775 252.36 285.682C251.781 285.579 251.314 285.467 250.96 285.346C250.605 285.225 250.302 285.029 250.05 284.758C249.798 284.487 249.672 284.114 249.672 283.638C249.672 283.059 249.91 282.583 250.386 282.21C250.871 281.827 251.557 281.636 252.444 281.636C252.91 281.636 253.372 281.701 253.83 281.832C254.287 281.963 254.66 282.135 254.95 282.35L254.628 282.91C254.329 282.695 253.988 282.532 253.606 282.42C253.223 282.308 252.831 282.252 252.43 282.252C251.748 282.252 251.235 282.378 250.89 282.63C250.544 282.882 250.372 283.213 250.372 283.624C250.372 283.951 250.47 284.207 250.666 284.394C250.862 284.571 251.1 284.707 251.38 284.8C251.669 284.884 252.07 284.977 252.584 285.08C253.153 285.183 253.61 285.295 253.956 285.416C254.31 285.528 254.609 285.715 254.852 285.976C255.094 286.237 255.216 286.597 255.216 287.054C255.216 287.661 254.964 288.146 254.46 288.51C253.956 288.874 253.246 289.056 252.332 289.056ZM261.215 288.538C261.038 288.706 260.814 288.837 260.543 288.93C260.282 289.014 260.006 289.056 259.717 289.056C259.082 289.056 258.592 288.883 258.247 288.538C257.902 288.183 257.729 287.693 257.729 287.068V282.294H256.385V281.692H257.729V280.096H258.429V281.692H260.753V282.294H258.429V286.998C258.429 287.474 258.541 287.838 258.765 288.09C258.998 288.333 259.339 288.454 259.787 288.454C260.244 288.454 260.622 288.319 260.921 288.048L261.215 288.538ZM266.051 281.636C266.957 281.636 267.652 281.869 268.137 282.336C268.623 282.793 268.865 283.47 268.865 284.366V289H268.193V287.698C267.96 288.127 267.619 288.463 267.171 288.706C266.723 288.939 266.187 289.056 265.561 289.056C264.749 289.056 264.105 288.865 263.629 288.482C263.163 288.099 262.929 287.595 262.929 286.97C262.929 286.363 263.144 285.873 263.573 285.5C264.012 285.117 264.707 284.926 265.659 284.926H268.165V284.338C268.165 283.657 267.979 283.139 267.605 282.784C267.241 282.429 266.705 282.252 265.995 282.252C265.51 282.252 265.043 282.336 264.595 282.504C264.157 282.672 263.783 282.896 263.475 283.176L263.125 282.672C263.489 282.345 263.928 282.093 264.441 281.916C264.955 281.729 265.491 281.636 266.051 281.636ZM265.659 288.482C266.266 288.482 266.779 288.342 267.199 288.062C267.629 287.782 267.951 287.376 268.165 286.844V285.472H265.673C264.955 285.472 264.432 285.603 264.105 285.864C263.788 286.125 263.629 286.485 263.629 286.942C263.629 287.418 263.807 287.796 264.161 288.076C264.516 288.347 265.015 288.482 265.659 288.482ZM275.739 281.636C276.654 281.636 277.377 281.902 277.909 282.434C278.441 282.966 278.707 283.731 278.707 284.73V289H278.007V284.786C278.007 283.965 277.797 283.339 277.377 282.91C276.967 282.481 276.388 282.266 275.641 282.266C274.783 282.266 274.106 282.523 273.611 283.036C273.117 283.549 272.869 284.24 272.869 285.108V289H272.169V281.692H272.841V283.274C273.093 282.761 273.467 282.359 273.961 282.07C274.465 281.781 275.058 281.636 275.739 281.636ZM288.407 281.692V289H287.735V287.432C287.493 287.945 287.133 288.347 286.657 288.636C286.181 288.916 285.621 289.056 284.977 289.056C284.025 289.056 283.279 288.79 282.737 288.258C282.196 287.726 281.925 286.961 281.925 285.962V281.692H282.625V285.906C282.625 286.727 282.835 287.353 283.255 287.782C283.675 288.211 284.268 288.426 285.033 288.426C285.855 288.426 286.503 288.169 286.979 287.656C287.465 287.143 287.707 286.452 287.707 285.584V281.692H288.407ZM300.894 281.636C301.8 281.636 302.509 281.902 303.022 282.434C303.545 282.966 303.806 283.731 303.806 284.73V289H303.106V284.786C303.106 283.965 302.906 283.339 302.504 282.91C302.103 282.481 301.543 282.266 300.824 282.266C300.003 282.266 299.35 282.523 298.864 283.036C298.388 283.549 298.15 284.24 298.15 285.108V289H297.45V284.786C297.45 283.965 297.25 283.339 296.848 282.91C296.447 282.481 295.887 282.266 295.168 282.266C294.347 282.266 293.694 282.523 293.208 283.036C292.732 283.549 292.494 284.24 292.494 285.108V289H291.794V281.692H292.466V283.26C292.709 282.747 293.068 282.35 293.544 282.07C294.03 281.781 294.604 281.636 295.266 281.636C295.929 281.636 296.489 281.785 296.946 282.084C297.413 282.383 297.744 282.821 297.94 283.4C298.183 282.859 298.561 282.429 299.074 282.112C299.597 281.795 300.204 281.636 300.894 281.636ZM313.304 285.514H307.018C307.037 286.083 307.182 286.592 307.452 287.04C307.723 287.479 308.087 287.819 308.544 288.062C309.011 288.305 309.534 288.426 310.112 288.426C310.588 288.426 311.027 288.342 311.428 288.174C311.839 287.997 312.18 287.74 312.45 287.404L312.856 287.866C312.539 288.249 312.138 288.543 311.652 288.748C311.176 288.953 310.658 289.056 310.098 289.056C309.37 289.056 308.722 288.897 308.152 288.58C307.583 288.263 307.135 287.824 306.808 287.264C306.491 286.704 306.332 286.065 306.332 285.346C306.332 284.637 306.482 284.002 306.78 283.442C307.088 282.873 307.508 282.429 308.04 282.112C308.572 281.795 309.17 281.636 309.832 281.636C310.495 281.636 311.088 281.795 311.61 282.112C312.142 282.42 312.558 282.854 312.856 283.414C313.164 283.974 313.318 284.609 313.318 285.318L313.304 285.514ZM309.832 282.252C309.319 282.252 308.857 282.369 308.446 282.602C308.036 282.826 307.704 283.148 307.452 283.568C307.21 283.979 307.07 284.445 307.032 284.968H312.632C312.604 284.445 312.464 283.979 312.212 283.568C311.96 283.157 311.629 282.835 311.218 282.602C310.808 282.369 310.346 282.252 309.832 282.252Z" fill="white"/>
<path d="M188.49 305.2V315H187.776V310.338H181.224V315H180.51V305.2H181.224V309.708H187.776V305.2H188.49ZM192.108 307.692H192.808V315H192.108V307.692ZM192.458 305.914C192.299 305.914 192.164 305.863 192.052 305.76C191.94 305.648 191.884 305.513 191.884 305.354C191.884 305.195 191.94 305.06 192.052 304.948C192.164 304.836 192.299 304.78 192.458 304.78C192.617 304.78 192.752 304.836 192.864 304.948C192.976 305.051 193.032 305.181 193.032 305.34C193.032 305.499 192.976 305.634 192.864 305.746C192.752 305.858 192.617 305.914 192.458 305.914ZM199.846 307.636C200.528 307.636 201.144 307.795 201.694 308.112C202.245 308.429 202.674 308.868 202.982 309.428C203.3 309.988 203.458 310.627 203.458 311.346C203.458 312.065 203.3 312.709 202.982 313.278C202.674 313.838 202.245 314.277 201.694 314.594C201.144 314.902 200.528 315.056 199.846 315.056C199.202 315.056 198.619 314.907 198.096 314.608C197.574 314.3 197.168 313.875 196.878 313.334V317.716H196.178V307.692H196.85V309.414C197.14 308.854 197.546 308.42 198.068 308.112C198.6 307.795 199.193 307.636 199.846 307.636ZM199.804 314.426C200.364 314.426 200.868 314.295 201.316 314.034C201.764 313.773 202.114 313.409 202.366 312.942C202.628 312.475 202.758 311.943 202.758 311.346C202.758 310.749 202.628 310.217 202.366 309.75C202.114 309.283 201.764 308.919 201.316 308.658C200.868 308.397 200.364 308.266 199.804 308.266C199.244 308.266 198.74 308.397 198.292 308.658C197.854 308.919 197.504 309.283 197.242 309.75C196.99 310.217 196.864 310.749 196.864 311.346C196.864 311.943 196.99 312.475 197.242 312.942C197.504 313.409 197.854 313.773 198.292 314.034C198.74 314.295 199.244 314.426 199.804 314.426ZM209.714 307.636C210.395 307.636 211.011 307.795 211.562 308.112C212.112 308.429 212.542 308.868 212.85 309.428C213.167 309.988 213.326 310.627 213.326 311.346C213.326 312.065 213.167 312.709 212.85 313.278C212.542 313.838 212.112 314.277 211.562 314.594C211.011 314.902 210.395 315.056 209.714 315.056C209.07 315.056 208.486 314.907 207.964 314.608C207.441 314.3 207.035 313.875 206.746 313.334V317.716H206.046V307.692H206.718V309.414C207.007 308.854 207.413 308.42 207.936 308.112C208.468 307.795 209.06 307.636 209.714 307.636ZM209.672 314.426C210.232 314.426 210.736 314.295 211.184 314.034C211.632 313.773 211.982 313.409 212.234 312.942C212.495 312.475 212.626 311.943 212.626 311.346C212.626 310.749 212.495 310.217 212.234 309.75C211.982 309.283 211.632 308.919 211.184 308.658C210.736 308.397 210.232 308.266 209.672 308.266C209.112 308.266 208.608 308.397 208.16 308.658C207.721 308.919 207.371 309.283 207.11 309.75C206.858 310.217 206.732 310.749 206.732 311.346C206.732 311.943 206.858 312.475 207.11 312.942C207.371 313.409 207.721 313.773 208.16 314.034C208.608 314.295 209.112 314.426 209.672 314.426ZM218.769 315.056C218.078 315.056 217.453 314.897 216.893 314.58C216.342 314.263 215.908 313.824 215.591 313.264C215.273 312.695 215.115 312.055 215.115 311.346C215.115 310.637 215.273 310.002 215.591 309.442C215.908 308.873 216.342 308.429 216.893 308.112C217.453 307.795 218.078 307.636 218.769 307.636C219.459 307.636 220.08 307.795 220.631 308.112C221.191 308.429 221.629 308.873 221.947 309.442C222.264 310.002 222.423 310.637 222.423 311.346C222.423 312.055 222.264 312.695 221.947 313.264C221.629 313.824 221.191 314.263 220.631 314.58C220.08 314.897 219.459 315.056 218.769 315.056ZM218.769 314.426C219.329 314.426 219.828 314.295 220.267 314.034C220.715 313.773 221.065 313.409 221.317 312.942C221.578 312.475 221.709 311.943 221.709 311.346C221.709 310.749 221.578 310.217 221.317 309.75C221.065 309.283 220.715 308.919 220.267 308.658C219.828 308.397 219.329 308.266 218.769 308.266C218.209 308.266 217.705 308.397 217.257 308.658C216.818 308.919 216.468 309.283 216.207 309.75C215.955 310.217 215.829 310.749 215.829 311.346C215.829 311.943 215.955 312.475 216.207 312.942C216.468 313.409 216.818 313.773 217.257 314.034C217.705 314.295 218.209 314.426 218.769 314.426ZM227.912 315.056C227.203 315.056 226.568 314.897 226.008 314.58C225.448 314.263 225.01 313.824 224.692 313.264C224.375 312.695 224.216 312.055 224.216 311.346C224.216 310.627 224.375 309.988 224.692 309.428C225.01 308.859 225.448 308.42 226.008 308.112C226.568 307.795 227.203 307.636 227.912 307.636C228.5 307.636 229.032 307.753 229.508 307.986C229.994 308.21 230.386 308.541 230.684 308.98L230.166 309.358C229.905 308.994 229.578 308.723 229.186 308.546C228.804 308.359 228.379 308.266 227.912 308.266C227.343 308.266 226.83 308.397 226.372 308.658C225.924 308.91 225.57 309.269 225.308 309.736C225.056 310.203 224.93 310.739 224.93 311.346C224.93 311.953 225.056 312.489 225.308 312.956C225.57 313.423 225.924 313.787 226.372 314.048C226.83 314.3 227.343 314.426 227.912 314.426C228.379 314.426 228.804 314.337 229.186 314.16C229.578 313.973 229.905 313.698 230.166 313.334L230.684 313.712C230.386 314.151 229.994 314.487 229.508 314.72C229.032 314.944 228.5 315.056 227.912 315.056ZM235.664 307.636C236.569 307.636 237.265 307.869 237.75 308.336C238.235 308.793 238.478 309.47 238.478 310.366V315H237.806V313.698C237.573 314.127 237.232 314.463 236.784 314.706C236.336 314.939 235.799 315.056 235.174 315.056C234.362 315.056 233.718 314.865 233.242 314.482C232.775 314.099 232.542 313.595 232.542 312.97C232.542 312.363 232.757 311.873 233.186 311.5C233.625 311.117 234.32 310.926 235.272 310.926H237.778V310.338C237.778 309.657 237.591 309.139 237.218 308.784C236.854 308.429 236.317 308.252 235.608 308.252C235.123 308.252 234.656 308.336 234.208 308.504C233.769 308.672 233.396 308.896 233.088 309.176L232.738 308.672C233.102 308.345 233.541 308.093 234.054 307.916C234.567 307.729 235.104 307.636 235.664 307.636ZM235.272 314.482C235.879 314.482 236.392 314.342 236.812 314.062C237.241 313.782 237.563 313.376 237.778 312.844V311.472H235.286C234.567 311.472 234.045 311.603 233.718 311.864C233.401 312.125 233.242 312.485 233.242 312.942C233.242 313.418 233.419 313.796 233.774 314.076C234.129 314.347 234.628 314.482 235.272 314.482ZM243.63 315.056C243.042 315.056 242.482 314.967 241.95 314.79C241.418 314.613 241.003 314.389 240.704 314.118L241.026 313.558C241.325 313.81 241.708 314.02 242.174 314.188C242.65 314.356 243.145 314.44 243.658 314.44C244.396 314.44 244.937 314.319 245.282 314.076C245.637 313.833 245.814 313.497 245.814 313.068C245.814 312.76 245.716 312.517 245.52 312.34C245.334 312.163 245.1 312.032 244.82 311.948C244.54 311.864 244.153 311.775 243.658 311.682C243.08 311.579 242.613 311.467 242.258 311.346C241.904 311.225 241.6 311.029 241.348 310.758C241.096 310.487 240.97 310.114 240.97 309.638C240.97 309.059 241.208 308.583 241.684 308.21C242.17 307.827 242.856 307.636 243.742 307.636C244.209 307.636 244.671 307.701 245.128 307.832C245.586 307.963 245.959 308.135 246.248 308.35L245.926 308.91C245.628 308.695 245.287 308.532 244.904 308.42C244.522 308.308 244.13 308.252 243.728 308.252C243.047 308.252 242.534 308.378 242.188 308.63C241.843 308.882 241.67 309.213 241.67 309.624C241.67 309.951 241.768 310.207 241.964 310.394C242.16 310.571 242.398 310.707 242.678 310.8C242.968 310.884 243.369 310.977 243.882 311.08C244.452 311.183 244.909 311.295 245.254 311.416C245.609 311.528 245.908 311.715 246.15 311.976C246.393 312.237 246.514 312.597 246.514 313.054C246.514 313.661 246.262 314.146 245.758 314.51C245.254 314.874 244.545 315.056 243.63 315.056ZM252.514 314.538C252.336 314.706 252.112 314.837 251.842 314.93C251.58 315.014 251.305 315.056 251.016 315.056C250.381 315.056 249.891 314.883 249.546 314.538C249.2 314.183 249.028 313.693 249.028 313.068V308.294H247.684V307.692H249.028V306.096H249.728V307.692H252.052V308.294H249.728V312.998C249.728 313.474 249.84 313.838 250.064 314.09C250.297 314.333 250.638 314.454 251.086 314.454C251.543 314.454 251.921 314.319 252.22 314.048L252.514 314.538ZM257.35 307.636C258.255 307.636 258.951 307.869 259.436 308.336C259.921 308.793 260.164 309.47 260.164 310.366V315H259.492V313.698C259.259 314.127 258.918 314.463 258.47 314.706C258.022 314.939 257.485 315.056 256.86 315.056C256.048 315.056 255.404 314.865 254.928 314.482C254.461 314.099 254.228 313.595 254.228 312.97C254.228 312.363 254.443 311.873 254.872 311.5C255.311 311.117 256.006 310.926 256.958 310.926H259.464V310.338C259.464 309.657 259.277 309.139 258.904 308.784C258.54 308.429 258.003 308.252 257.294 308.252C256.809 308.252 256.342 308.336 255.894 308.504C255.455 308.672 255.082 308.896 254.774 309.176L254.424 308.672C254.788 308.345 255.227 308.093 255.74 307.916C256.253 307.729 256.79 307.636 257.35 307.636ZM256.958 314.482C257.565 314.482 258.078 314.342 258.498 314.062C258.927 313.782 259.249 313.376 259.464 312.844V311.472H256.972C256.253 311.472 255.731 311.603 255.404 311.864C255.087 312.125 254.928 312.485 254.928 312.942C254.928 313.418 255.105 313.796 255.46 314.076C255.815 314.347 256.314 314.482 256.958 314.482ZM267.038 307.636C267.953 307.636 268.676 307.902 269.208 308.434C269.74 308.966 270.006 309.731 270.006 310.73V315H269.306V310.786C269.306 309.965 269.096 309.339 268.676 308.91C268.265 308.481 267.687 308.266 266.94 308.266C266.081 308.266 265.405 308.523 264.91 309.036C264.415 309.549 264.168 310.24 264.168 311.108V315H263.468V307.692H264.14V309.274C264.392 308.761 264.765 308.359 265.26 308.07C265.764 307.781 266.357 307.636 267.038 307.636ZM275.772 307.636C276.677 307.636 277.373 307.869 277.858 308.336C278.343 308.793 278.586 309.47 278.586 310.366V315H277.914V313.698C277.681 314.127 277.34 314.463 276.892 314.706C276.444 314.939 275.907 315.056 275.282 315.056C274.47 315.056 273.826 314.865 273.35 314.482C272.883 314.099 272.65 313.595 272.65 312.97C272.65 312.363 272.865 311.873 273.294 311.5C273.733 311.117 274.428 310.926 275.38 310.926H277.886V310.338C277.886 309.657 277.699 309.139 277.326 308.784C276.962 308.429 276.425 308.252 275.716 308.252C275.231 308.252 274.764 308.336 274.316 308.504C273.877 308.672 273.504 308.896 273.196 309.176L272.846 308.672C273.21 308.345 273.649 308.093 274.162 307.916C274.675 307.729 275.212 307.636 275.772 307.636ZM275.38 314.482C275.987 314.482 276.5 314.342 276.92 314.062C277.349 313.782 277.671 313.376 277.886 312.844V311.472H275.394C274.675 311.472 274.153 311.603 273.826 311.864C273.509 312.125 273.35 312.485 273.35 312.942C273.35 313.418 273.527 313.796 273.882 314.076C274.237 314.347 274.736 314.482 275.38 314.482ZM284.802 315.056C284.092 315.056 283.458 314.897 282.898 314.58C282.338 314.263 281.899 313.824 281.582 313.264C281.264 312.695 281.106 312.055 281.106 311.346C281.106 310.627 281.264 309.988 281.582 309.428C281.899 308.859 282.338 308.42 282.898 308.112C283.458 307.795 284.092 307.636 284.802 307.636C285.39 307.636 285.922 307.753 286.398 307.986C286.883 308.21 287.275 308.541 287.574 308.98L287.056 309.358C286.794 308.994 286.468 308.723 286.076 308.546C285.693 308.359 285.268 308.266 284.802 308.266C284.232 308.266 283.719 308.397 283.262 308.658C282.814 308.91 282.459 309.269 282.198 309.736C281.946 310.203 281.82 310.739 281.82 311.346C281.82 311.953 281.946 312.489 282.198 312.956C282.459 313.423 282.814 313.787 283.262 314.048C283.719 314.3 284.232 314.426 284.802 314.426C285.268 314.426 285.693 314.337 286.076 314.16C286.468 313.973 286.794 313.698 287.056 313.334L287.574 313.712C287.275 314.151 286.883 314.487 286.398 314.72C285.922 314.944 285.39 315.056 284.802 315.056ZM296.14 311.514H289.854C289.873 312.083 290.018 312.592 290.288 313.04C290.559 313.479 290.923 313.819 291.38 314.062C291.847 314.305 292.37 314.426 292.948 314.426C293.424 314.426 293.863 314.342 294.264 314.174C294.675 313.997 295.016 313.74 295.286 313.404L295.692 313.866C295.375 314.249 294.974 314.543 294.488 314.748C294.012 314.953 293.494 315.056 292.934 315.056C292.206 315.056 291.558 314.897 290.988 314.58C290.419 314.263 289.971 313.824 289.644 313.264C289.327 312.704 289.168 312.065 289.168 311.346C289.168 310.637 289.318 310.002 289.616 309.442C289.924 308.873 290.344 308.429 290.876 308.112C291.408 307.795 292.006 307.636 292.668 307.636C293.331 307.636 293.924 307.795 294.446 308.112C294.978 308.42 295.394 308.854 295.692 309.414C296 309.974 296.154 310.609 296.154 311.318L296.14 311.514ZM292.668 308.252C292.155 308.252 291.693 308.369 291.282 308.602C290.872 308.826 290.54 309.148 290.288 309.568C290.046 309.979 289.906 310.445 289.868 310.968H295.468C295.44 310.445 295.3 309.979 295.048 309.568C294.796 309.157 294.465 308.835 294.054 308.602C293.644 308.369 293.182 308.252 292.668 308.252ZM300.999 307.636C301.904 307.636 302.599 307.869 303.085 308.336C303.57 308.793 303.813 309.47 303.813 310.366V315H303.141V313.698C302.907 314.127 302.567 314.463 302.119 314.706C301.671 314.939 301.134 315.056 300.509 315.056C299.697 315.056 299.053 314.865 298.577 314.482C298.11 314.099 297.877 313.595 297.877 312.97C297.877 312.363 298.091 311.873 298.521 311.5C298.959 311.117 299.655 310.926 300.607 310.926H303.113V310.338C303.113 309.657 302.926 309.139 302.553 308.784C302.189 308.429 301.652 308.252 300.943 308.252C300.457 308.252 299.991 308.336 299.543 308.504C299.104 308.672 298.731 308.896 298.423 309.176L298.073 308.672C298.437 308.345 298.875 308.093 299.389 307.916C299.902 307.729 300.439 307.636 300.999 307.636ZM300.607 314.482C301.213 314.482 301.727 314.342 302.147 314.062C302.576 313.782 302.898 313.376 303.113 312.844V311.472H300.621C299.902 311.472 299.379 311.603 299.053 311.864C298.735 312.125 298.577 312.485 298.577 312.942C298.577 313.418 298.754 313.796 299.109 314.076C299.463 314.347 299.963 314.482 300.607 314.482ZM313.304 311.514H307.018C307.037 312.083 307.182 312.592 307.452 313.04C307.723 313.479 308.087 313.819 308.544 314.062C309.011 314.305 309.534 314.426 310.112 314.426C310.588 314.426 311.027 314.342 311.428 314.174C311.839 313.997 312.18 313.74 312.45 313.404L312.856 313.866C312.539 314.249 312.138 314.543 311.652 314.748C311.176 314.953 310.658 315.056 310.098 315.056C309.37 315.056 308.722 314.897 308.152 314.58C307.583 314.263 307.135 313.824 306.808 313.264C306.491 312.704 306.332 312.065 306.332 311.346C306.332 310.637 306.482 310.002 306.78 309.442C307.088 308.873 307.508 308.429 308.04 308.112C308.572 307.795 309.17 307.636 309.832 307.636C310.495 307.636 311.088 307.795 311.61 308.112C312.142 308.42 312.558 308.854 312.856 309.414C313.164 309.974 313.318 310.609 313.318 311.318L313.304 311.514ZM309.832 308.252C309.319 308.252 308.857 308.369 308.446 308.602C308.036 308.826 307.704 309.148 307.452 309.568C307.21 309.979 307.07 310.445 307.032 310.968H312.632C312.604 310.445 312.464 309.979 312.212 309.568C311.96 309.157 311.629 308.835 311.218 308.602C310.808 308.369 310.346 308.252 309.832 308.252Z" fill="white"/>
<path d="M241.826 336.408H239.166V338.998H238.536V336.408H235.876V335.806H238.536V333.202H239.166V335.806H241.826V336.408ZM247.557 329.212H248.201L243.581 342.4H242.937L247.557 329.212ZM248.102 336.926H251.7V337.556H248.102V336.926ZM264.309 340.356V341H257.575V340.496L261.719 336.38C262.261 335.839 262.625 335.377 262.811 334.994C263.007 334.602 263.105 334.201 263.105 333.79C263.105 333.165 262.891 332.675 262.461 332.32C262.041 331.965 261.43 331.788 260.627 331.788C260.011 331.788 259.47 331.881 259.003 332.068C258.546 332.255 258.149 332.539 257.813 332.922L257.309 332.474C257.683 332.045 258.154 331.713 258.723 331.48C259.302 331.247 259.955 331.13 260.683 331.13C261.645 331.13 262.41 331.363 262.979 331.83C263.549 332.297 263.833 332.927 263.833 333.72C263.833 334.224 263.721 334.705 263.497 335.162C263.273 335.619 262.853 336.151 262.237 336.758L258.625 340.356H264.309ZM268.474 335.302C269.902 335.302 270.938 335.554 271.582 336.058C272.226 336.553 272.548 337.257 272.548 338.172C272.548 338.732 272.417 339.231 272.156 339.67C271.904 340.099 271.521 340.44 271.008 340.692C270.495 340.944 269.865 341.07 269.118 341.07C268.409 341.07 267.741 340.949 267.116 340.706C266.5 340.463 266.019 340.146 265.674 339.754L266.038 339.208C266.346 339.563 266.771 339.852 267.312 340.076C267.863 340.3 268.46 340.412 269.104 340.412C269.981 340.412 270.653 340.211 271.12 339.81C271.596 339.409 271.834 338.872 271.834 338.2C271.834 337.463 271.563 336.903 271.022 336.52C270.49 336.137 269.589 335.946 268.32 335.946H266.332L266.85 331.2H272.044V331.844H267.452L267.074 335.302H268.474ZM278.143 341.07C277.396 341.07 276.729 340.869 276.141 340.468C275.562 340.057 275.109 339.479 274.783 338.732C274.465 337.985 274.307 337.108 274.307 336.1C274.307 335.092 274.465 334.215 274.783 333.468C275.109 332.721 275.562 332.147 276.141 331.746C276.729 331.335 277.396 331.13 278.143 331.13C278.889 331.13 279.552 331.335 280.131 331.746C280.719 332.147 281.171 332.721 281.489 333.468C281.815 334.215 281.979 335.092 281.979 336.1C281.979 337.108 281.815 337.985 281.489 338.732C281.171 339.479 280.719 340.057 280.131 340.468C279.552 340.869 278.889 341.07 278.143 341.07ZM278.143 340.412C278.759 340.412 279.3 340.244 279.767 339.908C280.243 339.563 280.611 339.068 280.873 338.424C281.134 337.771 281.265 336.996 281.265 336.1C281.265 335.204 281.134 334.434 280.873 333.79C280.611 333.137 280.243 332.642 279.767 332.306C279.3 331.961 278.759 331.788 278.143 331.788C277.527 331.788 276.981 331.961 276.505 332.306C276.038 332.642 275.674 333.137 275.413 333.79C275.151 334.434 275.021 335.204 275.021 336.1C275.021 336.996 275.151 337.771 275.413 338.424C275.674 339.068 276.038 339.563 276.505 339.908C276.981 340.244 277.527 340.412 278.143 340.412ZM287.467 343.772C287.159 343.772 286.875 343.73 286.613 343.646C286.343 343.562 286.123 343.441 285.955 343.282L286.235 342.764C286.534 343.035 286.931 343.17 287.425 343.17C287.855 343.17 288.181 343.044 288.405 342.792C288.629 342.54 288.741 342.176 288.741 341.7V333.692H289.441V341.728C289.441 342.353 289.269 342.848 288.923 343.212C288.578 343.585 288.093 343.772 287.467 343.772ZM289.091 331.914C288.933 331.914 288.797 331.863 288.685 331.76C288.573 331.648 288.517 331.513 288.517 331.354C288.517 331.195 288.573 331.06 288.685 330.948C288.797 330.836 288.933 330.78 289.091 330.78C289.25 330.78 289.385 330.836 289.497 330.948C289.609 331.051 289.665 331.181 289.665 331.34C289.665 331.499 289.609 331.634 289.497 331.746C289.385 331.858 289.25 331.914 289.091 331.914ZM295.274 333.636C296.179 333.636 296.875 333.869 297.36 334.336C297.845 334.793 298.088 335.47 298.088 336.366V341H297.416V339.698C297.183 340.127 296.842 340.463 296.394 340.706C295.946 340.939 295.409 341.056 294.784 341.056C293.972 341.056 293.328 340.865 292.852 340.482C292.385 340.099 292.152 339.595 292.152 338.97C292.152 338.363 292.367 337.873 292.796 337.5C293.235 337.117 293.93 336.926 294.882 336.926H297.388V336.338C297.388 335.657 297.201 335.139 296.828 334.784C296.464 334.429 295.927 334.252 295.218 334.252C294.733 334.252 294.266 334.336 293.818 334.504C293.379 334.672 293.006 334.896 292.698 335.176L292.348 334.672C292.712 334.345 293.151 334.093 293.664 333.916C294.177 333.729 294.714 333.636 295.274 333.636ZM294.882 340.482C295.489 340.482 296.002 340.342 296.422 340.062C296.851 339.782 297.173 339.376 297.388 338.844V337.472H294.896C294.177 337.472 293.655 337.603 293.328 337.864C293.011 338.125 292.852 338.485 292.852 338.942C292.852 339.418 293.029 339.796 293.384 340.076C293.739 340.347 294.238 340.482 294.882 340.482ZM303.856 333.636C304.761 333.636 305.457 333.869 305.942 334.336C306.427 334.793 306.67 335.47 306.67 336.366V341H305.998V339.698C305.765 340.127 305.424 340.463 304.976 340.706C304.528 340.939 303.991 341.056 303.366 341.056C302.554 341.056 301.91 340.865 301.434 340.482C300.967 340.099 300.734 339.595 300.734 338.97C300.734 338.363 300.949 337.873 301.378 337.5C301.817 337.117 302.512 336.926 303.464 336.926H305.97V336.338C305.97 335.657 305.783 335.139 305.41 334.784C305.046 334.429 304.509 334.252 303.8 334.252C303.315 334.252 302.848 334.336 302.4 334.504C301.961 334.672 301.588 334.896 301.28 335.176L300.93 334.672C301.294 334.345 301.733 334.093 302.246 333.916C302.759 333.729 303.296 333.636 303.856 333.636ZM303.464 340.482C304.071 340.482 304.584 340.342 305.004 340.062C305.433 339.782 305.755 339.376 305.97 338.844V337.472H303.478C302.759 337.472 302.237 337.603 301.91 337.864C301.593 338.125 301.434 338.485 301.434 338.942C301.434 339.418 301.611 339.796 301.966 340.076C302.321 340.347 302.82 340.482 303.464 340.482ZM310.646 335.288C310.87 334.756 311.22 334.35 311.696 334.07C312.172 333.781 312.751 333.636 313.432 333.636V334.322L313.264 334.308C312.452 334.308 311.818 334.565 311.36 335.078C310.903 335.582 310.674 336.287 310.674 337.192V341H309.974V333.692H310.646V335.288Z" fill="white"/>
<path d="M231.809 366.356V367H225.075V366.496L229.219 362.38C229.761 361.839 230.125 361.377 230.311 360.994C230.507 360.602 230.605 360.201 230.605 359.79C230.605 359.165 230.391 358.675 229.961 358.32C229.541 357.965 228.93 357.788 228.127 357.788C227.511 357.788 226.97 357.881 226.503 358.068C226.046 358.255 225.649 358.539 225.313 358.922L224.809 358.474C225.183 358.045 225.654 357.713 226.223 357.48C226.802 357.247 227.455 357.13 228.183 357.13C229.145 357.13 229.91 357.363 230.479 357.83C231.049 358.297 231.333 358.927 231.333 359.72C231.333 360.224 231.221 360.705 230.997 361.162C230.773 361.619 230.353 362.151 229.737 362.758L226.125 366.356H231.809ZM237.361 367.07C236.614 367.07 235.947 366.869 235.359 366.468C234.78 366.057 234.328 365.479 234.001 364.732C233.684 363.985 233.525 363.108 233.525 362.1C233.525 361.092 233.684 360.215 234.001 359.468C234.328 358.721 234.78 358.147 235.359 357.746C235.947 357.335 236.614 357.13 237.361 357.13C238.108 357.13 238.77 357.335 239.349 357.746C239.937 358.147 240.39 358.721 240.707 359.468C241.034 360.215 241.197 361.092 241.197 362.1C241.197 363.108 241.034 363.985 240.707 364.732C240.39 365.479 239.937 366.057 239.349 366.468C238.77 366.869 238.108 367.07 237.361 367.07ZM237.361 366.412C237.977 366.412 238.518 366.244 238.985 365.908C239.461 365.563 239.83 365.068 240.091 364.424C240.352 363.771 240.483 362.996 240.483 362.1C240.483 361.204 240.352 360.434 240.091 359.79C239.83 359.137 239.461 358.642 238.985 358.306C238.518 357.961 237.977 357.788 237.361 357.788C236.745 357.788 236.199 357.961 235.723 358.306C235.256 358.642 234.892 359.137 234.631 359.79C234.37 360.434 234.239 361.204 234.239 362.1C234.239 362.996 234.37 363.771 234.631 364.424C234.892 365.068 235.256 365.563 235.723 365.908C236.199 366.244 236.745 366.412 237.361 366.412ZM243.381 362.926H246.979V363.556H243.381V362.926ZM251.744 361.47C252.826 361.498 253.648 361.764 254.208 362.268C254.777 362.763 255.062 363.421 255.062 364.242C255.062 364.793 254.931 365.283 254.67 365.712C254.408 366.132 254.016 366.463 253.494 366.706C252.98 366.949 252.36 367.07 251.632 367.07C250.922 367.07 250.255 366.953 249.63 366.72C249.004 366.477 248.519 366.155 248.174 365.754L248.538 365.208C248.855 365.563 249.284 365.852 249.826 366.076C250.376 366.3 250.978 366.412 251.632 366.412C252.5 366.412 253.167 366.221 253.634 365.838C254.1 365.446 254.334 364.914 254.334 364.242C254.334 363.561 254.096 363.029 253.62 362.646C253.144 362.263 252.43 362.072 251.478 362.072H250.862V361.554L253.76 357.844H248.538V357.2H254.684V357.704L251.744 361.47ZM260.824 367.07C260.078 367.07 259.41 366.869 258.822 366.468C258.244 366.057 257.791 365.479 257.464 364.732C257.147 363.985 256.988 363.108 256.988 362.1C256.988 361.092 257.147 360.215 257.464 359.468C257.791 358.721 258.244 358.147 258.822 357.746C259.41 357.335 260.078 357.13 260.824 357.13C261.571 357.13 262.234 357.335 262.812 357.746C263.4 358.147 263.853 358.721 264.17 359.468C264.497 360.215 264.66 361.092 264.66 362.1C264.66 363.108 264.497 363.985 264.17 364.732C263.853 365.479 263.4 366.057 262.812 366.468C262.234 366.869 261.571 367.07 260.824 367.07ZM260.824 366.412C261.44 366.412 261.982 366.244 262.448 365.908C262.924 365.563 263.293 365.068 263.554 364.424C263.816 363.771 263.946 362.996 263.946 362.1C263.946 361.204 263.816 360.434 263.554 359.79C263.293 359.137 262.924 358.642 262.448 358.306C261.982 357.961 261.44 357.788 260.824 357.788C260.208 357.788 259.662 357.961 259.186 358.306C258.72 358.642 258.356 359.137 258.094 359.79C257.833 360.434 257.702 361.204 257.702 362.1C257.702 362.996 257.833 363.771 258.094 364.424C258.356 365.068 258.72 365.563 259.186 365.908C259.662 366.244 260.208 366.412 260.824 366.412ZM280.453 359.636C281.358 359.636 282.068 359.902 282.581 360.434C283.104 360.966 283.365 361.731 283.365 362.73V367H282.665V362.786C282.665 361.965 282.464 361.339 282.063 360.91C281.662 360.481 281.102 360.266 280.383 360.266C279.562 360.266 278.908 360.523 278.423 361.036C277.947 361.549 277.709 362.24 277.709 363.108V367H277.009V362.786C277.009 361.965 276.808 361.339 276.407 360.91C276.006 360.481 275.446 360.266 274.727 360.266C273.906 360.266 273.252 360.523 272.767 361.036C272.291 361.549 272.053 362.24 272.053 363.108V367H271.353V359.692H272.025V361.26C272.268 360.747 272.627 360.35 273.103 360.07C273.588 359.781 274.162 359.636 274.825 359.636C275.488 359.636 276.048 359.785 276.505 360.084C276.972 360.383 277.303 360.821 277.499 361.4C277.742 360.859 278.12 360.429 278.633 360.112C279.156 359.795 279.762 359.636 280.453 359.636ZM292.863 363.514H286.577C286.596 364.083 286.74 364.592 287.011 365.04C287.282 365.479 287.646 365.819 288.103 366.062C288.57 366.305 289.092 366.426 289.671 366.426C290.147 366.426 290.586 366.342 290.987 366.174C291.398 365.997 291.738 365.74 292.009 365.404L292.415 365.866C292.098 366.249 291.696 366.543 291.211 366.748C290.735 366.953 290.217 367.056 289.657 367.056C288.929 367.056 288.28 366.897 287.711 366.58C287.142 366.263 286.694 365.824 286.367 365.264C286.05 364.704 285.891 364.065 285.891 363.346C285.891 362.637 286.04 362.002 286.339 361.442C286.647 360.873 287.067 360.429 287.599 360.112C288.131 359.795 288.728 359.636 289.391 359.636C290.054 359.636 290.646 359.795 291.169 360.112C291.701 360.42 292.116 360.854 292.415 361.414C292.723 361.974 292.877 362.609 292.877 363.318L292.863 363.514ZM289.391 360.252C288.878 360.252 288.416 360.369 288.005 360.602C287.594 360.826 287.263 361.148 287.011 361.568C286.768 361.979 286.628 362.445 286.591 362.968H292.191C292.163 362.445 292.023 361.979 291.771 361.568C291.519 361.157 291.188 360.835 290.777 360.602C290.366 360.369 289.904 360.252 289.391 360.252ZM299.088 366.538C298.911 366.706 298.687 366.837 298.416 366.93C298.155 367.014 297.88 367.056 297.59 367.056C296.956 367.056 296.466 366.883 296.12 366.538C295.775 366.183 295.602 365.693 295.602 365.068V360.294H294.258V359.692H295.602V358.096H296.302V359.692H298.626V360.294H296.302V364.998C296.302 365.474 296.414 365.838 296.638 366.09C296.872 366.333 297.212 366.454 297.66 366.454C298.118 366.454 298.496 366.319 298.794 366.048L299.088 366.538ZM307.375 363.514H301.089C301.107 364.083 301.252 364.592 301.523 365.04C301.793 365.479 302.157 365.819 302.615 366.062C303.081 366.305 303.604 366.426 304.183 366.426C304.659 366.426 305.097 366.342 305.499 366.174C305.909 365.997 306.25 365.74 306.521 365.404L306.927 365.866C306.609 366.249 306.208 366.543 305.723 366.748C305.247 366.953 304.729 367.056 304.169 367.056C303.441 367.056 302.792 366.897 302.223 366.58C301.653 366.263 301.205 365.824 300.879 365.264C300.561 364.704 300.403 364.065 300.403 363.346C300.403 362.637 300.552 362.002 300.851 361.442C301.159 360.873 301.579 360.429 302.111 360.112C302.643 359.795 303.24 359.636 303.903 359.636C304.565 359.636 305.158 359.795 305.681 360.112C306.213 360.42 306.628 360.854 306.927 361.414C307.235 361.974 307.389 362.609 307.389 363.318L307.375 363.514ZM303.903 360.252C303.389 360.252 302.927 360.369 302.517 360.602C302.106 360.826 301.775 361.148 301.523 361.568C301.28 361.979 301.14 362.445 301.103 362.968H306.703C306.675 362.445 306.535 361.979 306.283 361.568C306.031 361.157 305.699 360.835 305.289 360.602C304.878 360.369 304.416 360.252 303.903 360.252ZM310.646 361.288C310.87 360.756 311.22 360.35 311.696 360.07C312.172 359.781 312.751 359.636 313.432 359.636V360.322L313.264 360.308C312.452 360.308 311.818 360.565 311.36 361.078C310.903 361.582 310.674 362.287 310.674 363.192V367H309.974V359.692H310.646V361.288Z" fill="white"/>
<path d="M31.688 259.2V269H31.1L24.422 260.488V269H23.708V259.2H24.31L30.974 267.712V259.2H31.688ZM37.7703 261.636C38.6757 261.636 39.371 261.869 39.8563 262.336C40.3417 262.793 40.5843 263.47 40.5843 264.366V269H39.9123V267.698C39.679 268.127 39.3383 268.463 38.8903 268.706C38.4423 268.939 37.9057 269.056 37.2803 269.056C36.4683 269.056 35.8243 268.865 35.3483 268.482C34.8817 268.099 34.6483 267.595 34.6483 266.97C34.6483 266.363 34.863 265.873 35.2923 265.5C35.731 265.117 36.4263 264.926 37.3783 264.926H39.8843V264.338C39.8843 263.657 39.6977 263.139 39.3243 262.784C38.9603 262.429 38.4237 262.252 37.7143 262.252C37.229 262.252 36.7623 262.336 36.3143 262.504C35.8757 262.672 35.5023 262.896 35.1943 263.176L34.8443 262.672C35.2083 262.345 35.647 262.093 36.1603 261.916C36.6737 261.729 37.2103 261.636 37.7703 261.636ZM37.3783 268.482C37.985 268.482 38.4983 268.342 38.9183 268.062C39.3477 267.782 39.6697 267.376 39.8843 266.844V265.472H37.3923C36.6737 265.472 36.151 265.603 35.8243 265.864C35.507 266.125 35.3483 266.485 35.3483 266.942C35.3483 267.418 35.5257 267.796 35.8803 268.076C36.235 268.347 36.7343 268.482 37.3783 268.482ZM46.3525 261.636C47.2578 261.636 47.9531 261.869 48.4385 262.336C48.9238 262.793 49.1665 263.47 49.1665 264.366V269H48.4945V267.698C48.2611 268.127 47.9205 268.463 47.4725 268.706C47.0245 268.939 46.4878 269.056 45.8625 269.056C45.0505 269.056 44.4065 268.865 43.9305 268.482C43.4638 268.099 43.2305 267.595 43.2305 266.97C43.2305 266.363 43.4451 265.873 43.8745 265.5C44.3131 265.117 45.0085 264.926 45.9605 264.926H48.4665V264.338C48.4665 263.657 48.2798 263.139 47.9065 262.784C47.5425 262.429 47.0058 262.252 46.2965 262.252C45.8111 262.252 45.3445 262.336 44.8965 262.504C44.4578 262.672 44.0845 262.896 43.7765 263.176L43.4265 262.672C43.7905 262.345 44.2291 262.093 44.7425 261.916C45.2558 261.729 45.7925 261.636 46.3525 261.636ZM45.9605 268.482C46.5671 268.482 47.0805 268.342 47.5005 268.062C47.9298 267.782 48.2518 267.376 48.4665 266.844V265.472H45.9745C45.2558 265.472 44.7331 265.603 44.4065 265.864C44.0891 266.125 43.9305 266.485 43.9305 266.942C43.9305 267.418 44.1078 267.796 44.4625 268.076C44.8171 268.347 45.3165 268.482 45.9605 268.482ZM61.5706 261.636C62.4759 261.636 63.1852 261.902 63.6986 262.434C64.2212 262.966 64.4826 263.731 64.4826 264.73V269H63.7826V264.786C63.7826 263.965 63.5819 263.339 63.1806 262.91C62.7792 262.481 62.2192 262.266 61.5006 262.266C60.6792 262.266 60.0259 262.523 59.5406 263.036C59.0646 263.549 58.8266 264.24 58.8266 265.108V269H58.1266V264.786C58.1266 263.965 57.9259 263.339 57.5246 262.91C57.1232 262.481 56.5632 262.266 55.8446 262.266C55.0232 262.266 54.3699 262.523 53.8846 263.036C53.4086 263.549 53.1706 264.24 53.1706 265.108V269H52.4706V261.692H53.1426V263.26C53.3852 262.747 53.7446 262.35 54.2206 262.07C54.7059 261.781 55.2799 261.636 55.9426 261.636C56.6052 261.636 57.1652 261.785 57.6226 262.084C58.0892 262.383 58.4206 262.821 58.6166 263.4C58.8592 262.859 59.2372 262.429 59.7506 262.112C60.2732 261.795 60.8799 261.636 61.5706 261.636Z" fill="white"/>
<path d="M24.422 305.844V310.03H29.644V310.674H24.422V315H23.708V305.2H30.26V305.844H24.422ZM34.8719 307.636C35.7772 307.636 36.4726 307.869 36.9579 308.336C37.4432 308.793 37.6859 309.47 37.6859 310.366V315H37.0139V313.698C36.7806 314.127 36.4399 314.463 35.9919 314.706C35.5439 314.939 35.0072 315.056 34.3819 315.056C33.5699 315.056 32.9259 314.865 32.4499 314.482C31.9832 314.099 31.7499 313.595 31.7499 312.97C31.7499 312.363 31.9646 311.873 32.3939 311.5C32.8326 311.117 33.5279 310.926 34.4799 310.926H36.9859V310.338C36.9859 309.657 36.7992 309.139 36.4259 308.784C36.0619 308.429 35.5252 308.252 34.8159 308.252C34.3306 308.252 33.8639 308.336 33.4159 308.504C32.9772 308.672 32.6039 308.896 32.2959 309.176L31.9459 308.672C32.3099 308.345 32.7486 308.093 33.2619 307.916C33.7752 307.729 34.3119 307.636 34.8719 307.636ZM34.4799 314.482C35.0866 314.482 35.5999 314.342 36.0199 314.062C36.4492 313.782 36.7712 313.376 36.9859 312.844V311.472H34.4939C33.7752 311.472 33.2526 311.603 32.9259 311.864C32.6086 312.125 32.4499 312.485 32.4499 312.942C32.4499 313.418 32.6272 313.796 32.9819 314.076C33.3366 314.347 33.8359 314.482 34.4799 314.482ZM50.09 307.636C50.9953 307.636 51.7047 307.902 52.218 308.434C52.7407 308.966 53.002 309.731 53.002 310.73V315H52.302V310.786C52.302 309.965 52.1013 309.339 51.7 308.91C51.2987 308.481 50.7387 308.266 50.02 308.266C49.1987 308.266 48.5453 308.523 48.06 309.036C47.584 309.549 47.346 310.24 47.346 311.108V315H46.646V310.786C46.646 309.965 46.4453 309.339 46.044 308.91C45.6427 308.481 45.0827 308.266 44.364 308.266C43.5427 308.266 42.8893 308.523 42.404 309.036C41.928 309.549 41.69 310.24 41.69 311.108V315H40.99V307.692H41.662V309.26C41.9047 308.747 42.264 308.35 42.74 308.07C43.2253 307.781 43.7993 307.636 44.462 307.636C45.1247 307.636 45.6847 307.785 46.142 308.084C46.6087 308.383 46.94 308.821 47.136 309.4C47.3787 308.859 47.7567 308.429 48.27 308.112C48.7927 307.795 49.3993 307.636 50.09 307.636ZM56.3124 307.692H57.0124V315H56.3124V307.692ZM56.6624 305.914C56.5037 305.914 56.3684 305.863 56.2564 305.76C56.1444 305.648 56.0884 305.513 56.0884 305.354C56.0884 305.195 56.1444 305.06 56.2564 304.948C56.3684 304.836 56.5037 304.78 56.6624 304.78C56.821 304.78 56.9564 304.836 57.0684 304.948C57.1804 305.051 57.2364 305.181 57.2364 305.34C57.2364 305.499 57.1804 305.634 57.0684 305.746C56.9564 305.858 56.821 305.914 56.6624 305.914ZM60.3828 304.612H61.0828V315H60.3828V304.612ZM64.4531 307.692H65.1531V315H64.4531V307.692ZM64.8031 305.914C64.6445 305.914 64.5091 305.863 64.3971 305.76C64.2851 305.648 64.2291 305.513 64.2291 305.354C64.2291 305.195 64.2851 305.06 64.3971 304.948C64.5091 304.836 64.6445 304.78 64.8031 304.78C64.9618 304.78 65.0971 304.836 65.2091 304.948C65.3211 305.051 65.3771 305.181 65.3771 305.34C65.3771 305.499 65.3211 305.634 65.2091 305.746C65.0971 305.858 64.9618 305.914 64.8031 305.914ZM74.6975 311.514H68.4115C68.4302 312.083 68.5749 312.592 68.8455 313.04C69.1162 313.479 69.4802 313.819 69.9375 314.062C70.4042 314.305 70.9269 314.426 71.5055 314.426C71.9815 314.426 72.4202 314.342 72.8215 314.174C73.2322 313.997 73.5729 313.74 73.8435 313.404L74.2495 313.866C73.9322 314.249 73.5309 314.543 73.0455 314.748C72.5695 314.953 72.0515 315.056 71.4915 315.056C70.7635 315.056 70.1149 314.897 69.5455 314.58C68.9762 314.263 68.5282 313.824 68.2015 313.264C67.8842 312.704 67.7255 312.065 67.7255 311.346C67.7255 310.637 67.8749 310.002 68.1735 309.442C68.4815 308.873 68.9015 308.429 69.4335 308.112C69.9655 307.795 70.5629 307.636 71.2255 307.636C71.8882 307.636 72.4809 307.795 73.0035 308.112C73.5355 308.42 73.9509 308.854 74.2495 309.414C74.5575 309.974 74.7115 310.609 74.7115 311.318L74.6975 311.514ZM71.2255 308.252C70.7122 308.252 70.2502 308.369 69.8395 308.602C69.4289 308.826 69.0975 309.148 68.8455 309.568C68.6029 309.979 68.4629 310.445 68.4255 310.968H74.0255C73.9975 310.445 73.8575 309.979 73.6055 309.568C73.3535 309.157 73.0222 308.835 72.6115 308.602C72.2009 308.369 71.7389 308.252 71.2255 308.252Z" fill="white"/>
<path d="M24.708 331.2H25.422V340.356H31.064V341H24.708V331.2ZM39.1444 337.514H32.8584C32.8771 338.083 33.0217 338.592 33.2924 339.04C33.5631 339.479 33.9271 339.819 34.3844 340.062C34.8511 340.305 35.3737 340.426 35.9524 340.426C36.4284 340.426 36.8671 340.342 37.2684 340.174C37.6791 339.997 38.0197 339.74 38.2904 339.404L38.6964 339.866C38.3791 340.249 37.9777 340.543 37.4924 340.748C37.0164 340.953 36.4984 341.056 35.9384 341.056C35.2104 341.056 34.5617 340.897 33.9924 340.58C33.4231 340.263 32.9751 339.824 32.6484 339.264C32.3311 338.704 32.1724 338.065 32.1724 337.346C32.1724 336.637 32.3217 336.002 32.6204 335.442C32.9284 334.873 33.3484 334.429 33.8804 334.112C34.4124 333.795 35.0097 333.636 35.6724 333.636C36.3351 333.636 36.9277 333.795 37.4504 334.112C37.9824 334.42 38.3977 334.854 38.6964 335.414C39.0044 335.974 39.1584 336.609 39.1584 337.318L39.1444 337.514ZM35.6724 334.252C35.1591 334.252 34.6971 334.369 34.2864 334.602C33.8757 334.826 33.5444 335.148 33.2924 335.568C33.0497 335.979 32.9097 336.445 32.8724 336.968H38.4724C38.4444 336.445 38.3044 335.979 38.0524 335.568C37.8004 335.157 37.4691 334.835 37.0584 334.602C36.6477 334.369 36.1857 334.252 35.6724 334.252ZM47.9179 337.514H41.6319C41.6506 338.083 41.7953 338.592 42.0659 339.04C42.3366 339.479 42.7006 339.819 43.1579 340.062C43.6246 340.305 44.1473 340.426 44.7259 340.426C45.2019 340.426 45.6406 340.342 46.0419 340.174C46.4526 339.997 46.7933 339.74 47.0639 339.404L47.4699 339.866C47.1526 340.249 46.7513 340.543 46.2659 340.748C45.7899 340.953 45.2719 341.056 44.7119 341.056C43.9839 341.056 43.3353 340.897 42.7659 340.58C42.1966 340.263 41.7486 339.824 41.4219 339.264C41.1046 338.704 40.9459 338.065 40.9459 337.346C40.9459 336.637 41.0953 336.002 41.3939 335.442C41.7019 334.873 42.1219 334.429 42.6539 334.112C43.1859 333.795 43.7833 333.636 44.4459 333.636C45.1086 333.636 45.7013 333.795 46.2239 334.112C46.7559 334.42 47.1713 334.854 47.4699 335.414C47.7779 335.974 47.9319 336.609 47.9319 337.318L47.9179 337.514ZM44.4459 334.252C43.9326 334.252 43.4706 334.369 43.0599 334.602C42.6493 334.826 42.3179 335.148 42.0659 335.568C41.8233 335.979 41.6833 336.445 41.6459 336.968H47.2459C47.2179 336.445 47.0779 335.979 46.8259 335.568C46.5739 335.157 46.2426 334.835 45.8319 334.602C45.4213 334.369 44.9593 334.252 44.4459 334.252ZM52.7154 331.158C51.8008 331.158 51.3434 331.648 51.3434 332.628V333.692H53.6814V334.294H51.3574V341H50.6574V334.294H49.3134V333.692H50.6574V332.572C50.6574 331.956 50.8348 331.466 51.1894 331.102C51.5441 330.738 52.0434 330.556 52.6874 330.556C52.9674 330.556 53.2334 330.598 53.4854 330.682C53.7468 330.757 53.9614 330.873 54.1294 331.032L53.8494 331.564C53.5508 331.293 53.1728 331.158 52.7154 331.158ZM59.1572 340.538C58.9799 340.706 58.7559 340.837 58.4852 340.93C58.2239 341.014 57.9485 341.056 57.6592 341.056C57.0245 341.056 56.5345 340.883 56.1892 340.538C55.8439 340.183 55.6712 339.693 55.6712 339.068V334.294H54.3272V333.692H55.6712V332.096H56.3712V333.692H58.6952V334.294H56.3712V338.998C56.3712 339.474 56.4832 339.838 56.7072 340.09C56.9405 340.333 57.2812 340.454 57.7292 340.454C58.1865 340.454 58.5645 340.319 58.8632 340.048L59.1572 340.538ZM61.5293 333.692H62.2293V341H61.5293V333.692ZM61.8793 331.914C61.7206 331.914 61.5853 331.863 61.4733 331.76C61.3613 331.648 61.3053 331.513 61.3053 331.354C61.3053 331.195 61.3613 331.06 61.4733 330.948C61.5853 330.836 61.7206 330.78 61.8793 330.78C62.038 330.78 62.1733 330.836 62.2853 330.948C62.3973 331.051 62.4533 331.181 62.4533 331.34C62.4533 331.499 62.3973 331.634 62.2853 331.746C62.1733 331.858 62.038 331.914 61.8793 331.914ZM64.3957 343.772C64.0877 343.772 63.803 343.73 63.5417 343.646C63.271 343.562 63.0517 343.441 62.8837 343.282L63.1637 342.764C63.4624 343.035 63.859 343.17 64.3537 343.17C64.783 343.17 65.1097 343.044 65.3337 342.792C65.5577 342.54 65.6697 342.176 65.6697 341.7V333.692H66.3697V341.728C66.3697 342.353 66.197 342.848 65.8517 343.212C65.5064 343.585 65.021 343.772 64.3957 343.772ZM66.0197 331.914C65.861 331.914 65.7257 331.863 65.6137 331.76C65.5017 331.648 65.4457 331.513 65.4457 331.354C65.4457 331.195 65.5017 331.06 65.6137 330.948C65.7257 330.836 65.861 330.78 66.0197 330.78C66.1784 330.78 66.3137 330.836 66.4257 330.948C66.5377 331.051 66.5937 331.181 66.5937 331.34C66.5937 331.499 66.5377 331.634 66.4257 331.746C66.3137 331.858 66.1784 331.914 66.0197 331.914ZM76.2345 330.612V341H75.5485V339.278C75.2591 339.847 74.8531 340.286 74.3305 340.594C73.8078 340.902 73.2151 341.056 72.5525 341.056C71.8711 341.056 71.2551 340.897 70.7045 340.58C70.1538 340.263 69.7198 339.824 69.4025 339.264C69.0945 338.704 68.9405 338.065 68.9405 337.346C68.9405 336.627 69.0945 335.988 69.4025 335.428C69.7198 334.859 70.1538 334.42 70.7045 334.112C71.2551 333.795 71.8711 333.636 72.5525 333.636C73.2058 333.636 73.7891 333.79 74.3025 334.098C74.8251 334.406 75.2358 334.835 75.5345 335.386V330.612H76.2345ZM72.5945 340.426C73.1545 340.426 73.6538 340.295 74.0925 340.034C74.5405 339.773 74.8905 339.409 75.1425 338.942C75.4038 338.475 75.5345 337.943 75.5345 337.346C75.5345 336.749 75.4038 336.217 75.1425 335.75C74.8905 335.283 74.5405 334.919 74.0925 334.658C73.6538 334.397 73.1545 334.266 72.5945 334.266C72.0345 334.266 71.5305 334.397 71.0825 334.658C70.6438 334.919 70.2938 335.283 70.0325 335.75C69.7805 336.217 69.6545 336.749 69.6545 337.346C69.6545 337.943 69.7805 338.475 70.0325 338.942C70.2938 339.409 70.6438 339.773 71.0825 340.034C71.5305 340.295 72.0345 340.426 72.5945 340.426Z" fill="white"/>
<path d="M23.708 357.2H24.422V366.356H30.064V367H23.708V357.2ZM38.1444 363.514H31.8584C31.8771 364.083 32.0217 364.592 32.2924 365.04C32.5631 365.479 32.9271 365.819 33.3844 366.062C33.8511 366.305 34.3737 366.426 34.9524 366.426C35.4284 366.426 35.8671 366.342 36.2684 366.174C36.6791 365.997 37.0197 365.74 37.2904 365.404L37.6964 365.866C37.3791 366.249 36.9777 366.543 36.4924 366.748C36.0164 366.953 35.4984 367.056 34.9384 367.056C34.2104 367.056 33.5617 366.897 32.9924 366.58C32.4231 366.263 31.9751 365.824 31.6484 365.264C31.3311 364.704 31.1724 364.065 31.1724 363.346C31.1724 362.637 31.3217 362.002 31.6204 361.442C31.9284 360.873 32.3484 360.429 32.8804 360.112C33.4124 359.795 34.0097 359.636 34.6724 359.636C35.3351 359.636 35.9277 359.795 36.4504 360.112C36.9824 360.42 37.3977 360.854 37.6964 361.414C38.0044 361.974 38.1584 362.609 38.1584 363.318L38.1444 363.514ZM34.6724 360.252C34.1591 360.252 33.6971 360.369 33.2864 360.602C32.8757 360.826 32.5444 361.148 32.2924 361.568C32.0497 361.979 31.9097 362.445 31.8724 362.968H37.4724C37.4444 362.445 37.3044 361.979 37.0524 361.568C36.8004 361.157 36.4691 360.835 36.0584 360.602C35.6477 360.369 35.1857 360.252 34.6724 360.252ZM44.3139 359.636C45.2286 359.636 45.9519 359.902 46.4839 360.434C47.0159 360.966 47.2819 361.731 47.2819 362.73V367H46.5819V362.786C46.5819 361.965 46.3719 361.339 45.9519 360.91C45.5413 360.481 44.9626 360.266 44.2159 360.266C43.3573 360.266 42.6806 360.523 42.1859 361.036C41.6913 361.549 41.4439 362.24 41.4439 363.108V367H40.7439V359.692H41.4159V361.274C41.6679 360.761 42.0413 360.359 42.5359 360.07C43.0399 359.781 43.6326 359.636 44.3139 359.636ZM57.1775 359.692V366.216C57.1775 367.429 56.8835 368.325 56.2955 368.904C55.7075 369.483 54.8208 369.772 53.6355 369.772C52.9635 369.772 52.3288 369.669 51.7315 369.464C51.1342 369.259 50.6535 368.974 50.2895 368.61L50.6675 368.078C51.0315 368.414 51.4702 368.675 51.9835 368.862C52.4968 369.049 53.0428 369.142 53.6215 369.142C54.5922 369.142 55.3108 368.909 55.7775 368.442C56.2442 367.985 56.4775 367.271 56.4775 366.3V365.068C56.1788 365.6 55.7635 366.011 55.2315 366.3C54.6995 366.589 54.1022 366.734 53.4395 366.734C52.7582 366.734 52.1375 366.585 51.5775 366.286C51.0268 365.978 50.5928 365.553 50.2755 365.012C49.9582 364.471 49.7995 363.859 49.7995 363.178C49.7995 362.497 49.9582 361.885 50.2755 361.344C50.5928 360.803 51.0268 360.383 51.5775 360.084C52.1375 359.785 52.7582 359.636 53.4395 359.636C54.1115 359.636 54.7182 359.785 55.2595 360.084C55.8008 360.383 56.2162 360.803 56.5055 361.344V359.692H57.1775ZM53.4955 366.104C54.0648 366.104 54.5782 365.983 55.0355 365.74C55.4928 365.488 55.8475 365.143 56.0995 364.704C56.3608 364.256 56.4915 363.747 56.4915 363.178C56.4915 362.609 56.3608 362.105 56.0995 361.666C55.8475 361.227 55.4928 360.887 55.0355 360.644C54.5782 360.392 54.0648 360.266 53.4955 360.266C52.9262 360.266 52.4128 360.392 51.9555 360.644C51.5075 360.887 51.1528 361.227 50.8915 361.666C50.6395 362.105 50.5135 362.609 50.5135 363.178C50.5135 363.747 50.6395 364.256 50.8915 364.704C51.1528 365.143 51.5075 365.488 51.9555 365.74C52.4128 365.983 52.9262 366.104 53.4955 366.104ZM64.1865 366.538C64.0092 366.706 63.7852 366.837 63.5145 366.93C63.2532 367.014 62.9778 367.056 62.6885 367.056C62.0538 367.056 61.5638 366.883 61.2185 366.538C60.8732 366.183 60.7005 365.693 60.7005 365.068V360.294H59.3565V359.692H60.7005V358.096H61.4005V359.692H63.7245V360.294H61.4005V364.998C61.4005 365.474 61.5125 365.838 61.7365 366.09C61.9698 366.333 62.3105 366.454 62.7585 366.454C63.2158 366.454 63.5938 366.319 63.8925 366.048L64.1865 366.538ZM72.4728 363.514H66.1868C66.2055 364.083 66.3502 364.592 66.6208 365.04C66.8915 365.479 67.2555 365.819 67.7128 366.062C68.1795 366.305 68.7022 366.426 69.2808 366.426C69.7568 366.426 70.1955 366.342 70.5968 366.174C71.0075 365.997 71.3482 365.74 71.6188 365.404L72.0248 365.866C71.7075 366.249 71.3062 366.543 70.8208 366.748C70.3448 366.953 69.8268 367.056 69.2668 367.056C68.5388 367.056 67.8902 366.897 67.3208 366.58C66.7515 366.263 66.3035 365.824 65.9768 365.264C65.6595 364.704 65.5008 364.065 65.5008 363.346C65.5008 362.637 65.6502 362.002 65.9488 361.442C66.2568 360.873 66.6768 360.429 67.2088 360.112C67.7408 359.795 68.3382 359.636 69.0008 359.636C69.6635 359.636 70.2562 359.795 70.7788 360.112C71.3108 360.42 71.7262 360.854 72.0248 361.414C72.3328 361.974 72.4868 362.609 72.4868 363.318L72.4728 363.514ZM69.0008 360.252C68.4875 360.252 68.0255 360.369 67.6148 360.602C67.2042 360.826 66.8728 361.148 66.6208 361.568C66.3782 361.979 66.2382 362.445 66.2008 362.968H71.8008C71.7728 362.445 71.6328 361.979 71.3808 361.568C71.1288 361.157 70.7975 360.835 70.3868 360.602C69.9762 360.369 69.5142 360.252 69.0008 360.252Z" fill="white"/>
<path d="M164.868 264.926H168.466V265.556H164.868V264.926Z" fill="white"/>
<path d="M164.868 310.926H168.466V311.556H164.868V310.926Z" fill="white"/>
<path d="M164.868 336.926H168.466V337.556H164.868V336.926Z" fill="white"/>
<path d="M165.868 362.926H169.466V363.556H165.868V362.926Z" fill="white"/>
<path d="M55.1438 6.2L49.4798 23H47.6078L42.6878 8.672L37.7438 23H35.8958L30.2318 6.2H32.0558L36.9038 20.648L41.9198 6.2H43.5758L48.5198 20.72L53.4398 6.2H55.1438ZM57.9698 10.376H59.6738V23H57.9698V10.376ZM58.8338 7.616C58.4818 7.616 58.1858 7.496 57.9458 7.256C57.7058 7.016 57.5858 6.728 57.5858 6.392C57.5858 6.072 57.7058 5.792 57.9458 5.552C58.1858 5.312 58.4818 5.192 58.8338 5.192C59.1858 5.192 59.4818 5.312 59.7218 5.552C59.9618 5.776 60.0818 6.048 60.0818 6.368C60.0818 6.72 59.9618 7.016 59.7218 7.256C59.4818 7.496 59.1858 7.616 58.8338 7.616ZM71.0631 22.232C70.7431 22.52 70.3431 22.744 69.8631 22.904C69.3991 23.048 68.9111 23.12 68.3991 23.12C67.2151 23.12 66.3031 22.8 65.6631 22.16C65.0231 21.52 64.7031 20.616 64.7031 19.448V11.816H62.4471V10.376H64.7031V7.616H66.4071V10.376H70.2471V11.816H66.4071V19.352C66.4071 20.104 66.5911 20.68 66.9591 21.08C67.3431 21.464 67.8871 21.656 68.5911 21.656C68.9431 21.656 69.2791 21.6 69.5991 21.488C69.9351 21.376 70.2231 21.216 70.4631 21.008L71.0631 22.232ZM80.4849 22.232C80.1649 22.52 79.7649 22.744 79.2849 22.904C78.8209 23.048 78.3329 23.12 77.8209 23.12C76.6369 23.12 75.7249 22.8 75.0849 22.16C74.4449 21.52 74.1249 20.616 74.1249 19.448V11.816H71.8689V10.376H74.1249V7.616H75.8289V10.376H79.6689V11.816H75.8289V19.352C75.8289 20.104 76.0129 20.68 76.3809 21.08C76.7649 21.464 77.3089 21.656 78.0129 21.656C78.3649 21.656 78.7009 21.6 79.0209 21.488C79.3569 21.376 79.6449 21.216 79.8849 21.008L80.4849 22.232ZM94.1336 17.216H83.5736C83.6696 18.528 84.1736 19.592 85.0856 20.408C85.9976 21.208 87.1496 21.608 88.5416 21.608C89.3256 21.608 90.0456 21.472 90.7016 21.2C91.3576 20.912 91.9256 20.496 92.4056 19.952L93.3656 21.056C92.8056 21.728 92.1016 22.24 91.2536 22.592C90.4216 22.944 89.5016 23.12 88.4936 23.12C87.1976 23.12 86.0456 22.848 85.0376 22.304C84.0456 21.744 83.2696 20.976 82.7096 20C82.1496 19.024 81.8696 17.92 81.8696 16.688C81.8696 15.456 82.1336 14.352 82.6616 13.376C83.2056 12.4 83.9416 11.64 84.8696 11.096C85.8136 10.552 86.8696 10.28 88.0376 10.28C89.2056 10.28 90.2536 10.552 91.1816 11.096C92.1096 11.64 92.8376 12.4 93.3656 13.376C93.8936 14.336 94.1576 15.44 94.1576 16.688L94.1336 17.216ZM88.0376 11.744C86.8216 11.744 85.7976 12.136 84.9656 12.92C84.1496 13.688 83.6856 14.696 83.5736 15.944H92.5256C92.4136 14.696 91.9416 13.688 91.1096 12.92C90.2936 12.136 89.2696 11.744 88.0376 11.744ZM110.411 10.28C111.595 10.28 112.667 10.552 113.627 11.096C114.587 11.624 115.339 12.376 115.883 13.352C116.427 14.328 116.699 15.44 116.699 16.688C116.699 17.952 116.427 19.072 115.883 20.048C115.339 21.024 114.587 21.784 113.627 22.328C112.683 22.856 111.611 23.12 110.411 23.12C109.387 23.12 108.459 22.912 107.627 22.496C106.811 22.064 106.139 21.44 105.611 20.624V27.656H103.907V10.376H105.539V12.872C106.051 12.04 106.723 11.4 107.555 10.952C108.403 10.504 109.355 10.28 110.411 10.28ZM110.291 21.608C111.171 21.608 111.971 21.408 112.691 21.008C113.411 20.592 113.971 20.008 114.371 19.256C114.787 18.504 114.995 17.648 114.995 16.688C114.995 15.728 114.787 14.88 114.371 14.144C113.971 13.392 113.411 12.808 112.691 12.392C111.971 11.976 111.171 11.768 110.291 11.768C109.395 11.768 108.587 11.976 107.867 12.392C107.163 12.808 106.603 13.392 106.187 14.144C105.787 14.88 105.587 15.728 105.587 16.688C105.587 17.648 105.787 18.504 106.187 19.256C106.603 20.008 107.163 20.592 107.867 21.008C108.587 21.408 109.395 21.608 110.291 21.608ZM124.519 10.28C126.167 10.28 127.431 10.696 128.311 11.528C129.191 12.344 129.631 13.56 129.631 15.176V23H127.999V21.032C127.615 21.688 127.047 22.2 126.295 22.568C125.559 22.936 124.679 23.12 123.655 23.12C122.247 23.12 121.127 22.784 120.295 22.112C119.463 21.44 119.047 20.552 119.047 19.448C119.047 18.376 119.431 17.512 120.199 16.856C120.983 16.2 122.223 15.872 123.919 15.872H127.927V15.104C127.927 14.016 127.623 13.192 127.015 12.632C126.407 12.056 125.519 11.768 124.351 11.768C123.551 11.768 122.783 11.904 122.047 12.176C121.311 12.432 120.679 12.792 120.151 13.256L119.383 11.984C120.023 11.44 120.791 11.024 121.687 10.736C122.583 10.432 123.527 10.28 124.519 10.28ZM123.919 21.776C124.879 21.776 125.703 21.56 126.391 21.128C127.079 20.68 127.591 20.04 127.927 19.208V17.144H123.967C121.807 17.144 120.727 17.896 120.727 19.4C120.727 20.136 121.007 20.72 121.567 21.152C122.127 21.568 122.911 21.776 123.919 21.776ZM138.675 10.28C140.323 10.28 141.587 10.696 142.467 11.528C143.347 12.344 143.787 13.56 143.787 15.176V23H142.155V21.032C141.771 21.688 141.203 22.2 140.451 22.568C139.715 22.936 138.835 23.12 137.811 23.12C136.403 23.12 135.283 22.784 134.451 22.112C133.619 21.44 133.203 20.552 133.203 19.448C133.203 18.376 133.587 17.512 134.355 16.856C135.139 16.2 136.379 15.872 138.075 15.872H142.083V15.104C142.083 14.016 141.779 13.192 141.171 12.632C140.563 12.056 139.675 11.768 138.507 11.768C137.707 11.768 136.939 11.904 136.203 12.176C135.467 12.432 134.835 12.792 134.307 13.256L133.539 11.984C134.179 11.44 134.947 11.024 135.843 10.736C136.739 10.432 137.683 10.28 138.675 10.28ZM138.075 21.776C139.035 21.776 139.859 21.56 140.547 21.128C141.235 20.68 141.747 20.04 142.083 19.208V17.144H138.123C135.963 17.144 134.883 17.896 134.883 19.4C134.883 20.136 135.163 20.72 135.723 21.152C136.283 21.568 137.067 21.776 138.075 21.776ZM150.047 12.848C150.447 12 151.039 11.36 151.823 10.928C152.623 10.496 153.607 10.28 154.775 10.28V11.936L154.367 11.912C153.039 11.912 151.999 12.32 151.247 13.136C150.495 13.952 150.119 15.096 150.119 16.568V23H148.415V10.376H150.047V12.848ZM169.263 5.192V23H167.631V20.504C167.119 21.352 166.439 22 165.591 22.448C164.759 22.896 163.815 23.12 162.759 23.12C161.575 23.12 160.503 22.848 159.543 22.304C158.583 21.76 157.831 21 157.287 20.024C156.743 19.048 156.471 17.936 156.471 16.688C156.471 15.44 156.743 14.328 157.287 13.352C157.831 12.376 158.583 11.624 159.543 11.096C160.503 10.552 161.575 10.28 162.759 10.28C163.783 10.28 164.703 10.496 165.519 10.928C166.351 11.344 167.031 11.96 167.559 12.776V5.192H169.263ZM162.903 21.608C163.783 21.608 164.575 21.408 165.279 21.008C165.999 20.592 166.559 20.008 166.959 19.256C167.375 18.504 167.583 17.648 167.583 16.688C167.583 15.728 167.375 14.872 166.959 14.12C166.559 13.368 165.999 12.792 165.279 12.392C164.575 11.976 163.783 11.768 162.903 11.768C162.007 11.768 161.199 11.976 160.479 12.392C159.775 12.792 159.215 13.368 158.799 14.12C158.399 14.872 158.199 15.728 158.199 16.688C158.199 17.648 158.399 18.504 158.799 19.256C159.215 20.008 159.775 20.592 160.479 21.008C161.199 21.408 162.007 21.608 162.903 21.608ZM185.001 17.216H174.441C174.537 18.528 175.041 19.592 175.953 20.408C176.865 21.208 178.017 21.608 179.409 21.608C180.193 21.608 180.913 21.472 181.569 21.2C182.225 20.912 182.793 20.496 183.273 19.952L184.233 21.056C183.673 21.728 182.969 22.24 182.121 22.592C181.289 22.944 180.369 23.12 179.361 23.12C178.065 23.12 176.913 22.848 175.905 22.304C174.913 21.744 174.137 20.976 173.577 20C173.017 19.024 172.737 17.92 172.737 16.688C172.737 15.456 173.001 14.352 173.529 13.376C174.073 12.4 174.809 11.64 175.737 11.096C176.681 10.552 177.737 10.28 178.905 10.28C180.073 10.28 181.121 10.552 182.049 11.096C182.977 11.64 183.705 12.4 184.233 13.376C184.761 14.336 185.025 15.44 185.025 16.688L185.001 17.216ZM178.905 11.744C177.689 11.744 176.665 12.136 175.833 12.92C175.017 13.688 174.553 14.696 174.441 15.944H183.393C183.281 14.696 182.809 13.688 181.977 12.92C181.161 12.136 180.137 11.744 178.905 11.744ZM194.925 10.28C196.509 10.28 197.765 10.744 198.693 11.672C199.637 12.584 200.109 13.92 200.109 15.68V23H198.405V15.848C198.405 14.536 198.077 13.536 197.421 12.848C196.765 12.16 195.829 11.816 194.613 11.816C193.253 11.816 192.173 12.224 191.373 13.04C190.589 13.84 190.197 14.952 190.197 16.376V23H188.493V10.376H190.125V12.704C190.589 11.936 191.229 11.344 192.045 10.928C192.877 10.496 193.837 10.28 194.925 10.28ZM209.415 16.664L206.439 19.4V23H204.735V5.192H206.439V17.264L213.975 10.376H216.087L210.687 15.536L216.591 23H214.503L209.415 16.664ZM223.331 10.28C224.979 10.28 226.243 10.696 227.123 11.528C228.003 12.344 228.443 13.56 228.443 15.176V23H226.811V21.032C226.427 21.688 225.859 22.2 225.107 22.568C224.371 22.936 223.491 23.12 222.467 23.12C221.059 23.12 219.939 22.784 219.107 22.112C218.275 21.44 217.859 20.552 217.859 19.448C217.859 18.376 218.243 17.512 219.011 16.856C219.795 16.2 221.035 15.872 222.731 15.872H226.739V15.104C226.739 14.016 226.435 13.192 225.827 12.632C225.219 12.056 224.331 11.768 223.163 11.768C222.363 11.768 221.595 11.904 220.859 12.176C220.123 12.432 219.491 12.792 218.963 13.256L218.195 11.984C218.835 11.44 219.603 11.024 220.499 10.736C221.395 10.432 222.339 10.28 223.331 10.28ZM222.731 21.776C223.691 21.776 224.515 21.56 225.203 21.128C225.891 20.68 226.403 20.04 226.739 19.208V17.144H222.779C220.619 17.144 219.539 17.896 219.539 19.4C219.539 20.136 219.819 20.72 220.379 21.152C220.939 21.568 221.723 21.776 222.731 21.776ZM236.455 23.12C235.431 23.12 234.447 22.976 233.503 22.688C232.575 22.384 231.847 22.008 231.319 21.56L232.087 20.216C232.615 20.632 233.279 20.976 234.079 21.248C234.879 21.504 235.711 21.632 236.575 21.632C237.727 21.632 238.575 21.456 239.119 21.104C239.679 20.736 239.959 20.224 239.959 19.568C239.959 19.104 239.807 18.744 239.503 18.488C239.199 18.216 238.815 18.016 238.351 17.888C237.887 17.744 237.271 17.608 236.503 17.48C235.479 17.288 234.655 17.096 234.031 16.904C233.407 16.696 232.871 16.352 232.423 15.872C231.991 15.392 231.775 14.728 231.775 13.88C231.775 12.824 232.215 11.96 233.095 11.288C233.975 10.616 235.199 10.28 236.767 10.28C237.583 10.28 238.399 10.392 239.215 10.616C240.031 10.824 240.703 11.104 241.231 11.456L240.487 12.824C239.447 12.104 238.207 11.744 236.767 11.744C235.679 11.744 234.855 11.936 234.295 12.32C233.751 12.704 233.479 13.208 233.479 13.832C233.479 14.312 233.631 14.696 233.935 14.984C234.255 15.272 234.647 15.488 235.111 15.632C235.575 15.76 236.215 15.896 237.031 16.04C238.039 16.232 238.847 16.424 239.455 16.616C240.063 16.808 240.583 17.136 241.015 17.6C241.447 18.064 241.663 18.704 241.663 19.52C241.663 20.624 241.199 21.504 240.271 22.16C239.359 22.8 238.087 23.12 236.455 23.12ZM251.462 22.232C251.142 22.52 250.742 22.744 250.262 22.904C249.798 23.048 249.31 23.12 248.798 23.12C247.614 23.12 246.702 22.8 246.062 22.16C245.422 21.52 245.102 20.616 245.102 19.448V11.816H242.846V10.376H245.102V7.616H246.806V10.376H250.646V11.816H246.806V19.352C246.806 20.104 246.99 20.68 247.358 21.08C247.742 21.464 248.286 21.656 248.99 21.656C249.342 21.656 249.678 21.6 249.998 21.488C250.334 21.376 250.622 21.216 250.862 21.008L251.462 22.232ZM258.98 10.28C260.628 10.28 261.892 10.696 262.772 11.528C263.652 12.344 264.092 13.56 264.092 15.176V23H262.46V21.032C262.076 21.688 261.508 22.2 260.756 22.568C260.02 22.936 259.14 23.12 258.116 23.12C256.708 23.12 255.588 22.784 254.756 22.112C253.924 21.44 253.508 20.552 253.508 19.448C253.508 18.376 253.892 17.512 254.66 16.856C255.444 16.2 256.684 15.872 258.38 15.872H262.388V15.104C262.388 14.016 262.084 13.192 261.476 12.632C260.868 12.056 259.98 11.768 258.812 11.768C258.012 11.768 257.244 11.904 256.508 12.176C255.772 12.432 255.14 12.792 254.612 13.256L253.844 11.984C254.484 11.44 255.252 11.024 256.148 10.736C257.044 10.432 257.988 10.28 258.98 10.28ZM258.38 21.776C259.34 21.776 260.164 21.56 260.852 21.128C261.54 20.68 262.052 20.04 262.388 19.208V17.144H258.428C256.268 17.144 255.188 17.896 255.188 19.4C255.188 20.136 255.468 20.72 256.028 21.152C256.588 21.568 257.372 21.776 258.38 21.776ZM275.152 10.28C276.736 10.28 277.992 10.744 278.92 11.672C279.864 12.584 280.336 13.92 280.336 15.68V23H278.632V15.848C278.632 14.536 278.304 13.536 277.648 12.848C276.992 12.16 276.056 11.816 274.84 11.816C273.48 11.816 272.4 12.224 271.6 13.04C270.816 13.84 270.424 14.952 270.424 16.376V23H268.72V10.376H270.352V12.704C270.816 11.936 271.456 11.344 272.272 10.928C273.104 10.496 274.064 10.28 275.152 10.28ZM283.09 27.776C282.562 27.776 282.066 27.704 281.602 27.56C281.122 27.432 280.73 27.232 280.426 26.96L281.026 25.664C281.522 26.096 282.178 26.312 282.994 26.312C283.666 26.312 284.178 26.112 284.53 25.712C284.898 25.312 285.082 24.72 285.082 23.936V10.376H286.786V23.936C286.786 25.12 286.466 26.056 285.826 26.744C285.186 27.432 284.274 27.776 283.09 27.776ZM285.946 7.592C285.594 7.592 285.298 7.472 285.058 7.232C284.818 6.992 284.698 6.704 284.698 6.368C284.698 6.048 284.818 5.768 285.058 5.528C285.298 5.288 285.594 5.168 285.946 5.168C286.298 5.168 286.594 5.288 286.834 5.528C287.074 5.752 287.194 6.024 287.194 6.344C287.194 6.696 287.074 6.992 286.834 7.232C286.594 7.472 286.298 7.592 285.946 7.592ZM302.54 17.216H291.98C292.076 18.528 292.58 19.592 293.492 20.408C294.404 21.208 295.556 21.608 296.948 21.608C297.732 21.608 298.452 21.472 299.108 21.2C299.764 20.912 300.332 20.496 300.812 19.952L301.772 21.056C301.212 21.728 300.508 22.24 299.66 22.592C298.828 22.944 297.908 23.12 296.9 23.12C295.604 23.12 294.452 22.848 293.444 22.304C292.452 21.744 291.676 20.976 291.116 20C290.556 19.024 290.276 17.92 290.276 16.688C290.276 15.456 290.54 14.352 291.068 13.376C291.612 12.4 292.348 11.64 293.276 11.096C294.22 10.552 295.276 10.28 296.444 10.28C297.612 10.28 298.66 10.552 299.588 11.096C300.516 11.64 301.244 12.4 301.772 13.376C302.3 14.336 302.564 15.44 302.564 16.688L302.54 17.216ZM296.444 11.744C295.228 11.744 294.204 12.136 293.372 12.92C292.556 13.688 292.092 14.696 291.98 15.944H300.932C300.82 14.696 300.348 13.688 299.516 12.92C298.7 12.136 297.676 11.744 296.444 11.744Z" fill="white"/>
<path d="M166.747 215.883L70 159.942L166.747 104L263.553 159.942L166.747 215.883Z" fill="#B9C95E"/>
<path d="M166.747 253.197L70 197.256V159.941L166.747 215.883V253.197Z" fill="#936037"/>
<path d="M166.747 253.197L263.554 197.256V159.941L166.747 215.883V253.197Z" fill="#B17F4A"/>
<path d="M166.747 225.256L70 169.315V159.941L166.747 215.883V225.256Z" fill="#A5AE44"/>
<path d="M166.747 225.256L263.554 169.255V159.941L166.747 215.883V225.256Z" fill="#CED67B"/>
<path d="M166.747 290L70 234.058V196.744L166.747 252.686V290Z" fill="url(#paint0_linear)" fill-opacity="0.4"/>
<path d="M166.776 290L263.583 234.058V196.744L166.776 252.686V290Z" fill="url(#paint1_linear)" fill-opacity="0.4"/>
<path d="M167.5 175C181.031 175 192 168.655 192 160.829C192 153.003 181.031 146.658 167.5 146.658C153.969 146.658 143 153.003 143 160.829C143 168.655 153.969 175 167.5 175Z" fill="#A8B249"/>
<path d="M173.3 164.477L167.609 167.853L161.7 164.477V76.0655L167.609 72.9004L173.3 76.0655V164.477Z" fill="#B1944A"/>
<path d="M167.609 72.9004L161.7 76.0655V164.477L167.609 167.853V72.9004Z" fill="#957625"/>
<path d="M200 130.293L167.609 148.228L135 130.293V113.623L167.391 95.4766L200 113.623V130.293Z" fill="#2F8671"/>
<path d="M167.609 95.4766V148.228L200 130.082V113.412L167.609 95.4766Z" fill="#429581"/>
<path d="M167.609 130.082L135 113.623L167.391 95.4766L200 113.623L167.609 130.082Z" fill="#4FA892"/>
<path d="M194.31 110.037L167.61 127.128L140.69 112.147V96.1103L167.391 81.1289L194.31 96.1103V110.037Z" fill="#2F8671"/>
<path d="M167.609 81.3398V127.128L194.31 112.147V96.1102L167.609 81.3398Z" fill="#429581"/>
<path d="M167.61 109.826L140.69 96.1103L167.391 81.1289L194.31 96.1103L167.61 109.826Z" fill="#4FA892"/>
<path d="M188.182 91.677L167.61 107.08L146.818 95.4751V81.1267L167.391 69.7324L188.182 81.1267V91.677Z" fill="#2F8671"/>
<path d="M167.609 69.7324V106.869L188.182 95.4751V81.1267L167.609 69.7324Z" fill="#429581"/>
<path d="M167.61 91.677L146.818 81.1267L167.391 69.7324L188.182 81.1267L167.61 91.677Z" fill="#4FA892"/>
<path d="M183.149 77.5406L167.61 89.1459L151.853 80.4946V69.5223L167.391 60.8711L183.149 69.5223V77.5406Z" fill="#2F8671"/>
<path d="M167.61 60.8711V89.1459L183.149 80.2836V69.5223L167.61 60.8711Z" fill="#429581"/>
<path d="M167.61 77.5406L151.853 69.5223L167.391 60.8711L183.149 69.5223L167.61 77.5406Z" fill="#4FA892"/>
<path d="M178.99 66.7794L167.61 75.0086L156.229 68.6784V60.8712L167.391 54.541L178.99 60.8712V66.7794Z" fill="#2F8671"/>
<path d="M167.61 54.541V75.0086L178.991 68.6784V60.8712L167.61 54.541Z" fill="#429581"/>
<path d="M167.61 66.5683L156.229 60.8712L167.391 54.541L178.99 60.8712L167.61 66.5683Z" fill="#4FA892"/>
<path d="M174.175 60.4493L167.61 64.2474L160.825 60.4493V51.5871L167.391 48L174.175 51.5871V60.4493Z" fill="#2F8671"/>
<path d="M167.609 48V64.2474L174.175 60.4493V51.5871L167.609 48Z" fill="#429581"/>
<path d="M167.391 54.9632L160.825 51.5871L167.391 48L174.175 51.5871L167.391 54.9632Z" fill="#4FA892"/>
<path d="M123.061 468.744V468.441V458.582L118.818 456.155V455.397V447.813L115.333 445.841V445.235V439.471L112.455 437.802V437.347V433.252L109.121 431.28V426.578L104.576 424H104.424L99.8788 426.578V431.28L96.697 433.252V437.802L93.6667 439.471V445.841L90.1818 447.813V456.155L85.9394 458.582V468.744L82 471.019V483.002L100.485 493.771V507.725L104.576 510L108.515 507.725V493.771L127 483.002V471.019L123.061 468.744Z" fill="#278B79"/>
<path d="M152.119 503.433C152.119 503.512 152.119 503.575 152.119 503.639C152.119 505.38 152.119 507.121 152.119 508.863C152.119 509.432 152.673 509.812 153.243 509.559C153.559 509.417 153.67 509.163 153.67 508.815C153.67 505.57 153.67 502.34 153.67 499.095C153.67 499.032 153.67 498.984 153.67 498.921C153.765 498.921 153.828 498.921 153.907 498.921C153.907 498.984 153.907 499.032 153.907 499.079C153.907 500.108 153.907 501.122 153.907 502.15C153.907 502.198 153.907 502.261 153.907 502.309C153.923 502.578 154.129 502.8 154.398 502.815C154.746 502.847 154.984 502.594 154.984 502.198C154.984 500.821 154.984 499.459 154.984 498.082C154.984 497.797 154.873 497.591 154.651 497.449C154.382 497.259 154.082 497.148 153.765 497.101C152.625 496.895 151.485 496.926 150.346 497.069C149.997 497.116 149.665 497.211 149.364 497.401C149.127 497.544 149 497.734 149 498.035C149.016 499.428 149 500.805 149 502.198C149 502.23 149 502.277 149 502.309C149.016 502.641 149.285 502.879 149.617 502.831C149.902 502.784 150.076 502.562 150.076 502.23C150.076 501.185 150.076 500.124 150.076 499.079C150.076 499.032 150.076 498.984 150.076 498.937C150.171 498.937 150.235 498.937 150.314 498.937C150.314 499 150.314 499.048 150.314 499.111C150.314 502.325 150.314 505.538 150.314 508.736C150.314 508.799 150.314 508.863 150.314 508.942C150.33 509.163 150.425 509.337 150.583 509.464C150.852 509.67 151.137 509.686 151.438 509.559C151.739 509.432 151.865 509.179 151.865 508.863C151.865 507.105 151.865 505.364 151.865 503.607C151.865 503.559 151.865 503.496 151.865 503.433C151.96 503.433 152.024 503.433 152.119 503.433ZM151.992 496.547C152.704 496.547 153.258 495.992 153.258 495.28C153.258 494.584 152.704 494.014 151.992 494.014C151.28 494.014 150.71 494.568 150.71 495.28C150.726 495.992 151.28 496.547 151.992 496.547Z" fill="#278B79"/>
<path d="M152.118 503.436C152.039 503.436 151.976 503.436 151.881 503.436C151.881 503.499 151.881 503.546 151.881 503.61C151.881 505.367 151.881 507.108 151.881 508.865C151.881 509.182 151.754 509.435 151.454 509.562C151.153 509.689 150.868 509.673 150.599 509.467C150.425 509.34 150.33 509.15 150.33 508.945C150.33 508.881 150.33 508.818 150.33 508.739C150.33 505.525 150.33 502.312 150.33 499.114C150.33 499.066 150.33 499.003 150.33 498.94C150.25 498.94 150.187 498.94 150.092 498.94C150.092 498.987 150.092 499.035 150.092 499.082C150.092 500.127 150.092 501.188 150.092 502.233C150.092 502.565 149.918 502.787 149.633 502.834C149.301 502.882 149.031 502.644 149.016 502.312C149.016 502.28 149.016 502.233 149.016 502.201C149.016 500.808 149.016 499.431 149.016 498.037C149.016 497.737 149.142 497.547 149.38 497.404C149.681 497.214 150.013 497.119 150.361 497.072C151.501 496.929 152.641 496.898 153.781 497.103C154.097 497.167 154.398 497.262 154.667 497.452C154.889 497.61 155 497.816 155 498.085C155 499.462 155 500.824 155 502.201C155 502.581 154.746 502.85 154.414 502.818C154.145 502.787 153.939 502.581 153.923 502.312C153.923 502.264 153.923 502.201 153.923 502.153C153.923 501.124 153.923 500.111 153.923 499.082C153.923 499.035 153.923 498.971 153.923 498.924C153.844 498.924 153.765 498.924 153.686 498.924C153.686 498.987 153.686 499.035 153.686 499.098C153.686 502.343 153.686 505.573 153.686 508.818C153.686 509.15 153.575 509.42 153.258 509.562C152.688 509.815 152.134 509.435 152.134 508.865C152.134 507.124 152.134 505.383 152.134 503.641C152.118 503.562 152.118 503.515 152.118 503.436Z" fill="#278B79"/>
<path d="M151.992 496.549C151.28 496.549 150.726 495.979 150.726 495.266C150.726 494.554 151.295 494 152.008 494C152.704 494 153.274 494.57 153.274 495.266C153.274 495.995 152.704 496.565 151.992 496.549Z" fill="#278B79"/>
<rect x="105" y="423" width="99" height="1" fill="url(#paint2_linear)"/>
<path d="M228.87 428.356V429H222.136V428.496L226.28 424.38C226.822 423.839 227.186 423.377 227.372 422.994C227.568 422.602 227.666 422.201 227.666 421.79C227.666 421.165 227.452 420.675 227.022 420.32C226.602 419.965 225.991 419.788 225.188 419.788C224.572 419.788 224.031 419.881 223.564 420.068C223.107 420.255 222.71 420.539 222.374 420.922L221.87 420.474C222.244 420.045 222.715 419.713 223.284 419.48C223.863 419.247 224.516 419.13 225.244 419.13C226.206 419.13 226.971 419.363 227.54 419.83C228.11 420.297 228.394 420.927 228.394 421.72C228.394 422.224 228.282 422.705 228.058 423.162C227.834 423.619 227.414 424.151 226.798 424.758L223.186 428.356H228.87ZM233.035 423.302C234.463 423.302 235.499 423.554 236.143 424.058C236.787 424.553 237.109 425.257 237.109 426.172C237.109 426.732 236.978 427.231 236.717 427.67C236.465 428.099 236.082 428.44 235.569 428.692C235.056 428.944 234.426 429.07 233.679 429.07C232.97 429.07 232.302 428.949 231.677 428.706C231.061 428.463 230.58 428.146 230.235 427.754L230.599 427.208C230.907 427.563 231.332 427.852 231.873 428.076C232.424 428.3 233.021 428.412 233.665 428.412C234.542 428.412 235.214 428.211 235.681 427.81C236.157 427.409 236.395 426.872 236.395 426.2C236.395 425.463 236.124 424.903 235.583 424.52C235.051 424.137 234.15 423.946 232.881 423.946H230.893L231.411 419.2H236.605V419.844H232.013L231.635 423.302H233.035ZM248.682 421.636C249.587 421.636 250.296 421.902 250.81 422.434C251.332 422.966 251.594 423.731 251.594 424.73V429H250.894V424.786C250.894 423.965 250.693 423.339 250.292 422.91C249.89 422.481 249.33 422.266 248.612 422.266C247.79 422.266 247.137 422.523 246.652 423.036C246.176 423.549 245.938 424.24 245.938 425.108V429H245.238V424.786C245.238 423.965 245.037 423.339 244.636 422.91C244.234 422.481 243.674 422.266 242.956 422.266C242.134 422.266 241.481 422.523 240.996 423.036C240.52 423.549 240.282 424.24 240.282 425.108V429H239.582V421.692H240.254V423.26C240.496 422.747 240.856 422.35 241.332 422.07C241.817 421.781 242.391 421.636 243.054 421.636C243.716 421.636 244.276 421.785 244.734 422.084C245.2 422.383 245.532 422.821 245.728 423.4C245.97 422.859 246.348 422.429 246.862 422.112C247.384 421.795 247.991 421.636 248.682 421.636Z" fill="white"/>
<rect x="155" y="493" width="49" height="1" fill="url(#paint3_linear)"/>
<path d="M216.382 491.2V501H215.668V491.844H213.274V491.2H216.382ZM219.904 501.056C219.745 501.056 219.605 501 219.484 500.888C219.372 500.767 219.316 500.622 219.316 500.454C219.316 500.286 219.372 500.146 219.484 500.034C219.605 499.922 219.745 499.866 219.904 499.866C220.062 499.866 220.198 499.922 220.31 500.034C220.431 500.146 220.492 500.286 220.492 500.454C220.492 500.622 220.431 500.767 220.31 500.888C220.198 501 220.062 501.056 219.904 501.056ZM229.08 491.2V491.704L224.866 501H224.082L228.254 491.844H222.752V493.72H222.052V491.2H229.08ZM233.035 495.302C234.463 495.302 235.499 495.554 236.143 496.058C236.787 496.553 237.109 497.257 237.109 498.172C237.109 498.732 236.978 499.231 236.717 499.67C236.465 500.099 236.082 500.44 235.569 500.692C235.056 500.944 234.426 501.07 233.679 501.07C232.97 501.07 232.302 500.949 231.677 500.706C231.061 500.463 230.58 500.146 230.235 499.754L230.599 499.208C230.907 499.563 231.332 499.852 231.873 500.076C232.424 500.3 233.021 500.412 233.665 500.412C234.542 500.412 235.214 500.211 235.681 499.81C236.157 499.409 236.395 498.872 236.395 498.2C236.395 497.463 236.124 496.903 235.583 496.52C235.051 496.137 234.15 495.946 232.881 495.946H230.893L231.411 491.2H236.605V491.844H232.013L231.635 495.302H233.035ZM248.682 493.636C249.587 493.636 250.296 493.902 250.81 494.434C251.332 494.966 251.594 495.731 251.594 496.73V501H250.894V496.786C250.894 495.965 250.693 495.339 250.292 494.91C249.89 494.481 249.33 494.266 248.612 494.266C247.79 494.266 247.137 494.523 246.652 495.036C246.176 495.549 245.938 496.24 245.938 497.108V501H245.238V496.786C245.238 495.965 245.037 495.339 244.636 494.91C244.234 494.481 243.674 494.266 242.956 494.266C242.134 494.266 241.481 494.523 240.996 495.036C240.52 495.549 240.282 496.24 240.282 497.108V501H239.582V493.692H240.254V495.26C240.496 494.747 240.856 494.35 241.332 494.07C241.817 493.781 242.391 493.636 243.054 493.636C243.716 493.636 244.276 493.785 244.734 494.084C245.2 494.383 245.532 494.821 245.728 495.4C245.97 494.859 246.348 494.429 246.862 494.112C247.384 493.795 247.991 493.636 248.682 493.636Z" fill="white"/>
<defs>
<linearGradient id="paint0_linear" x1="118.373" y1="196.744" x2="91.7747" y2="246.745" gradientUnits="userSpaceOnUse">
<stop stop-color="#936037"/>
<stop offset="1" stop-color="#936037" stop-opacity="0"/>
</linearGradient>
<linearGradient id="paint1_linear" x1="215.18" y1="196.744" x2="242.181" y2="241.1" gradientUnits="userSpaceOnUse">
<stop stop-color="#B17F4A"/>
<stop offset="1" stop-color="#B17F4A" stop-opacity="0"/>
</linearGradient>
<linearGradient id="paint2_linear" x1="154.5" y1="423" x2="105" y2="424" gradientUnits="userSpaceOnUse">
<stop stop-color="#278B79"/>
<stop offset="1" stop-color="#278B79" stop-opacity="0"/>
</linearGradient>
<linearGradient id="paint3_linear" x1="179.5" y1="493" x2="154.992" y2="493.245" gradientUnits="userSpaceOnUse">
<stop stop-color="#278B79"/>
<stop offset="1" stop-color="#278B79" stop-opacity="0"/>
</linearGradient>
</defs>
</svg>
