<svg width="335" height="517" viewBox="0 0 335 517" fill="none" xmlns="http://www.w3.org/2000/svg">
<rect y="187" width="335" height="203" rx="16" fill="#45A694"/>
<path d="M209.298 263.946C209.998 264.077 210.53 264.352 210.894 264.772C211.268 265.192 211.454 265.738 211.454 266.41C211.454 267.241 211.151 267.88 210.544 268.328C209.938 268.776 209.037 269 207.842 269H203.474V259.2H207.562C208.626 259.2 209.452 259.419 210.04 259.858C210.638 260.287 210.936 260.903 210.936 261.706C210.936 262.266 210.787 262.737 210.488 263.12C210.199 263.503 209.802 263.778 209.298 263.946ZM204.188 259.816V263.722H207.534C208.393 263.722 209.051 263.559 209.508 263.232C209.975 262.896 210.208 262.406 210.208 261.762C210.208 261.127 209.975 260.647 209.508 260.32C209.051 259.984 208.393 259.816 207.534 259.816H204.188ZM207.842 268.384C208.794 268.384 209.513 268.221 209.998 267.894C210.493 267.558 210.74 267.045 210.74 266.354C210.74 265.663 210.493 265.155 209.998 264.828C209.513 264.501 208.794 264.338 207.842 264.338H204.188V268.384H207.842ZM220.372 265.514H214.086C214.104 266.083 214.249 266.592 214.52 267.04C214.79 267.479 215.154 267.819 215.612 268.062C216.078 268.305 216.601 268.426 217.18 268.426C217.656 268.426 218.094 268.342 218.496 268.174C218.906 267.997 219.247 267.74 219.518 267.404L219.924 267.866C219.606 268.249 219.205 268.543 218.72 268.748C218.244 268.953 217.726 269.056 217.166 269.056C216.438 269.056 215.789 268.897 215.22 268.58C214.65 268.263 214.202 267.824 213.876 267.264C213.558 266.704 213.4 266.065 213.4 265.346C213.4 264.637 213.549 264.002 213.848 263.442C214.156 262.873 214.576 262.429 215.108 262.112C215.64 261.795 216.237 261.636 216.9 261.636C217.562 261.636 218.155 261.795 218.678 262.112C219.21 262.42 219.625 262.854 219.924 263.414C220.232 263.974 220.386 264.609 220.386 265.318L220.372 265.514ZM216.9 262.252C216.386 262.252 215.924 262.369 215.514 262.602C215.103 262.826 214.772 263.148 214.52 263.568C214.277 263.979 214.137 264.445 214.1 264.968H219.7C219.672 264.445 219.532 263.979 219.28 263.568C219.028 263.157 218.696 262.835 218.286 262.602C217.875 262.369 217.413 262.252 216.9 262.252ZM226.597 268.538C226.42 268.706 226.196 268.837 225.925 268.93C225.664 269.014 225.389 269.056 225.099 269.056C224.465 269.056 223.975 268.883 223.629 268.538C223.284 268.183 223.111 267.693 223.111 267.068V262.294H221.767V261.692H223.111V260.096H223.811V261.692H226.135V262.294H223.811V266.998C223.811 267.474 223.923 267.838 224.147 268.09C224.381 268.333 224.721 268.454 225.169 268.454C225.627 268.454 226.005 268.319 226.303 268.048L226.597 268.538ZM235.367 261.692V269H234.695V267.432C234.453 267.945 234.093 268.347 233.617 268.636C233.141 268.916 232.581 269.056 231.937 269.056C230.985 269.056 230.239 268.79 229.697 268.258C229.156 267.726 228.885 266.961 228.885 265.962V261.692H229.585V265.906C229.585 266.727 229.795 267.353 230.215 267.782C230.635 268.211 231.228 268.426 231.993 268.426C232.815 268.426 233.463 268.169 233.939 267.656C234.425 267.143 234.667 266.452 234.667 265.584V261.692H235.367ZM238.755 258.612H239.455V269H238.755V258.612ZM245.289 261.636C246.194 261.636 246.89 261.869 247.375 262.336C247.86 262.793 248.103 263.47 248.103 264.366V269H247.431V267.698C247.198 268.127 246.857 268.463 246.409 268.706C245.961 268.939 245.424 269.056 244.799 269.056C243.987 269.056 243.343 268.865 242.867 268.482C242.4 268.099 242.167 267.595 242.167 266.97C242.167 266.363 242.382 265.873 242.811 265.5C243.25 265.117 243.945 264.926 244.897 264.926H247.403V264.338C247.403 263.657 247.216 263.139 246.843 262.784C246.479 262.429 245.942 262.252 245.233 262.252C244.748 262.252 244.281 262.336 243.833 262.504C243.394 262.672 243.021 262.896 242.713 263.176L242.363 262.672C242.727 262.345 243.166 262.093 243.679 261.916C244.192 261.729 244.729 261.636 245.289 261.636ZM244.897 268.482C245.504 268.482 246.017 268.342 246.437 268.062C246.866 267.782 247.188 267.376 247.403 266.844V265.472H244.911C244.192 265.472 243.67 265.603 243.343 265.864C243.026 266.125 242.867 266.485 242.867 266.942C242.867 267.418 243.044 267.796 243.399 268.076C243.754 268.347 244.253 268.482 244.897 268.482ZM261.597 265.514H255.311C255.33 266.083 255.474 266.592 255.745 267.04C256.016 267.479 256.38 267.819 256.837 268.062C257.304 268.305 257.826 268.426 258.405 268.426C258.881 268.426 259.32 268.342 259.721 268.174C260.132 267.997 260.472 267.74 260.743 267.404L261.149 267.866C260.832 268.249 260.43 268.543 259.945 268.748C259.469 268.953 258.951 269.056 258.391 269.056C257.663 269.056 257.014 268.897 256.445 268.58C255.876 268.263 255.428 267.824 255.101 267.264C254.784 266.704 254.625 266.065 254.625 265.346C254.625 264.637 254.774 264.002 255.073 263.442C255.381 262.873 255.801 262.429 256.333 262.112C256.865 261.795 257.462 261.636 258.125 261.636C258.788 261.636 259.38 261.795 259.903 262.112C260.435 262.42 260.85 262.854 261.149 263.414C261.457 263.974 261.611 264.609 261.611 265.318L261.597 265.514ZM258.125 262.252C257.612 262.252 257.15 262.369 256.739 262.602C256.328 262.826 255.997 263.148 255.745 263.568C255.502 263.979 255.362 264.445 255.325 264.968H260.925C260.897 264.445 260.757 263.979 260.505 263.568C260.253 263.157 259.922 262.835 259.511 262.602C259.1 262.369 258.638 262.252 258.125 262.252ZM264.868 263.288C265.092 262.756 265.442 262.35 265.918 262.07C266.394 261.781 266.973 261.636 267.654 261.636V262.322L267.486 262.308C266.674 262.308 266.04 262.565 265.582 263.078C265.125 263.582 264.896 264.287 264.896 265.192V269H264.196V261.692H264.868V263.288ZM279.103 261.636C280.008 261.636 280.718 261.902 281.231 262.434C281.754 262.966 282.015 263.731 282.015 264.73V269H281.315V264.786C281.315 263.965 281.114 263.339 280.713 262.91C280.312 262.481 279.752 262.266 279.033 262.266C278.212 262.266 277.558 262.523 277.073 263.036C276.597 263.549 276.359 264.24 276.359 265.108V269H275.659V264.786C275.659 263.965 275.458 263.339 275.057 262.91C274.656 262.481 274.096 262.266 273.377 262.266C272.556 262.266 271.902 262.523 271.417 263.036C270.941 263.549 270.703 264.24 270.703 265.108V269H270.003V261.692H270.675V263.26C270.918 262.747 271.277 262.35 271.753 262.07C272.238 261.781 272.812 261.636 273.475 261.636C274.138 261.636 274.698 261.785 275.155 262.084C275.622 262.383 275.953 262.821 276.149 263.4C276.392 262.859 276.77 262.429 277.283 262.112C277.806 261.795 278.412 261.636 279.103 261.636ZM287.789 261.636C288.695 261.636 289.39 261.869 289.875 262.336C290.361 262.793 290.603 263.47 290.603 264.366V269H289.931V267.698C289.698 268.127 289.357 268.463 288.909 268.706C288.461 268.939 287.925 269.056 287.299 269.056C286.487 269.056 285.843 268.865 285.367 268.482C284.901 268.099 284.667 267.595 284.667 266.97C284.667 266.363 284.882 265.873 285.311 265.5C285.75 265.117 286.445 264.926 287.397 264.926H289.903V264.338C289.903 263.657 289.717 263.139 289.343 262.784C288.979 262.429 288.443 262.252 287.733 262.252C287.248 262.252 286.781 262.336 286.333 262.504C285.895 262.672 285.521 262.896 285.213 263.176L284.863 262.672C285.227 262.345 285.666 262.093 286.179 261.916C286.693 261.729 287.229 261.636 287.789 261.636ZM287.397 268.482C288.004 268.482 288.517 268.342 288.937 268.062C289.367 267.782 289.689 267.376 289.903 266.844V265.472H287.411C286.693 265.472 286.17 265.603 285.843 265.864C285.526 266.125 285.367 266.485 285.367 266.942C285.367 267.418 285.545 267.796 285.899 268.076C286.254 268.347 286.753 268.482 287.397 268.482ZM297.478 261.636C298.392 261.636 299.116 261.902 299.648 262.434C300.18 262.966 300.446 263.731 300.446 264.73V269H299.746V264.786C299.746 263.965 299.536 263.339 299.116 262.91C298.705 262.481 298.126 262.266 297.38 262.266C296.521 262.266 295.844 262.523 295.35 263.036C294.855 263.549 294.608 264.24 294.608 265.108V269H293.908V261.692H294.58V263.274C294.832 262.761 295.205 262.359 295.7 262.07C296.204 261.781 296.796 261.636 297.478 261.636ZM303.748 261.692H304.448V269H303.748V261.692ZM304.098 259.914C303.939 259.914 303.804 259.863 303.692 259.76C303.58 259.648 303.524 259.513 303.524 259.354C303.524 259.195 303.58 259.06 303.692 258.948C303.804 258.836 303.939 258.78 304.098 258.78C304.256 258.78 304.392 258.836 304.504 258.948C304.616 259.051 304.672 259.181 304.672 259.34C304.672 259.499 304.616 259.634 304.504 259.746C304.392 259.858 304.256 259.914 304.098 259.914ZM307.818 261.692H308.518V269H307.818V261.692ZM308.168 259.914C308.009 259.914 307.874 259.863 307.762 259.76C307.65 259.648 307.594 259.513 307.594 259.354C307.594 259.195 307.65 259.06 307.762 258.948C307.874 258.836 308.009 258.78 308.168 258.78C308.327 258.78 308.462 258.836 308.574 258.948C308.686 259.051 308.742 259.181 308.742 259.34C308.742 259.499 308.686 259.634 308.574 259.746C308.462 259.858 308.327 259.914 308.168 259.914ZM267.426 279.2H268.07L268.014 282.812H267.482L267.426 279.2ZM277.063 283.946C277.763 284.077 278.295 284.352 278.659 284.772C279.032 285.192 279.219 285.738 279.219 286.41C279.219 287.241 278.916 287.88 278.309 288.328C277.702 288.776 276.802 289 275.607 289H271.239V279.2H275.327C276.391 279.2 277.217 279.419 277.805 279.858C278.402 280.287 278.701 280.903 278.701 281.706C278.701 282.266 278.552 282.737 278.253 283.12C277.964 283.503 277.567 283.778 277.063 283.946ZM271.953 279.816V283.722H275.299C276.158 283.722 276.816 283.559 277.273 283.232C277.74 282.896 277.973 282.406 277.973 281.762C277.973 281.127 277.74 280.647 277.273 280.32C276.816 279.984 276.158 279.816 275.299 279.816H271.953ZM275.607 288.384C276.559 288.384 277.278 288.221 277.763 287.894C278.258 287.558 278.505 287.045 278.505 286.354C278.505 285.663 278.258 285.155 277.763 284.828C277.278 284.501 276.559 284.338 275.607 284.338H271.953V288.384H275.607ZM281.962 278.612H282.662V289H281.962V278.612ZM292.431 281.692V289H291.759V287.432C291.516 287.945 291.157 288.347 290.681 288.636C290.205 288.916 289.645 289.056 289.001 289.056C288.049 289.056 287.302 288.79 286.761 288.258C286.219 287.726 285.949 286.961 285.949 285.962V281.692H286.649V285.906C286.649 286.727 286.859 287.353 287.279 287.782C287.699 288.211 288.291 288.426 289.057 288.426C289.878 288.426 290.527 288.169 291.003 287.656C291.488 287.143 291.731 286.452 291.731 285.584V281.692H292.431ZM297.666 289.056C297.078 289.056 296.518 288.967 295.986 288.79C295.454 288.613 295.038 288.389 294.74 288.118L295.062 287.558C295.36 287.81 295.743 288.02 296.21 288.188C296.686 288.356 297.18 288.44 297.694 288.44C298.431 288.44 298.972 288.319 299.318 288.076C299.672 287.833 299.85 287.497 299.85 287.068C299.85 286.76 299.752 286.517 299.556 286.34C299.369 286.163 299.136 286.032 298.856 285.948C298.576 285.864 298.188 285.775 297.694 285.682C297.115 285.579 296.648 285.467 296.294 285.346C295.939 285.225 295.636 285.029 295.384 284.758C295.132 284.487 295.006 284.114 295.006 283.638C295.006 283.059 295.244 282.583 295.72 282.21C296.205 281.827 296.891 281.636 297.778 281.636C298.244 281.636 298.706 281.701 299.164 281.832C299.621 281.963 299.994 282.135 300.284 282.35L299.962 282.91C299.663 282.695 299.322 282.532 298.94 282.42C298.557 282.308 298.165 282.252 297.764 282.252C297.082 282.252 296.569 282.378 296.224 282.63C295.878 282.882 295.706 283.213 295.706 283.624C295.706 283.951 295.804 284.207 296 284.394C296.196 284.571 296.434 284.707 296.714 284.8C297.003 284.884 297.404 284.977 297.918 285.08C298.487 285.183 298.944 285.295 299.29 285.416C299.644 285.528 299.943 285.715 300.186 285.976C300.428 286.237 300.55 286.597 300.55 287.054C300.55 287.661 300.298 288.146 299.794 288.51C299.29 288.874 298.58 289.056 297.666 289.056ZM306.493 281.636C307.408 281.636 308.131 281.902 308.663 282.434C309.195 282.966 309.461 283.731 309.461 284.73V289H308.761V284.786C308.761 283.965 308.551 283.339 308.131 282.91C307.721 282.481 307.142 282.266 306.395 282.266C305.537 282.266 304.86 282.523 304.365 283.036C303.871 283.549 303.623 284.24 303.623 285.108V289H302.923V278.612H303.623V283.218C303.875 282.714 304.249 282.327 304.743 282.056C305.238 281.776 305.821 281.636 306.493 281.636ZM312.315 279.2H312.959L312.903 282.812H312.371L312.315 279.2Z" fill="white"/>
<path d="M239.781 309.946C240.481 310.077 241.013 310.352 241.377 310.772C241.751 311.192 241.937 311.738 241.937 312.41C241.937 313.241 241.634 313.88 241.027 314.328C240.421 314.776 239.52 315 238.325 315H233.957V305.2H238.045C239.109 305.2 239.935 305.419 240.523 305.858C241.121 306.287 241.419 306.903 241.419 307.706C241.419 308.266 241.27 308.737 240.971 309.12C240.682 309.503 240.285 309.778 239.781 309.946ZM234.671 305.816V309.722H238.017C238.876 309.722 239.534 309.559 239.991 309.232C240.458 308.896 240.691 308.406 240.691 307.762C240.691 307.127 240.458 306.647 239.991 306.32C239.534 305.984 238.876 305.816 238.017 305.816H234.671ZM238.325 314.384C239.277 314.384 239.996 314.221 240.481 313.894C240.976 313.558 241.223 313.045 241.223 312.354C241.223 311.663 240.976 311.155 240.481 310.828C239.996 310.501 239.277 310.338 238.325 310.338H234.671V314.384H238.325ZM250.855 311.514H244.569C244.587 312.083 244.732 312.592 245.003 313.04C245.273 313.479 245.637 313.819 246.095 314.062C246.561 314.305 247.084 314.426 247.663 314.426C248.139 314.426 248.577 314.342 248.979 314.174C249.389 313.997 249.73 313.74 250.001 313.404L250.407 313.866C250.089 314.249 249.688 314.543 249.203 314.748C248.727 314.953 248.209 315.056 247.649 315.056C246.921 315.056 246.272 314.897 245.703 314.58C245.133 314.263 244.685 313.824 244.359 313.264C244.041 312.704 243.883 312.065 243.883 311.346C243.883 310.637 244.032 310.002 244.331 309.442C244.639 308.873 245.059 308.429 245.591 308.112C246.123 307.795 246.72 307.636 247.383 307.636C248.045 307.636 248.638 307.795 249.161 308.112C249.693 308.42 250.108 308.854 250.407 309.414C250.715 309.974 250.869 310.609 250.869 311.318L250.855 311.514ZM247.383 308.252C246.869 308.252 246.407 308.369 245.997 308.602C245.586 308.826 245.255 309.148 245.003 309.568C244.76 309.979 244.62 310.445 244.583 310.968H250.183C250.155 310.445 250.015 309.979 249.763 309.568C249.511 309.157 249.179 308.835 248.769 308.602C248.358 308.369 247.896 308.252 247.383 308.252ZM257.08 314.538C256.903 314.706 256.679 314.837 256.408 314.93C256.147 315.014 255.871 315.056 255.582 315.056C254.947 315.056 254.457 314.883 254.112 314.538C253.767 314.183 253.594 313.693 253.594 313.068V308.294H252.25V307.692H253.594V306.096H254.294V307.692H256.618V308.294H254.294V312.998C254.294 313.474 254.406 313.838 254.63 314.09C254.863 314.333 255.204 314.454 255.652 314.454C256.109 314.454 256.487 314.319 256.786 314.048L257.08 314.538ZM265.85 307.692V315H265.178V313.432C264.936 313.945 264.576 314.347 264.1 314.636C263.624 314.916 263.064 315.056 262.42 315.056C261.468 315.056 260.722 314.79 260.18 314.258C259.639 313.726 259.368 312.961 259.368 311.962V307.692H260.068V311.906C260.068 312.727 260.278 313.353 260.698 313.782C261.118 314.211 261.711 314.426 262.476 314.426C263.298 314.426 263.946 314.169 264.422 313.656C264.908 313.143 265.15 312.452 265.15 311.584V307.692H265.85ZM269.238 304.612H269.938V315H269.238V304.612ZM275.772 307.636C276.677 307.636 277.373 307.869 277.858 308.336C278.343 308.793 278.586 309.47 278.586 310.366V315H277.914V313.698C277.681 314.127 277.34 314.463 276.892 314.706C276.444 314.939 275.907 315.056 275.282 315.056C274.47 315.056 273.826 314.865 273.35 314.482C272.883 314.099 272.65 313.595 272.65 312.97C272.65 312.363 272.865 311.873 273.294 311.5C273.733 311.117 274.428 310.926 275.38 310.926H277.886V310.338C277.886 309.657 277.699 309.139 277.326 308.784C276.962 308.429 276.425 308.252 275.716 308.252C275.231 308.252 274.764 308.336 274.316 308.504C273.877 308.672 273.504 308.896 273.196 309.176L272.846 308.672C273.21 308.345 273.649 308.093 274.162 307.916C274.675 307.729 275.212 307.636 275.772 307.636ZM275.38 314.482C275.987 314.482 276.5 314.342 276.92 314.062C277.349 313.782 277.671 313.376 277.886 312.844V311.472H275.394C274.675 311.472 274.153 311.603 273.826 311.864C273.509 312.125 273.35 312.485 273.35 312.942C273.35 313.418 273.527 313.796 273.882 314.076C274.237 314.347 274.736 314.482 275.38 314.482ZM284.802 315.056C284.092 315.056 283.458 314.897 282.898 314.58C282.338 314.263 281.899 313.824 281.582 313.264C281.264 312.695 281.106 312.055 281.106 311.346C281.106 310.627 281.264 309.988 281.582 309.428C281.899 308.859 282.338 308.42 282.898 308.112C283.458 307.795 284.092 307.636 284.802 307.636C285.39 307.636 285.922 307.753 286.398 307.986C286.883 308.21 287.275 308.541 287.574 308.98L287.056 309.358C286.794 308.994 286.468 308.723 286.076 308.546C285.693 308.359 285.268 308.266 284.802 308.266C284.232 308.266 283.719 308.397 283.262 308.658C282.814 308.91 282.459 309.269 282.198 309.736C281.946 310.203 281.82 310.739 281.82 311.346C281.82 311.953 281.946 312.489 282.198 312.956C282.459 313.423 282.814 313.787 283.262 314.048C283.719 314.3 284.232 314.426 284.802 314.426C285.268 314.426 285.693 314.337 286.076 314.16C286.468 313.973 286.794 313.698 287.056 313.334L287.574 313.712C287.275 314.151 286.883 314.487 286.398 314.72C285.922 314.944 285.39 315.056 284.802 315.056ZM296.14 311.514H289.854C289.873 312.083 290.018 312.592 290.288 313.04C290.559 313.479 290.923 313.819 291.38 314.062C291.847 314.305 292.37 314.426 292.948 314.426C293.424 314.426 293.863 314.342 294.264 314.174C294.675 313.997 295.016 313.74 295.286 313.404L295.692 313.866C295.375 314.249 294.974 314.543 294.488 314.748C294.012 314.953 293.494 315.056 292.934 315.056C292.206 315.056 291.558 314.897 290.988 314.58C290.419 314.263 289.971 313.824 289.644 313.264C289.327 312.704 289.168 312.065 289.168 311.346C289.168 310.637 289.318 310.002 289.616 309.442C289.924 308.873 290.344 308.429 290.876 308.112C291.408 307.795 292.006 307.636 292.668 307.636C293.331 307.636 293.924 307.795 294.446 308.112C294.978 308.42 295.394 308.854 295.692 309.414C296 309.974 296.154 310.609 296.154 311.318L296.14 311.514ZM292.668 308.252C292.155 308.252 291.693 308.369 291.282 308.602C290.872 308.826 290.54 309.148 290.288 309.568C290.046 309.979 289.906 310.445 289.868 310.968H295.468C295.44 310.445 295.3 309.979 295.048 309.568C294.796 309.157 294.465 308.835 294.054 308.602C293.644 308.369 293.182 308.252 292.668 308.252ZM300.999 307.636C301.904 307.636 302.599 307.869 303.085 308.336C303.57 308.793 303.813 309.47 303.813 310.366V315H303.141V313.698C302.907 314.127 302.567 314.463 302.119 314.706C301.671 314.939 301.134 315.056 300.509 315.056C299.697 315.056 299.053 314.865 298.577 314.482C298.11 314.099 297.877 313.595 297.877 312.97C297.877 312.363 298.091 311.873 298.521 311.5C298.959 311.117 299.655 310.926 300.607 310.926H303.113V310.338C303.113 309.657 302.926 309.139 302.553 308.784C302.189 308.429 301.652 308.252 300.943 308.252C300.457 308.252 299.991 308.336 299.543 308.504C299.104 308.672 298.731 308.896 298.423 309.176L298.073 308.672C298.437 308.345 298.875 308.093 299.389 307.916C299.902 307.729 300.439 307.636 300.999 307.636ZM300.607 314.482C301.213 314.482 301.727 314.342 302.147 314.062C302.576 313.782 302.898 313.376 303.113 312.844V311.472H300.621C299.902 311.472 299.379 311.603 299.053 311.864C298.735 312.125 298.577 312.485 298.577 312.942C298.577 313.418 298.754 313.796 299.109 314.076C299.463 314.347 299.963 314.482 300.607 314.482ZM313.304 311.514H307.018C307.037 312.083 307.182 312.592 307.452 313.04C307.723 313.479 308.087 313.819 308.544 314.062C309.011 314.305 309.534 314.426 310.112 314.426C310.588 314.426 311.027 314.342 311.428 314.174C311.839 313.997 312.18 313.74 312.45 313.404L312.856 313.866C312.539 314.249 312.138 314.543 311.652 314.748C311.176 314.953 310.658 315.056 310.098 315.056C309.37 315.056 308.722 314.897 308.152 314.58C307.583 314.263 307.135 313.824 306.808 313.264C306.491 312.704 306.332 312.065 306.332 311.346C306.332 310.637 306.482 310.002 306.78 309.442C307.088 308.873 307.508 308.429 308.04 308.112C308.572 307.795 309.17 307.636 309.832 307.636C310.495 307.636 311.088 307.795 311.61 308.112C312.142 308.42 312.558 308.854 312.856 309.414C313.164 309.974 313.318 310.609 313.318 311.318L313.304 311.514ZM309.832 308.252C309.319 308.252 308.857 308.369 308.446 308.602C308.036 308.826 307.704 309.148 307.452 309.568C307.21 309.979 307.07 310.445 307.032 310.968H312.632C312.604 310.445 312.464 309.979 312.212 309.568C311.96 309.157 311.629 308.835 311.218 308.602C310.808 308.369 310.346 308.252 309.832 308.252Z" fill="white"/>
<path d="M249.096 336.408H246.436V338.998H245.806V336.408H243.146V335.806H245.806V333.202H246.436V335.806H249.096V336.408ZM254.827 329.212H255.471L250.851 342.4H250.207L254.827 329.212ZM255.371 336.926H258.969V337.556H255.371V336.926ZM270.291 335.876C270.963 336.053 271.481 336.352 271.845 336.772C272.218 337.192 272.405 337.705 272.405 338.312C272.405 339.171 272.074 339.847 271.411 340.342C270.748 340.827 269.838 341.07 268.681 341.07C267.533 341.07 266.628 340.827 265.965 340.342C265.312 339.847 264.985 339.171 264.985 338.312C264.985 337.696 265.162 337.183 265.517 336.772C265.881 336.352 266.399 336.053 267.071 335.876C266.511 335.689 266.082 335.409 265.783 335.036C265.484 334.663 265.335 334.205 265.335 333.664C265.335 332.88 265.638 332.264 266.245 331.816C266.852 331.359 267.664 331.13 268.681 331.13C269.698 331.13 270.515 331.359 271.131 331.816C271.747 332.273 272.055 332.889 272.055 333.664C272.055 334.196 271.901 334.653 271.593 335.036C271.294 335.409 270.86 335.689 270.291 335.876ZM266.049 333.678C266.049 334.266 266.278 334.733 266.735 335.078C267.202 335.423 267.85 335.596 268.681 335.596C269.512 335.596 270.16 335.428 270.627 335.092C271.103 334.747 271.341 334.28 271.341 333.692C271.341 333.095 271.098 332.623 270.613 332.278C270.137 331.923 269.493 331.746 268.681 331.746C267.869 331.746 267.225 331.919 266.749 332.264C266.282 332.609 266.049 333.081 266.049 333.678ZM268.681 340.454C269.624 340.454 270.361 340.263 270.893 339.88C271.425 339.497 271.691 338.975 271.691 338.312C271.691 337.659 271.425 337.141 270.893 336.758C270.361 336.375 269.624 336.184 268.681 336.184C267.748 336.184 267.015 336.375 266.483 336.758C265.96 337.141 265.699 337.659 265.699 338.312C265.699 338.975 265.96 339.497 266.483 339.88C267.006 340.263 267.738 340.454 268.681 340.454ZM278.143 341.07C277.396 341.07 276.729 340.869 276.141 340.468C275.562 340.057 275.109 339.479 274.783 338.732C274.465 337.985 274.307 337.108 274.307 336.1C274.307 335.092 274.465 334.215 274.783 333.468C275.109 332.721 275.562 332.147 276.141 331.746C276.729 331.335 277.396 331.13 278.143 331.13C278.889 331.13 279.552 331.335 280.131 331.746C280.719 332.147 281.171 332.721 281.489 333.468C281.815 334.215 281.979 335.092 281.979 336.1C281.979 337.108 281.815 337.985 281.489 338.732C281.171 339.479 280.719 340.057 280.131 340.468C279.552 340.869 278.889 341.07 278.143 341.07ZM278.143 340.412C278.759 340.412 279.3 340.244 279.767 339.908C280.243 339.563 280.611 339.068 280.873 338.424C281.134 337.771 281.265 336.996 281.265 336.1C281.265 335.204 281.134 334.434 280.873 333.79C280.611 333.137 280.243 332.642 279.767 332.306C279.3 331.961 278.759 331.788 278.143 331.788C277.527 331.788 276.981 331.961 276.505 332.306C276.038 332.642 275.674 333.137 275.413 333.79C275.151 334.434 275.021 335.204 275.021 336.1C275.021 336.996 275.151 337.771 275.413 338.424C275.674 339.068 276.038 339.563 276.505 339.908C276.981 340.244 277.527 340.412 278.143 340.412ZM287.467 343.772C287.159 343.772 286.875 343.73 286.613 343.646C286.343 343.562 286.123 343.441 285.955 343.282L286.235 342.764C286.534 343.035 286.931 343.17 287.425 343.17C287.855 343.17 288.181 343.044 288.405 342.792C288.629 342.54 288.741 342.176 288.741 341.7V333.692H289.441V341.728C289.441 342.353 289.269 342.848 288.923 343.212C288.578 343.585 288.093 343.772 287.467 343.772ZM289.091 331.914C288.933 331.914 288.797 331.863 288.685 331.76C288.573 331.648 288.517 331.513 288.517 331.354C288.517 331.195 288.573 331.06 288.685 330.948C288.797 330.836 288.933 330.78 289.091 330.78C289.25 330.78 289.385 330.836 289.497 330.948C289.609 331.051 289.665 331.181 289.665 331.34C289.665 331.499 289.609 331.634 289.497 331.746C289.385 331.858 289.25 331.914 289.091 331.914ZM295.274 333.636C296.179 333.636 296.875 333.869 297.36 334.336C297.845 334.793 298.088 335.47 298.088 336.366V341H297.416V339.698C297.183 340.127 296.842 340.463 296.394 340.706C295.946 340.939 295.409 341.056 294.784 341.056C293.972 341.056 293.328 340.865 292.852 340.482C292.385 340.099 292.152 339.595 292.152 338.97C292.152 338.363 292.367 337.873 292.796 337.5C293.235 337.117 293.93 336.926 294.882 336.926H297.388V336.338C297.388 335.657 297.201 335.139 296.828 334.784C296.464 334.429 295.927 334.252 295.218 334.252C294.733 334.252 294.266 334.336 293.818 334.504C293.379 334.672 293.006 334.896 292.698 335.176L292.348 334.672C292.712 334.345 293.151 334.093 293.664 333.916C294.177 333.729 294.714 333.636 295.274 333.636ZM294.882 340.482C295.489 340.482 296.002 340.342 296.422 340.062C296.851 339.782 297.173 339.376 297.388 338.844V337.472H294.896C294.177 337.472 293.655 337.603 293.328 337.864C293.011 338.125 292.852 338.485 292.852 338.942C292.852 339.418 293.029 339.796 293.384 340.076C293.739 340.347 294.238 340.482 294.882 340.482ZM303.856 333.636C304.761 333.636 305.457 333.869 305.942 334.336C306.427 334.793 306.67 335.47 306.67 336.366V341H305.998V339.698C305.765 340.127 305.424 340.463 304.976 340.706C304.528 340.939 303.991 341.056 303.366 341.056C302.554 341.056 301.91 340.865 301.434 340.482C300.967 340.099 300.734 339.595 300.734 338.97C300.734 338.363 300.949 337.873 301.378 337.5C301.817 337.117 302.512 336.926 303.464 336.926H305.97V336.338C305.97 335.657 305.783 335.139 305.41 334.784C305.046 334.429 304.509 334.252 303.8 334.252C303.315 334.252 302.848 334.336 302.4 334.504C301.961 334.672 301.588 334.896 301.28 335.176L300.93 334.672C301.294 334.345 301.733 334.093 302.246 333.916C302.759 333.729 303.296 333.636 303.856 333.636ZM303.464 340.482C304.071 340.482 304.584 340.342 305.004 340.062C305.433 339.782 305.755 339.376 305.97 338.844V337.472H303.478C302.759 337.472 302.237 337.603 301.91 337.864C301.593 338.125 301.434 338.485 301.434 338.942C301.434 339.418 301.611 339.796 301.966 340.076C302.321 340.347 302.82 340.482 303.464 340.482ZM310.646 335.288C310.87 334.756 311.22 334.35 311.696 334.07C312.172 333.781 312.751 333.636 313.432 333.636V334.322L313.264 334.308C312.452 334.308 311.818 334.565 311.36 335.078C310.903 335.582 310.674 336.287 310.674 337.192V341H309.974V333.692H310.646V335.288Z" fill="white"/>
<path d="M255.423 357.2V367H254.709V357.844H252.315V357.2H255.423ZM264.852 366.356V367H258.118V366.496L262.262 362.38C262.804 361.839 263.168 361.377 263.354 360.994C263.55 360.602 263.648 360.201 263.648 359.79C263.648 359.165 263.434 358.675 263.004 358.32C262.584 357.965 261.973 357.788 261.17 357.788C260.554 357.788 260.013 357.881 259.546 358.068C259.089 358.255 258.692 358.539 258.356 358.922L257.852 358.474C258.226 358.045 258.697 357.713 259.266 357.48C259.845 357.247 260.498 357.13 261.226 357.13C262.188 357.13 262.953 357.363 263.522 357.83C264.092 358.297 264.376 358.927 264.376 359.72C264.376 360.224 264.264 360.705 264.04 361.162C263.816 361.619 263.396 362.151 262.78 362.758L259.168 366.356H264.852ZM280.453 359.636C281.358 359.636 282.067 359.902 282.581 360.434C283.103 360.966 283.365 361.731 283.365 362.73V367H282.665V362.786C282.665 361.965 282.464 361.339 282.063 360.91C281.661 360.481 281.101 360.266 280.383 360.266C279.561 360.266 278.908 360.523 278.423 361.036C277.947 361.549 277.709 362.24 277.709 363.108V367H277.009V362.786C277.009 361.965 276.808 361.339 276.407 360.91C276.005 360.481 275.445 360.266 274.727 360.266C273.905 360.266 273.252 360.523 272.767 361.036C272.291 361.549 272.053 362.24 272.053 363.108V367H271.353V359.692H272.025V361.26C272.267 360.747 272.627 360.35 273.103 360.07C273.588 359.781 274.162 359.636 274.825 359.636C275.487 359.636 276.047 359.785 276.505 360.084C276.971 360.383 277.303 360.821 277.499 361.4C277.741 360.859 278.119 360.429 278.633 360.112C279.155 359.795 279.762 359.636 280.453 359.636ZM292.863 363.514H286.577C286.596 364.083 286.74 364.592 287.011 365.04C287.282 365.479 287.646 365.819 288.103 366.062C288.57 366.305 289.092 366.426 289.671 366.426C290.147 366.426 290.586 366.342 290.987 366.174C291.398 365.997 291.738 365.74 292.009 365.404L292.415 365.866C292.098 366.249 291.696 366.543 291.211 366.748C290.735 366.953 290.217 367.056 289.657 367.056C288.929 367.056 288.28 366.897 287.711 366.58C287.142 366.263 286.694 365.824 286.367 365.264C286.05 364.704 285.891 364.065 285.891 363.346C285.891 362.637 286.04 362.002 286.339 361.442C286.647 360.873 287.067 360.429 287.599 360.112C288.131 359.795 288.728 359.636 289.391 359.636C290.054 359.636 290.646 359.795 291.169 360.112C291.701 360.42 292.116 360.854 292.415 361.414C292.723 361.974 292.877 362.609 292.877 363.318L292.863 363.514ZM289.391 360.252C288.878 360.252 288.416 360.369 288.005 360.602C287.594 360.826 287.263 361.148 287.011 361.568C286.768 361.979 286.628 362.445 286.591 362.968H292.191C292.163 362.445 292.023 361.979 291.771 361.568C291.519 361.157 291.188 360.835 290.777 360.602C290.366 360.369 289.904 360.252 289.391 360.252ZM299.088 366.538C298.911 366.706 298.687 366.837 298.416 366.93C298.155 367.014 297.88 367.056 297.59 367.056C296.956 367.056 296.466 366.883 296.12 366.538C295.775 366.183 295.602 365.693 295.602 365.068V360.294H294.258V359.692H295.602V358.096H296.302V359.692H298.626V360.294H296.302V364.998C296.302 365.474 296.414 365.838 296.638 366.09C296.872 366.333 297.212 366.454 297.66 366.454C298.118 366.454 298.496 366.319 298.794 366.048L299.088 366.538ZM307.375 363.514H301.089C301.107 364.083 301.252 364.592 301.523 365.04C301.793 365.479 302.157 365.819 302.615 366.062C303.081 366.305 303.604 366.426 304.183 366.426C304.659 366.426 305.097 366.342 305.499 366.174C305.909 365.997 306.25 365.74 306.521 365.404L306.927 365.866C306.609 366.249 306.208 366.543 305.723 366.748C305.247 366.953 304.729 367.056 304.169 367.056C303.441 367.056 302.792 366.897 302.223 366.58C301.653 366.263 301.205 365.824 300.879 365.264C300.561 364.704 300.403 364.065 300.403 363.346C300.403 362.637 300.552 362.002 300.851 361.442C301.159 360.873 301.579 360.429 302.111 360.112C302.643 359.795 303.24 359.636 303.903 359.636C304.565 359.636 305.158 359.795 305.681 360.112C306.213 360.42 306.628 360.854 306.927 361.414C307.235 361.974 307.389 362.609 307.389 363.318L307.375 363.514ZM303.903 360.252C303.389 360.252 302.927 360.369 302.517 360.602C302.106 360.826 301.775 361.148 301.523 361.568C301.28 361.979 301.14 362.445 301.103 362.968H306.703C306.675 362.445 306.535 361.979 306.283 361.568C306.031 361.157 305.699 360.835 305.289 360.602C304.878 360.369 304.416 360.252 303.903 360.252ZM310.646 361.288C310.87 360.756 311.22 360.35 311.696 360.07C312.172 359.781 312.751 359.636 313.432 359.636V360.322L313.264 360.308C312.452 360.308 311.818 360.565 311.36 361.078C310.903 361.582 310.674 362.287 310.674 363.192V367H309.974V359.692H310.646V361.288Z" fill="white"/>
<path d="M31.688 259.2V269H31.1L24.422 260.488V269H23.708V259.2H24.31L30.974 267.712V259.2H31.688ZM37.7703 261.636C38.6757 261.636 39.371 261.869 39.8563 262.336C40.3417 262.793 40.5843 263.47 40.5843 264.366V269H39.9123V267.698C39.679 268.127 39.3383 268.463 38.8903 268.706C38.4423 268.939 37.9057 269.056 37.2803 269.056C36.4683 269.056 35.8243 268.865 35.3483 268.482C34.8817 268.099 34.6483 267.595 34.6483 266.97C34.6483 266.363 34.863 265.873 35.2923 265.5C35.731 265.117 36.4263 264.926 37.3783 264.926H39.8843V264.338C39.8843 263.657 39.6977 263.139 39.3243 262.784C38.9603 262.429 38.4237 262.252 37.7143 262.252C37.229 262.252 36.7623 262.336 36.3143 262.504C35.8757 262.672 35.5023 262.896 35.1943 263.176L34.8443 262.672C35.2083 262.345 35.647 262.093 36.1603 261.916C36.6737 261.729 37.2103 261.636 37.7703 261.636ZM37.3783 268.482C37.985 268.482 38.4983 268.342 38.9183 268.062C39.3477 267.782 39.6697 267.376 39.8843 266.844V265.472H37.3923C36.6737 265.472 36.151 265.603 35.8243 265.864C35.507 266.125 35.3483 266.485 35.3483 266.942C35.3483 267.418 35.5257 267.796 35.8803 268.076C36.235 268.347 36.7343 268.482 37.3783 268.482ZM46.3525 261.636C47.2578 261.636 47.9531 261.869 48.4385 262.336C48.9238 262.793 49.1665 263.47 49.1665 264.366V269H48.4945V267.698C48.2611 268.127 47.9205 268.463 47.4725 268.706C47.0245 268.939 46.4878 269.056 45.8625 269.056C45.0505 269.056 44.4065 268.865 43.9305 268.482C43.4638 268.099 43.2305 267.595 43.2305 266.97C43.2305 266.363 43.4451 265.873 43.8745 265.5C44.3131 265.117 45.0085 264.926 45.9605 264.926H48.4665V264.338C48.4665 263.657 48.2798 263.139 47.9065 262.784C47.5425 262.429 47.0058 262.252 46.2965 262.252C45.8111 262.252 45.3445 262.336 44.8965 262.504C44.4578 262.672 44.0845 262.896 43.7765 263.176L43.4265 262.672C43.7905 262.345 44.2291 262.093 44.7425 261.916C45.2558 261.729 45.7925 261.636 46.3525 261.636ZM45.9605 268.482C46.5671 268.482 47.0805 268.342 47.5005 268.062C47.9298 267.782 48.2518 267.376 48.4665 266.844V265.472H45.9745C45.2558 265.472 44.7331 265.603 44.4065 265.864C44.0891 266.125 43.9305 266.485 43.9305 266.942C43.9305 267.418 44.1078 267.796 44.4625 268.076C44.8171 268.347 45.3165 268.482 45.9605 268.482ZM61.5706 261.636C62.4759 261.636 63.1852 261.902 63.6986 262.434C64.2212 262.966 64.4826 263.731 64.4826 264.73V269H63.7826V264.786C63.7826 263.965 63.5819 263.339 63.1806 262.91C62.7792 262.481 62.2192 262.266 61.5006 262.266C60.6792 262.266 60.0259 262.523 59.5406 263.036C59.0646 263.549 58.8266 264.24 58.8266 265.108V269H58.1266V264.786C58.1266 263.965 57.9259 263.339 57.5246 262.91C57.1232 262.481 56.5632 262.266 55.8446 262.266C55.0232 262.266 54.3699 262.523 53.8846 263.036C53.4086 263.549 53.1706 264.24 53.1706 265.108V269H52.4706V261.692H53.1426V263.26C53.3852 262.747 53.7446 262.35 54.2206 262.07C54.7059 261.781 55.2799 261.636 55.9426 261.636C56.6052 261.636 57.1652 261.785 57.6226 262.084C58.0892 262.383 58.4206 262.821 58.6166 263.4C58.8592 262.859 59.2372 262.429 59.7506 262.112C60.2732 261.795 60.8799 261.636 61.5706 261.636Z" fill="white"/>
<path d="M23.422 305.844V310.03H28.644V310.674H23.422V315H22.708V305.2H29.26V305.844H23.422ZM33.8719 307.636C34.7772 307.636 35.4726 307.869 35.9579 308.336C36.4432 308.793 36.6859 309.47 36.6859 310.366V315H36.0139V313.698C35.7806 314.127 35.4399 314.463 34.9919 314.706C34.5439 314.939 34.0072 315.056 33.3819 315.056C32.5699 315.056 31.9259 314.865 31.4499 314.482C30.9832 314.099 30.7499 313.595 30.7499 312.97C30.7499 312.363 30.9646 311.873 31.3939 311.5C31.8326 311.117 32.5279 310.926 33.4799 310.926H35.9859V310.338C35.9859 309.657 35.7992 309.139 35.4259 308.784C35.0619 308.429 34.5252 308.252 33.8159 308.252C33.3306 308.252 32.8639 308.336 32.4159 308.504C31.9772 308.672 31.6039 308.896 31.2959 309.176L30.9459 308.672C31.3099 308.345 31.7486 308.093 32.2619 307.916C32.7752 307.729 33.3119 307.636 33.8719 307.636ZM33.4799 314.482C34.0866 314.482 34.5999 314.342 35.0199 314.062C35.4492 313.782 35.7712 313.376 35.9859 312.844V311.472H33.4939C32.7752 311.472 32.2526 311.603 31.9259 311.864C31.6086 312.125 31.4499 312.485 31.4499 312.942C31.4499 313.418 31.6272 313.796 31.9819 314.076C32.3366 314.347 32.8359 314.482 33.4799 314.482ZM49.09 307.636C49.9953 307.636 50.7047 307.902 51.218 308.434C51.7407 308.966 52.002 309.731 52.002 310.73V315H51.302V310.786C51.302 309.965 51.1013 309.339 50.7 308.91C50.2987 308.481 49.7387 308.266 49.02 308.266C48.1987 308.266 47.5453 308.523 47.06 309.036C46.584 309.549 46.346 310.24 46.346 311.108V315H45.646V310.786C45.646 309.965 45.4453 309.339 45.044 308.91C44.6427 308.481 44.0827 308.266 43.364 308.266C42.5427 308.266 41.8893 308.523 41.404 309.036C40.928 309.549 40.69 310.24 40.69 311.108V315H39.99V307.692H40.662V309.26C40.9047 308.747 41.264 308.35 41.74 308.07C42.2253 307.781 42.7993 307.636 43.462 307.636C44.1247 307.636 44.6847 307.785 45.142 308.084C45.6087 308.383 45.94 308.821 46.136 309.4C46.3787 308.859 46.7567 308.429 47.27 308.112C47.7927 307.795 48.3993 307.636 49.09 307.636ZM55.3124 307.692H56.0124V315H55.3124V307.692ZM55.6624 305.914C55.5037 305.914 55.3684 305.863 55.2564 305.76C55.1444 305.648 55.0884 305.513 55.0884 305.354C55.0884 305.195 55.1444 305.06 55.2564 304.948C55.3684 304.836 55.5037 304.78 55.6624 304.78C55.821 304.78 55.9564 304.836 56.0684 304.948C56.1804 305.051 56.2364 305.181 56.2364 305.34C56.2364 305.499 56.1804 305.634 56.0684 305.746C55.9564 305.858 55.821 305.914 55.6624 305.914ZM59.3828 304.612H60.0828V315H59.3828V304.612ZM63.4531 307.692H64.1531V315H63.4531V307.692ZM63.8031 305.914C63.6445 305.914 63.5091 305.863 63.3971 305.76C63.2851 305.648 63.2291 305.513 63.2291 305.354C63.2291 305.195 63.2851 305.06 63.3971 304.948C63.5091 304.836 63.6445 304.78 63.8031 304.78C63.9618 304.78 64.0971 304.836 64.2091 304.948C64.3211 305.051 64.3771 305.181 64.3771 305.34C64.3771 305.499 64.3211 305.634 64.2091 305.746C64.0971 305.858 63.9618 305.914 63.8031 305.914ZM73.6975 311.514H67.4115C67.4302 312.083 67.5749 312.592 67.8455 313.04C68.1162 313.479 68.4802 313.819 68.9375 314.062C69.4042 314.305 69.9269 314.426 70.5055 314.426C70.9815 314.426 71.4202 314.342 71.8215 314.174C72.2322 313.997 72.5729 313.74 72.8435 313.404L73.2495 313.866C72.9322 314.249 72.5309 314.543 72.0455 314.748C71.5695 314.953 71.0515 315.056 70.4915 315.056C69.7635 315.056 69.1149 314.897 68.5455 314.58C67.9762 314.263 67.5282 313.824 67.2015 313.264C66.8842 312.704 66.7255 312.065 66.7255 311.346C66.7255 310.637 66.8749 310.002 67.1735 309.442C67.4815 308.873 67.9015 308.429 68.4335 308.112C68.9655 307.795 69.5629 307.636 70.2255 307.636C70.8882 307.636 71.4809 307.795 72.0035 308.112C72.5355 308.42 72.9509 308.854 73.2495 309.414C73.5575 309.974 73.7115 310.609 73.7115 311.318L73.6975 311.514ZM70.2255 308.252C69.7122 308.252 69.2502 308.369 68.8395 308.602C68.4289 308.826 68.0975 309.148 67.8455 309.568C67.6029 309.979 67.4629 310.445 67.4255 310.968H73.0255C72.9975 310.445 72.8575 309.979 72.6055 309.568C72.3535 309.157 72.0222 308.835 71.6115 308.602C71.2009 308.369 70.7389 308.252 70.2255 308.252Z" fill="white"/>
<path d="M23.708 331.2H24.422V340.356H30.064V341H23.708V331.2ZM38.1444 337.514H31.8584C31.8771 338.083 32.0217 338.592 32.2924 339.04C32.5631 339.479 32.9271 339.819 33.3844 340.062C33.8511 340.305 34.3737 340.426 34.9524 340.426C35.4284 340.426 35.8671 340.342 36.2684 340.174C36.6791 339.997 37.0197 339.74 37.2904 339.404L37.6964 339.866C37.3791 340.249 36.9777 340.543 36.4924 340.748C36.0164 340.953 35.4984 341.056 34.9384 341.056C34.2104 341.056 33.5617 340.897 32.9924 340.58C32.4231 340.263 31.9751 339.824 31.6484 339.264C31.3311 338.704 31.1724 338.065 31.1724 337.346C31.1724 336.637 31.3217 336.002 31.6204 335.442C31.9284 334.873 32.3484 334.429 32.8804 334.112C33.4124 333.795 34.0097 333.636 34.6724 333.636C35.3351 333.636 35.9277 333.795 36.4504 334.112C36.9824 334.42 37.3977 334.854 37.6964 335.414C38.0044 335.974 38.1584 336.609 38.1584 337.318L38.1444 337.514ZM34.6724 334.252C34.1591 334.252 33.6971 334.369 33.2864 334.602C32.8757 334.826 32.5444 335.148 32.2924 335.568C32.0497 335.979 31.9097 336.445 31.8724 336.968H37.4724C37.4444 336.445 37.3044 335.979 37.0524 335.568C36.8004 335.157 36.4691 334.835 36.0584 334.602C35.6477 334.369 35.1857 334.252 34.6724 334.252ZM46.9179 337.514H40.6319C40.6506 338.083 40.7953 338.592 41.0659 339.04C41.3366 339.479 41.7006 339.819 42.1579 340.062C42.6246 340.305 43.1473 340.426 43.7259 340.426C44.2019 340.426 44.6406 340.342 45.0419 340.174C45.4526 339.997 45.7933 339.74 46.0639 339.404L46.4699 339.866C46.1526 340.249 45.7513 340.543 45.2659 340.748C44.7899 340.953 44.2719 341.056 43.7119 341.056C42.9839 341.056 42.3353 340.897 41.7659 340.58C41.1966 340.263 40.7486 339.824 40.4219 339.264C40.1046 338.704 39.9459 338.065 39.9459 337.346C39.9459 336.637 40.0953 336.002 40.3939 335.442C40.7019 334.873 41.1219 334.429 41.6539 334.112C42.1859 333.795 42.7833 333.636 43.4459 333.636C44.1086 333.636 44.7013 333.795 45.2239 334.112C45.7559 334.42 46.1713 334.854 46.4699 335.414C46.7779 335.974 46.9319 336.609 46.9319 337.318L46.9179 337.514ZM43.4459 334.252C42.9326 334.252 42.4706 334.369 42.0599 334.602C41.6493 334.826 41.3179 335.148 41.0659 335.568C40.8233 335.979 40.6833 336.445 40.6459 336.968H46.2459C46.2179 336.445 46.0779 335.979 45.8259 335.568C45.5739 335.157 45.2426 334.835 44.8319 334.602C44.4213 334.369 43.9593 334.252 43.4459 334.252ZM51.7154 331.158C50.8008 331.158 50.3434 331.648 50.3434 332.628V333.692H52.6814V334.294H50.3574V341H49.6574V334.294H48.3134V333.692H49.6574V332.572C49.6574 331.956 49.8348 331.466 50.1894 331.102C50.5441 330.738 51.0434 330.556 51.6874 330.556C51.9674 330.556 52.2334 330.598 52.4854 330.682C52.7468 330.757 52.9614 330.873 53.1294 331.032L52.8494 331.564C52.5508 331.293 52.1728 331.158 51.7154 331.158ZM58.1572 340.538C57.9799 340.706 57.7559 340.837 57.4852 340.93C57.2239 341.014 56.9485 341.056 56.6592 341.056C56.0245 341.056 55.5345 340.883 55.1892 340.538C54.8439 340.183 54.6712 339.693 54.6712 339.068V334.294H53.3272V333.692H54.6712V332.096H55.3712V333.692H57.6952V334.294H55.3712V338.998C55.3712 339.474 55.4832 339.838 55.7072 340.09C55.9405 340.333 56.2812 340.454 56.7292 340.454C57.1865 340.454 57.5645 340.319 57.8632 340.048L58.1572 340.538ZM60.5293 333.692H61.2293V341H60.5293V333.692ZM60.8793 331.914C60.7206 331.914 60.5853 331.863 60.4733 331.76C60.3613 331.648 60.3053 331.513 60.3053 331.354C60.3053 331.195 60.3613 331.06 60.4733 330.948C60.5853 330.836 60.7206 330.78 60.8793 330.78C61.038 330.78 61.1733 330.836 61.2853 330.948C61.3973 331.051 61.4533 331.181 61.4533 331.34C61.4533 331.499 61.3973 331.634 61.2853 331.746C61.1733 331.858 61.038 331.914 60.8793 331.914ZM63.3957 343.772C63.0877 343.772 62.803 343.73 62.5417 343.646C62.271 343.562 62.0517 343.441 61.8837 343.282L62.1637 342.764C62.4624 343.035 62.859 343.17 63.3537 343.17C63.783 343.17 64.1097 343.044 64.3337 342.792C64.5577 342.54 64.6697 342.176 64.6697 341.7V333.692H65.3697V341.728C65.3697 342.353 65.197 342.848 64.8517 343.212C64.5064 343.585 64.021 343.772 63.3957 343.772ZM65.0197 331.914C64.861 331.914 64.7257 331.863 64.6137 331.76C64.5017 331.648 64.4457 331.513 64.4457 331.354C64.4457 331.195 64.5017 331.06 64.6137 330.948C64.7257 330.836 64.861 330.78 65.0197 330.78C65.1784 330.78 65.3137 330.836 65.4257 330.948C65.5377 331.051 65.5937 331.181 65.5937 331.34C65.5937 331.499 65.5377 331.634 65.4257 331.746C65.3137 331.858 65.1784 331.914 65.0197 331.914ZM75.2345 330.612V341H74.5485V339.278C74.2591 339.847 73.8531 340.286 73.3305 340.594C72.8078 340.902 72.2151 341.056 71.5525 341.056C70.8711 341.056 70.2551 340.897 69.7045 340.58C69.1538 340.263 68.7198 339.824 68.4025 339.264C68.0945 338.704 67.9405 338.065 67.9405 337.346C67.9405 336.627 68.0945 335.988 68.4025 335.428C68.7198 334.859 69.1538 334.42 69.7045 334.112C70.2551 333.795 70.8711 333.636 71.5525 333.636C72.2058 333.636 72.7891 333.79 73.3025 334.098C73.8251 334.406 74.2358 334.835 74.5345 335.386V330.612H75.2345ZM71.5945 340.426C72.1545 340.426 72.6538 340.295 73.0925 340.034C73.5405 339.773 73.8905 339.409 74.1425 338.942C74.4038 338.475 74.5345 337.943 74.5345 337.346C74.5345 336.749 74.4038 336.217 74.1425 335.75C73.8905 335.283 73.5405 334.919 73.0925 334.658C72.6538 334.397 72.1545 334.266 71.5945 334.266C71.0345 334.266 70.5305 334.397 70.0825 334.658C69.6438 334.919 69.2938 335.283 69.0325 335.75C68.7805 336.217 68.6545 336.749 68.6545 337.346C68.6545 337.943 68.7805 338.475 69.0325 338.942C69.2938 339.409 69.6438 339.773 70.0825 340.034C70.5305 340.295 71.0345 340.426 71.5945 340.426Z" fill="white"/>
<path d="M22.708 357.2H23.422V366.356H29.064V367H22.708V357.2ZM37.1444 363.514H30.8584C30.8771 364.083 31.0217 364.592 31.2924 365.04C31.5631 365.479 31.9271 365.819 32.3844 366.062C32.8511 366.305 33.3737 366.426 33.9524 366.426C34.4284 366.426 34.8671 366.342 35.2684 366.174C35.6791 365.997 36.0197 365.74 36.2904 365.404L36.6964 365.866C36.3791 366.249 35.9777 366.543 35.4924 366.748C35.0164 366.953 34.4984 367.056 33.9384 367.056C33.2104 367.056 32.5617 366.897 31.9924 366.58C31.4231 366.263 30.9751 365.824 30.6484 365.264C30.3311 364.704 30.1724 364.065 30.1724 363.346C30.1724 362.637 30.3217 362.002 30.6204 361.442C30.9284 360.873 31.3484 360.429 31.8804 360.112C32.4124 359.795 33.0097 359.636 33.6724 359.636C34.3351 359.636 34.9277 359.795 35.4504 360.112C35.9824 360.42 36.3977 360.854 36.6964 361.414C37.0044 361.974 37.1584 362.609 37.1584 363.318L37.1444 363.514ZM33.6724 360.252C33.1591 360.252 32.6971 360.369 32.2864 360.602C31.8757 360.826 31.5444 361.148 31.2924 361.568C31.0497 361.979 30.9097 362.445 30.8724 362.968H36.4724C36.4444 362.445 36.3044 361.979 36.0524 361.568C35.8004 361.157 35.4691 360.835 35.0584 360.602C34.6477 360.369 34.1857 360.252 33.6724 360.252ZM43.3139 359.636C44.2286 359.636 44.9519 359.902 45.4839 360.434C46.0159 360.966 46.2819 361.731 46.2819 362.73V367H45.5819V362.786C45.5819 361.965 45.3719 361.339 44.9519 360.91C44.5413 360.481 43.9626 360.266 43.2159 360.266C42.3573 360.266 41.6806 360.523 41.1859 361.036C40.6913 361.549 40.4439 362.24 40.4439 363.108V367H39.7439V359.692H40.4159V361.274C40.6679 360.761 41.0413 360.359 41.5359 360.07C42.0399 359.781 42.6326 359.636 43.3139 359.636ZM56.1775 359.692V366.216C56.1775 367.429 55.8835 368.325 55.2955 368.904C54.7075 369.483 53.8208 369.772 52.6355 369.772C51.9635 369.772 51.3288 369.669 50.7315 369.464C50.1342 369.259 49.6535 368.974 49.2895 368.61L49.6675 368.078C50.0315 368.414 50.4702 368.675 50.9835 368.862C51.4968 369.049 52.0428 369.142 52.6215 369.142C53.5922 369.142 54.3108 368.909 54.7775 368.442C55.2442 367.985 55.4775 367.271 55.4775 366.3V365.068C55.1788 365.6 54.7635 366.011 54.2315 366.3C53.6995 366.589 53.1022 366.734 52.4395 366.734C51.7582 366.734 51.1375 366.585 50.5775 366.286C50.0268 365.978 49.5928 365.553 49.2755 365.012C48.9582 364.471 48.7995 363.859 48.7995 363.178C48.7995 362.497 48.9582 361.885 49.2755 361.344C49.5928 360.803 50.0268 360.383 50.5775 360.084C51.1375 359.785 51.7582 359.636 52.4395 359.636C53.1115 359.636 53.7182 359.785 54.2595 360.084C54.8008 360.383 55.2162 360.803 55.5055 361.344V359.692H56.1775ZM52.4955 366.104C53.0648 366.104 53.5782 365.983 54.0355 365.74C54.4928 365.488 54.8475 365.143 55.0995 364.704C55.3608 364.256 55.4915 363.747 55.4915 363.178C55.4915 362.609 55.3608 362.105 55.0995 361.666C54.8475 361.227 54.4928 360.887 54.0355 360.644C53.5782 360.392 53.0648 360.266 52.4955 360.266C51.9262 360.266 51.4128 360.392 50.9555 360.644C50.5075 360.887 50.1528 361.227 49.8915 361.666C49.6395 362.105 49.5135 362.609 49.5135 363.178C49.5135 363.747 49.6395 364.256 49.8915 364.704C50.1528 365.143 50.5075 365.488 50.9555 365.74C51.4128 365.983 51.9262 366.104 52.4955 366.104ZM63.1865 366.538C63.0092 366.706 62.7852 366.837 62.5145 366.93C62.2532 367.014 61.9778 367.056 61.6885 367.056C61.0538 367.056 60.5638 366.883 60.2185 366.538C59.8732 366.183 59.7005 365.693 59.7005 365.068V360.294H58.3565V359.692H59.7005V358.096H60.4005V359.692H62.7245V360.294H60.4005V364.998C60.4005 365.474 60.5125 365.838 60.7365 366.09C60.9698 366.333 61.3105 366.454 61.7585 366.454C62.2158 366.454 62.5938 366.319 62.8925 366.048L63.1865 366.538ZM71.4728 363.514H65.1868C65.2055 364.083 65.3502 364.592 65.6208 365.04C65.8915 365.479 66.2555 365.819 66.7128 366.062C67.1795 366.305 67.7022 366.426 68.2808 366.426C68.7568 366.426 69.1955 366.342 69.5968 366.174C70.0075 365.997 70.3482 365.74 70.6188 365.404L71.0248 365.866C70.7075 366.249 70.3062 366.543 69.8208 366.748C69.3448 366.953 68.8268 367.056 68.2668 367.056C67.5388 367.056 66.8902 366.897 66.3208 366.58C65.7515 366.263 65.3035 365.824 64.9768 365.264C64.6595 364.704 64.5008 364.065 64.5008 363.346C64.5008 362.637 64.6502 362.002 64.9488 361.442C65.2568 360.873 65.6768 360.429 66.2088 360.112C66.7408 359.795 67.3382 359.636 68.0008 359.636C68.6635 359.636 69.2562 359.795 69.7788 360.112C70.3108 360.42 70.7262 360.854 71.0248 361.414C71.3328 361.974 71.4868 362.609 71.4868 363.318L71.4728 363.514ZM68.0008 360.252C67.4875 360.252 67.0255 360.369 66.6148 360.602C66.2042 360.826 65.8728 361.148 65.6208 361.568C65.3782 361.979 65.2382 362.445 65.2008 362.968H70.8008C70.7728 362.445 70.6328 361.979 70.3808 361.568C70.1288 361.157 69.7975 360.835 69.3868 360.602C68.9762 360.369 68.5142 360.252 68.0008 360.252Z" fill="white"/>
<path d="M164.868 264.926H168.466V265.556H164.868V264.926Z" fill="white"/>
<path d="M164.868 310.926H168.466V311.556H164.868V310.926Z" fill="white"/>
<path d="M164.868 336.926H168.466V337.556H164.868V336.926Z" fill="white"/>
<path d="M165.868 362.926H169.466V363.556H165.868V362.926Z" fill="white"/>
<path d="M166.747 215.883L70 159.942L166.747 104L263.553 159.942L166.747 215.883Z" fill="#B9C95E"/>
<path d="M166.747 253.197L70 197.256V159.941L166.747 215.883V253.197Z" fill="#936037"/>
<path d="M166.747 253.197L263.554 197.256V159.941L166.747 215.883V253.197Z" fill="#B17F4A"/>
<path d="M166.747 225.256L70 169.315V159.941L166.747 215.883V225.256Z" fill="#A5AE44"/>
<path d="M166.747 225.256L263.554 169.255V159.941L166.747 215.883V225.256Z" fill="#CED67B"/>
<path d="M166.747 290L70 234.058V196.744L166.747 252.686V290Z" fill="url(#paint0_linear)" fill-opacity="0.4"/>
<path d="M166.776 290L263.583 234.058V196.744L166.776 252.686V290Z" fill="url(#paint1_linear)" fill-opacity="0.4"/>
<path d="M166.5 177C180.031 177 191 170.655 191 162.829C191 155.003 180.031 148.658 166.5 148.658C152.969 148.658 142 155.003 142 162.829C142 170.655 152.969 177 166.5 177Z" fill="#A8B249"/>
<path d="M181.777 125.983L170.418 132.712L166.396 130.309L177.754 123.58L181.777 125.983Z" fill="#A98B5D"/>
<path d="M170.419 137.279L181.778 130.791V125.984L170.419 132.473V137.279Z" fill="#CDB694"/>
<path d="M166.396 130.309V134.874L170.418 137.278V132.712L166.396 130.309Z" fill="#A98B5D"/>
<path d="M152.908 135.356L161.664 140.403L164.977 138.48L156.221 133.434L152.908 135.356Z" fill="#CDB694"/>
<path d="M161.663 144.007L152.907 138.96V135.355L161.663 140.402V144.007Z" fill="#A98B5D"/>
<path d="M164.976 138.479V142.083L161.663 144.006V140.401L164.976 138.479Z" fill="#A98B5D"/>
<path d="M152.907 135.354L156.22 137.036L159.297 135.354V117.331L156.22 115.648L152.907 117.331V135.354Z" fill="#A98B5D"/>
<path d="M156.22 115.648L159.296 117.331V135.354L156.22 137.036V115.648Z" fill="#CDB694"/>
<path d="M170.419 163.952L165.923 166.595L161.19 163.952V89.6962L165.923 86.8125L170.419 89.6962V163.952Z" fill="#CDB694"/>
<path d="M165.923 86.8125L161.19 89.6962V163.952L165.923 166.595V86.8125Z" fill="#A98B5D"/>
<path d="M181.779 125.983L177.756 128.386L173.496 125.983V103.153L177.519 100.75L181.779 103.153V125.983Z" fill="#CDB694"/>
<path d="M177.756 100.75H177.519L173.496 103.153V125.983L177.756 128.386V100.75Z" fill="#A98B5D"/>
<g clip-path="url(#clip0)">
<path d="M164.421 124.715L161.955 123.246V125.302L164.421 126.771V124.715Z" fill="#634C3C"/>
</g>
<path d="M180.626 123.954L177.807 125.469L174.989 123.954V121.834L177.807 123.348L180.626 121.834V123.954Z" fill="#7C6552"/>
<path d="M177.807 123.348L174.989 121.834V123.954L177.807 125.469V123.348Z" fill="#634C3C"/>
<path d="M169.583 149.948L165.945 151.903L162.307 149.948V147.211L165.945 149.166L169.583 147.211V149.948Z" fill="#7C6552"/>
<path d="M165.945 149.166L162.307 147.211V149.948L165.945 151.903V149.166Z" fill="#634C3C"/>
<path d="M169.583 132.678L165.945 134.633L162.307 132.678V129.941L165.945 131.896L169.583 129.941V132.678Z" fill="#7C6552"/>
<path d="M165.945 131.896L162.307 129.941V132.678L165.945 134.633V131.896Z" fill="#634C3C"/>
<path d="M159.136 133.12L156.318 134.635L153.5 133.12V131L156.318 132.514L159.136 131V133.12Z" fill="#7C6552"/>
<path d="M156.318 132.514L153.5 131V133.12L156.318 134.635V132.514Z" fill="#634C3C"/>
<path d="M200 106.76L169 124.783L138 106.76V63.2636L168.763 45L200 63.2636V106.76Z" fill="#3A8438"/>
<path d="M169 45V124.783L200 106.519V63.0233L169 45Z" fill="#468E44"/>
<path d="M168.527 79.6047L138 63.2636L168.763 45L200 63.2636L168.527 79.6047Z" fill="#55A053"/>
<path d="M162.848 127.667L152.436 133.674L142.023 127.667V113.008L152.436 107L162.848 113.008V127.667Z" fill="#3A8438"/>
<path d="M152.435 107V133.674L162.847 127.667V113.008L152.435 107Z" fill="#468E44"/>
<path d="M152.436 118.535L142.023 113.008L152.436 107L162.848 113.008L152.436 118.535Z" fill="#55A053"/>
<g clip-path="url(#clip1)">
<path d="M163.716 137.049L161.25 135.58V137.636L163.716 139.105V137.049Z" fill="#634C3C"/>
</g>
<g clip-path="url(#clip2)">
<path d="M159.841 140.221L157.375 138.752V140.808L159.841 142.277V140.221Z" fill="#634C3C"/>
</g>
<g clip-path="url(#clip3)">
<path d="M155.966 136.346L153.5 134.877V136.933L155.966 138.401V136.346Z" fill="#634C3C"/>
</g>
<path d="M165.478 144.099L163.012 142.631V144.687L165.478 146.155V144.099Z" fill="#634C3C"/>
<path d="M164.068 153.557L161.25 151.795V154.262L164.068 156.024V153.557Z" fill="#634C3C"/>
<path d="M165.125 158.404L162.659 157.082V158.932L165.125 160.254V158.404Z" fill="#634C3C"/>
<path d="M164.067 162.632L161.602 161.311V163.161L164.067 164.483V162.632Z" fill="#634C3C"/>
<path d="M167.591 142.836L170.409 141.221V143.482L167.591 145.098V142.836Z" fill="#7C6552"/>
<path d="M165.83 138.049L169 136.287V138.754L165.83 140.517V138.049Z" fill="#7C6552"/>
<path d="M171.466 132.322L173.932 131V132.85L171.466 134.172V132.322Z" fill="#7C6552"/>
<path d="M166.887 127.035L169.353 125.713V127.563L166.887 128.885V127.035Z" fill="#7C6552"/>
<path d="M177.454 130.912L179.92 129.59V131.44L177.454 132.762V130.912Z" fill="#7C6552"/>
<path d="M166.534 155.23L169 153.908V155.759L166.534 157.08V155.23Z" fill="#7C6552"/>
<path d="M166.886 160.459L170.057 158.844V161.105L166.886 162.721V160.459Z" fill="#7C6552"/>
<path d="M151.601 14.336C152.705 14.576 153.553 15.056 154.145 15.776C154.753 16.48 155.057 17.392 155.057 18.512C155.057 19.952 154.521 21.064 153.449 21.848C152.393 22.616 150.825 23 148.745 23H141.017V6.2H148.265C150.137 6.2 151.585 6.576 152.609 7.328C153.649 8.08 154.169 9.144 154.169 10.52C154.169 11.448 153.937 12.24 153.473 12.896C153.025 13.536 152.401 14.016 151.601 14.336ZM142.793 7.664V13.76H148.145C149.505 13.76 150.553 13.504 151.289 12.992C152.025 12.464 152.393 11.704 152.393 10.712C152.393 9.72 152.025 8.968 151.289 8.456C150.553 7.928 149.505 7.664 148.145 7.664H142.793ZM148.721 21.536C150.225 21.536 151.361 21.28 152.129 20.768C152.897 20.256 153.281 19.456 153.281 18.368C153.281 16.272 151.761 15.224 148.721 15.224H142.793V21.536H148.721ZM169.743 17.216H159.183C159.279 18.528 159.783 19.592 160.695 20.408C161.607 21.208 162.759 21.608 164.151 21.608C164.935 21.608 165.655 21.472 166.311 21.2C166.967 20.912 167.535 20.496 168.015 19.952L168.975 21.056C168.415 21.728 167.711 22.24 166.863 22.592C166.031 22.944 165.111 23.12 164.103 23.12C162.807 23.12 161.655 22.848 160.647 22.304C159.655 21.744 158.879 20.976 158.319 20C157.759 19.024 157.479 17.92 157.479 16.688C157.479 15.456 157.743 14.352 158.271 13.376C158.815 12.4 159.551 11.64 160.479 11.096C161.423 10.552 162.479 10.28 163.647 10.28C164.815 10.28 165.863 10.552 166.791 11.096C167.719 11.64 168.447 12.4 168.975 13.376C169.503 14.336 169.767 15.44 169.767 16.688L169.743 17.216ZM163.647 11.744C162.431 11.744 161.407 12.136 160.575 12.92C159.759 13.688 159.295 14.696 159.183 15.944H168.135C168.023 14.696 167.551 13.688 166.719 12.92C165.903 12.136 164.879 11.744 163.647 11.744ZM174.867 12.848C175.267 12 175.859 11.36 176.643 10.928C177.443 10.496 178.427 10.28 179.595 10.28V11.936L179.187 11.912C177.859 11.912 176.819 12.32 176.067 13.136C175.315 13.952 174.939 15.096 174.939 16.568V23H173.235V10.376H174.867V12.848ZM187.361 16.664L184.385 19.4V23H182.681V5.192H184.385V17.264L191.921 10.376H194.033L188.633 15.536L194.537 23H192.449L187.361 16.664Z" fill="white"/>
<path d="M105.173 416H105L81 430.215V464.193L86.6978 467.487L84.1079 469.047V480.489L92.223 485.17L92.5683 484.996V486.557L93.0863 486.903L92.5683 486.557V489.33L96.0216 491.411V491.931H97.0576L98.9568 493.144V508.92L102.583 511L106.036 508.92V488.117L114.842 483.089V479.102V472.341L129 464.02V463.847V430.215V430.042L105.173 416ZM97.7482 486.383V482.049L99.3022 481.182V487.25L97.7482 486.383ZM108.799 479.276L106.381 480.662V477.542L108.799 476.155V479.276ZM95.1583 487.77L97.4029 488.984L95.1583 487.77ZM98.0935 489.677L99.1295 490.37L98.0935 489.677Z" fill="#278B79"/>
<path d="M153.678 500.151C153.678 500.27 153.678 500.365 153.678 500.46C153.678 503.072 153.678 505.684 153.678 508.297C153.678 509.152 154.509 509.722 155.364 509.342C155.839 509.128 156.006 508.748 156.006 508.225C156.006 503.357 156.006 498.513 156.006 493.644C156.006 493.549 156.006 493.478 156.006 493.383C156.148 493.383 156.243 493.383 156.362 493.383C156.362 493.478 156.362 493.549 156.362 493.621C156.362 495.164 156.362 496.684 156.362 498.228C156.362 498.299 156.362 498.394 156.362 498.465C156.385 498.869 156.694 499.201 157.098 499.225C157.62 499.273 157.977 498.893 157.977 498.299C157.977 496.233 157.977 494.191 157.977 492.125C157.977 491.697 157.81 491.388 157.478 491.175C157.074 490.89 156.623 490.723 156.148 490.652C154.438 490.344 152.728 490.391 151.019 490.605C150.496 490.676 149.997 490.818 149.546 491.103C149.19 491.317 149 491.602 149 492.053C149.024 494.143 149 496.209 149 498.299C149 498.346 149 498.418 149 498.465C149.024 498.964 149.427 499.32 149.926 499.249C150.354 499.178 150.615 498.845 150.615 498.346C150.615 496.779 150.615 495.188 150.615 493.621C150.615 493.549 150.615 493.478 150.615 493.407C150.757 493.407 150.852 493.407 150.971 493.407C150.971 493.502 150.971 493.573 150.971 493.668C150.971 498.489 150.971 503.31 150.971 508.107C150.971 508.202 150.971 508.297 150.971 508.415C150.995 508.748 151.137 509.009 151.375 509.199C151.778 509.508 152.206 509.532 152.657 509.342C153.108 509.152 153.298 508.772 153.298 508.297C153.298 505.661 153.298 503.048 153.298 500.412C153.298 500.341 153.298 500.246 153.298 500.151C153.441 500.151 153.536 500.151 153.678 500.151ZM153.488 489.821C154.557 489.821 155.388 488.99 155.388 487.921C155.388 486.876 154.557 486.021 153.488 486.021C152.42 486.021 151.565 486.853 151.565 487.921C151.588 488.99 152.42 489.821 153.488 489.821Z" fill="#278B79"/>
<path d="M153.678 500.154C153.559 500.154 153.464 500.154 153.322 500.154C153.322 500.249 153.322 500.32 153.322 500.415C153.322 503.051 153.322 505.664 153.322 508.3C153.322 508.775 153.132 509.155 152.681 509.345C152.229 509.534 151.802 509.511 151.398 509.202C151.137 509.012 150.994 508.727 150.994 508.418C150.994 508.323 150.994 508.228 150.994 508.11C150.994 503.289 150.994 498.468 150.994 493.671C150.994 493.6 150.994 493.505 150.994 493.41C150.876 493.41 150.781 493.41 150.638 493.41C150.638 493.481 150.638 493.552 150.638 493.624C150.638 495.191 150.638 496.782 150.638 498.349C150.638 498.848 150.377 499.181 149.95 499.252C149.451 499.323 149.047 498.967 149.023 498.468C149.023 498.421 149.023 498.349 149.023 498.302C149.023 496.212 149.023 494.146 149.023 492.056C149.023 491.605 149.213 491.32 149.57 491.106C150.021 490.821 150.52 490.679 151.042 490.608C152.752 490.394 154.462 490.346 156.171 490.655C156.646 490.75 157.098 490.893 157.501 491.178C157.834 491.415 158 491.724 158 492.128C158 494.194 158 496.236 158 498.302C158 498.872 157.62 499.276 157.121 499.228C156.718 499.181 156.409 498.872 156.385 498.468C156.385 498.397 156.385 498.302 156.385 498.231C156.385 496.687 156.385 495.167 156.385 493.624C156.385 493.552 156.385 493.457 156.385 493.386C156.266 493.386 156.148 493.386 156.029 493.386C156.029 493.481 156.029 493.552 156.029 493.647C156.029 498.516 156.029 503.36 156.029 508.228C156.029 508.727 155.863 509.131 155.388 509.345C154.533 509.724 153.702 509.155 153.702 508.3C153.702 505.687 153.702 503.075 153.702 500.463C153.678 500.344 153.678 500.273 153.678 500.154Z" fill="#278B79"/>
<path d="M153.489 489.823C152.42 489.823 151.589 488.968 151.589 487.9C151.589 486.831 152.444 486 153.512 486C154.557 486 155.412 486.855 155.412 487.9C155.412 488.992 154.557 489.847 153.489 489.823Z" fill="#278B79"/>
<rect x="105" y="415" width="99" height="1" fill="url(#paint2_linear)"/>
<path d="M227.667 411.2V421H226.953V411.844H224.559V411.2H227.667ZM237.097 420.356V421H230.363V420.496L234.507 416.38C235.048 415.839 235.412 415.377 235.599 414.994C235.795 414.602 235.893 414.201 235.893 413.79C235.893 413.165 235.678 412.675 235.249 412.32C234.829 411.965 234.218 411.788 233.415 411.788C232.799 411.788 232.258 411.881 231.791 412.068C231.334 412.255 230.937 412.539 230.601 412.922L230.097 412.474C230.47 412.045 230.942 411.713 231.511 411.48C232.09 411.247 232.743 411.13 233.471 411.13C234.432 411.13 235.198 411.363 235.767 411.83C236.336 412.297 236.621 412.927 236.621 413.72C236.621 414.224 236.509 414.705 236.285 415.162C236.061 415.619 235.641 416.151 235.025 416.758L231.413 420.356H237.097ZM248.682 413.636C249.587 413.636 250.296 413.902 250.81 414.434C251.332 414.966 251.594 415.731 251.594 416.73V421H250.894V416.786C250.894 415.965 250.693 415.339 250.292 414.91C249.89 414.481 249.33 414.266 248.612 414.266C247.79 414.266 247.137 414.523 246.652 415.036C246.176 415.549 245.938 416.24 245.938 417.108V421H245.238V416.786C245.238 415.965 245.037 415.339 244.636 414.91C244.234 414.481 243.674 414.266 242.956 414.266C242.134 414.266 241.481 414.523 240.996 415.036C240.52 415.549 240.282 416.24 240.282 417.108V421H239.582V413.692H240.254V415.26C240.496 414.747 240.856 414.35 241.332 414.07C241.817 413.781 242.391 413.636 243.054 413.636C243.716 413.636 244.276 413.785 244.734 414.084C245.2 414.383 245.532 414.821 245.728 415.4C245.97 414.859 246.348 414.429 246.862 414.112C247.384 413.795 247.991 413.636 248.682 413.636Z" fill="white"/>
<rect x="155" y="485" width="49" height="1" fill="url(#paint3_linear)"/>
<path d="M216.382 483.2V493H215.668V483.844H213.274V483.2H216.382ZM219.904 493.056C219.745 493.056 219.605 493 219.484 492.888C219.372 492.767 219.316 492.622 219.316 492.454C219.316 492.286 219.372 492.146 219.484 492.034C219.605 491.922 219.745 491.866 219.904 491.866C220.062 491.866 220.198 491.922 220.31 492.034C220.431 492.146 220.492 492.286 220.492 492.454C220.492 492.622 220.431 492.767 220.31 492.888C220.198 493 220.062 493.056 219.904 493.056ZM229.08 483.2V483.704L224.866 493H224.082L228.254 483.844H222.752V485.72H222.052V483.2H229.08ZM233.035 487.302C234.463 487.302 235.499 487.554 236.143 488.058C236.787 488.553 237.109 489.257 237.109 490.172C237.109 490.732 236.978 491.231 236.717 491.67C236.465 492.099 236.082 492.44 235.569 492.692C235.056 492.944 234.426 493.07 233.679 493.07C232.97 493.07 232.302 492.949 231.677 492.706C231.061 492.463 230.58 492.146 230.235 491.754L230.599 491.208C230.907 491.563 231.332 491.852 231.873 492.076C232.424 492.3 233.021 492.412 233.665 492.412C234.542 492.412 235.214 492.211 235.681 491.81C236.157 491.409 236.395 490.872 236.395 490.2C236.395 489.463 236.124 488.903 235.583 488.52C235.051 488.137 234.15 487.946 232.881 487.946H230.893L231.411 483.2H236.605V483.844H232.013L231.635 487.302H233.035ZM248.682 485.636C249.587 485.636 250.296 485.902 250.81 486.434C251.332 486.966 251.594 487.731 251.594 488.73V493H250.894V488.786C250.894 487.965 250.693 487.339 250.292 486.91C249.89 486.481 249.33 486.266 248.612 486.266C247.79 486.266 247.137 486.523 246.652 487.036C246.176 487.549 245.938 488.24 245.938 489.108V493H245.238V488.786C245.238 487.965 245.037 487.339 244.636 486.91C244.234 486.481 243.674 486.266 242.956 486.266C242.134 486.266 241.481 486.523 240.996 487.036C240.52 487.549 240.282 488.24 240.282 489.108V493H239.582V485.692H240.254V487.26C240.496 486.747 240.856 486.35 241.332 486.07C241.817 485.781 242.391 485.636 243.054 485.636C243.716 485.636 244.276 485.785 244.734 486.084C245.2 486.383 245.532 486.821 245.728 487.4C245.97 486.859 246.348 486.429 246.862 486.112C247.384 485.795 247.991 485.636 248.682 485.636Z" fill="white"/>
<defs>
<linearGradient id="paint0_linear" x1="118.373" y1="196.744" x2="91.7747" y2="246.745" gradientUnits="userSpaceOnUse">
<stop stop-color="#936037"/>
<stop offset="1" stop-color="#936037" stop-opacity="0"/>
</linearGradient>
<linearGradient id="paint1_linear" x1="215.18" y1="196.744" x2="242.181" y2="241.1" gradientUnits="userSpaceOnUse">
<stop stop-color="#B17F4A"/>
<stop offset="1" stop-color="#B17F4A" stop-opacity="0"/>
</linearGradient>
<linearGradient id="paint2_linear" x1="154.5" y1="415" x2="105" y2="416" gradientUnits="userSpaceOnUse">
<stop stop-color="#278B79"/>
<stop offset="1" stop-color="#278B79" stop-opacity="0"/>
</linearGradient>
<linearGradient id="paint3_linear" x1="179.5" y1="485" x2="154.992" y2="485.245" gradientUnits="userSpaceOnUse">
<stop stop-color="#278B79"/>
<stop offset="1" stop-color="#278B79" stop-opacity="0"/>
</linearGradient>
<clipPath id="clip0">
<rect width="2.46591" height="3.52455" fill="white" transform="translate(161.955 123.246)"/>
</clipPath>
<clipPath id="clip1">
<rect width="2.46591" height="3.52455" fill="white" transform="translate(161.25 135.58)"/>
</clipPath>
<clipPath id="clip2">
<rect width="2.46591" height="3.52455" fill="white" transform="translate(157.375 138.752)"/>
</clipPath>
<clipPath id="clip3">
<rect width="2.46591" height="3.52455" fill="white" transform="translate(153.5 134.877)"/>
</clipPath>
</defs>
</svg>
