<svg width="268" height="70" viewBox="0 0 268 70" fill="none" xmlns="http://www.w3.org/2000/svg">
<g clip-path="url(#clip0)">
<path d="M158.8 55.0984C159.1 55.4984 159.5 55.8984 159.8 56.2984C160 56.5984 160.2 56.9984 160.2 57.2984C160.2 57.9984 159.5 58.2984 158.9 57.8984C158.5 57.5984 158.1 57.2984 157.8 56.8984C154.5 53.3984 150.4 50.7984 146.4 48.1984C146.2 48.0984 146 48.0984 145.6 47.8984C145.6 48.4984 145.6 49.0984 145.6 49.5984C145.7 51.0984 145.7 52.5984 145 53.9984C144.8 54.3984 144.5 54.7984 144.1 55.0984C143.9 55.1984 143.3 55.0984 143.1 54.8984C142.9 54.7984 142.9 54.2984 143 53.9984C144.6 50.7984 143.6 47.8984 142.2 44.9984C141 42.5984 139.4 40.4984 137.4 38.2984C137.2 38.7984 137 38.9984 137 39.2984C137.1 43.2984 137.1 47.1984 137.3 51.1984C137.5 55.2984 139.7 58.1984 143.4 59.8984C143.8 60.0984 144.3 60.2984 144.7 60.5984C144.9 60.7984 145.1 61.2984 145 61.5984C144.9 61.7984 144.4 62.0984 144.1 62.0984C143.6 61.9984 143.1 61.7984 142.6 61.4984C141.5 60.8984 140.5 60.2984 139.2 59.5984C139.3 60.1984 139.3 60.5984 139.4 60.8984C140.2 62.7984 141.4 64.3984 143.2 65.5984C143.4 65.7984 143.7 65.8984 143.9 66.0984C144.9 66.6984 145.2 67.2984 144.8 67.6984C144.2 68.3984 143.5 67.9984 142.8 67.6984C141.4 66.9984 140.3 65.8984 139.3 64.6984C137.8 62.7984 136.9 60.5984 136.4 58.2984C135.3 53.1984 134.8 47.9984 135.2 42.6984C135.4 39.6984 135 36.8984 133.2 34.3984C132.7 33.7984 132.1 33.1984 131.6 32.5984C126.2 36.8984 123.9 42.7984 126.9 49.1984C127.6 50.7984 128.5 52.3984 129.6 53.6984C132.6 57.2984 134.3 61.4984 134.9 66.0984C135 66.9984 135.2 67.8984 135.3 68.8984C135.4 69.3984 135.2 69.8984 134.6 69.9984C134 70.0984 133.7 69.6984 133.6 69.1984C133.4 68.1984 133.3 67.1984 133.1 66.2984C132.5 62.2984 131.1 58.5984 128.5 55.4984C126.9 53.5984 125.8 51.3984 124.9 48.9984C124.7 48.3984 124.4 47.7984 124 46.8984C123.7 47.4984 123.5 47.7984 123.4 48.0984C122.8 51.1984 122.5 54.2984 122.7 57.4984C122.8 59.1984 123.1 60.8984 124 62.3984C124.4 62.8984 124.6 63.4984 123.9 63.8984C123.2 64.2984 122.8 63.8984 122.4 63.2984C122 62.5984 121.7 61.9984 121.2 61.0984C120.9 61.4984 120.6 61.7984 120.5 62.0984C119.8 63.6984 119.2 65.1984 118.5 66.7984C118.1 67.6984 117.6 68.0984 117.1 67.6984C116.3 67.1984 116.6 66.5984 116.9 65.9984C119.7 60.5984 120.6 54.5984 121.6 48.6984C121.9 46.6984 122.4 44.6984 122.8 42.6984C122.9 42.1984 122.9 41.7984 123 40.9984C121.2 41.7984 119.7 42.5984 118.6 43.8984C115.3 47.6984 112.3 51.8984 110.5 56.5984C109.9 57.9984 109.7 59.5984 109.3 60.9984C109 62.1984 108.7 62.5984 108.1 62.4984C107.1 62.2984 107.4 61.3984 107.4 60.7984C107.4 60.0984 107.5 59.3984 107.7 58.3984C107.1 58.7984 106.8 58.9984 106.5 59.1984C106.2 59.3984 105.9 59.7984 105.6 59.8984C105.3 59.9984 104.8 59.8984 104.6 59.6984C104.4 59.4984 104.4 58.8984 104.5 58.6984C104.8 58.1984 105.2 57.8984 105.6 57.4984C109 54.1984 111.7 50.1984 114.2 46.2984C114.3 46.0984 114.3 45.8984 114.5 45.4984C113.9 45.4984 113.4 45.4984 113 45.4984C111.4 45.5984 109.9 45.5984 108.5 44.8984C108.2 44.7984 107.9 44.5984 107.6 44.3984C107.1 44.0984 106.9 43.5984 107.3 43.0984C107.5 42.7984 108.1 42.6984 108.4 42.7984C109.5 42.9984 110.6 43.5984 111.7 43.5984C112.9 43.5984 114.3 43.3984 115.4 42.8984C117.7 41.7984 119.9 40.3984 122.1 38.9984C122.7 38.5984 123.1 37.8984 123.9 37.0984C123 36.9984 122.4 36.9984 121.9 36.9984C119.1 36.9984 116.4 36.9984 113.6 36.9984C111.5 36.9984 109.6 37.3984 107.6 38.1984C105.6 38.9984 104.2 40.3984 103.2 42.1984C102.7 42.9984 102.3 43.8984 101.8 44.5984C101.6 44.8984 101 45.0984 100.7 44.9984C100.1 44.8984 99.9997 44.2984 100.3 43.7984C100.7 42.8984 101.2 41.8984 101.7 40.9984C101.9 40.4984 102.1 39.9984 102.3 39.5984C102.2 39.4984 102.1 39.3984 102.1 39.2984C101.6 39.4984 101.1 39.5984 100.7 39.7984C99.0997 40.6984 97.6997 41.8984 96.6997 43.4984C96.4997 43.7984 96.2997 44.1984 96.0997 44.4984C95.7997 44.9984 95.2997 45.2984 94.6997 44.9984C94.1997 44.6984 94.1997 44.1984 94.4997 43.6984C95.4997 41.7984 96.6997 40.2984 98.4997 39.0984C101.9 36.8984 105.7 36.0984 109.6 35.6984C112.9 35.3984 116.2 35.4984 119.5 35.3984C119.9 35.3984 120.2 35.3984 120.7 35.0984C120.4 34.8984 120 34.6984 119.7 34.4984C113.8 31.5984 109.6 27.2984 107.6 20.8984C106 15.8984 105.1 10.7984 103.9 5.69844C103.6 4.29844 103 2.99844 103.3 1.39844C105.2 1.39844 107 1.39844 108.9 1.39844C109 1.69844 109.2 1.89844 109.2 2.19844C110.1 6.59844 111 10.8984 112 15.2984C112.4 17.1984 113.1 18.9984 113.7 20.7984C114.6 23.1984 116.3 25.0984 118.3 26.6984C119.2 27.3984 120.1 28.0984 121.1 28.6984C123.6 30.0984 124.9 29.7984 127 27.7984C124.8 24.0984 123.4 19.8984 122.1 15.7984C120.8 11.7984 120.1 7.59844 119.8 3.29844C119.7 2.09844 119.9 1.79844 120.9 1.79844C122.4 1.79844 123.8 1.99844 125.5 2.09844C125.9 9.09844 127.9 15.6984 130.7 22.0984C131 21.9984 131.1 21.9984 131.2 21.8984C132.8 18.8984 134.1 15.8984 134.2 12.3984C134.3 9.19844 134.6 5.99844 134.8 2.89844C134.8 2.59844 134.9 2.39844 135 1.99844C136.8 1.49844 138.7 1.89844 140.6 1.79844C140.7 2.29844 140.7 2.69844 140.7 2.99844C140.5 6.29844 140.3 9.59844 140.1 12.8984C139.9 15.7984 139.3 18.4984 138.1 21.1984C137.1 23.2984 136.1 25.4984 135.2 27.5984C136.7 29.4984 140.2 30.2984 142.4 29.1984C144.4 28.2984 145.9 26.8984 146.9 24.7984C149.4 19.0984 151 13.0984 151.8 6.89844C151.9 5.79844 151.8 4.59844 151.8 3.39844C151.8 2.79844 151.9 2.19844 151.9 1.39844C152.9 1.49844 153.9 1.49844 154.8 1.59844C155.7 1.69844 156.5 1.79844 157.6 1.99844C157.8 4.09844 157.9 6.19844 157.6 8.19844C157 13.5984 155.5 18.7984 153.7 23.7984C153 25.7984 152.2 27.8984 151 29.5984C148.4 33.1984 144.8 35.4984 140.1 35.4984C139.7 35.4984 139.3 35.4984 138.9 35.4984C138.9 35.4984 138.8 35.4984 138.5 35.6984C139.2 35.9984 139.7 36.2984 140.3 36.3984C142 36.7984 143.6 36.9984 145.4 36.4984C148.2 35.7984 151 34.9984 153.4 33.0984C154.6 32.1984 155.8 31.2984 157.1 30.5984C158.7 29.6984 160.5 29.0984 162.2 28.3984C163.1 28.0984 163.5 28.2984 164.5 29.4984C164 29.6984 163.5 29.9984 163 30.0984C160.5 30.7984 158.2 31.6984 156.3 33.3984C154 35.3984 151.5 36.7984 148.6 37.6984C148.1 37.7984 147.7 38.0984 147.2 38.3984C147.2 38.4984 147.3 38.6984 147.3 38.7984C148.5 38.9984 149.8 39.0984 151 39.2984C153 39.4984 154.9 39.6984 156.9 39.7984C158.8 39.8984 160.6 39.4984 162.3 38.4984C162.9 38.1984 163.5 37.6984 164 38.4984C164.4 38.9984 164 39.5984 163.1 40.1984C162.5 40.4984 162 40.8984 161.1 41.3984C161.8 41.7984 162.3 41.9984 162.8 42.1984C164 42.6984 165.2 43.1984 166.4 43.7984C166.8 43.9984 167.2 44.0984 167.4 44.2984C167.6 44.5984 167.8 45.0984 167.7 45.4984C167.6 45.6984 167.1 45.7984 166.7 45.8984C166.5 45.8984 166.2 45.7984 165.9 45.5984C161.9 43.4984 157.5 42.5984 153.1 41.7984C149.5 41.1984 146 40.3984 142.4 39.6984C142 39.5984 141.6 39.5984 141.1 39.4984C141.5 41.0984 143 43.4984 144.5 44.5984C147.7 47.0984 151 49.4984 154.7 51.2984C156.8 52.2984 159 53.1984 161.4 53.3984C161.6 53.3984 161.8 53.4984 162 53.4984C162.5 53.6984 162.7 54.0984 162.5 54.4984C162.4 54.7984 162 55.0984 161.7 55.1984C161.2 55.2984 160.6 55.0984 160.1 55.0984C159.6 55.0984 159.2 54.9984 158.7 54.9984C158.9 54.8984 158.8 54.9984 158.8 55.0984Z" fill="white"/>
<path d="M72.5 14.6C72.4 15.4 72.3 15.8 72.3 16.2C72.3 17.9 72.4 19.5 72.4 21.2C72.4 22.1 72.3 23.1 72.3 24C72.3 25.7 72.3 27.4 72.4 29.1C72.4 30.6 72.6 32.2 72.6 33.7C72.6 35.2 72.2 35.6 70.7 35.8C70.3 35.9 69.8 35.9 69.4 35.8C67.3 35.7 67.2 35.6 67.1 33.5C67 30.1 67 26.7 67 23.3C67 20.9 67 18.6 67 16.2C67 13.7 66.9 11.1 66.9 8.6C66.9 7.3 66.8 6 66.8 4.6C66.8 3.7 66.7 2.8 66.8 2C66.6 1 67 0.7 68 0.6C68.7 0.6 69.4 0.6 70.1 0.6C70.8 0.6 71.3 1 71.7 1.6C75.1 6.7 78.4 11.8 81.9 16.8C83.6 19.3 85.4 21.6 87.2 24C87.4 24.3 87.7 24.5 88.2 25C88.3 24.4 88.4 24 88.4 23.6C88.4 20.9 88.4 18.2 88.4 15.5C88.3 11.7 88.2 7.9 88.2 4.1C88.2 3.3 88.2 2.6 88.3 1.8C88.5 0.5 88.9 0.1 90.2 0C91.1 0 92.1 0 93 0C93.6 0 93.9 0.2 94 0.8C94.1 1.3 94.2 1.8 94.2 2.3C94.3 4.8 94.5 7.4 94.5 9.9C94.5 12 94.3 14.1 94.3 16.2C94.3 21 94.3 25.8 94.2 30.6C94.2 31.8 94.1 33 93.9 34.2C93.7 35.6 93.4 35.8 92.1 35.8C91.1 35.8 90 35.7 89 35.7C88.1 35.6 87.4 35.3 86.9 34.6C84.4 31.1 81.8 27.6 79.3 24.1C77.3 21.3 75.3 18.4 73.3 15.6C73.2 15.2 73 15.1 72.5 14.6Z" fill="white"/>
<path d="M182.7 35.7994C180.9 35.4994 179 35.1994 177.2 34.9994C174.2 34.5994 171.9 32.9994 169.6 30.9994C165.8 27.5994 164.4 23.1994 164.2 18.4994C164 12.6994 166.5 7.79939 171.3 4.29939C174 2.29939 177 0.699392 180.4 0.199392C183.2 -0.200608 186 -0.100608 188.6 1.09939C189.5 1.49939 190.5 1.89939 191.5 2.29939C192.7 2.89939 193.7 3.59939 194.6 4.69939C196.5 6.99939 198.3 9.39939 199.5 12.0994C200.3 13.8994 200.7 15.6994 200.7 17.6994C200.7 20.7994 199.8 23.6994 198.4 26.4994C196.8 29.6994 194.4 31.9994 191.5 33.6994C188.8 35.4994 185.8 35.5994 182.7 35.7994ZM194.7 19.8994C194.6 17.2994 194.1 14.9994 193.3 12.6994C192.6 10.7994 191.5 9.19939 190 8.09939C186.2 5.29939 181.9 4.19939 176.9 7.09939C172.9 9.39939 170.6 12.9994 170.2 17.6994C169.7 23.5994 173.6 28.4994 179.3 29.3994C180.2 29.4994 181 29.5994 181.9 29.7994C185.8 30.5994 188.9 28.9994 191.7 26.3994C192.2 25.8994 192.5 25.2994 192.9 24.5994C193.2 23.9994 193.5 23.3994 193.8 22.8994C194.5 21.8994 194.8 20.8994 194.7 19.8994Z" fill="white"/>
<path d="M246.9 0.298897C252 0.0988971 256.7 1.5989 260.9 4.7989C264.6 7.5989 266.4 11.3989 267.2 15.7989C267.8 19.2989 267.2 22.6989 265.6 25.8989C264.7 27.5989 263.5 28.9989 262 30.2989C257.4 34.2989 252.1 35.7989 246.1 35.4989C245.1 35.3989 244.1 35.4989 243.2 35.2989C242.1 35.0989 241.8 34.7989 241.7 33.6989C241.7 33.3989 241.7 32.9989 241.7 32.6989C241.7 29.3989 241.7 26.0989 241.6 22.7989C241.6 22.5989 241.6 22.4989 241.6 22.2989C241.6 15.7989 241.6 9.2989 241.6 2.8989C241.6 0.798897 242.1 0.398897 244.1 0.298897C245 0.298897 245.9 0.298897 246.9 0.298897ZM247.6 29.8989C248 29.9989 248.2 30.0989 248.5 30.0989C253.3 30.5989 260 26.7989 261.4 20.5989C262 18.0989 261.4 15.6989 260.5 13.4989C258.4 8.7989 254.7 5.9989 249.4 5.5989C247.4 5.3989 247.1 5.6989 247.1 7.6989C247.2 12.2989 247.3 16.7989 247.5 21.3989C247.5 22.6989 247.5 23.9989 247.5 25.2989C247.5 26.8989 247.6 28.3989 247.6 29.8989Z" fill="white"/>
<path d="M22.4 0.399609C22.8 1.69961 22.6 2.89961 22.3 4.19961C22.2 4.79961 21.6 4.89961 21 4.99961C20 4.99961 18.9 4.99961 17.9 4.99961C15 4.99961 12.1 4.89961 9.2 4.89961C8.3 4.89961 7.4 5.09961 6.2 5.19961C6.1 6.29961 6 7.29961 5.9 8.29961C5.9 9.29961 5.8 10.3996 5.9 11.3996C5.9 12.7996 6.1 12.9996 7.4 12.8996C10 12.7996 12.6 12.6996 15.2 12.6996C16.5 12.6996 17.7 12.5996 19 12.5996C20.6 12.5996 20.9 12.9996 21 14.5996C21 14.6996 21 14.6996 21 14.7996C21.1 17.1996 20.8 17.4996 18.4 17.4996C15 17.5996 11.6 17.5996 8.2 17.6996C7.8 17.6996 7.4 17.6996 7 17.7996C6.4 17.7996 6.1 18.1996 6.1 18.7996C6.1 19.0996 6.1 19.2996 6.1 19.5996C6 22.5996 6 25.4996 5.9 28.4996C5.9 28.7996 5.9 29.1996 5.9 29.4996C5.9 30.7996 6.1 30.8996 7.4 30.8996C11.6 30.7996 15.9 30.6996 20.1 30.5996C20.8 30.5996 21.4 30.5996 22.1 30.5996C22.4 30.5996 22.8 30.5996 23.1 30.7996C24.2 31.6996 23.7 32.8996 23.8 33.9996C23.8 34.8996 23.3 35.2996 22.5 35.3996C21.6 35.4996 20.7 35.5996 19.9 35.5996C14 35.7996 8.2 35.7996 2.4 35.8996C2.2 35.8996 2 35.8996 1.7 35.8996C0.5 35.7996 0.2 35.4996 0.3 34.3996C0.7 26.1996 0.1 17.9996 0.3 9.89961C0.4 7.99961 0.1 6.19961 0 4.39961C0 3.79961 0 3.19961 0 2.59961C0.1 1.19961 0.7 0.599609 2.1 0.499609C3.3 0.399609 4.5 0.399609 5.7 0.399609C9.4 0.299609 13 0.0996094 16.6 0.0996094C18.5 0.0996094 20.5 0.299609 22.4 0.399609Z" fill="white"/>
<path d="M56.0003 0.298828C56.5003 1.79883 56.1003 2.99883 55.9003 4.19883C55.8003 4.49883 55.2003 4.79883 54.7003 4.89883C53.7003 4.99883 52.6003 4.99883 51.5003 4.99883C48.6003 4.99883 45.7003 4.89883 42.7003 4.89883C41.7003 4.89883 40.8003 5.09883 39.6003 5.19883C39.6003 7.49883 39.5003 9.69883 39.5003 11.8988C39.5003 12.7988 40.1003 12.8988 40.9003 12.8988C43.4003 12.7988 46.0003 12.6988 48.5003 12.6988C49.9003 12.6988 51.3003 12.5988 52.6003 12.5988C54.1003 12.5988 54.4003 12.9988 54.5003 14.4988C54.7003 17.1988 54.5003 17.3988 51.8003 17.4988C48.3003 17.5988 44.9003 17.5988 41.4003 17.6988C39.8003 17.6988 39.8003 17.8988 39.8003 19.4988C39.8003 21.9988 39.7003 24.3988 39.7003 26.8988C39.7003 27.7988 39.6003 28.6988 39.7003 29.4988C39.7003 30.6988 39.9003 30.8988 41.1003 30.7988C45.4003 30.6988 49.8003 30.5988 54.1003 30.4988C54.8003 30.4988 55.4003 30.4988 56.1003 30.4988C57.0003 30.4988 57.4003 31.0988 57.5003 31.8988C57.5003 32.2988 57.5003 32.6988 57.5003 33.0988C57.5003 34.9988 57.2003 35.3988 55.4003 35.4988C53.5003 35.5988 51.7003 35.4988 49.8003 35.5988C45.3003 35.6988 40.9003 35.7988 36.4003 35.8988C36.1003 35.8988 35.7003 35.8988 35.4003 35.8988C34.4003 35.7988 34.1003 35.4988 34.1003 34.5988C34.1003 33.1988 34.1003 31.8988 34.1003 30.4988C34.1003 25.5988 34.1003 20.5988 34.1003 15.6988C34.1003 14.2988 34.2003 12.7988 34.1003 11.3988C34.0003 9.09883 33.9003 6.79883 33.8003 4.49883C33.7003 0.998828 34.0003 0.598828 37.6003 0.498828C41.2003 0.398828 44.9003 0.398828 48.5003 0.398828C50.9003 0.298828 53.4003 0.298828 56.0003 0.298828Z" fill="white"/>
<path d="M214.8 14.0996C215 17.6996 215.1 21.2996 215.3 24.9996C215.3 25.3996 215.5 25.8996 215.6 26.2996C216.5 29.7996 219.3 30.9996 222.8 29.9996C223.5 29.7996 224 29.1996 224.3 28.4996C225.1 26.6996 225.7 24.7996 225.7 22.7996C225.7 19.2996 225.6 15.8996 225.6 12.3996C225.6 8.99961 225.5 5.69961 225.5 2.29961C225.5 0.399609 226 0.0996094 227.8 0.0996094C227.9 0.0996094 227.9 0.0996094 228 0.0996094C230.7 0.199609 231 0.499609 230.9 3.19961C230.9 3.89961 230.8 4.59961 230.9 5.29961C231.7 10.7996 231.1 16.2996 231.2 21.7996C231.2 23.2996 230.9 24.7996 230.8 26.1996C230.7 28.0996 229.9 29.6996 229.1 31.2996C228.1 33.0996 226.4 34.1996 224.5 34.8996C222.2 35.6996 219.8 35.8996 217.3 35.2996C214.5 34.6996 212.5 32.9996 211.2 30.3996C210.1 28.0996 209.6 25.5996 209.6 22.9996C209.6 17.8996 209.5 12.8996 209.4 7.79961C209.4 6.19961 209.2 4.59961 209.2 2.99961C209.2 2.49961 209.2 1.89961 209.2 1.39961C209.2 0.599609 209.6 0.199609 210.5 0.199609C211.4 0.199609 212.4 0.199609 213.3 0.199609C214.4 0.199609 214.6 0.399609 214.7 1.59961C214.8 3.69961 215 5.79961 215 7.89961C215.1 9.89961 215 11.9996 215 13.9996C214.9 14.0996 214.8 14.0996 214.8 14.0996Z" fill="white"/>
</g>
<defs>
<clipPath id="clip0">
<rect width="267.4" height="70" fill="white"/>
</clipPath>
</defs>
</svg>
