<svg width="335" height="550" viewBox="0 0 335 550" fill="none" xmlns="http://www.w3.org/2000/svg">
<rect y="243" width="335" height="70" rx="16" fill="#3EA390"/>
<path d="M84.2467 275.692V282.216C84.2467 283.429 83.9527 284.325 83.3647 284.904C82.7767 285.483 81.89 285.772 80.7047 285.772C80.0327 285.772 79.398 285.669 78.8007 285.464C78.2034 285.259 77.7227 284.974 77.3587 284.61L77.7367 284.078C78.1007 284.414 78.5394 284.675 79.0527 284.862C79.566 285.049 80.112 285.142 80.6907 285.142C81.6614 285.142 82.38 284.909 82.8467 284.442C83.3134 283.985 83.5467 283.271 83.5467 282.3V281.068C83.248 281.6 82.8327 282.011 82.3007 282.3C81.7687 282.589 81.1714 282.734 80.5087 282.734C79.8274 282.734 79.2067 282.585 78.6467 282.286C78.096 281.978 77.662 281.553 77.3447 281.012C77.0274 280.471 76.8687 279.859 76.8687 279.178C76.8687 278.497 77.0274 277.885 77.3447 277.344C77.662 276.803 78.096 276.383 78.6467 276.084C79.2067 275.785 79.8274 275.636 80.5087 275.636C81.1807 275.636 81.7874 275.785 82.3287 276.084C82.87 276.383 83.2854 276.803 83.5747 277.344V275.692H84.2467ZM80.5647 282.104C81.134 282.104 81.6474 281.983 82.1047 281.74C82.562 281.488 82.9167 281.143 83.1687 280.704C83.43 280.256 83.5607 279.747 83.5607 279.178C83.5607 278.609 83.43 278.105 83.1687 277.666C82.9167 277.227 82.562 276.887 82.1047 276.644C81.6474 276.392 81.134 276.266 80.5647 276.266C79.9954 276.266 79.482 276.392 79.0247 276.644C78.5767 276.887 78.222 277.227 77.9607 277.666C77.7087 278.105 77.5827 278.609 77.5827 279.178C77.5827 279.747 77.7087 280.256 77.9607 280.704C78.222 281.143 78.5767 281.488 79.0247 281.74C79.482 281.983 79.9954 282.104 80.5647 282.104ZM93.8037 279.514H87.5177C87.5363 280.083 87.681 280.592 87.9517 281.04C88.2223 281.479 88.5863 281.819 89.0437 282.062C89.5103 282.305 90.033 282.426 90.6117 282.426C91.0877 282.426 91.5263 282.342 91.9277 282.174C92.3383 281.997 92.679 281.74 92.9497 281.404L93.3557 281.866C93.0383 282.249 92.637 282.543 92.1517 282.748C91.6757 282.953 91.1577 283.056 90.5977 283.056C89.8697 283.056 89.221 282.897 88.6517 282.58C88.0823 282.263 87.6343 281.824 87.3077 281.264C86.9903 280.704 86.8317 280.065 86.8317 279.346C86.8317 278.637 86.981 278.002 87.2797 277.442C87.5877 276.873 88.0077 276.429 88.5397 276.112C89.0717 275.795 89.669 275.636 90.3317 275.636C90.9943 275.636 91.587 275.795 92.1097 276.112C92.6417 276.42 93.057 276.854 93.3557 277.414C93.6637 277.974 93.8177 278.609 93.8177 279.318L93.8037 279.514ZM90.3317 276.252C89.8183 276.252 89.3563 276.369 88.9457 276.602C88.535 276.826 88.2037 277.148 87.9517 277.568C87.709 277.979 87.569 278.445 87.5317 278.968H93.1317C93.1037 278.445 92.9637 277.979 92.7117 277.568C92.4597 277.157 92.1283 276.835 91.7177 276.602C91.307 276.369 90.845 276.252 90.3317 276.252ZM99.9732 275.636C100.888 275.636 101.611 275.902 102.143 276.434C102.675 276.966 102.941 277.731 102.941 278.73V283H102.241V278.786C102.241 277.965 102.031 277.339 101.611 276.91C101.201 276.481 100.622 276.266 99.8752 276.266C99.0165 276.266 98.3398 276.523 97.8452 277.036C97.3505 277.549 97.1032 278.24 97.1032 279.108V283H96.4032V275.692H97.0752V277.274C97.3272 276.761 97.7005 276.359 98.1952 276.07C98.6992 275.781 99.2918 275.636 99.9732 275.636ZM109.113 283.056C108.422 283.056 107.797 282.897 107.237 282.58C106.686 282.263 106.252 281.824 105.935 281.264C105.617 280.695 105.459 280.055 105.459 279.346C105.459 278.637 105.617 278.002 105.935 277.442C106.252 276.873 106.686 276.429 107.237 276.112C107.797 275.795 108.422 275.636 109.113 275.636C109.803 275.636 110.424 275.795 110.975 276.112C111.535 276.429 111.973 276.873 112.291 277.442C112.608 278.002 112.767 278.637 112.767 279.346C112.767 280.055 112.608 280.695 112.291 281.264C111.973 281.824 111.535 282.263 110.975 282.58C110.424 282.897 109.803 283.056 109.113 283.056ZM109.113 282.426C109.673 282.426 110.172 282.295 110.611 282.034C111.059 281.773 111.409 281.409 111.661 280.942C111.922 280.475 112.053 279.943 112.053 279.346C112.053 278.749 111.922 278.217 111.661 277.75C111.409 277.283 111.059 276.919 110.611 276.658C110.172 276.397 109.673 276.266 109.113 276.266C108.553 276.266 108.049 276.397 107.601 276.658C107.162 276.919 106.812 277.283 106.551 277.75C106.299 278.217 106.173 278.749 106.173 279.346C106.173 279.943 106.299 280.475 106.551 280.942C106.812 281.409 107.162 281.773 107.601 282.034C108.049 282.295 108.553 282.426 109.113 282.426ZM121.532 279.514H115.246C115.265 280.083 115.41 280.592 115.68 281.04C115.951 281.479 116.315 281.819 116.772 282.062C117.239 282.305 117.762 282.426 118.34 282.426C118.816 282.426 119.255 282.342 119.656 282.174C120.067 281.997 120.408 281.74 120.678 281.404L121.084 281.866C120.767 282.249 120.366 282.543 119.88 282.748C119.404 282.953 118.886 283.056 118.326 283.056C117.598 283.056 116.95 282.897 116.38 282.58C115.811 282.263 115.363 281.824 115.036 281.264C114.719 280.704 114.56 280.065 114.56 279.346C114.56 278.637 114.71 278.002 115.008 277.442C115.316 276.873 115.736 276.429 116.268 276.112C116.8 275.795 117.398 275.636 118.06 275.636C118.723 275.636 119.316 275.795 119.838 276.112C120.37 276.42 120.786 276.854 121.084 277.414C121.392 277.974 121.546 278.609 121.546 279.318L121.532 279.514ZM118.06 276.252C117.547 276.252 117.085 276.369 116.674 276.602C116.264 276.826 115.932 277.148 115.68 277.568C115.438 277.979 115.298 278.445 115.26 278.968H120.86C120.832 278.445 120.692 277.979 120.44 277.568C120.188 277.157 119.857 276.835 119.446 276.602C119.036 276.369 118.574 276.252 118.06 276.252ZM130.712 275.692V282.216C130.712 283.429 130.418 284.325 129.83 284.904C129.242 285.483 128.355 285.772 127.17 285.772C126.498 285.772 125.863 285.669 125.266 285.464C124.669 285.259 124.188 284.974 123.824 284.61L124.202 284.078C124.566 284.414 125.005 284.675 125.518 284.862C126.031 285.049 126.577 285.142 127.156 285.142C128.127 285.142 128.845 284.909 129.312 284.442C129.779 283.985 130.012 283.271 130.012 282.3V281.068C129.713 281.6 129.298 282.011 128.766 282.3C128.234 282.589 127.637 282.734 126.974 282.734C126.293 282.734 125.672 282.585 125.112 282.286C124.561 281.978 124.127 281.553 123.81 281.012C123.493 280.471 123.334 279.859 123.334 279.178C123.334 278.497 123.493 277.885 123.81 277.344C124.127 276.803 124.561 276.383 125.112 276.084C125.672 275.785 126.293 275.636 126.974 275.636C127.646 275.636 128.253 275.785 128.794 276.084C129.335 276.383 129.751 276.803 130.04 277.344V275.692H130.712ZM127.03 282.104C127.599 282.104 128.113 281.983 128.57 281.74C129.027 281.488 129.382 281.143 129.634 280.704C129.895 280.256 130.026 279.747 130.026 279.178C130.026 278.609 129.895 278.105 129.634 277.666C129.382 277.227 129.027 276.887 128.57 276.644C128.113 276.392 127.599 276.266 127.03 276.266C126.461 276.266 125.947 276.392 125.49 276.644C125.042 276.887 124.687 277.227 124.426 277.666C124.174 278.105 124.048 278.609 124.048 279.178C124.048 279.747 124.174 280.256 124.426 280.704C124.687 281.143 125.042 281.488 125.49 281.74C125.947 281.983 126.461 282.104 127.03 282.104ZM148.555 275.692L145.783 283H145.125L142.661 276.658L140.183 283H139.539L136.767 275.692H137.439L139.875 282.216L142.367 275.692H142.969L145.447 282.202L147.911 275.692H148.555ZM152.848 275.636C153.753 275.636 154.449 275.869 154.934 276.336C155.419 276.793 155.662 277.47 155.662 278.366V283H154.99V281.698C154.757 282.127 154.416 282.463 153.968 282.706C153.52 282.939 152.983 283.056 152.358 283.056C151.546 283.056 150.902 282.865 150.426 282.482C149.959 282.099 149.726 281.595 149.726 280.97C149.726 280.363 149.941 279.873 150.37 279.5C150.809 279.117 151.504 278.926 152.456 278.926H154.962V278.338C154.962 277.657 154.775 277.139 154.402 276.784C154.038 276.429 153.501 276.252 152.792 276.252C152.307 276.252 151.84 276.336 151.392 276.504C150.953 276.672 150.58 276.896 150.272 277.176L149.922 276.672C150.286 276.345 150.725 276.093 151.238 275.916C151.751 275.729 152.288 275.636 152.848 275.636ZM152.456 282.482C153.063 282.482 153.576 282.342 153.996 282.062C154.425 281.782 154.747 281.376 154.962 280.844V279.472H152.47C151.751 279.472 151.229 279.603 150.902 279.864C150.585 280.125 150.426 280.485 150.426 280.942C150.426 281.418 150.603 281.796 150.958 282.076C151.313 282.347 151.812 282.482 152.456 282.482ZM162.592 282.538C162.415 282.706 162.191 282.837 161.92 282.93C161.659 283.014 161.384 283.056 161.094 283.056C160.46 283.056 159.97 282.883 159.624 282.538C159.279 282.183 159.106 281.693 159.106 281.068V276.294H157.762V275.692H159.106V274.096H159.806V275.692H162.13V276.294H159.806V280.998C159.806 281.474 159.918 281.838 160.142 282.09C160.376 282.333 160.716 282.454 161.164 282.454C161.622 282.454 162 282.319 162.298 282.048L162.592 282.538ZM170.879 279.514H164.593C164.611 280.083 164.756 280.592 165.027 281.04C165.297 281.479 165.661 281.819 166.119 282.062C166.585 282.305 167.108 282.426 167.687 282.426C168.163 282.426 168.601 282.342 169.003 282.174C169.413 281.997 169.754 281.74 170.025 281.404L170.431 281.866C170.113 282.249 169.712 282.543 169.227 282.748C168.751 282.953 168.233 283.056 167.673 283.056C166.945 283.056 166.296 282.897 165.727 282.58C165.157 282.263 164.709 281.824 164.383 281.264C164.065 280.704 163.907 280.065 163.907 279.346C163.907 278.637 164.056 278.002 164.355 277.442C164.663 276.873 165.083 276.429 165.615 276.112C166.147 275.795 166.744 275.636 167.407 275.636C168.069 275.636 168.662 275.795 169.185 276.112C169.717 276.42 170.132 276.854 170.431 277.414C170.739 277.974 170.893 278.609 170.893 279.318L170.879 279.514ZM167.407 276.252C166.893 276.252 166.431 276.369 166.021 276.602C165.61 276.826 165.279 277.148 165.027 277.568C164.784 277.979 164.644 278.445 164.607 278.968H170.207C170.179 278.445 170.039 277.979 169.787 277.568C169.535 277.157 169.203 276.835 168.793 276.602C168.382 276.369 167.92 276.252 167.407 276.252ZM174.15 277.288C174.374 276.756 174.724 276.35 175.2 276.07C175.676 275.781 176.255 275.636 176.936 275.636V276.322L176.768 276.308C175.956 276.308 175.321 276.565 174.864 277.078C174.407 277.582 174.178 278.287 174.178 279.192V283H173.478V275.692H174.15V277.288ZM187.05 282.538C186.872 282.706 186.648 282.837 186.378 282.93C186.116 283.014 185.841 283.056 185.552 283.056C184.917 283.056 184.427 282.883 184.082 282.538C183.736 282.183 183.564 281.693 183.564 281.068V276.294H182.22V275.692H183.564V274.096H184.264V275.692H186.588V276.294H184.264V280.998C184.264 281.474 184.376 281.838 184.6 282.09C184.833 282.333 185.174 282.454 185.622 282.454C186.079 282.454 186.457 282.319 186.756 282.048L187.05 282.538ZM195.336 279.514H189.05C189.069 280.083 189.213 280.592 189.484 281.04C189.755 281.479 190.119 281.819 190.576 282.062C191.043 282.305 191.565 282.426 192.144 282.426C192.62 282.426 193.059 282.342 193.46 282.174C193.871 281.997 194.211 281.74 194.482 281.404L194.888 281.866C194.571 282.249 194.169 282.543 193.684 282.748C193.208 282.953 192.69 283.056 192.13 283.056C191.402 283.056 190.753 282.897 190.184 282.58C189.615 282.263 189.167 281.824 188.84 281.264C188.523 280.704 188.364 280.065 188.364 279.346C188.364 278.637 188.513 278.002 188.812 277.442C189.12 276.873 189.54 276.429 190.072 276.112C190.604 275.795 191.201 275.636 191.864 275.636C192.527 275.636 193.119 275.795 193.642 276.112C194.174 276.42 194.589 276.854 194.888 277.414C195.196 277.974 195.35 278.609 195.35 279.318L195.336 279.514ZM191.864 276.252C191.351 276.252 190.889 276.369 190.478 276.602C190.067 276.826 189.736 277.148 189.484 277.568C189.241 277.979 189.101 278.445 189.064 278.968H194.664C194.636 278.445 194.496 277.979 194.244 277.568C193.992 277.157 193.661 276.835 193.25 276.602C192.839 276.369 192.377 276.252 191.864 276.252ZM208.447 272.612V283H207.761V281.278C207.472 281.847 207.066 282.286 206.543 282.594C206.02 282.902 205.428 283.056 204.765 283.056C204.084 283.056 203.468 282.897 202.917 282.58C202.366 282.263 201.932 281.824 201.615 281.264C201.307 280.704 201.153 280.065 201.153 279.346C201.153 278.627 201.307 277.988 201.615 277.428C201.932 276.859 202.366 276.42 202.917 276.112C203.468 275.795 204.084 275.636 204.765 275.636C205.418 275.636 206.002 275.79 206.515 276.098C207.038 276.406 207.448 276.835 207.747 277.386V272.612H208.447ZM204.807 282.426C205.367 282.426 205.866 282.295 206.305 282.034C206.753 281.773 207.103 281.409 207.355 280.942C207.616 280.475 207.747 279.943 207.747 279.346C207.747 278.749 207.616 278.217 207.355 277.75C207.103 277.283 206.753 276.919 206.305 276.658C205.866 276.397 205.367 276.266 204.807 276.266C204.247 276.266 203.743 276.397 203.295 276.658C202.856 276.919 202.506 277.283 202.245 277.75C201.993 278.217 201.867 278.749 201.867 279.346C201.867 279.943 201.993 280.475 202.245 280.942C202.506 281.409 202.856 281.773 203.295 282.034C203.743 282.295 204.247 282.426 204.807 282.426ZM212.49 277.288C212.714 276.756 213.064 276.35 213.54 276.07C214.016 275.781 214.595 275.636 215.276 275.636V276.322L215.108 276.308C214.296 276.308 213.662 276.565 213.204 277.078C212.747 277.582 212.518 278.287 212.518 279.192V283H211.818V275.692H212.49V277.288ZM217.625 275.692H218.325V283H217.625V275.692ZM217.975 273.914C217.816 273.914 217.681 273.863 217.569 273.76C217.457 273.648 217.401 273.513 217.401 273.354C217.401 273.195 217.457 273.06 217.569 272.948C217.681 272.836 217.816 272.78 217.975 272.78C218.134 272.78 218.269 272.836 218.381 272.948C218.493 273.051 218.549 273.181 218.549 273.34C218.549 273.499 218.493 273.634 218.381 273.746C218.269 273.858 218.134 273.914 217.975 273.914ZM225.266 275.636C226.18 275.636 226.904 275.902 227.436 276.434C227.968 276.966 228.234 277.731 228.234 278.73V283H227.534V278.786C227.534 277.965 227.324 277.339 226.904 276.91C226.493 276.481 225.914 276.266 225.168 276.266C224.309 276.266 223.632 276.523 223.138 277.036C222.643 277.549 222.396 278.24 222.396 279.108V283H221.696V275.692H222.368V277.274C222.62 276.761 222.993 276.359 223.488 276.07C223.992 275.781 224.584 275.636 225.266 275.636ZM234.139 279.094L232.235 280.83V283H231.535V272.612H232.235V279.962L236.911 275.692H237.807L234.657 278.646L238.115 283H237.247L234.139 279.094ZM246.059 279.514H239.773C239.792 280.083 239.936 280.592 240.207 281.04C240.478 281.479 240.842 281.819 241.299 282.062C241.766 282.305 242.288 282.426 242.867 282.426C243.343 282.426 243.782 282.342 244.183 282.174C244.594 281.997 244.934 281.74 245.205 281.404L245.611 281.866C245.294 282.249 244.892 282.543 244.407 282.748C243.931 282.953 243.413 283.056 242.853 283.056C242.125 283.056 241.476 282.897 240.907 282.58C240.338 282.263 239.89 281.824 239.563 281.264C239.246 280.704 239.087 280.065 239.087 279.346C239.087 278.637 239.236 278.002 239.535 277.442C239.843 276.873 240.263 276.429 240.795 276.112C241.327 275.795 241.924 275.636 242.587 275.636C243.25 275.636 243.842 275.795 244.365 276.112C244.897 276.42 245.312 276.854 245.611 277.414C245.919 277.974 246.073 278.609 246.073 279.318L246.059 279.514ZM242.587 276.252C242.074 276.252 241.612 276.369 241.201 276.602C240.79 276.826 240.459 277.148 240.207 277.568C239.964 277.979 239.824 278.445 239.787 278.968H245.387C245.359 278.445 245.219 277.979 244.967 277.568C244.715 277.157 244.384 276.835 243.973 276.602C243.562 276.369 243.1 276.252 242.587 276.252ZM252.229 275.636C253.143 275.636 253.867 275.902 254.399 276.434C254.931 276.966 255.197 277.731 255.197 278.73V283H254.497V278.786C254.497 277.965 254.287 277.339 253.867 276.91C253.456 276.481 252.877 276.266 252.131 276.266C251.272 276.266 250.595 276.523 250.101 277.036C249.606 277.549 249.359 278.24 249.359 279.108V283H248.659V275.692H249.331V277.274C249.583 276.761 249.956 276.359 250.451 276.07C250.955 275.781 251.547 275.636 252.229 275.636ZM258.415 281.866C258.583 281.866 258.723 281.927 258.835 282.048C258.947 282.16 259.003 282.295 259.003 282.454C259.003 282.547 258.989 282.645 258.961 282.748C258.942 282.851 258.914 282.967 258.877 283.098L258.331 285.002H257.827L258.289 283.028C258.149 282.991 258.037 282.925 257.953 282.832C257.869 282.729 257.827 282.603 257.827 282.454C257.827 282.286 257.883 282.146 257.995 282.034C258.107 281.922 258.247 281.866 258.415 281.866Z" fill="white"/>
<path d="M157.117 227.586C156.479 228.003 156.14 228.439 156.14 228.875C156.14 230.402 160.626 232.108 167.046 232.108C173.466 232.108 177.952 230.402 177.952 228.875C177.952 228.439 177.613 228.003 176.975 227.586C175.061 226.635 171.333 226 167.066 226C162.739 226 159.031 226.654 157.117 227.586Z" fill="#F6F6F6"/>
<path d="M175.121 232.643C172.948 233.337 170.077 233.733 167.026 233.733C163.975 233.733 161.104 233.357 158.931 232.643C157.575 232.206 156.598 231.671 156 231.076L160.187 251.541C160.187 252.909 163.238 253.999 167.026 253.999C170.814 253.999 173.865 252.889 173.865 251.541L178.052 231.076C177.454 231.671 176.477 232.206 175.121 232.643Z" fill="#F6F6F6"/>
<path d="M157.056 227.586C156.418 228.003 156.079 228.439 156.079 228.875C156.079 230.402 160.565 232.108 166.985 232.108V226C162.679 226 158.95 226.654 157.056 227.586Z" fill="white"/>
<path d="M167.026 233.733C163.975 233.733 161.104 233.357 158.931 232.643C157.575 232.206 156.598 231.671 156 231.076L160.187 251.541C160.187 252.909 163.238 253.999 167.026 253.999V233.733Z" fill="white"/>
<rect x="96.6162" y="195.695" width="155.694" height="13.0238" rx="6.51192" fill="#3B9F8D"/>
<circle cx="96.9118" cy="201.912" r="13.9118" fill="#3B9F8D"/>
<rect x="102.536" y="198.654" width="146.814" height="7.10392" rx="3.55196" fill="url(#paint0_linear)"/>
<circle cx="96.8682" cy="201.868" r="10.6944" fill="#38C3FF"/>
<path d="M100.178 203.571C100.178 205.507 98.5939 207.091 96.6579 207.091C94.7218 207.091 93.1377 205.507 93.1377 203.571C93.1377 201.635 96.6579 195.65 96.6579 195.65C96.6579 195.65 100.178 201.605 100.178 203.571Z" fill="#F6F6F6"/>
<path d="M96.6579 195.65C96.6579 195.65 93.1377 201.605 93.1377 203.571C93.1377 205.536 94.7218 207.091 96.6579 207.091V195.65Z" fill="white"/>
<rect y="72" width="335" height="66" rx="16" fill="#3EA390"/>
<path d="M60.1873 92.2H64.0653C65.0826 92.2 65.9833 92.41 66.7673 92.83C67.5606 93.25 68.1766 93.8333 68.6153 94.58C69.0539 95.3173 69.2733 96.1573 69.2733 97.1C69.2733 98.0427 69.0539 98.8873 68.6153 99.634C68.1766 100.371 67.5606 100.95 66.7673 101.37C65.9833 101.79 65.0826 102 64.0653 102H60.1873V92.2ZM64.0093 101.356C64.9146 101.356 65.7126 101.179 66.4033 100.824C67.0939 100.46 67.6259 99.956 67.9993 99.312C68.3726 98.668 68.5593 97.9307 68.5593 97.1C68.5593 96.2693 68.3726 95.532 67.9993 94.888C67.6259 94.244 67.0939 93.7447 66.4033 93.39C65.7126 93.026 64.9146 92.844 64.0093 92.844H60.9013V101.356H64.0093ZM71.9497 94.692H72.6497V102H71.9497V94.692ZM72.2997 92.914C72.141 92.914 72.0057 92.8627 71.8937 92.76C71.7817 92.648 71.7257 92.5127 71.7257 92.354C71.7257 92.1953 71.7817 92.06 71.8937 91.948C72.0057 91.836 72.141 91.78 72.2997 91.78C72.4583 91.78 72.5937 91.836 72.7057 91.948C72.8177 92.0507 72.8737 92.1813 72.8737 92.34C72.8737 92.4987 72.8177 92.634 72.7057 92.746C72.5937 92.858 72.4583 92.914 72.2997 92.914ZM79.6461 101.538C79.4687 101.706 79.2447 101.837 78.9741 101.93C78.7127 102.014 78.4374 102.056 78.1481 102.056C77.5134 102.056 77.0234 101.883 76.6781 101.538C76.3327 101.183 76.1601 100.693 76.1601 100.068V95.294H74.8161V94.692H76.1601V93.096H76.8601V94.692H79.1841V95.294H76.8601V99.998C76.8601 100.474 76.9721 100.838 77.1961 101.09C77.4294 101.333 77.7701 101.454 78.2181 101.454C78.6754 101.454 79.0534 101.319 79.3521 101.048L79.6461 101.538ZM92.5299 91.612V102H91.8439V100.278C91.5545 100.847 91.1485 101.286 90.6259 101.594C90.1032 101.902 89.5105 102.056 88.8479 102.056C88.1665 102.056 87.5505 101.897 86.9999 101.58C86.4492 101.263 86.0152 100.824 85.6979 100.264C85.3899 99.704 85.2359 99.0647 85.2359 98.346C85.2359 97.6273 85.3899 96.988 85.6979 96.428C86.0152 95.8587 86.4492 95.42 86.9999 95.112C87.5505 94.7947 88.1665 94.636 88.8479 94.636C89.5012 94.636 90.0845 94.79 90.5979 95.098C91.1205 95.406 91.5312 95.8353 91.8299 96.386V91.612H92.5299ZM88.8899 101.426C89.4499 101.426 89.9492 101.295 90.3879 101.034C90.8359 100.773 91.1859 100.409 91.4379 99.942C91.6992 99.4753 91.8299 98.9433 91.8299 98.346C91.8299 97.7487 91.6992 97.2167 91.4379 96.75C91.1859 96.2833 90.8359 95.9193 90.3879 95.658C89.9492 95.3967 89.4499 95.266 88.8899 95.266C88.3299 95.266 87.8259 95.3967 87.3779 95.658C86.9392 95.9193 86.5892 96.2833 86.3279 96.75C86.0759 97.2167 85.9499 97.7487 85.9499 98.346C85.9499 98.9433 86.0759 99.4753 86.3279 99.942C86.5892 100.409 86.9392 100.773 87.3779 101.034C87.8259 101.295 88.3299 101.426 88.8899 101.426ZM98.7571 102.056C98.0665 102.056 97.4411 101.897 96.8811 101.58C96.3305 101.263 95.8965 100.824 95.5791 100.264C95.2618 99.6947 95.1031 99.0553 95.1031 98.346C95.1031 97.6367 95.2618 97.002 95.5791 96.442C95.8965 95.8727 96.3305 95.4293 96.8811 95.112C97.4411 94.7947 98.0665 94.636 98.7571 94.636C99.4478 94.636 100.068 94.7947 100.619 95.112C101.179 95.4293 101.618 95.8727 101.935 96.442C102.252 97.002 102.411 97.6367 102.411 98.346C102.411 99.0553 102.252 99.6947 101.935 100.264C101.618 100.824 101.179 101.263 100.619 101.58C100.068 101.897 99.4478 102.056 98.7571 102.056ZM98.7571 101.426C99.3171 101.426 99.8165 101.295 100.255 101.034C100.703 100.773 101.053 100.409 101.305 99.942C101.566 99.4753 101.697 98.9433 101.697 98.346C101.697 97.7487 101.566 97.2167 101.305 96.75C101.053 96.2833 100.703 95.9193 100.255 95.658C99.8165 95.3967 99.3171 95.266 98.7571 95.266C98.1971 95.266 97.6931 95.3967 97.2451 95.658C96.8065 95.9193 96.4565 96.2833 96.1951 96.75C95.9431 97.2167 95.8171 97.7487 95.8171 98.346C95.8171 98.9433 95.9431 99.4753 96.1951 99.942C96.4565 100.409 96.8065 100.773 97.2451 101.034C97.6931 101.295 98.1971 101.426 98.7571 101.426ZM111.177 98.514H104.891C104.909 99.0833 105.054 99.592 105.325 100.04C105.595 100.479 105.959 100.819 106.417 101.062C106.883 101.305 107.406 101.426 107.985 101.426C108.461 101.426 108.899 101.342 109.301 101.174C109.711 100.997 110.052 100.74 110.323 100.404L110.729 100.866C110.411 101.249 110.01 101.543 109.525 101.748C109.049 101.953 108.531 102.056 107.971 102.056C107.243 102.056 106.594 101.897 106.025 101.58C105.455 101.263 105.007 100.824 104.681 100.264C104.363 99.704 104.205 99.0647 104.205 98.346C104.205 97.6367 104.354 97.002 104.653 96.442C104.961 95.8727 105.381 95.4293 105.913 95.112C106.445 94.7947 107.042 94.636 107.705 94.636C108.367 94.636 108.96 94.7947 109.483 95.112C110.015 95.42 110.43 95.854 110.729 96.414C111.037 96.974 111.191 97.6087 111.191 98.318L111.177 98.514ZM107.705 95.252C107.191 95.252 106.729 95.3687 106.319 95.602C105.908 95.826 105.577 96.148 105.325 96.568C105.082 96.9787 104.942 97.4453 104.905 97.968H110.505C110.477 97.4453 110.337 96.9787 110.085 96.568C109.833 96.1573 109.501 95.8353 109.091 95.602C108.68 95.3687 108.218 95.252 107.705 95.252ZM116.588 104.772C116.28 104.772 115.995 104.73 115.734 104.646C115.463 104.562 115.244 104.441 115.076 104.282L115.356 103.764C115.655 104.035 116.051 104.17 116.546 104.17C116.975 104.17 117.302 104.044 117.526 103.792C117.75 103.54 117.862 103.176 117.862 102.7V94.692H118.562V102.728C118.562 103.353 118.389 103.848 118.044 104.212C117.699 104.585 117.213 104.772 116.588 104.772ZM118.212 92.914C118.053 92.914 117.918 92.8627 117.806 92.76C117.694 92.648 117.638 92.5127 117.638 92.354C117.638 92.1953 117.694 92.06 117.806 91.948C117.918 91.836 118.053 91.78 118.212 91.78C118.371 91.78 118.506 91.836 118.618 91.948C118.73 92.0507 118.786 92.1813 118.786 92.34C118.786 92.4987 118.73 92.634 118.618 92.746C118.506 92.858 118.371 92.914 118.212 92.914ZM128.105 98.514H121.819C121.837 99.0833 121.982 99.592 122.253 100.04C122.523 100.479 122.887 100.819 123.345 101.062C123.811 101.305 124.334 101.426 124.913 101.426C125.389 101.426 125.827 101.342 126.229 101.174C126.639 100.997 126.98 100.74 127.251 100.404L127.657 100.866C127.339 101.249 126.938 101.543 126.453 101.748C125.977 101.953 125.459 102.056 124.899 102.056C124.171 102.056 123.522 101.897 122.953 101.58C122.383 101.263 121.935 100.824 121.609 100.264C121.291 99.704 121.133 99.0647 121.133 98.346C121.133 97.6367 121.282 97.002 121.581 96.442C121.889 95.8727 122.309 95.4293 122.841 95.112C123.373 94.7947 123.97 94.636 124.633 94.636C125.295 94.636 125.888 94.7947 126.411 95.112C126.943 95.42 127.358 95.854 127.657 96.414C127.965 96.974 128.119 97.6087 128.119 98.318L128.105 98.514ZM124.633 95.252C124.119 95.252 123.657 95.3687 123.247 95.602C122.836 95.826 122.505 96.148 122.253 96.568C122.01 96.9787 121.87 97.4453 121.833 97.968H127.433C127.405 97.4453 127.265 96.9787 127.013 96.568C126.761 96.1573 126.429 95.8353 126.019 95.602C125.608 95.3687 125.146 95.252 124.633 95.252ZM141.216 91.612V102H140.53V100.278C140.241 100.847 139.835 101.286 139.312 101.594C138.789 101.902 138.197 102.056 137.534 102.056C136.853 102.056 136.237 101.897 135.686 101.58C135.135 101.263 134.701 100.824 134.384 100.264C134.076 99.704 133.922 99.0647 133.922 98.346C133.922 97.6273 134.076 96.988 134.384 96.428C134.701 95.8587 135.135 95.42 135.686 95.112C136.237 94.7947 136.853 94.636 137.534 94.636C138.187 94.636 138.771 94.79 139.284 95.098C139.807 95.406 140.217 95.8353 140.516 96.386V91.612H141.216ZM137.576 101.426C138.136 101.426 138.635 101.295 139.074 101.034C139.522 100.773 139.872 100.409 140.124 99.942C140.385 99.4753 140.516 98.9433 140.516 98.346C140.516 97.7487 140.385 97.2167 140.124 96.75C139.872 96.2833 139.522 95.9193 139.074 95.658C138.635 95.3967 138.136 95.266 137.576 95.266C137.016 95.266 136.512 95.3967 136.064 95.658C135.625 95.9193 135.275 96.2833 135.014 96.75C134.762 97.2167 134.636 97.7487 134.636 98.346C134.636 98.9433 134.762 99.4753 135.014 99.942C135.275 100.409 135.625 100.773 136.064 101.034C136.512 101.295 137.016 101.426 137.576 101.426ZM147.443 102.056C146.753 102.056 146.127 101.897 145.567 101.58C145.017 101.263 144.583 100.824 144.265 100.264C143.948 99.6947 143.789 99.0553 143.789 98.346C143.789 97.6367 143.948 97.002 144.265 96.442C144.583 95.8727 145.017 95.4293 145.567 95.112C146.127 94.7947 146.753 94.636 147.443 94.636C148.134 94.636 148.755 94.7947 149.305 95.112C149.865 95.4293 150.304 95.8727 150.621 96.442C150.939 97.002 151.097 97.6367 151.097 98.346C151.097 99.0553 150.939 99.6947 150.621 100.264C150.304 100.824 149.865 101.263 149.305 101.58C148.755 101.897 148.134 102.056 147.443 102.056ZM147.443 101.426C148.003 101.426 148.503 101.295 148.941 101.034C149.389 100.773 149.739 100.409 149.991 99.942C150.253 99.4753 150.383 98.9433 150.383 98.346C150.383 97.7487 150.253 97.2167 149.991 96.75C149.739 96.2833 149.389 95.9193 148.941 95.658C148.503 95.3967 148.003 95.266 147.443 95.266C146.883 95.266 146.379 95.3967 145.931 95.658C145.493 95.9193 145.143 96.2833 144.881 96.75C144.629 97.2167 144.503 97.7487 144.503 98.346C144.503 98.9433 144.629 99.4753 144.881 99.942C145.143 100.409 145.493 100.773 145.931 101.034C146.379 101.295 146.883 101.426 147.443 101.426ZM156.545 102.056C155.854 102.056 155.229 101.897 154.669 101.58C154.118 101.263 153.684 100.824 153.367 100.264C153.05 99.6947 152.891 99.0553 152.891 98.346C152.891 97.6367 153.05 97.002 153.367 96.442C153.684 95.8727 154.118 95.4293 154.669 95.112C155.229 94.7947 155.854 94.636 156.545 94.636C157.236 94.636 157.856 94.7947 158.407 95.112C158.967 95.4293 159.406 95.8727 159.723 96.442C160.04 97.002 160.199 97.6367 160.199 98.346C160.199 99.0553 160.04 99.6947 159.723 100.264C159.406 100.824 158.967 101.263 158.407 101.58C157.856 101.897 157.236 102.056 156.545 102.056ZM156.545 101.426C157.105 101.426 157.604 101.295 158.043 101.034C158.491 100.773 158.841 100.409 159.093 99.942C159.354 99.4753 159.485 98.9433 159.485 98.346C159.485 97.7487 159.354 97.2167 159.093 96.75C158.841 96.2833 158.491 95.9193 158.043 95.658C157.604 95.3967 157.105 95.266 156.545 95.266C155.985 95.266 155.481 95.3967 155.033 95.658C154.594 95.9193 154.244 96.2833 153.983 96.75C153.731 97.2167 153.605 97.7487 153.605 98.346C153.605 98.9433 153.731 99.4753 153.983 99.942C154.244 100.409 154.594 100.773 155.033 101.034C155.481 101.295 155.985 101.426 156.545 101.426ZM163.463 96.288C163.687 95.756 164.037 95.35 164.513 95.07C164.989 94.7807 165.567 94.636 166.249 94.636V95.322L166.081 95.308C165.269 95.308 164.634 95.5647 164.177 96.078C163.719 96.582 163.491 97.2867 163.491 98.192V102H162.791V94.692H163.463V96.288ZM174.416 104.716C173.903 103.857 173.506 102.873 173.226 101.762C172.955 100.651 172.82 99.452 172.82 98.164C172.82 96.876 172.955 95.672 173.226 94.552C173.506 93.4227 173.903 92.4427 174.416 91.612H175.088C174.033 93.4133 173.506 95.5973 173.506 98.164C173.506 100.731 174.033 102.915 175.088 104.716H174.416ZM184.15 91.612V102H183.464V100.278C183.175 100.847 182.769 101.286 182.246 101.594C181.723 101.902 181.131 102.056 180.468 102.056C179.787 102.056 179.171 101.897 178.62 101.58C178.069 101.263 177.635 100.824 177.318 100.264C177.01 99.704 176.856 99.0647 176.856 98.346C176.856 97.6273 177.01 96.988 177.318 96.428C177.635 95.8587 178.069 95.42 178.62 95.112C179.171 94.7947 179.787 94.636 180.468 94.636C181.121 94.636 181.705 94.79 182.218 95.098C182.741 95.406 183.151 95.8353 183.45 96.386V91.612H184.15ZM180.51 101.426C181.07 101.426 181.569 101.295 182.008 101.034C182.456 100.773 182.806 100.409 183.058 99.942C183.319 99.4753 183.45 98.9433 183.45 98.346C183.45 97.7487 183.319 97.2167 183.058 96.75C182.806 96.2833 182.456 95.9193 182.008 95.658C181.569 95.3967 181.07 95.266 180.51 95.266C179.95 95.266 179.446 95.3967 178.998 95.658C178.559 95.9193 178.209 96.2833 177.948 96.75C177.696 97.2167 177.57 97.7487 177.57 98.346C177.57 98.9433 177.696 99.4753 177.948 99.942C178.209 100.409 178.559 100.773 178.998 101.034C179.446 101.295 179.95 101.426 180.51 101.426ZM189.985 94.636C190.891 94.636 191.586 94.8693 192.071 95.336C192.557 95.7933 192.799 96.47 192.799 97.366V102H192.127V100.698C191.894 101.127 191.553 101.463 191.105 101.706C190.657 101.939 190.121 102.056 189.495 102.056C188.683 102.056 188.039 101.865 187.563 101.482C187.097 101.099 186.863 100.595 186.863 99.97C186.863 99.3633 187.078 98.8733 187.507 98.5C187.946 98.1173 188.641 97.926 189.593 97.926H192.099V97.338C192.099 96.6567 191.913 96.1387 191.539 95.784C191.175 95.4293 190.639 95.252 189.929 95.252C189.444 95.252 188.977 95.336 188.529 95.504C188.091 95.672 187.717 95.896 187.409 96.176L187.059 95.672C187.423 95.3453 187.862 95.0933 188.375 94.916C188.889 94.7293 189.425 94.636 189.985 94.636ZM189.593 101.482C190.2 101.482 190.713 101.342 191.133 101.062C191.563 100.782 191.885 100.376 192.099 99.844V98.472H189.607C188.889 98.472 188.366 98.6027 188.039 98.864C187.722 99.1253 187.563 99.4847 187.563 99.942C187.563 100.418 187.741 100.796 188.095 101.076C188.45 101.347 188.949 101.482 189.593 101.482ZM202.697 94.692V101.216C202.697 102.429 202.403 103.325 201.815 103.904C201.227 104.483 200.34 104.772 199.155 104.772C198.483 104.772 197.848 104.669 197.251 104.464C196.654 104.259 196.173 103.974 195.809 103.61L196.187 103.078C196.551 103.414 196.99 103.675 197.503 103.862C198.016 104.049 198.562 104.142 199.141 104.142C200.112 104.142 200.83 103.909 201.297 103.442C201.764 102.985 201.997 102.271 201.997 101.3V100.068C201.698 100.6 201.283 101.011 200.751 101.3C200.219 101.589 199.622 101.734 198.959 101.734C198.278 101.734 197.657 101.585 197.097 101.286C196.546 100.978 196.112 100.553 195.795 100.012C195.478 99.4707 195.319 98.8593 195.319 98.178C195.319 97.4967 195.478 96.8853 195.795 96.344C196.112 95.8027 196.546 95.3827 197.097 95.084C197.657 94.7853 198.278 94.636 198.959 94.636C199.631 94.636 200.238 94.7853 200.779 95.084C201.32 95.3827 201.736 95.8027 202.025 96.344V94.692H202.697ZM199.015 101.104C199.584 101.104 200.098 100.983 200.555 100.74C201.012 100.488 201.367 100.143 201.619 99.704C201.88 99.256 202.011 98.7473 202.011 98.178C202.011 97.6087 201.88 97.1047 201.619 96.666C201.367 96.2273 201.012 95.8867 200.555 95.644C200.098 95.392 199.584 95.266 199.015 95.266C198.446 95.266 197.932 95.392 197.475 95.644C197.027 95.8867 196.672 96.2273 196.411 96.666C196.159 97.1047 196.033 97.6087 196.033 98.178C196.033 98.7473 196.159 99.256 196.411 99.704C196.672 100.143 197.027 100.488 197.475 100.74C197.932 100.983 198.446 101.104 199.015 101.104ZM212.254 98.514H205.968C205.987 99.0833 206.131 99.592 206.402 100.04C206.673 100.479 207.037 100.819 207.494 101.062C207.961 101.305 208.483 101.426 209.062 101.426C209.538 101.426 209.977 101.342 210.378 101.174C210.789 100.997 211.129 100.74 211.4 100.404L211.806 100.866C211.489 101.249 211.087 101.543 210.602 101.748C210.126 101.953 209.608 102.056 209.048 102.056C208.32 102.056 207.671 101.897 207.102 101.58C206.533 101.263 206.085 100.824 205.758 100.264C205.441 99.704 205.282 99.0647 205.282 98.346C205.282 97.6367 205.431 97.002 205.73 96.442C206.038 95.8727 206.458 95.4293 206.99 95.112C207.522 94.7947 208.119 94.636 208.782 94.636C209.445 94.636 210.037 94.7947 210.56 95.112C211.092 95.42 211.507 95.854 211.806 96.414C212.114 96.974 212.268 97.6087 212.268 98.318L212.254 98.514ZM208.782 95.252C208.269 95.252 207.807 95.3687 207.396 95.602C206.985 95.826 206.654 96.148 206.402 96.568C206.159 96.9787 206.019 97.4453 205.982 97.968H211.582C211.554 97.4453 211.414 96.9787 211.162 96.568C210.91 96.1573 210.579 95.8353 210.168 95.602C209.757 95.3687 209.295 95.252 208.782 95.252ZM214.854 91.612H215.554V102H214.854V91.612ZM218.924 94.692H219.624V102H218.924V94.692ZM219.274 92.914C219.115 92.914 218.98 92.8627 218.868 92.76C218.756 92.648 218.7 92.5127 218.7 92.354C218.7 92.1953 218.756 92.06 218.868 91.948C218.98 91.836 219.115 91.78 219.274 91.78C219.433 91.78 219.568 91.836 219.68 91.948C219.792 92.0507 219.848 92.1813 219.848 92.34C219.848 92.4987 219.792 92.634 219.68 92.746C219.568 92.858 219.433 92.914 219.274 92.914ZM221.79 104.772C221.482 104.772 221.198 104.73 220.936 104.646C220.666 104.562 220.446 104.441 220.278 104.282L220.558 103.764C220.857 104.035 221.254 104.17 221.748 104.17C222.178 104.17 222.504 104.044 222.728 103.792C222.952 103.54 223.064 103.176 223.064 102.7V94.692H223.764V102.728C223.764 103.353 223.592 103.848 223.246 104.212C222.901 104.585 222.416 104.772 221.79 104.772ZM223.414 92.914C223.256 92.914 223.12 92.8627 223.008 92.76C222.896 92.648 222.84 92.5127 222.84 92.354C222.84 92.1953 222.896 92.06 223.008 91.948C223.12 91.836 223.256 91.78 223.414 91.78C223.573 91.78 223.708 91.836 223.82 91.948C223.932 92.0507 223.988 92.1813 223.988 92.34C223.988 92.4987 223.932 92.634 223.82 92.746C223.708 92.858 223.573 92.914 223.414 92.914ZM229.737 98.094L227.833 99.83V102H227.133V91.612H227.833V98.962L232.509 94.692H233.405L230.255 97.646L233.713 102H232.845L229.737 98.094ZM237.413 102.056C236.825 102.056 236.265 101.967 235.733 101.79C235.201 101.613 234.785 101.389 234.487 101.118L234.809 100.558C235.107 100.81 235.49 101.02 235.957 101.188C236.433 101.356 236.927 101.44 237.441 101.44C238.178 101.44 238.719 101.319 239.065 101.076C239.419 100.833 239.597 100.497 239.597 100.068C239.597 99.76 239.499 99.5173 239.303 99.34C239.116 99.1627 238.883 99.032 238.603 98.948C238.323 98.864 237.935 98.7753 237.441 98.682C236.862 98.5793 236.395 98.4673 236.041 98.346C235.686 98.2247 235.383 98.0287 235.131 97.758C234.879 97.4873 234.753 97.114 234.753 96.638C234.753 96.0593 234.991 95.5833 235.467 95.21C235.952 94.8273 236.638 94.636 237.525 94.636C237.991 94.636 238.453 94.7013 238.911 94.832C239.368 94.9627 239.741 95.1353 240.031 95.35L239.709 95.91C239.41 95.6953 239.069 95.532 238.687 95.42C238.304 95.308 237.912 95.252 237.511 95.252C236.829 95.252 236.316 95.378 235.971 95.63C235.625 95.882 235.453 96.2133 235.453 96.624C235.453 96.9507 235.551 97.2073 235.747 97.394C235.943 97.5713 236.181 97.7067 236.461 97.8C236.75 97.884 237.151 97.9773 237.665 98.08C238.234 98.1827 238.691 98.2947 239.037 98.416C239.391 98.528 239.69 98.7147 239.933 98.976C240.175 99.2373 240.297 99.5967 240.297 100.054C240.297 100.661 240.045 101.146 239.541 101.51C239.037 101.874 238.327 102.056 237.413 102.056ZM241.858 104.716C242.4 103.801 242.796 102.803 243.048 101.72C243.3 100.637 243.426 99.452 243.426 98.164C243.426 96.876 243.3 95.6907 243.048 94.608C242.796 93.5253 242.4 92.5267 241.858 91.612H242.516C243.039 92.4427 243.436 93.4227 243.706 94.552C243.986 95.672 244.126 96.876 244.126 98.164C244.126 99.452 243.986 100.656 243.706 101.776C243.436 102.887 243.039 103.867 242.516 104.716H241.858ZM257.792 98.514H251.506C251.524 99.0833 251.669 99.592 251.94 100.04C252.21 100.479 252.574 100.819 253.032 101.062C253.498 101.305 254.021 101.426 254.6 101.426C255.076 101.426 255.514 101.342 255.916 101.174C256.326 100.997 256.667 100.74 256.938 100.404L257.344 100.866C257.026 101.249 256.625 101.543 256.14 101.748C255.664 101.953 255.146 102.056 254.586 102.056C253.858 102.056 253.209 101.897 252.64 101.58C252.07 101.263 251.622 100.824 251.296 100.264C250.978 99.704 250.82 99.0647 250.82 98.346C250.82 97.6367 250.969 97.002 251.268 96.442C251.576 95.8727 251.996 95.4293 252.528 95.112C253.06 94.7947 253.657 94.636 254.32 94.636C254.982 94.636 255.575 94.7947 256.098 95.112C256.63 95.42 257.045 95.854 257.344 96.414C257.652 96.974 257.806 97.6087 257.806 98.318L257.792 98.514ZM254.32 95.252C253.806 95.252 253.344 95.3687 252.934 95.602C252.523 95.826 252.192 96.148 251.94 96.568C251.697 96.9787 251.557 97.4453 251.52 97.968H257.12C257.092 97.4453 256.952 96.9787 256.7 96.568C256.448 96.1573 256.116 95.8353 255.706 95.602C255.295 95.3687 254.833 95.252 254.32 95.252ZM266.565 98.514H260.279C260.298 99.0833 260.443 99.592 260.713 100.04C260.984 100.479 261.348 100.819 261.805 101.062C262.272 101.305 262.795 101.426 263.373 101.426C263.849 101.426 264.288 101.342 264.689 101.174C265.1 100.997 265.441 100.74 265.711 100.404L266.117 100.866C265.8 101.249 265.399 101.543 264.913 101.748C264.437 101.953 263.919 102.056 263.359 102.056C262.631 102.056 261.983 101.897 261.413 101.58C260.844 101.263 260.396 100.824 260.069 100.264C259.752 99.704 259.593 99.0647 259.593 98.346C259.593 97.6367 259.743 97.002 260.041 96.442C260.349 95.8727 260.769 95.4293 261.301 95.112C261.833 94.7947 262.431 94.636 263.093 94.636C263.756 94.636 264.349 94.7947 264.871 95.112C265.403 95.42 265.819 95.854 266.117 96.414C266.425 96.974 266.579 97.6087 266.579 98.318L266.565 98.514ZM263.093 95.252C262.58 95.252 262.118 95.3687 261.707 95.602C261.297 95.826 260.965 96.148 260.713 96.568C260.471 96.9787 260.331 97.4453 260.293 97.968H265.893C265.865 97.4453 265.725 96.9787 265.473 96.568C265.221 96.1573 264.89 95.8353 264.479 95.602C264.069 95.3687 263.607 95.252 263.093 95.252ZM272.735 94.636C273.649 94.636 274.373 94.902 274.905 95.434C275.437 95.966 275.703 96.7313 275.703 97.73V102H275.003V97.786C275.003 96.9647 274.793 96.3393 274.373 95.91C273.962 95.4807 273.383 95.266 272.637 95.266C271.778 95.266 271.101 95.5227 270.607 96.036C270.112 96.5493 269.865 97.24 269.865 98.108V102H269.165V94.692H269.837V96.274C270.089 95.7607 270.462 95.3593 270.957 95.07C271.461 94.7807 272.053 94.636 272.735 94.636ZM89.3256 114.692L86.5536 122H85.8956L83.4316 115.658L80.9536 122H80.3096L77.5376 114.692H78.2096L80.6456 121.216L83.1376 114.692H83.7396L86.2176 121.202L88.6816 114.692H89.3256ZM93.6191 114.636C94.5244 114.636 95.2198 114.869 95.7051 115.336C96.1904 115.793 96.4331 116.47 96.4331 117.366V122H95.7611V120.698C95.5278 121.127 95.1871 121.463 94.7391 121.706C94.2911 121.939 93.7544 122.056 93.1291 122.056C92.3171 122.056 91.6731 121.865 91.1971 121.482C90.7304 121.099 90.4971 120.595 90.4971 119.97C90.4971 119.363 90.7118 118.873 91.1411 118.5C91.5798 118.117 92.2751 117.926 93.2271 117.926H95.7331V117.338C95.7331 116.657 95.5464 116.139 95.1731 115.784C94.8091 115.429 94.2724 115.252 93.5631 115.252C93.0778 115.252 92.6111 115.336 92.1631 115.504C91.7244 115.672 91.3511 115.896 91.0431 116.176L90.6931 115.672C91.0571 115.345 91.4958 115.093 92.0091 114.916C92.5224 114.729 93.0591 114.636 93.6191 114.636ZM93.2271 121.482C93.8338 121.482 94.3471 121.342 94.7671 121.062C95.1964 120.782 95.5184 120.376 95.7331 119.844V118.472H93.2411C92.5224 118.472 91.9998 118.603 91.6731 118.864C91.3558 119.125 91.1971 119.485 91.1971 119.942C91.1971 120.418 91.3744 120.796 91.7291 121.076C92.0838 121.347 92.5831 121.482 93.2271 121.482ZM103.307 114.636C104.222 114.636 104.945 114.902 105.477 115.434C106.009 115.966 106.275 116.731 106.275 117.73V122H105.575V117.786C105.575 116.965 105.365 116.339 104.945 115.91C104.535 115.481 103.956 115.266 103.209 115.266C102.351 115.266 101.674 115.523 101.179 116.036C100.685 116.549 100.437 117.24 100.437 118.108V122H99.7372V114.692H100.409V116.274C100.661 115.761 101.035 115.359 101.529 115.07C102.033 114.781 102.626 114.636 103.307 114.636ZM116.087 111.612V122H115.401V120.278C115.111 120.847 114.705 121.286 114.183 121.594C113.66 121.902 113.067 122.056 112.405 122.056C111.723 122.056 111.107 121.897 110.557 121.58C110.006 121.263 109.572 120.824 109.255 120.264C108.947 119.704 108.793 119.065 108.793 118.346C108.793 117.627 108.947 116.988 109.255 116.428C109.572 115.859 110.006 115.42 110.557 115.112C111.107 114.795 111.723 114.636 112.405 114.636C113.058 114.636 113.641 114.79 114.155 115.098C114.677 115.406 115.088 115.835 115.387 116.386V111.612H116.087ZM112.447 121.426C113.007 121.426 113.506 121.295 113.945 121.034C114.393 120.773 114.743 120.409 114.995 119.942C115.256 119.475 115.387 118.943 115.387 118.346C115.387 117.749 115.256 117.217 114.995 116.75C114.743 116.283 114.393 115.919 113.945 115.658C113.506 115.397 113.007 115.266 112.447 115.266C111.887 115.266 111.383 115.397 110.935 115.658C110.496 115.919 110.146 116.283 109.885 116.75C109.633 117.217 109.507 117.749 109.507 118.346C109.507 118.943 109.633 119.475 109.885 119.942C110.146 120.409 110.496 120.773 110.935 121.034C111.383 121.295 111.887 121.426 112.447 121.426ZM125.632 118.514H119.346C119.365 119.083 119.509 119.592 119.78 120.04C120.051 120.479 120.415 120.819 120.872 121.062C121.339 121.305 121.861 121.426 122.44 121.426C122.916 121.426 123.355 121.342 123.756 121.174C124.167 120.997 124.507 120.74 124.778 120.404L125.184 120.866C124.867 121.249 124.465 121.543 123.98 121.748C123.504 121.953 122.986 122.056 122.426 122.056C121.698 122.056 121.049 121.897 120.48 121.58C119.911 121.263 119.463 120.824 119.136 120.264C118.819 119.704 118.66 119.065 118.66 118.346C118.66 117.637 118.809 117.002 119.108 116.442C119.416 115.873 119.836 115.429 120.368 115.112C120.9 114.795 121.497 114.636 122.16 114.636C122.823 114.636 123.415 114.795 123.938 115.112C124.47 115.42 124.885 115.854 125.184 116.414C125.492 116.974 125.646 117.609 125.646 118.318L125.632 118.514ZM122.16 115.252C121.647 115.252 121.185 115.369 120.774 115.602C120.363 115.826 120.032 116.148 119.78 116.568C119.537 116.979 119.397 117.445 119.36 117.968H124.96C124.932 117.445 124.792 116.979 124.54 116.568C124.288 116.157 123.957 115.835 123.546 115.602C123.135 115.369 122.673 115.252 122.16 115.252ZM128.232 111.612H128.932V122H128.232V111.612ZM132.302 114.692H133.002V122H132.302V114.692ZM132.652 112.914C132.493 112.914 132.358 112.863 132.246 112.76C132.134 112.648 132.078 112.513 132.078 112.354C132.078 112.195 132.134 112.06 132.246 111.948C132.358 111.836 132.493 111.78 132.652 111.78C132.811 111.78 132.946 111.836 133.058 111.948C133.17 112.051 133.226 112.181 133.226 112.34C133.226 112.499 133.17 112.634 133.058 112.746C132.946 112.858 132.811 112.914 132.652 112.914ZM139.942 114.636C140.857 114.636 141.58 114.902 142.112 115.434C142.644 115.966 142.91 116.731 142.91 117.73V122H142.21V117.786C142.21 116.965 142 116.339 141.58 115.91C141.17 115.481 140.591 115.266 139.844 115.266C138.986 115.266 138.309 115.523 137.814 116.036C137.32 116.549 137.072 117.24 137.072 118.108V122H136.372V114.692H137.044V116.274C137.296 115.761 137.67 115.359 138.164 115.07C138.668 114.781 139.261 114.636 139.942 114.636ZM152.806 114.692V121.216C152.806 122.429 152.512 123.325 151.924 123.904C151.336 124.483 150.449 124.772 149.264 124.772C148.592 124.772 147.957 124.669 147.36 124.464C146.763 124.259 146.282 123.974 145.918 123.61L146.296 123.078C146.66 123.414 147.099 123.675 147.612 123.862C148.125 124.049 148.671 124.142 149.25 124.142C150.221 124.142 150.939 123.909 151.406 123.442C151.873 122.985 152.106 122.271 152.106 121.3V120.068C151.807 120.6 151.392 121.011 150.86 121.3C150.328 121.589 149.731 121.734 149.068 121.734C148.387 121.734 147.766 121.585 147.206 121.286C146.655 120.978 146.221 120.553 145.904 120.012C145.587 119.471 145.428 118.859 145.428 118.178C145.428 117.497 145.587 116.885 145.904 116.344C146.221 115.803 146.655 115.383 147.206 115.084C147.766 114.785 148.387 114.636 149.068 114.636C149.74 114.636 150.347 114.785 150.888 115.084C151.429 115.383 151.845 115.803 152.134 116.344V114.692H152.806ZM149.124 121.104C149.693 121.104 150.207 120.983 150.664 120.74C151.121 120.488 151.476 120.143 151.728 119.704C151.989 119.256 152.12 118.747 152.12 118.178C152.12 117.609 151.989 117.105 151.728 116.666C151.476 116.227 151.121 115.887 150.664 115.644C150.207 115.392 149.693 115.266 149.124 115.266C148.555 115.266 148.041 115.392 147.584 115.644C147.136 115.887 146.781 116.227 146.52 116.666C146.268 117.105 146.142 117.609 146.142 118.178C146.142 118.747 146.268 119.256 146.52 119.704C146.781 120.143 147.136 120.488 147.584 120.74C148.041 120.983 148.555 121.104 149.124 121.104ZM162.363 118.514H156.077C156.096 119.083 156.24 119.592 156.511 120.04C156.782 120.479 157.146 120.819 157.603 121.062C158.07 121.305 158.592 121.426 159.171 121.426C159.647 121.426 160.086 121.342 160.487 121.174C160.898 120.997 161.238 120.74 161.509 120.404L161.915 120.866C161.598 121.249 161.196 121.543 160.711 121.748C160.235 121.953 159.717 122.056 159.157 122.056C158.429 122.056 157.78 121.897 157.211 121.58C156.642 121.263 156.194 120.824 155.867 120.264C155.55 119.704 155.391 119.065 155.391 118.346C155.391 117.637 155.54 117.002 155.839 116.442C156.147 115.873 156.567 115.429 157.099 115.112C157.631 114.795 158.228 114.636 158.891 114.636C159.554 114.636 160.146 114.795 160.669 115.112C161.201 115.42 161.616 115.854 161.915 116.414C162.223 116.974 162.377 117.609 162.377 118.318L162.363 118.514ZM158.891 115.252C158.378 115.252 157.916 115.369 157.505 115.602C157.094 115.826 156.763 116.148 156.511 116.568C156.268 116.979 156.128 117.445 156.091 117.968H161.691C161.663 117.445 161.523 116.979 161.271 116.568C161.019 116.157 160.688 115.835 160.277 115.602C159.866 115.369 159.404 115.252 158.891 115.252ZM168.588 121.538C168.411 121.706 168.187 121.837 167.916 121.93C167.655 122.014 167.38 122.056 167.09 122.056C166.456 122.056 165.966 121.883 165.62 121.538C165.275 121.183 165.102 120.693 165.102 120.068V115.294H163.758V114.692H165.102V113.096H165.802V114.692H168.126V115.294H165.802V119.998C165.802 120.474 165.914 120.838 166.138 121.09C166.372 121.333 166.712 121.454 167.16 121.454C167.618 121.454 167.996 121.319 168.294 121.048L168.588 121.538ZM169.757 124.772C169.449 124.772 169.164 124.73 168.903 124.646C168.632 124.562 168.413 124.441 168.245 124.282L168.525 123.764C168.823 124.035 169.22 124.17 169.715 124.17C170.144 124.17 170.471 124.044 170.695 123.792C170.919 123.54 171.031 123.176 171.031 122.7V114.692H171.731V122.728C171.731 123.353 171.558 123.848 171.213 124.212C170.867 124.585 170.382 124.772 169.757 124.772ZM171.381 112.914C171.222 112.914 171.087 112.863 170.975 112.76C170.863 112.648 170.807 112.513 170.807 112.354C170.807 112.195 170.863 112.06 170.975 111.948C171.087 111.836 171.222 111.78 171.381 111.78C171.539 111.78 171.675 111.836 171.787 111.948C171.899 112.051 171.955 112.181 171.955 112.34C171.955 112.499 171.899 112.634 171.787 112.746C171.675 112.858 171.539 112.914 171.381 112.914ZM181.273 118.514H174.987C175.006 119.083 175.151 119.592 175.421 120.04C175.692 120.479 176.056 120.819 176.513 121.062C176.98 121.305 177.503 121.426 178.081 121.426C178.557 121.426 178.996 121.342 179.397 121.174C179.808 120.997 180.149 120.74 180.419 120.404L180.825 120.866C180.508 121.249 180.107 121.543 179.621 121.748C179.145 121.953 178.627 122.056 178.067 122.056C177.339 122.056 176.691 121.897 176.121 121.58C175.552 121.263 175.104 120.824 174.777 120.264C174.46 119.704 174.301 119.065 174.301 118.346C174.301 117.637 174.451 117.002 174.749 116.442C175.057 115.873 175.477 115.429 176.009 115.112C176.541 114.795 177.139 114.636 177.801 114.636C178.464 114.636 179.057 114.795 179.579 115.112C180.111 115.42 180.527 115.854 180.825 116.414C181.133 116.974 181.287 117.609 181.287 118.318L181.273 118.514ZM177.801 115.252C177.288 115.252 176.826 115.369 176.415 115.602C176.005 115.826 175.673 116.148 175.421 116.568C175.179 116.979 175.039 117.445 175.001 117.968H180.601C180.573 117.445 180.433 116.979 180.181 116.568C179.929 116.157 179.598 115.835 179.187 115.602C178.777 115.369 178.315 115.252 177.801 115.252ZM191.515 121.538C191.337 121.706 191.113 121.837 190.843 121.93C190.581 122.014 190.306 122.056 190.017 122.056C189.382 122.056 188.892 121.883 188.547 121.538C188.201 121.183 188.029 120.693 188.029 120.068V115.294H186.685V114.692H188.029V113.096H188.729V114.692H191.053V115.294H188.729V119.998C188.729 120.474 188.841 120.838 189.065 121.09C189.298 121.333 189.639 121.454 190.087 121.454C190.544 121.454 190.922 121.319 191.221 121.048L191.515 121.538ZM199.801 118.514H193.515C193.534 119.083 193.678 119.592 193.949 120.04C194.22 120.479 194.584 120.819 195.041 121.062C195.508 121.305 196.03 121.426 196.609 121.426C197.085 121.426 197.524 121.342 197.925 121.174C198.336 120.997 198.676 120.74 198.947 120.404L199.353 120.866C199.036 121.249 198.634 121.543 198.149 121.748C197.673 121.953 197.155 122.056 196.595 122.056C195.867 122.056 195.218 121.897 194.649 121.58C194.08 121.263 193.632 120.824 193.305 120.264C192.988 119.704 192.829 119.065 192.829 118.346C192.829 117.637 192.978 117.002 193.277 116.442C193.585 115.873 194.005 115.429 194.537 115.112C195.069 114.795 195.666 114.636 196.329 114.636C196.992 114.636 197.584 114.795 198.107 115.112C198.639 115.42 199.054 115.854 199.353 116.414C199.661 116.974 199.815 117.609 199.815 118.318L199.801 118.514ZM196.329 115.252C195.816 115.252 195.354 115.369 194.943 115.602C194.532 115.826 194.201 116.148 193.949 116.568C193.706 116.979 193.566 117.445 193.529 117.968H199.129C199.101 117.445 198.961 116.979 198.709 116.568C198.457 116.157 198.126 115.835 197.715 115.602C197.304 115.369 196.842 115.252 196.329 115.252ZM215.516 114.636C216.421 114.636 217.131 114.902 217.644 115.434C218.167 115.966 218.428 116.731 218.428 117.73V122H217.728V117.786C217.728 116.965 217.527 116.339 217.126 115.91C216.725 115.481 216.165 115.266 215.446 115.266C214.625 115.266 213.971 115.523 213.486 116.036C213.01 116.549 212.772 117.24 212.772 118.108V122H212.072V117.786C212.072 116.965 211.871 116.339 211.47 115.91C211.069 115.481 210.509 115.266 209.79 115.266C208.969 115.266 208.315 115.523 207.83 116.036C207.354 116.549 207.116 117.24 207.116 118.108V122H206.416V114.692H207.088V116.26C207.331 115.747 207.69 115.35 208.166 115.07C208.651 114.781 209.225 114.636 209.888 114.636C210.551 114.636 211.111 114.785 211.568 115.084C212.035 115.383 212.366 115.821 212.562 116.4C212.805 115.859 213.183 115.429 213.696 115.112C214.219 114.795 214.825 114.636 215.516 114.636ZM224.202 114.636C225.108 114.636 225.803 114.869 226.288 115.336C226.774 115.793 227.016 116.47 227.016 117.366V122H226.344V120.698C226.111 121.127 225.77 121.463 225.322 121.706C224.874 121.939 224.338 122.056 223.712 122.056C222.9 122.056 222.256 121.865 221.78 121.482C221.314 121.099 221.08 120.595 221.08 119.97C221.08 119.363 221.295 118.873 221.724 118.5C222.163 118.117 222.858 117.926 223.81 117.926H226.316V117.338C226.316 116.657 226.13 116.139 225.756 115.784C225.392 115.429 224.856 115.252 224.146 115.252C223.661 115.252 223.194 115.336 222.746 115.504C222.308 115.672 221.934 115.896 221.626 116.176L221.276 115.672C221.64 115.345 222.079 115.093 222.592 114.916C223.106 114.729 223.642 114.636 224.202 114.636ZM223.81 121.482C224.417 121.482 224.93 121.342 225.35 121.062C225.78 120.782 226.102 120.376 226.316 119.844V118.472H223.824C223.106 118.472 222.583 118.603 222.256 118.864C221.939 119.125 221.78 119.485 221.78 119.942C221.78 120.418 221.958 120.796 222.312 121.076C222.667 121.347 223.166 121.482 223.81 121.482ZM232.925 118.094L231.021 119.83V122H230.321V111.612H231.021V118.962L235.697 114.692H236.593L233.443 117.646L236.901 122H236.033L232.925 118.094ZM244.844 118.514H238.558C238.577 119.083 238.722 119.592 238.992 120.04C239.263 120.479 239.627 120.819 240.084 121.062C240.551 121.305 241.074 121.426 241.652 121.426C242.128 121.426 242.567 121.342 242.968 121.174C243.379 120.997 243.72 120.74 243.99 120.404L244.396 120.866C244.079 121.249 243.678 121.543 243.192 121.748C242.716 121.953 242.198 122.056 241.638 122.056C240.91 122.056 240.262 121.897 239.692 121.58C239.123 121.263 238.675 120.824 238.348 120.264C238.031 119.704 237.872 119.065 237.872 118.346C237.872 117.637 238.022 117.002 238.32 116.442C238.628 115.873 239.048 115.429 239.58 115.112C240.112 114.795 240.71 114.636 241.372 114.636C242.035 114.636 242.628 114.795 243.15 115.112C243.682 115.42 244.098 115.854 244.396 116.414C244.704 116.974 244.858 117.609 244.858 118.318L244.844 118.514ZM241.372 115.252C240.859 115.252 240.397 115.369 239.986 115.602C239.576 115.826 239.244 116.148 238.992 116.568C238.75 116.979 238.61 117.445 238.572 117.968H244.172C244.144 117.445 244.004 116.979 243.752 116.568C243.5 116.157 243.169 115.835 242.758 115.602C242.348 115.369 241.886 115.252 241.372 115.252ZM251.014 114.636C251.928 114.636 252.652 114.902 253.184 115.434C253.716 115.966 253.982 116.731 253.982 117.73V122H253.282V117.786C253.282 116.965 253.072 116.339 252.652 115.91C252.241 115.481 251.662 115.266 250.916 115.266C250.057 115.266 249.38 115.523 248.886 116.036C248.391 116.549 248.144 117.24 248.144 118.108V122H247.444V114.692H248.116V116.274C248.368 115.761 248.741 115.359 249.236 115.07C249.74 114.781 250.332 114.636 251.014 114.636ZM257.2 120.866C257.368 120.866 257.508 120.927 257.62 121.048C257.732 121.16 257.788 121.295 257.788 121.454C257.788 121.547 257.774 121.645 257.746 121.748C257.727 121.851 257.699 121.967 257.662 122.098L257.116 124.002H256.612L257.074 122.028C256.934 121.991 256.822 121.925 256.738 121.832C256.654 121.729 256.612 121.603 256.612 121.454C256.612 121.286 256.668 121.146 256.78 121.034C256.892 120.922 257.032 120.866 257.2 120.866Z" fill="white"/>
<path d="M163.786 64.6456C163.449 65.101 162.985 65.5356 162.774 66.0531C162.184 67.564 161.72 69.1163 161.193 70.648C160.876 71.5794 160.18 71.9726 159.253 71.8071C158.43 71.6622 157.819 70.9585 158.051 70.0271C158.62 67.7917 159.337 65.5977 160.054 63.4038C160.18 62.9898 160.644 62.6172 161.066 62.3896C162.648 61.5202 164.25 60.6302 165.916 59.9058C166.612 59.6161 167.498 59.5333 168.236 59.6574C169.543 59.8851 170.239 60.9614 170.071 62.2654C169.691 65.2045 169.248 68.1435 168.932 71.0826C168.869 71.5587 169.101 72.3452 169.48 72.5729C172.306 74.2287 173.402 76.6503 173.381 79.7964C173.381 81.4522 173.719 83.0874 173.887 84.7432C174.014 85.9437 173.36 86.7923 172.2 86.9372C170.914 87.1234 170.049 86.5439 169.902 85.2606C169.649 83.1288 169.564 80.9969 169.311 78.865C169.248 78.3062 168.974 77.6645 168.573 77.2713C167.646 76.3399 166.654 75.4292 165.558 74.7048C163.597 73.4008 163.133 71.6415 163.512 69.4889C163.786 67.9573 163.934 66.4256 164.145 64.894C164.018 64.7905 163.892 64.7284 163.786 64.6456Z" fill="#F6F6F6"/>
<path d="M163.385 74.0215C164.482 74.9943 165.473 75.8429 166.401 76.7536C166.57 76.9192 166.57 77.3952 166.464 77.6643C165.6 80.355 164.693 83.025 163.786 85.6951C163.428 86.7299 162.542 87.1646 161.445 86.9162C160.37 86.6678 159.674 85.7364 159.927 84.6809C160.243 83.4183 160.665 82.1764 161.066 80.9139C161.846 78.6785 162.605 76.4431 163.385 74.0215Z" fill="#F6F6F6"/>
<path d="M168.827 52C170.661 52 172.138 53.4281 172.116 55.1875C172.095 56.9675 170.619 58.3956 168.785 58.3749C166.992 58.3542 165.579 56.9882 165.537 55.2289C165.537 53.4281 166.992 52 168.827 52Z" fill="#F6F6F6"/>
<path d="M170.935 64.3145C172.875 65.784 174.71 67.1294 176.502 68.5575C177.135 69.0543 177.156 69.9029 176.65 70.4203C176.249 70.855 175.258 71.3517 174.899 71.1654C173.36 70.3168 171.947 69.2198 170.513 68.1849C170.408 68.1229 170.387 67.8745 170.408 67.7089C170.576 66.6326 170.745 65.5563 170.935 64.3145Z" fill="#F6F6F6"/>
<path d="M163.385 74.0215C164.482 74.9943 165.473 75.8429 166.401 76.7536C166.57 76.9192 166.57 77.3952 166.464 77.6643C165.6 80.355 164.693 83.025 163.786 85.6951C163.428 86.7299 162.542 87.1646 161.445 86.9162C160.37 86.6678 159.674 85.7364 159.927 84.6809C160.243 83.4183 160.665 82.1764 161.066 80.9139C161.846 78.6785 162.605 76.4431 163.385 74.0215Z" fill="white"/>
<path d="M166.549 52.8887C165.916 53.4682 165.536 54.2961 165.557 55.2275C165.579 56.1175 165.958 56.9247 166.549 57.4836V52.8887Z" fill="white"/>
<path d="M166.549 59.6992C166.317 59.7406 166.106 59.8234 165.917 59.9062C164.251 60.6306 162.648 61.5206 161.066 62.3899C160.666 62.6176 160.202 62.9902 160.054 63.4041C159.337 65.5981 158.641 67.7921 158.051 70.0274C157.819 70.9381 158.409 71.6419 159.253 71.8074C160.181 71.973 160.877 71.5798 161.193 70.6484C161.72 69.1167 162.184 67.5644 162.774 66.0534C162.964 65.536 163.428 65.122 163.787 64.646C163.913 64.7081 164.019 64.7909 164.145 64.853C163.934 66.3846 163.787 67.9369 163.513 69.4479C163.133 71.6212 163.597 73.3598 165.558 74.6637C165.895 74.8914 166.233 75.1398 166.549 75.3882V59.6992Z" fill="white"/>
<rect x="96.6162" y="21.6953" width="155.694" height="13.0238" rx="6.51192" fill="#3B9F8D"/>
<circle cx="96.9118" cy="27.9118" r="13.9118" fill="#3B9F8D"/>
<rect x="102" y="25" width="147" height="7" rx="3.5" fill="url(#paint1_linear)"/>
<circle cx="96.8682" cy="27.9229" r="10.6944" fill="#FFCC47"/>
<path d="M96.8527 31.2055C98.6731 31.2055 100.149 29.7298 100.149 27.9094C100.149 26.089 98.6731 24.6133 96.8527 24.6133C95.0324 24.6133 93.5566 26.089 93.5566 27.9094C93.5566 29.7298 95.0324 31.2055 96.8527 31.2055Z" fill="#F6F6F6"/>
<path d="M96.8535 22.9643C96.5838 22.9643 96.374 22.7546 96.374 22.4849V19.6982C96.374 19.4285 96.5838 19.2188 96.8535 19.2188C97.1231 19.2188 97.3329 19.4285 97.3329 19.6982V22.4849C97.3329 22.7246 97.1231 22.9643 96.8535 22.9643Z" fill="#F6F6F6"/>
<path d="M96.8535 36.5991C96.5838 36.5991 96.374 36.3893 96.374 36.1197V33.3329C96.374 33.0633 96.5838 32.8535 96.8535 32.8535C97.1231 32.8535 97.3329 33.0633 97.3329 33.3329V36.1197C97.3329 36.3893 97.1231 36.5991 96.8535 36.5991Z" fill="#F6F6F6"/>
<path d="M101.827 27.9091C101.827 27.6394 102.037 27.4297 102.307 27.4297H105.093C105.363 27.4297 105.573 27.6394 105.573 27.9091C105.573 28.1788 105.363 28.3886 105.093 28.3886H102.307C102.037 28.3886 101.827 28.1788 101.827 27.9091Z" fill="#F6F6F6"/>
<path d="M88.1631 27.9091C88.1631 27.6394 88.3728 27.4297 88.6425 27.4297H91.4292C91.6989 27.4297 91.9087 27.6394 91.9087 27.9091C91.9087 28.1788 91.6989 28.3886 91.4292 28.3886H88.6425C88.3728 28.3886 88.1631 28.1788 88.1631 27.9091Z" fill="white"/>
<path d="M102.936 33.9905C102.756 34.1703 102.456 34.1703 102.277 33.9905L100.299 32.0128C100.119 31.833 100.119 31.5334 100.299 31.3536C100.479 31.1738 100.778 31.1738 100.958 31.3536L102.936 33.3313C103.116 33.4811 103.116 33.7807 102.936 33.9905Z" fill="#F6F6F6"/>
<path d="M93.1975 24.2815C93.0177 24.4613 92.7181 24.4613 92.5383 24.2815L90.5606 22.3038C90.3808 22.124 90.3808 21.8244 90.5606 21.6446C90.7404 21.4648 91.0401 21.4648 91.2198 21.6446L93.1975 23.6223C93.4073 23.7721 93.4073 24.0717 93.1975 24.2815Z" fill="white"/>
<path d="M103.324 21.8565C103.504 22.0363 103.504 22.336 103.324 22.5158L101.347 24.4934C101.167 24.6732 100.867 24.6732 100.688 24.4934C100.508 24.3136 100.508 24.014 100.688 23.8342L102.665 21.8565C102.845 21.6468 103.145 21.6468 103.324 21.8565Z" fill="#F6F6F6"/>
<path d="M93.467 31.713C93.6468 31.8928 93.6468 32.1924 93.467 32.3722L91.4894 34.3498C91.3096 34.5296 91.0099 34.5296 90.8302 34.3498C90.6504 34.1701 90.6504 33.8704 90.8302 33.6906L92.8078 31.713C92.9876 31.5332 93.2872 31.5332 93.467 31.713Z" fill="white"/>
<path d="M96.8234 24.6133C94.9956 24.6133 93.5273 26.0815 93.5273 27.9094C93.5273 29.7372 94.9956 31.2055 96.8234 31.2055V24.6133Z" fill="white"/>
<path d="M96.8535 19.2188C96.5838 19.2188 96.374 19.4285 96.374 19.6982V22.4849C96.374 22.7546 96.5838 22.9643 96.8535 22.9643V19.2188Z" fill="white"/>
<path d="M96.8535 32.8828C96.5838 32.8828 96.374 33.0926 96.374 33.3622V36.149C96.374 36.4186 96.5838 36.6284 96.8535 36.6284V32.8828Z" fill="white"/>
<rect y="415" width="335" height="66" rx="16" fill="#3EA390"/>
<path d="M127.228 449.514H120.942C120.961 450.083 121.105 450.592 121.376 451.04C121.647 451.479 122.011 451.819 122.468 452.062C122.935 452.305 123.457 452.426 124.036 452.426C124.512 452.426 124.951 452.342 125.352 452.174C125.763 451.997 126.103 451.74 126.374 451.404L126.78 451.866C126.463 452.249 126.061 452.543 125.576 452.748C125.1 452.953 124.582 453.056 124.022 453.056C123.294 453.056 122.645 452.897 122.076 452.58C121.507 452.263 121.059 451.824 120.732 451.264C120.415 450.704 120.256 450.065 120.256 449.346C120.256 448.637 120.405 448.002 120.704 447.442C121.012 446.873 121.432 446.429 121.964 446.112C122.496 445.795 123.093 445.636 123.756 445.636C124.419 445.636 125.011 445.795 125.534 446.112C126.066 446.42 126.481 446.854 126.78 447.414C127.088 447.974 127.242 448.609 127.242 449.318L127.228 449.514ZM123.756 446.252C123.243 446.252 122.781 446.369 122.37 446.602C121.959 446.826 121.628 447.148 121.376 447.568C121.133 447.979 120.993 448.445 120.956 448.968H126.556C126.528 448.445 126.388 447.979 126.136 447.568C125.884 447.157 125.553 446.835 125.142 446.602C124.731 446.369 124.269 446.252 123.756 446.252ZM133.397 445.636C134.312 445.636 135.035 445.902 135.567 446.434C136.099 446.966 136.365 447.731 136.365 448.73V453H135.665V448.786C135.665 447.965 135.455 447.339 135.035 446.91C134.625 446.481 134.046 446.266 133.299 446.266C132.441 446.266 131.764 446.523 131.269 447.036C130.775 447.549 130.527 448.24 130.527 449.108V453H129.827V445.692H130.499V447.274C130.751 446.761 131.125 446.359 131.619 446.07C132.123 445.781 132.716 445.636 133.397 445.636ZM147.309 452.538C147.132 452.706 146.908 452.837 146.637 452.93C146.376 453.014 146.1 453.056 145.811 453.056C145.176 453.056 144.686 452.883 144.341 452.538C143.996 452.183 143.823 451.693 143.823 451.068V446.294H142.479V445.692H143.823V444.096H144.523V445.692H146.847V446.294H144.523V450.998C144.523 451.474 144.635 451.838 144.859 452.09C145.092 452.333 145.433 452.454 145.881 452.454C146.338 452.454 146.716 452.319 147.015 452.048L147.309 452.538ZM155.595 449.514H149.309C149.328 450.083 149.473 450.592 149.743 451.04C150.014 451.479 150.378 451.819 150.835 452.062C151.302 452.305 151.825 452.426 152.403 452.426C152.879 452.426 153.318 452.342 153.719 452.174C154.13 451.997 154.471 451.74 154.741 451.404L155.147 451.866C154.83 452.249 154.429 452.543 153.943 452.748C153.467 452.953 152.949 453.056 152.389 453.056C151.661 453.056 151.013 452.897 150.443 452.58C149.874 452.263 149.426 451.824 149.099 451.264C148.782 450.704 148.623 450.065 148.623 449.346C148.623 448.637 148.773 448.002 149.071 447.442C149.379 446.873 149.799 446.429 150.331 446.112C150.863 445.795 151.461 445.636 152.123 445.636C152.786 445.636 153.379 445.795 153.901 446.112C154.433 446.42 154.849 446.854 155.147 447.414C155.455 447.974 155.609 448.609 155.609 449.318L155.595 449.514ZM152.123 446.252C151.61 446.252 151.148 446.369 150.737 446.602C150.327 446.826 149.995 447.148 149.743 447.568C149.501 447.979 149.361 448.445 149.323 448.968H154.923C154.895 448.445 154.755 447.979 154.503 447.568C154.251 447.157 153.92 446.835 153.509 446.602C153.099 446.369 152.637 446.252 152.123 446.252ZM162.883 447.288C163.107 446.756 163.457 446.35 163.933 446.07C164.409 445.781 164.987 445.636 165.669 445.636V446.322L165.501 446.308C164.689 446.308 164.054 446.565 163.597 447.078C163.139 447.582 162.911 448.287 162.911 449.192V453H162.211V445.692H162.883V447.288ZM174.123 449.514H167.837C167.856 450.083 168 450.592 168.271 451.04C168.542 451.479 168.906 451.819 169.363 452.062C169.83 452.305 170.352 452.426 170.931 452.426C171.407 452.426 171.846 452.342 172.247 452.174C172.658 451.997 172.998 451.74 173.269 451.404L173.675 451.866C173.358 452.249 172.956 452.543 172.471 452.748C171.995 452.953 171.477 453.056 170.917 453.056C170.189 453.056 169.54 452.897 168.971 452.58C168.402 452.263 167.954 451.824 167.627 451.264C167.31 450.704 167.151 450.065 167.151 449.346C167.151 448.637 167.3 448.002 167.599 447.442C167.907 446.873 168.327 446.429 168.859 446.112C169.391 445.795 169.988 445.636 170.651 445.636C171.314 445.636 171.906 445.795 172.429 446.112C172.961 446.42 173.376 446.854 173.675 447.414C173.983 447.974 174.137 448.609 174.137 449.318L174.123 449.514ZM170.651 446.252C170.138 446.252 169.676 446.369 169.265 446.602C168.854 446.826 168.523 447.148 168.271 447.568C168.028 447.979 167.888 448.445 167.851 448.968H173.451C173.423 448.445 173.283 447.979 173.031 447.568C172.779 447.157 172.448 446.835 172.037 446.602C171.626 446.369 171.164 446.252 170.651 446.252ZM179.62 453.056C178.911 453.056 178.276 452.897 177.716 452.58C177.156 452.263 176.718 451.824 176.4 451.264C176.083 450.695 175.924 450.055 175.924 449.346C175.924 448.627 176.083 447.988 176.4 447.428C176.718 446.859 177.156 446.42 177.716 446.112C178.276 445.795 178.911 445.636 179.62 445.636C180.208 445.636 180.74 445.753 181.216 445.986C181.702 446.21 182.094 446.541 182.392 446.98L181.874 447.358C181.613 446.994 181.286 446.723 180.894 446.546C180.512 446.359 180.087 446.266 179.62 446.266C179.051 446.266 178.538 446.397 178.08 446.658C177.632 446.91 177.278 447.269 177.016 447.736C176.764 448.203 176.638 448.739 176.638 449.346C176.638 449.953 176.764 450.489 177.016 450.956C177.278 451.423 177.632 451.787 178.08 452.048C178.538 452.3 179.051 452.426 179.62 452.426C180.087 452.426 180.512 452.337 180.894 452.16C181.286 451.973 181.613 451.698 181.874 451.334L182.392 451.712C182.094 452.151 181.702 452.487 181.216 452.72C180.74 452.944 180.208 453.056 179.62 453.056ZM190.651 445.692L186.899 453.994C186.619 454.638 186.292 455.095 185.919 455.366C185.555 455.637 185.121 455.772 184.617 455.772C184.281 455.772 183.964 455.716 183.665 455.604C183.376 455.492 183.128 455.329 182.923 455.114L183.273 454.582C183.646 454.965 184.099 455.156 184.631 455.156C184.986 455.156 185.289 455.058 185.541 454.862C185.793 454.666 186.026 454.33 186.241 453.854L186.633 452.972L183.343 445.692H184.085L187.011 452.23L189.937 445.692H190.651ZM195.294 453.056C194.585 453.056 193.95 452.897 193.39 452.58C192.83 452.263 192.392 451.824 192.074 451.264C191.757 450.695 191.598 450.055 191.598 449.346C191.598 448.627 191.757 447.988 192.074 447.428C192.392 446.859 192.83 446.42 193.39 446.112C193.95 445.795 194.585 445.636 195.294 445.636C195.882 445.636 196.414 445.753 196.89 445.986C197.376 446.21 197.768 446.541 198.066 446.98L197.548 447.358C197.287 446.994 196.96 446.723 196.568 446.546C196.186 446.359 195.761 446.266 195.294 446.266C194.725 446.266 194.212 446.397 193.754 446.658C193.306 446.91 192.952 447.269 192.69 447.736C192.438 448.203 192.312 448.739 192.312 449.346C192.312 449.953 192.438 450.489 192.69 450.956C192.952 451.423 193.306 451.787 193.754 452.048C194.212 452.3 194.725 452.426 195.294 452.426C195.761 452.426 196.186 452.337 196.568 452.16C196.96 451.973 197.287 451.698 197.548 451.334L198.066 451.712C197.768 452.151 197.376 452.487 196.89 452.72C196.414 452.944 195.882 453.056 195.294 453.056ZM200.459 442.612H201.159V453H200.459V442.612ZM210.703 449.514H204.417C204.436 450.083 204.581 450.592 204.851 451.04C205.122 451.479 205.486 451.819 205.943 452.062C206.41 452.305 206.933 452.426 207.511 452.426C207.987 452.426 208.426 452.342 208.827 452.174C209.238 451.997 209.579 451.74 209.849 451.404L210.255 451.866C209.938 452.249 209.537 452.543 209.051 452.748C208.575 452.953 208.057 453.056 207.497 453.056C206.769 453.056 206.121 452.897 205.551 452.58C204.982 452.263 204.534 451.824 204.207 451.264C203.89 450.704 203.731 450.065 203.731 449.346C203.731 448.637 203.881 448.002 204.179 447.442C204.487 446.873 204.907 446.429 205.439 446.112C205.971 445.795 206.569 445.636 207.231 445.636C207.894 445.636 208.487 445.795 209.009 446.112C209.541 446.42 209.957 446.854 210.255 447.414C210.563 447.974 210.717 448.609 210.717 449.318L210.703 449.514ZM207.231 446.252C206.718 446.252 206.256 446.369 205.845 446.602C205.435 446.826 205.103 447.148 204.851 447.568C204.609 447.979 204.469 448.445 204.431 448.968H210.031C210.003 448.445 209.863 447.979 209.611 447.568C209.359 447.157 209.028 446.835 208.617 446.602C208.207 446.369 207.745 446.252 207.231 446.252ZM216.873 445.636C217.788 445.636 218.511 445.902 219.043 446.434C219.575 446.966 219.841 447.731 219.841 448.73V453H219.141V448.786C219.141 447.965 218.931 447.339 218.511 446.91C218.1 446.481 217.522 446.266 216.775 446.266C215.916 446.266 215.24 446.523 214.745 447.036C214.25 447.549 214.003 448.24 214.003 449.108V453H213.303V445.692H213.975V447.274C214.227 446.761 214.6 446.359 215.095 446.07C215.599 445.781 216.192 445.636 216.873 445.636ZM223.059 453.056C222.9 453.056 222.76 453 222.639 452.888C222.527 452.767 222.471 452.622 222.471 452.454C222.471 452.286 222.527 452.146 222.639 452.034C222.76 451.922 222.9 451.866 223.059 451.866C223.217 451.866 223.353 451.922 223.465 452.034C223.586 452.146 223.647 452.286 223.647 452.454C223.647 452.622 223.586 452.767 223.465 452.888C223.353 453 223.217 453.056 223.059 453.056Z" fill="white"/>
<path d="M153.951 418.685C153.043 418.639 152.271 418.594 151 418.548C153.179 415.539 155.131 412.804 157.311 409.75C159.444 412.667 161.442 415.403 163.576 418.366C162.759 418.548 162.168 418.639 161.578 418.776C163.712 424.246 168.116 426.526 174.699 425.659C172.974 428.121 168.615 429.534 164.393 428.714C158.9 427.711 155.495 424.201 153.951 418.685Z" fill="#F6F6F6"/>
<path d="M177.014 421.238C174.88 418.275 172.883 415.539 170.749 412.576C171.566 412.44 172.111 412.348 172.656 412.257C173.7 408.61 165.346 404.28 159.354 405.374C163.803 400.359 173.246 401.043 177.65 406.787C178.422 407.79 179.057 408.93 179.557 410.115C180.555 412.348 180.51 412.348 183.189 412.485C181.146 415.448 179.148 418.183 177.014 421.238Z" fill="#F6F6F6"/>
<path d="M166.345 402C163.667 402.228 161.124 403.322 159.354 405.328C161.533 404.917 164.075 405.282 166.345 406.012V402Z" fill="white"/>
<path d="M166.345 424.475C164.211 423.335 162.577 421.421 161.533 418.731C162.123 418.594 162.713 418.503 163.53 418.321C161.397 415.358 159.399 412.668 157.265 409.705C155.131 412.714 153.179 415.494 151 418.503C152.317 418.549 153.043 418.594 153.951 418.64C155.495 424.156 158.9 427.62 164.348 428.714C165.029 428.851 165.664 428.897 166.3 428.942V424.475H166.345Z" fill="white"/>
<circle cx="96.9118" cy="377.912" r="13.9118" fill="#3B9F8D"/>
<rect x="96.6162" y="371.695" width="155.694" height="13.0238" rx="6.51192" fill="#3B9F8D"/>
<rect x="101" y="375" width="148" height="7" rx="3.5" fill="url(#paint2_linear)"/>
<circle cx="96.8682" cy="377.98" r="10.6944" fill="#6ED34B"/>
<path d="M105.044 375.872C105.044 375.872 103.353 375.214 102.758 375.245C101.943 375.308 100.534 376.498 99.6884 376.498C98.8428 376.498 97.4021 375.277 96.5878 375.245C95.6169 375.214 93.8318 376.561 92.8609 376.498C92.1406 376.467 90.9504 375.308 90.2301 375.245C89.6977 375.214 88.1631 375.872 88.1631 375.872V377.5C88.1631 377.5 89.7603 376.811 90.3241 376.874C91.0444 376.936 92.2032 378.095 92.8922 378.127C93.8631 378.189 95.6482 376.842 96.6191 376.874C97.4647 376.905 98.9054 378.127 99.751 378.127C100.565 378.127 101.943 376.936 102.758 376.874C103.353 376.842 105.075 377.5 105.075 377.5V375.872H105.044Z" fill="#F6F6F6"/>
<path d="M91.5459 380.414C91.788 380.414 91.9843 380.218 91.9843 379.976C91.9843 379.733 91.788 379.537 91.5459 379.537C91.3037 379.537 91.1074 379.733 91.1074 379.976C91.1074 380.218 91.3037 380.414 91.5459 380.414Z" fill="white"/>
<path d="M94.7715 380.225C95.0136 380.225 95.2099 380.028 95.2099 379.786C95.2099 379.544 95.0136 379.348 94.7715 379.348C94.5293 379.348 94.333 379.544 94.333 379.786C94.333 380.028 94.5293 380.225 94.7715 380.225Z" fill="white"/>
<path d="M97.3086 379.785C97.5507 379.785 97.747 379.589 97.747 379.347C97.747 379.105 97.5507 378.908 97.3086 378.908C97.0664 378.908 96.8701 379.105 96.8701 379.347C96.8701 379.589 97.0664 379.785 97.3086 379.785Z" fill="#F6F6F6"/>
<path d="M97.6529 382.261C97.7913 382.261 97.9034 382.149 97.9034 382.01C97.9034 381.872 97.7913 381.76 97.6529 381.76C97.5145 381.76 97.4023 381.872 97.4023 382.01C97.4023 382.149 97.5145 382.261 97.6529 382.261Z" fill="#F6F6F6"/>
<path d="M93.8316 381.761C93.97 381.761 94.0822 381.649 94.0822 381.51C94.0822 381.372 93.97 381.26 93.8316 381.26C93.6932 381.26 93.5811 381.372 93.5811 381.51C93.5811 381.649 93.6932 381.761 93.8316 381.761Z" fill="white"/>
<path d="M91.1695 383.609C91.3079 383.609 91.42 383.496 91.42 383.358C91.42 383.22 91.3079 383.107 91.1695 383.107C91.0311 383.107 90.9189 383.22 90.9189 383.358C90.9189 383.496 91.0311 383.609 91.1695 383.609Z" fill="white"/>
<path d="M89.8228 382.011C89.9612 382.011 90.0734 381.899 90.0734 381.76C90.0734 381.622 89.9612 381.51 89.8228 381.51C89.6844 381.51 89.5723 381.622 89.5723 381.76C89.5723 381.899 89.6844 382.011 89.8228 382.011Z" fill="white"/>
<path d="M99.6578 383.609C99.7962 383.609 99.9083 383.496 99.9083 383.358C99.9083 383.22 99.7962 383.107 99.6578 383.107C99.5194 383.107 99.4072 383.22 99.4072 383.358C99.4072 383.496 99.5194 383.609 99.6578 383.609Z" fill="#F6F6F6"/>
<path d="M102.381 382.198C102.52 382.198 102.632 382.086 102.632 381.948C102.632 381.809 102.52 381.697 102.381 381.697C102.243 381.697 102.131 381.809 102.131 381.948C102.131 382.086 102.243 382.198 102.381 382.198Z" fill="#F6F6F6"/>
<path d="M100.91 380.695C101.152 380.695 101.349 380.499 101.349 380.257C101.349 380.015 101.152 379.818 100.91 379.818C100.668 379.818 100.472 380.015 100.472 380.257C100.472 380.499 100.668 380.695 100.91 380.695Z" fill="#F6F6F6"/>
<path d="M103.541 379.504C103.783 379.504 103.979 379.308 103.979 379.065C103.979 378.823 103.783 378.627 103.541 378.627C103.299 378.627 103.103 378.823 103.103 379.065C103.103 379.308 103.299 379.504 103.541 379.504Z" fill="#F6F6F6"/>
<path d="M89.5723 379.662C89.8144 379.662 90.0107 379.466 90.0107 379.224C90.0107 378.981 89.8144 378.785 89.5723 378.785C89.3301 378.785 89.1338 378.981 89.1338 379.224C89.1338 379.466 89.3301 379.662 89.5723 379.662Z" fill="white"/>
<path d="M96.5878 375.245C95.6169 375.214 93.8318 376.561 92.8609 376.498C92.1406 376.467 90.9504 375.308 90.2301 375.245C89.6977 375.214 88.1631 375.872 88.1631 375.872V377.5C88.1631 377.5 89.7603 376.811 90.3241 376.874C91.0444 376.936 92.2032 378.095 92.8922 378.127C93.8631 378.189 95.6482 376.842 96.6191 376.874V375.245H96.5878Z" fill="white"/>
<defs>
<linearGradient id="paint0_linear" x1="106.244" y1="205.758" x2="248.115" y2="205.758" gradientUnits="userSpaceOnUse">
<stop stop-color="#1EB0EF"/>
<stop offset="1" stop-color="#38C3FF"/>
</linearGradient>
<linearGradient id="paint1_linear" x1="105.933" y1="32" x2="249" y2="32" gradientUnits="userSpaceOnUse">
<stop stop-color="#F1BD33"/>
<stop offset="1" stop-color="#FFCC47"/>
</linearGradient>
<linearGradient id="paint2_linear" x1="106.9" y1="382" x2="249" y2="382" gradientUnits="userSpaceOnUse">
<stop stop-color="#59C633"/>
<stop offset="1" stop-color="#6ED34B"/>
</linearGradient>
</defs>
</svg>
