<svg xmlns="http://www.w3.org/2000/svg" xmlns:xlink="http://www.w3.org/1999/xlink" width="300" height="300" viewBox="0 0 300 300"><defs><style>.a{clip-path:url(#b);}.b{fill:#465f35;}.c{fill:#fff;font-size:192px;font-family:Merriweather-Regular, Merriweather;}</style><clipPath id="b"><rect width="300" height="300"/></clipPath></defs><g id="a" class="a"><path class="b" d="M514.97,477.225c-9.469-26.022-52.048-53.231-77.555-61.971-42.994-14.731-92.843-38.762-131.18-13.811-13.175,8.575-33.175,36.046-43.052,48.493-13.836,17.432-22.583,35.6-30.36,56.677-13.136,35.592-7.575,87.939,14.269,118.608,29.369,41.236,86.229,57.263,135.251,64.356,30.185,4.365,74.264-5,96.53-26.548C513.723,629.3,542.129,551.866,514.97,477.225Z" transform="translate(-225.793 -390.623)"/><text class="c" transform="translate(84 219)"><tspan x="0" y="0">B</tspan></text></g></svg>