<svg xmlns="http://www.w3.org/2000/svg" xmlns:xlink="http://www.w3.org/1999/xlink" width="300" height="300" viewBox="0 0 300 300"><defs><style>.a{clip-path:url(#b);}.b{fill:#81a18f;}.c{fill:#fff;}</style><clipPath id="b"><rect width="300" height="300"/></clipPath></defs><g id="a" class="a"><g transform="translate(-225.793 -385.803)"><path class="b" d="M514.97,477.225c-9.469-26.022-52.048-53.231-77.555-61.971-42.994-14.731-92.843-38.762-131.18-13.811-13.175,8.575-33.175,36.046-43.052,48.493-13.836,17.432-22.583,35.6-30.36,56.677-13.136,35.592-7.575,87.938,14.269,118.608,29.369,41.236,86.229,57.263,135.251,64.356,30.185,4.365,74.264-5,96.53-26.548C513.723,629.3,542.129,551.866,514.97,477.225Z" transform="translate(0 -4.82)"/><path class="c" d="M349.521,451.869c-2.077,1.927-3.922,4.269-6.318,5.651-9.3,5.365-19.77,4.99-29.845,4.3-6.071-.417-11.945.149-17.876.512a144.708,144.708,0,0,0-15.525,2.262c-3.751.642-7.685.993-11.135,2.439-4.671,1.961-8.83,5.115-13.437,7.268-5.6,2.612-7.789,7.834-10.553,12.633-1.242,2.156-.591,4.083,1.136,4.942,1.525.761,3.127-.064,4.308-2.241a34.869,34.869,0,0,1,15.766-14.783,8.37,8.37,0,0,1,2.734-.326c-.286.831-.551,1.672-.868,2.488-.1.259-.387.435-.508.688-1.754,3.541-3.6,7.043-5.179,10.66a2.7,2.7,0,0,0,1.334,3.672c1.736.907,2.972.128,3.952-1.2a18.457,18.457,0,0,0,1.294-2.545c3.943-7.646,8.565-14.435,17.365-17.45,6.711-2.3,13.4-3.547,20.461-2.807a54.283,54.283,0,0,0,6.017.088c6.29-.034,12.581-.095,18.872-.119a3.076,3.076,0,0,1,1.008.393,3.856,3.856,0,0,1-.53,1.19c-1.6,1.626-3.048,3.5-4.917,4.735-5.143,3.386-10.221,7.027-15.778,9.588-7.746,3.565-15.909,5.791-24.2,1.069a2.734,2.734,0,0,0-3.977,1.09,2.855,2.855,0,0,0,1.124,4.211,30.6,30.6,0,0,0,5.727,2.527c4.4,1.26,8.891,1.017,13.373.259a6.948,6.948,0,0,1,1.836.174,6.985,6.985,0,0,1-.566,1.51c-3.386,5.094-6.735,10.218-10.231,15.236a137.015,137.015,0,0,1-18.5,21.466c-2.061,1.943-2.281,3.657-.819,5.2,1.233,1.3,3.2,1.075,5.045-.636.91-.846,1.72-1.8,2.637-2.634a7.319,7.319,0,0,1,1.407-.807,5.151,5.151,0,0,1,.283,1.562c-.3,2.168-.7,4.324-1.05,6.489-.442,2.707.475,4.3,2.612,4.537,1.946.222,3.246-1.035,3.492-3.66a57.045,57.045,0,0,1,5.039-17.837,134.541,134.541,0,0,1,17.322-27.957,65.277,65.277,0,0,1,7.7-8.8c2.677-2.39,5.983-4.074,9.04-6.029a10.207,10.207,0,0,1,1.793-.722,11.956,11.956,0,0,1-.027,2.14c-1.62,8.443-3.5,16.841-4.866,25.321-2.074,12.852-4.467,25.61-9.043,37.841-1.3,3.474-3.033,6.79-4.589,10.167-.877,1.9-.463,4.1.953,4.8,1.693.844,3.316.171,4.464-1.857a7.952,7.952,0,0,0,.368-.776c2.247-5.374,4.482-10.751,6.75-16.116a9.389,9.389,0,0,1,1.032-1.525c.353.518.749,1.011,1.047,1.559,1.09,2.006,2.046,4.1,3.246,6.035,1.1,1.763,2.832,1.888,4.546,1,1.459-.761,1.723-2.832.429-4.552-2.832-3.766-3.742-8.136-4.138-12.639-.959-10.861.46-21.569,2.311-32.238.094-.548.624-1.02.953-1.526a11.462,11.462,0,0,1,1,1.562c2.278,5.24,4.12,10.721,6.9,15.675,2.643,4.71,6.373,8.8,9.43,13.288,5.316,7.813,8.108,16.628,9.765,25.835.627,3.483,1.041,7,1.617,10.5a2.794,2.794,0,0,0,3.17,2.646,2.927,2.927,0,0,0,2.756-3.389,10.2,10.2,0,0,0-.189-1.422c-1.166-6.291-2.028-12.66-3.59-18.854a58.217,58.217,0,0,0-10.252-21.3c-2.838-3.711-5.864-7.347-8.157-11.381-6.485-11.4-10.072-23.284-4.732-36.337,2.11-5.161,4.348-10.112,8.927-13.665a15.774,15.774,0,0,0,3.739-4.29c1.133-1.9,2.156-2.223,3.724-.658.469.469,1.017.868,1.443,1.37,5.928,6.973,7.971,15.279,8.069,24.176.055,4.78-.189,9.564-.335,14.347-.375,12.048,1.544,23.838,3.995,35.563a49,49,0,0,0,6.93,16.889c3.572,5.478,8,9.987,14.11,12.572a4.82,4.82,0,0,0,3.218.414c.883-.347,2.074-1.76,1.927-2.457a5.14,5.14,0,0,0-2.259-3.194c-7.527-3.9-12.365-10.06-15.449-17.769a6.471,6.471,0,0,1-.161-1.87,14.865,14.865,0,0,1,1.717.737c3.456,2.022,6.866,4.126,10.358,6.071a5.939,5.939,0,0,0,3.258.846c.962-.1,2.366-.813,2.621-1.577a4.542,4.542,0,0,0-.651-3.316c-.417-.7-1.556-1.008-2.421-1.385-9.366-4.126-16.646-10.4-19.252-20.61a73.483,73.483,0,0,1-1.851-15.623c-.3-9.159-.14-18.336-.143-27.507a5.67,5.67,0,0,1,.429-1.5,7.309,7.309,0,0,1,1.306.938c5.048,5.636,9.8,11.552,13.108,18.363,4.223,8.714,7.7,17.681,2.433,27.348a2.675,2.675,0,0,0,1.251,3.9,4.755,4.755,0,0,0,3.827-.874c.968-.725,1.458-2.2,1.946-3.428,2.04-5.146,2.046-10.441,1.023-15.8a6.619,6.619,0,0,1,.174-1.854,7.343,7.343,0,0,1,1.751.609c5.566,3.715,11.123,7.438,16.643,11.22a128.9,128.9,0,0,1,20.02,17.538c1.93,2.016,3.593,2.116,5.2.508,1.16-1.166.9-3.054-.725-4.811-.971-1.05-2.043-2.013-3.02-3.057a5.547,5.547,0,0,1-.661-1.181,5.158,5.158,0,0,1,1.528-.244c2.168.326,4.324.737,6.482,1.121,2.734.487,4.342-.344,4.689-2.424.362-2.171-.758-3.447-3.657-3.708-8.358-.761-15.906-3.885-23.259-7.667-9.484-4.872-18.022-11.159-26.42-17.648a27.294,27.294,0,0,1-5.079-4.957c-2.189-2.887-4.037-6.032-6-9.092a13.939,13.939,0,0,1-.874-1.927,9.6,9.6,0,0,1,2.156.024c5.289,1.242,10.526,2.759,15.857,3.776,9.756,1.86,19.609,3.227,29.343,5.194a104.238,104.238,0,0,1,27.071,9.165c.923.472,1.943,1.236,2.85,1.148,1.163-.113,2.8-.679,3.23-1.547s-.268-2.4-.737-3.526c-.207-.5-1.038-.795-1.641-1.053-5.274-2.241-10.562-4.445-15.839-6.683a20.7,20.7,0,0,1-1.906-1.038c.67-.445,1.312-.938,2.013-1.331,1.748-.98,3.581-1.818,5.268-2.89,1.751-1.108,2.311-3.34,1.209-4.71-1.218-1.507-2.8-1.516-4.342-.475-6.3,4.26-13.461,4.835-20.662,4.387-8.09-.5-16.144-1.6-24.209-2.484a9.657,9.657,0,0,1-2-.661,9.485,9.485,0,0,1,1.876-1.367c4.92-1.994,10.09-3.508,14.743-5.992,4.156-2.217,7.746-5.49,11.592-8.288,2.156-1.565,4.159-3.456,6.525-4.595a68.417,68.417,0,0,1,12.188-4.814c11.987-2.3,1.376-7.021-1-6.053s-8.732,2.463-12.566,4.656c-5.578,3.188-10.654,7.247-15.979,10.885a41.866,41.866,0,0,1-6.985,4.384,123,123,0,0,1-11.866,3.974,32.669,32.669,0,0,1-27.032-3.3,41.8,41.8,0,0,1-6.251-4.488c-2.007-1.736-3.617-3.931-5.636-5.648" transform="translate(20.681 89.562)"/><path class="c" d="M315.825,517.633c-.35,0-.688-.006-1-.009l-.77-.006-.478,0a18.4,18.4,0,0,1-8.3-1.532l-1.632-.734c-1.431-.636-2.85-1.276-4.257-2.019l-1.063-.551a30.108,30.108,0,0,1-5.274-3.179,20.162,20.162,0,0,1-1.918-1.763,12.236,12.236,0,0,1-2.622-1.364,10.533,10.533,0,0,1-2.235-2.092c-.262-.18-.5-.356-.731-.539a19.362,19.362,0,0,1-2.536-2.506c-.128-.146-.253-.3-.39-.439l-.256-.171a15.956,15.956,0,0,1-3.663-3.462,13.283,13.283,0,0,1-1.37-2.308l-.091-.079a16.56,16.56,0,0,1-3.928-4.649l-.636-1.169a64.476,64.476,0,0,1-5.088-10.961l-1.248-3.751c-.849-2.545-1.7-5.091-2.509-7.652-.572-1.815-1.044-3.626-1.51-5.435-.356-1.37-.706-2.743-1.126-4.11-.374-1.233-.645-2.481-.9-3.736-.128-.618-.247-1.236-.411-1.845a12.908,12.908,0,0,1-.432-2.707,11.786,11.786,0,0,1-.487-1.79l-.375-2.019c-.4-2.183-.8-4.378-1.285-6.562-.3-1.346-.609-2.667-.923-3.986-.493-2.092-.983-4.174-1.413-6.3l-.219-1.081c-.487-2.372-2.762-11.08-1.352-12.2a10.31,10.31,0,0,1,5.161-.429c3.891.506,8.465-.228,9.96-.228,3.307,0,3.081,2.186,3.081,2.186a49.627,49.627,0,0,0,1.044,6.988l.238,1.169c.384,1.915.834,3.794,1.279,5.682.335,1.413.67,2.832.983,4.266.53,2.387.974,4.793,1.413,7.192l.238,1.279a11.838,11.838,0,0,1,.667,2.268,13.936,13.936,0,0,1,.219,2.128c.189.764.353,1.541.512,2.32.14.691.271,1.389.478,2.064.5,1.623.92,3.252,1.34,4.881.387,1.5.77,3,1.245,4.5.776,2.463,1.6,4.911,2.411,7.356l1.273,3.821a48.9,48.9,0,0,0,3.773,7.929l.347.642c.073.064.149.128.219.192a18.369,18.369,0,0,1,3,3.161,12.592,12.592,0,0,1,1.12,1.863c.329.243.655.49.971.752a19.648,19.648,0,0,1,2.39,2.387c.076.088.149.174.225.259a14.013,14.013,0,0,1,1.8,1.355c.173.152.332.308.478.457a12.091,12.091,0,0,1,2.156,1.206,18.227,18.227,0,0,1,2.692,2.4l.368.374a23.62,23.62,0,0,0,2.1,1.13c.469.237.935.475,1.389.716,1.02.542,2.061,1,3.106,1.458.511.231,1.026.46,1.541.694.28.009.566,0,.874,0l.572,0,.984.009a16.435,16.435,0,0,0,1.763-.037,39.763,39.763,0,0,0,8.745-5.033c.932-.706,1.845-1.486,2.746-2.253l1.532-1.291c.265-.219.457-.39.585-.512a16.574,16.574,0,0,1,1.419-2.317,36.457,36.457,0,0,0,4.43-8.1,30.8,30.8,0,0,1,1.617-3.243,11.2,11.2,0,0,0,.731-1.41c.469-1.206,1.02-2.414,1.577-3.62.256-.548.512-1.1.752-1.65l.822-1.86a44.019,44.019,0,0,0,2.594-6.659c.551-2.168,1.136-4.287,1.739-6.437.012-.158.009-.481.024-.8a22.924,22.924,0,0,1,.463-4.013,11.77,11.77,0,0,0-.03-1.181,23.347,23.347,0,0,1,.24-4.969c.14-.81.253-1.623.365-2.436.146-1.041.3-2.083.475-3.127a17.563,17.563,0,0,0,.052-2.67,27.826,27.826,0,0,1,.557-7.441c0-.225-.061-.752-.088-1.267-.043-.868-.076-1.72-.061-2.524.055-2.345.466-3.94.466-6.793,0-1.882,3.291-1.553,3.291-1.553s1.985-.107,4.339-.107c1.918,0,3.225.107,3.225.107H363s3.843-.481,3.843.7c0,1.65-.466,6.083-.493,8.017-.006.39.021.813.043,1.245a21.971,21.971,0,0,1-.39,6.415,15.263,15.263,0,0,0-.064,2.747,31.156,31.156,0,0,1-.32,6.278c-.146.831-.262,1.662-.378,2.5-.14,1.008-.283,2.016-.457,3.03a9.365,9.365,0,0,0,.018,1.267,22.292,22.292,0,0,1-.393,5.724c-.037.256-.034.572-.049.892a20.868,20.868,0,0,1-.682,4.905c-.563,2-1.114,3.973-1.623,5.986a59.456,59.456,0,0,1-3.623,9.628l-.758,1.708c-.292.67-.6,1.349-.92,2.025-.39.846-.792,1.693-1.121,2.548a28.347,28.347,0,0,1-1.8,3.678,13.592,13.592,0,0,0-.706,1.355,54.787,54.787,0,0,1-6.479,11.781,16.109,16.109,0,0,1-1.949,3.063,23.685,23.685,0,0,1-3.24,3.173l-1.346,1.133c-1.169.993-2.354,1.994-3.544,2.893a56.712,56.712,0,0,1-13.266,7.524A19.574,19.574,0,0,1,315.825,517.633Zm30.658-18.814-.009.009ZM289.36,481.512l.015.024Zm-.566-.8Z" transform="translate(38.577 34.718)"/><path class="c" d="M330.666,517.638a24.766,24.766,0,0,1-5.185-.475l-1.592-.326a44.888,44.888,0,0,1-11.908-3.66,45.807,45.807,0,0,1-9.722-7.11c-.92-.813-1.836-1.629-2.774-2.387a33.706,33.706,0,0,1-6.884-8.2c-.621-.947-1.233-1.9-1.933-2.789a23.934,23.934,0,0,1-3.349-6.245c-.152-.377-.3-.752-.46-1.117-.2-.463-.454-.92-.7-1.379-.435-.813-.859-1.632-1.239-2.482a86.036,86.036,0,0,1-3.468-9.64l-.783-2.463c-.082-.25-.393-.862-.639-1.355a25.936,25.936,0,0,1-1.787-4.193c-.195-.627-.414-1.264-.63-1.9-.262-.77-.524-1.547-.767-2.326l-.655-2.067c-.856-2.673-1.742-5.438-2.393-8.416-.712-3.276-1.245-6.461-1.818-9.984-.113-.676-.277-1.352-.435-2.022-.183-.773-.359-1.544-.509-2.3-.177-.9-.31-1.812-.441-2.725-.088-.633-.173-1.263-.3-1.885a104.428,104.428,0,0,1-.926-12.691c0-1.961,4.738-1.961,4.738-1.961a50.45,50.45,0,0,0,5.621,1c2.275.134,7.886-1.221,7.91.959s.4,8.273.557,9.031c.2.968.344,1.961.487,2.96.085.6.171,1.212.289,1.812.1.539.231,1.072.356,1.608.259,1.093.512,2.2.682,3.279.551,3.374,1.02,6.184,1.641,9.019.463,2.125,1.181,4.366,1.94,6.741l.7,2.2c.195.63.408,1.258.621,1.882.271.795.542,1.589.786,2.384.076.241.4.88.636,1.349a27.218,27.218,0,0,1,1.711,3.949l.837,2.637a71.391,71.391,0,0,0,2.716,7.658c.21.478.457.923.694,1.367.457.859.9,1.72,1.3,2.619.247.56.472,1.117.694,1.674a15.516,15.516,0,0,0,.776,1.769c1.066,1.355,1.994,2.765,2.813,4.013a18.854,18.854,0,0,0,3.093,4.013c1.151.932,2.275,1.921,3.4,2.92a31.518,31.518,0,0,0,5.843,4.479,29.852,29.852,0,0,0,7.292,2.061l1.727.353a11.194,11.194,0,0,0,2.043.079c.192-.055.368-.1.56-.146a14.916,14.916,0,0,1,3.979-.387c.359-.149.923-.42,1.334-.618.527-.256,1.05-.509,1.571-.74a15.991,15.991,0,0,0,3.17-1.958c.779-.6,1.556-1.123,2.329-1.635a12.328,12.328,0,0,0,1.617-1.178,32.306,32.306,0,0,0,3.133-3.523c.07-.134.329-.8.521-1.294a27.945,27.945,0,0,1,1.6-3.59,7.529,7.529,0,0,0,.6-1.291,20.04,20.04,0,0,1,1.778-3.706c.119-.2.247-.408.356-.633a23.784,23.784,0,0,0,1.294-3.906,47.521,47.521,0,0,1,1.705-5.3,29.474,29.474,0,0,0,1.133-3.09c.286-1.078.612-2.138.941-3.2.307-.98.621-1.961.865-2.981.289-1.206.655-2.36,1.032-3.508a22.845,22.845,0,0,0,.67-2.25l.466-2.016c.317-1.352.636-2.7.88-4.074l.231-1.385a49.137,49.137,0,0,1,.993-4.945,17.461,17.461,0,0,0,.579-3.529,29.062,29.062,0,0,1,.688-5.018,16.941,16.941,0,0,0,.332-1.933c.064-.9.034-2.01,0-3.191-.021-.819-.043-1.635-.043-2.442v-4.339a12.254,12.254,0,0,0-.171-1.617,30.212,30.212,0,0,1,.222-3.806c0-2.366,2.981-1.458,5.852-1.358,2.061.076,3.246.594,5.268.743,2.573.195,4.613.381,4.829.381,2.351,0,1.851.974,1.933,1.6a29.041,29.041,0,0,1,.335,4.092V425.9c0,.633.021,1.276.037,1.918a48.89,48.89,0,0,1-.037,5.018,31.8,31.8,0,0,1-.655,4.278,15.992,15.992,0,0,0-.332,1.979,35.248,35.248,0,0,1-1.193,7.67c-.238.889-.408,1.927-.6,3.13l-.274,1.632c-.3,1.7-.688,3.374-1.081,5.054l-.423,1.839c-.3,1.355-.712,2.649-1.133,3.94-.231.694-.466,1.385-.639,2.11-.341,1.407-.755,2.774-1.181,4.135-.253.813-.509,1.623-.728,2.454a43.463,43.463,0,0,1-1.854,5.252,32.826,32.826,0,0,0-1.029,3.3,38.462,38.462,0,0,1-2.5,7.091c-.314.645-.658,1.242-1,1.83-.11.192-.228.375-.323.576a24.72,24.72,0,0,1-1.821,4.01,10.429,10.429,0,0,0-.56,1.346,23.1,23.1,0,0,1-2.689,5.326,48.729,48.729,0,0,1-5.057,5.794,26.607,26.607,0,0,1-4.461,3.514c-.435.289-.88.578-1.318.914a33.89,33.89,0,0,1-6.857,4.15c-.356.161-.7.329-1.048.5a24.451,24.451,0,0,1-5.873,2.168,15.622,15.622,0,0,1-3.535.277,13.444,13.444,0,0,1-3.444.515C331.744,517.629,331.217,517.638,330.666,517.638Z" transform="translate(72.17 35.224)"/></g></g></svg>