<svg width="19" height="35" viewBox="0 0 19 35" fill="none" xmlns="http://www.w3.org/2000/svg">
<path d="M5.77767 12.6466C5.44026 13.1019 4.97633 13.5366 4.76546 14.054C4.175 15.565 3.71107 17.1173 3.18388 18.649C2.86757 19.5804 2.17167 19.9736 1.24381 19.808C0.421395 19.6632 -0.190148 18.9594 0.0418169 18.028C0.611184 15.7927 1.32817 13.5987 2.04515 11.4047C2.17167 10.9908 2.6356 10.6182 3.05736 10.3905C4.63893 9.52123 6.2416 8.63122 7.90752 7.9068C8.60342 7.61703 9.4891 7.53424 10.2272 7.65842C11.5346 7.8861 12.2305 8.96238 12.0618 10.2663C11.6822 13.2054 11.2394 16.1445 10.9231 19.0836C10.8598 19.5597 11.0918 20.3462 11.4713 20.5739C14.2971 22.2297 15.3937 24.6513 15.3726 27.7974C15.3726 29.4532 15.71 31.0883 15.8787 32.7442C16.0052 33.9446 15.3515 34.7933 14.1917 34.9381C12.9053 35.1244 12.0407 34.5449 11.8931 33.2616C11.64 31.1297 11.5557 28.9979 11.3026 26.866C11.2394 26.3072 10.9652 25.6655 10.5646 25.2723C9.63671 24.3409 8.64559 23.4302 7.54903 22.7057C5.58788 21.4018 5.12395 19.6425 5.50353 17.4899C5.77767 15.9582 5.92528 14.4266 6.13616 12.895C6.00963 12.7915 5.88311 12.7294 5.77767 12.6466Z" fill="#F6F6F6"/>
<path d="M5.37664 22.0225C6.4732 22.9953 7.46432 23.8439 8.39218 24.7546C8.56088 24.9202 8.56088 25.3962 8.45544 25.6653C7.59085 28.356 6.68408 31.026 5.7773 33.696C5.41881 34.7309 4.53313 35.1656 3.43657 34.9172C2.3611 34.6688 1.66521 33.7374 1.91826 32.6818C2.23457 31.4193 2.65633 30.1774 3.05699 28.9148C3.83724 26.6795 4.59639 24.4441 5.37664 22.0225Z" fill="#F6F6F6"/>
<path d="M10.818 0C12.6526 0 14.1288 1.42815 14.1077 3.18746C14.0866 4.96747 12.6104 6.39562 10.7758 6.37493C8.98337 6.35423 7.5705 4.98817 7.52832 3.22886C7.52832 1.42815 8.98337 0 10.818 0Z" fill="#F6F6F6"/>
<path d="M12.9261 12.3154C14.8662 13.785 16.7008 15.1303 18.4933 16.5585C19.1259 17.0552 19.147 17.9038 18.6409 18.4213C18.2402 18.8559 17.2491 19.3527 16.8906 19.1664C15.3512 18.3178 13.9384 17.2208 12.5044 16.1859C12.3989 16.1238 12.3779 15.8755 12.3989 15.7099C12.5677 14.6336 12.7364 13.5573 12.9261 12.3154Z" fill="#F6F6F6"/>
<path d="M5.37664 22.0225C6.4732 22.9953 7.46432 23.8439 8.39218 24.7546C8.56088 24.9202 8.56088 25.3962 8.45544 25.6653C7.59085 28.356 6.68407 31.026 5.7773 33.696C5.41881 34.7309 4.53313 35.1656 3.43657 34.9172C2.3611 34.6688 1.66521 33.7374 1.91826 32.6818C2.23457 31.4193 2.65633 30.1774 3.05699 28.9148C3.83724 26.6795 4.59639 24.4441 5.37664 22.0225Z" fill="white"/>
<path d="M8.53981 0.889648C7.90718 1.46919 7.5276 2.2971 7.54869 3.2285C7.56977 4.11851 7.94935 4.92572 8.53981 5.48456V0.889648Z" fill="white"/>
<path d="M8.54034 7.7002C8.30838 7.74159 8.0975 7.82438 7.90771 7.90717C6.24179 8.6316 4.63912 9.5216 3.05755 10.3909C2.65688 10.6186 2.19295 10.9911 2.04534 11.4051C1.32836 13.5991 0.632462 15.793 0.0420071 18.0284C-0.189957 18.9391 0.400498 19.6428 1.244 19.8084C2.17186 19.974 2.86776 19.5807 3.18407 18.6493C3.71126 17.1177 4.17519 15.5654 4.76565 14.0544C4.95544 13.537 5.41936 13.123 5.77786 12.647C5.90438 12.7091 6.00982 12.7919 6.13635 12.8539C5.92547 14.3856 5.77786 15.9379 5.50372 17.4489C5.12414 19.6221 5.58807 21.3608 7.54922 22.6647C7.88662 22.8924 8.22403 23.1408 8.54034 23.3891V7.7002Z" fill="white"/>
</svg>
