<svg width="18" height="22" viewBox="0 0 18 22" fill="none" xmlns="http://www.w3.org/2000/svg">
<path d="M16.269 5.35995C16.0878 5.19273 15.9519 5.06731 15.7706 4.94189C16.1784 3.64589 15.8159 2.26627 14.7286 1.55556C13.7318 0.886654 12.3727 0.92846 11.1947 1.51375C9.1106 -0.28393 6.12038 -0.534769 4.44404 1.05388C3.402 2.01543 3.08485 3.47866 3.49261 4.90008C1.36321 5.48537 -0.0865929 7.11583 0.0040198 8.91351C0.139939 11.1293 2.58648 12.8015 5.48609 12.6761C5.71262 12.6761 5.98446 12.6343 6.21099 12.5925C6.57344 12.7597 6.93589 12.9269 7.34365 13.0106V21.121C7.34365 21.5809 7.75141 21.999 8.29508 21.999H9.69958C10.198 21.999 10.651 21.6227 10.651 21.121V13.0524C11.24 12.8851 11.829 12.6761 12.3274 12.3835C14.0037 12.9269 15.7706 12.7179 16.9033 11.6309C18.5796 10.0841 18.3078 7.24125 16.269 5.35995Z" fill="#F6F6F6"/>
<path d="M9.01999 0.302331C7.38896 -0.241154 5.62201 0.0096853 4.44404 1.05485C3.402 2.0164 3.08485 3.47963 3.49261 4.90105C1.36321 5.48634 -0.0865929 7.1168 0.0040198 8.91448C0.139939 11.1302 2.58648 12.8025 5.48609 12.6771C5.71262 12.6771 5.98446 12.6353 6.21099 12.5935C6.57344 12.7607 6.93589 12.9279 7.34365 13.0115V21.122C7.34365 21.5819 7.75141 21.9999 8.29508 21.9999H8.97468V0.302331H9.01999Z" fill="white"/>
</svg>
