<svg width="100" height="100" viewBox="0 0 100 100" fill="none" xmlns="http://www.w3.org/2000/svg">
<path fill-rule="evenodd" clip-rule="evenodd" d="M100 50C100 77.6142 77.6142 100 50 100C22.3858 100 0 77.6142 0 50C0 22.3858 22.3858 0 50 0C77.6142 0 100 22.3858 100 50ZM38.7221 18.6479C38.3366 15.0986 41.1168 12 44.687 12H54.313C57.8832 12 60.6634 15.0986 60.2779 18.6479L55.6073 61.6479C55.2766 64.6929 52.7053 67 49.6424 67H49.3576C46.2947 67 43.7234 64.6929 43.3927 61.6479L38.7221 18.6479ZM49.5 90C53.6421 90 57 86.6421 57 82.5C57 78.3579 53.6421 75 49.5 75C45.3579 75 42 78.3579 42 82.5C42 86.6421 45.3579 90 49.5 90Z" fill="white"/>
</svg>
