<svg width="350" height="600" viewBox="0 0 350 600" fill="none" xmlns="http://www.w3.org/2000/svg">
<g clip-path="url(#clip0)">
<path d="M234.914 408.024L192.149 433.105L180.609 426.326L223.374 401.245L234.914 408.024Z" fill="#A98B5D"/>
<path d="M192.15 445.985L234.915 421.582V408.024L192.15 432.428V445.985Z" fill="#CDB694"/>
<path d="M180.609 426.327V439.207L192.149 445.985V433.106L180.609 426.327Z" fill="#936037"/>
<path d="M234.914 408.024L223.374 414.803L211.834 408.024V343.626L223.374 336.848L234.914 343.626V408.024Z" fill="#CDB694"/>
<path d="M223.374 336.848L211.834 343.626V408.024L223.374 414.803V336.848Z" fill="#A98B5D"/>
<path d="M192.148 530.717L174.499 540.885L156.171 530.717V246.689L174.499 235.843L192.148 246.689V530.717Z" fill="#CDB694"/>
<path d="M174.499 235.843L156.171 246.689V530.717L174.499 540.885V235.843Z" fill="#A98B5D"/>
<path d="M277 325.997L188.076 376.837L99.1523 325.997V203.302L187.397 151.784L277 203.302V325.997Z" fill="#3A8438"/>
<path d="M188.077 151.784V376.837L277 325.319V202.625L188.077 151.784Z" fill="#468E44"/>
<path d="M188.076 250.075L99.1523 203.302L187.397 151.784L277 203.302L188.076 250.075Z" fill="#55A053"/>
<path d="M204.368 398.529L137.844 436.489L72 398.529V323.963L137.844 286.002L204.368 323.963V398.529Z" fill="#3A8438"/>
<path d="M137.846 286.002V436.489L204.369 397.851V323.963L137.846 286.002Z" fill="#468E44"/>
<path d="M137.844 359.212L72 323.963L137.844 286.002L204.368 323.963L137.844 359.212Z" fill="#55A053"/>
<g clip-path="url(#clip1)">
<path d="M165.255 465.515L156.412 460.49V467.525L165.255 472.549V465.515Z" fill="#634C3C"/>
</g>
<path d="M182.941 458.279L191.784 453.255V460.289L182.941 465.314V458.279Z" fill="#7C6552"/>
<path d="M177.314 512.075L182.941 508.726V513.415L177.314 516.765V512.075Z" fill="#7C6552"/>
<path d="M177.314 434.162L186.157 429.138V436.172L177.314 441.197V434.162Z" fill="#7C6552"/>
<path d="M199.823 431.75L208.667 426.726V433.76L199.823 438.784V431.75Z" fill="#7C6552"/>
<path d="M225.549 408.437L234.392 403.412V410.446L225.549 415.471V408.437Z" fill="#7C6552"/>
<path d="M230.373 366.699L235.196 364.02V367.771L230.373 370.451V366.699Z" fill="#7C6552"/>
<path d="M182.941 496.867L191.784 491.843V498.877L182.941 503.902V496.867Z" fill="#7C6552"/>
<g clip-path="url(#clip2)">
<path d="M174.098 449.437L165.255 444.412V451.446L174.098 456.471V449.437Z" fill="#634C3C"/>
</g>
<g clip-path="url(#clip3)">
<path d="M165.255 431.75L156.412 426.726V433.76L165.255 438.784V431.75Z" fill="#634C3C"/>
</g>
<g clip-path="url(#clip4)">
<path d="M219.922 369.313L213.49 365.628V370.786L219.922 374.471V369.313Z" fill="#634C3C"/>
</g>
<g clip-path="url(#clip5)">
<path d="M221.529 402.005L212.686 396.98V404.015L221.529 409.039V402.005Z" fill="#634C3C"/>
</g>
<g clip-path="url(#clip6)">
<path d="M166.863 507.318L158.02 502.294V509.328L166.863 514.353V507.318Z" fill="#634C3C"/>
</g>
</g>
<g clip-path="url(#clip7)">
<path d="M185.353 486.282L174.5 492.647L163.647 486.282V477.372L174.5 483.736L185.353 477.372V486.282Z" fill="#7C6552"/>
<path d="M174.5 483.736L163.647 477.372V486.282L174.5 492.647V483.736Z" fill="#634C3C"/>
</g>
<g clip-path="url(#clip8)">
<path d="M231.98 384.721L223.137 389.745L214.294 384.721V377.687L223.137 382.711L231.98 377.687V384.721Z" fill="#7C6552"/>
<path d="M223.137 382.711L214.294 377.687V384.721L223.137 389.745V382.711Z" fill="#634C3C"/>
</g>
<g clip-path="url(#clip9)">
<path d="M185.353 525.675L174.5 532.039L163.647 525.675V516.765L174.5 523.129L185.353 516.765V525.675Z" fill="#7C6552"/>
<path d="M174.5 523.129L163.647 516.765V525.675L174.5 532.039V523.129Z" fill="#634C3C"/>
</g>
<path opacity="0.8" d="M174.5 564C210.675 564 240 546.763 240 525.5C240 504.237 210.675 487 174.5 487C138.325 487 109 504.237 109 525.5C109 546.763 138.325 564 174.5 564Z" fill="#707918" fill-opacity="0.3"/>
<defs>
<clipPath id="clip0">
<rect width="205" height="389.098" fill="white" transform="translate(72 155)"/>
</clipPath>
<clipPath id="clip1">
<rect width="8.84313" height="12.0588" fill="white" transform="translate(156.412 460.49)"/>
</clipPath>
<clipPath id="clip2">
<rect width="8.84313" height="12.0588" fill="white" transform="translate(165.255 444.412)"/>
</clipPath>
<clipPath id="clip3">
<rect width="8.84313" height="12.0588" fill="white" transform="translate(156.412 426.726)"/>
</clipPath>
<clipPath id="clip4">
<rect width="6.4314" height="8.84315" fill="white" transform="translate(213.49 365.628)"/>
</clipPath>
<clipPath id="clip5">
<rect width="8.84312" height="12.0588" fill="white" transform="translate(212.686 396.98)"/>
</clipPath>
<clipPath id="clip6">
<rect width="8.84315" height="12.0589" fill="white" transform="translate(158.02 502.294)"/>
</clipPath>
<clipPath id="clip7">
<rect width="21.7059" height="15.2745" fill="white" transform="translate(163.647 477.372)"/>
</clipPath>
<clipPath id="clip8">
<rect width="17.6863" height="12.0588" fill="white" transform="translate(214.294 377.687)"/>
</clipPath>
<clipPath id="clip9">
<rect width="21.7059" height="15.2745" fill="white" transform="translate(163.647 516.765)"/>
</clipPath>
</defs>
</svg>
