<svg width="49" height="122" viewBox="0 0 49 122" fill="none" xmlns="http://www.w3.org/2000/svg">
<path d="M24.5 122C38.031 122 49 115.655 49 107.829C49 100.003 38.031 93.6582 24.5 93.6582C10.969 93.6582 0 100.003 0 107.829C0 115.655 10.969 122 24.5 122Z" fill="#A8B249"/>
<path d="M36.344 106.364L24.4996 113.205L12.6553 106.364V18.4063L24.3374 11.4023L36.344 18.4063V106.364Z" fill="#B17F4A"/>
<path d="M24.4996 11.5652L24.3374 11.4023L12.6553 18.4063V106.364L24.4996 113.205V11.5652Z" fill="#936037"/>
<path d="M49 79.4873L24.5 93.6582L0 79.4873V14.1709L24.3377 0L49 14.1709V79.4873Z" fill="#5E9E4C"/>
<path d="M24.5 0V93.6582L49 79.4873V14.1709L24.5 0Z" fill="#79BC68"/>
<path d="M24.1755 27.2016L0 14.1709L24.3377 0L49 14.1709L24.1755 27.2016Z" fill="#8EC57B"/>
</svg>
