<svg width="350" height="600" viewBox="0 0 350 600" fill="none" xmlns="http://www.w3.org/2000/svg">
<g opacity="0.8">
<path d="M175 586C233.542 586 281 558.689 281 525C281 491.311 233.542 464 175 464C116.458 464 69 491.311 69 525C69 558.689 116.458 586 175 586Z" fill="#707918" fill-opacity="0.3"/>
</g>
<path d="M198.503 530.027L174.955 543.999L150.5 530.027V164.14L174.955 151.041L198.503 164.14V530.027Z" fill="#B1944A"/>
<path d="M174.955 151.041L150.5 164.14V530.027L174.955 543.999V151.041Z" fill="#957625"/>
<path d="M309 388.564L174.953 462.789L40 388.564V319.578L174.047 244.479L309 319.578V388.564Z" fill="#2F8671"/>
<path d="M174.952 244.479V462.789L308.999 387.691V318.705L174.952 244.479Z" fill="#429581"/>
<path d="M174.953 387.691L40 319.578L174.047 244.479L309 319.578L174.953 387.691Z" fill="#4FA892"/>
<path d="M285.452 304.734L174.954 375.467L63.5498 313.467V247.101L174.048 185.101L285.452 247.101V304.734Z" fill="#2F8671"/>
<path d="M174.952 185.972V375.465L285.45 313.465V247.098L174.952 185.972Z" fill="#429581"/>
<path d="M174.954 303.861L63.5498 247.101L174.048 185.101L285.452 247.101L174.954 303.861Z" fill="#4FA892"/>
<path d="M260.09 228.759L174.952 292.506L88.9082 244.478V185.097L174.046 137.942L260.09 185.097V228.759Z" fill="#2F8671"/>
<path d="M174.952 137.942V291.633L260.09 244.478V185.097L174.952 137.942Z" fill="#429581"/>
<path d="M174.952 228.759L88.9082 185.097L174.046 137.942L260.09 185.097L174.952 228.759Z" fill="#4FA892"/>
<path d="M239.261 170.251L174.954 218.279L109.742 182.476V137.067L174.049 101.265L239.261 137.067V170.251Z" fill="#2F8671"/>
<path d="M174.956 101.265V218.279L239.262 181.603V137.067L174.956 101.265Z" fill="#429581"/>
<path d="M174.954 170.251L109.742 137.067L174.049 101.265L239.261 137.067L174.954 170.251Z" fill="#4FA892"/>
<path d="M222.052 125.716L174.954 159.773L127.856 133.575V101.266L174.048 75.0684L222.052 101.266V125.716Z" fill="#2F8671"/>
<path d="M174.956 75.0684V159.773L222.053 133.575V101.266L174.956 75.0684Z" fill="#429581"/>
<path d="M174.954 124.843L127.856 101.266L174.048 75.0684L222.052 101.266L174.954 124.843Z" fill="#4FA892"/>
<path d="M202.123 99.5211L174.951 115.239L146.874 99.5211V62.8451L174.046 48L202.123 62.8451V99.5211Z" fill="#2F8671"/>
<path d="M174.952 48V115.239L202.124 99.5211V62.8451L174.952 48Z" fill="#429581"/>
<path d="M174.046 76.8169L146.874 62.8451L174.046 48L202.123 62.8451L174.046 76.8169Z" fill="#4FA892"/>
</svg>
