<svg width="350" height="600" viewBox="0 0 350 600" fill="none" xmlns="http://www.w3.org/2000/svg">
<path d="M175 546.652C194.882 546.652 211 537.25 211 525.652C211 514.054 194.882 504.652 175 504.652C155.118 504.652 139 514.054 139 525.652C139 537.25 155.118 546.652 175 546.652Z" fill="#707918" fill-opacity="0.3"/>
<path d="M182.47 524.844L175.176 529.706L167.882 524.844V456.765L175.176 451.904L182.47 456.765V524.844Z" fill="#B17F4A"/>
<path d="M175.176 451.901L167.882 456.764V524.842L175.176 529.705V451.901Z" fill="#936037"/>
<path d="M206.783 472.282L176.016 490.292L146 472.282V430.259L176.016 413L206.783 430.259V472.282Z" fill="#5E9E4C"/>
<path d="M176.015 413V490.292L206.781 472.282V430.259L176.015 413Z" fill="#79BC68"/>
<path d="M176.016 446.768L146 430.259L176.016 413L206.783 430.259L176.016 446.768Z" fill="#8EC57B"/>
<path d="M197.058 507.34L187.213 513.103L177.607 507.34V493.893L187.213 488.37L197.058 493.893V507.34Z" fill="#5E9E4C"/>
<path d="M187.212 488.37V513.103L197.058 507.34V493.893L187.212 488.37Z" fill="#79BC68"/>
<path d="M187.213 499.176L177.607 493.893L187.213 488.37L197.058 493.893L187.213 499.176Z" fill="#8EC57B"/>
</svg>
