<svg width="350" height="600" viewBox="0 0 350 600" fill="none" xmlns="http://www.w3.org/2000/svg">
<path opacity="0.8" d="M175 586.624C233.542 586.624 281 559.313 281 525.624C281 491.935 233.542 464.624 175 464.624C116.458 464.624 69 491.935 69 525.624C69 559.313 116.458 586.624 175 586.624Z" fill="#707918" fill-opacity="0.3"/>
<path d="M225.358 525.164L175.146 554.054L124.933 525.164V153.726L174.458 124.148L225.358 153.726V525.164Z" fill="#B17F4A"/>
<path d="M175.146 124.836L174.458 124.148L124.933 153.726V525.164L175.146 554.054V124.836Z" fill="#936037"/>
<path d="M279.01 411.67L175.145 471.513L71.2798 411.67V135.843L174.457 76L279.01 135.843V411.67Z" fill="#5E9E4C"/>
<path d="M175.145 76V471.513L279.01 411.67V135.843L175.145 76Z" fill="#79BC68"/>
<path d="M175 195.677L71.2798 135.843L174.457 76L279.01 135.843L175 195.677Z" fill="#8EC57B"/>
</svg>
