<svg width="17" height="22" viewBox="0 0 17 22" fill="none" xmlns="http://www.w3.org/2000/svg">
<path d="M14.8419 5.29913C14.6766 5.1338 14.5526 5.0098 14.3872 4.88581C14.7592 3.60451 14.4286 2.24055 13.4366 1.53791C12.5273 0.876592 11.2873 0.917924 10.2127 1.49657C8.31143 -0.280708 5.5835 -0.5287 4.05422 1.04192C3.10358 1.99256 2.81425 3.43918 3.18624 4.84448C1.24363 5.42313 -0.0789971 7.03508 0.00366718 8.81236C0.127664 11.003 2.3596 12.6562 5.00485 12.5323C5.21151 12.5323 5.45951 12.4909 5.66617 12.4496C5.99683 12.6149 6.32748 12.7802 6.69947 12.8629V20.8813C6.69947 21.336 7.07146 21.7493 7.56745 21.7493H8.84874C9.3034 21.7493 9.71672 21.3773 9.71672 20.8813V12.9042C10.254 12.7389 10.7914 12.5323 11.246 12.2429C12.7753 12.7802 14.3872 12.5736 15.4206 11.4989C16.9498 9.96966 16.7018 7.15907 14.8419 5.29913Z" fill="#F6F6F6"/>
<path d="M8.22876 0.299166C6.7408 -0.238151 5.12885 0.00984136 4.05421 1.04314C3.10358 1.99378 2.81425 3.44041 3.18624 4.8457C1.24363 5.42435 -0.0789971 7.0363 0.00366718 8.81358C0.127664 11.0042 2.3596 12.6575 5.00485 12.5335C5.21151 12.5335 5.45951 12.4921 5.66617 12.4508C5.99682 12.6161 6.32748 12.7815 6.69947 12.8641V20.8826C6.69947 21.3372 7.07146 21.7505 7.56745 21.7505H8.18743V0.299166H8.22876Z" fill="white"/>
</svg>
