<svg width="44" height="41" viewBox="0 0 44 41" fill="none" xmlns="http://www.w3.org/2000/svg">
<path d="M21.4076 18.5516C20.9928 18.9022 20.6372 19.3696 20.1632 19.6617C18.3261 20.7135 16.3113 20.5966 14.3558 20.4797C13.1706 20.4213 12.0446 20.4797 10.8595 20.5966C9.85205 20.655 8.84465 20.8888 7.83724 21.0056C7.12613 21.1225 6.35576 21.1809 5.64465 21.473C4.75576 21.8236 3.92613 22.4663 3.03724 22.8753C1.97057 23.4012 1.4965 24.3945 0.963165 25.2709C0.726127 25.6799 0.844646 26.0305 1.2002 26.2058C1.4965 26.3227 1.79279 26.2058 2.02983 25.7968C2.74094 24.5114 3.80761 23.5765 5.11131 22.9338C5.28909 22.8753 5.46687 22.8753 5.64465 22.8753C5.58539 23.0506 5.52613 23.1675 5.46687 23.3428C5.46687 23.4012 5.40761 23.4012 5.34835 23.4596C4.99279 24.1608 4.63724 24.8035 4.34094 25.5047C4.22242 25.7384 4.28168 26.0305 4.57798 26.2058C4.93354 26.3811 5.17057 26.2058 5.34835 25.9721C5.46687 25.8552 5.52613 25.6215 5.58539 25.5047C6.35576 24.0439 7.24465 22.7585 8.96317 22.1742C10.2669 21.7068 11.5706 21.473 12.9335 21.6483C13.3484 21.7068 13.7039 21.6483 14.1187 21.6483C15.3632 21.6483 16.5484 21.6483 17.7928 21.6483C17.8521 21.6483 17.9113 21.7068 17.9706 21.7068C17.9113 21.7652 17.9113 21.882 17.8521 21.9405C17.5558 22.2326 17.2595 22.6416 16.9039 22.8753C15.8965 23.5181 14.8891 24.2192 13.8224 24.6866C12.3409 25.3878 10.7409 25.7968 9.14094 24.9204C8.84465 24.7451 8.54835 24.8619 8.37057 25.1541C8.1928 25.4462 8.25205 25.7968 8.60761 25.9721C8.96317 26.1474 9.31872 26.3227 9.73354 26.4395C10.5632 26.6732 11.4521 26.6148 12.3409 26.4979C12.4595 26.4979 12.578 26.4979 12.6965 26.5564C12.6372 26.6732 12.6372 26.7901 12.578 26.8485C11.9261 27.8418 11.2743 28.8351 10.5632 29.77C9.4965 31.2891 8.31131 32.633 6.94835 33.86C6.53354 34.2106 6.53354 34.5612 6.77057 34.8533C7.00761 35.087 7.42242 35.087 7.77798 34.7365C7.95576 34.5612 8.13354 34.3859 8.31131 34.2106C8.37057 34.1522 8.48909 34.0937 8.60761 34.0353C8.60761 34.1522 8.66687 34.2106 8.66687 34.3274C8.60761 34.7365 8.54835 35.1455 8.48909 35.5545C8.42983 36.0803 8.60761 36.3725 9.02242 36.4309C9.37798 36.4893 9.67428 36.2556 9.67428 35.7297C9.7928 34.5027 10.1484 33.3926 10.6817 32.2824C11.5706 30.3543 12.7558 28.6014 14.0595 26.907C14.5335 26.3227 15.0076 25.7384 15.5409 25.2125C16.0743 24.7451 16.7261 24.4529 17.3187 24.0439C17.4372 23.9855 17.5558 23.9271 17.6743 23.9271C17.6743 24.0439 17.6743 24.2192 17.6743 24.3361C17.378 25.9721 17.0224 27.5497 16.7261 29.1857C16.3113 31.6397 15.8372 34.0937 14.9483 36.4309C14.7113 37.0736 14.3558 37.7163 14.0595 38.3591C13.8817 38.7096 13.9409 39.1186 14.2372 39.2939C14.5928 39.4692 14.8891 39.3524 15.1261 38.9434C15.1261 38.8849 15.1854 38.8265 15.1854 38.7681C15.6002 37.7163 16.0743 36.723 16.4891 35.6713C16.5484 35.5545 16.6076 35.496 16.6669 35.3792C16.7261 35.496 16.7854 35.5545 16.8446 35.6713C17.0817 36.0803 17.2595 36.4309 17.4965 36.8399C17.7335 37.1905 18.0298 37.1905 18.3854 37.0152C18.6817 36.8399 18.7409 36.4893 18.4446 36.1388C17.9113 35.4376 17.7335 34.5612 17.615 33.6847C17.4372 31.5813 17.7335 29.5363 18.0891 27.4912C18.0891 27.3744 18.2076 27.316 18.2669 27.1991C18.3261 27.316 18.3854 27.3744 18.4446 27.4912C18.8595 28.4845 19.2743 29.5363 19.8076 30.4711C20.3409 31.3476 21.0521 32.1656 21.6446 33.042C22.6521 34.5612 23.2446 36.2556 23.5409 38.0085C23.6595 38.6512 23.7187 39.3524 23.8372 39.9951C23.8965 40.3456 24.1335 40.5209 24.4298 40.5209C24.7854 40.4625 24.9632 40.2288 24.9632 39.8782C24.9632 39.7614 24.9632 39.7029 24.9039 39.5861C24.6669 38.3591 24.4891 37.132 24.1928 35.9635C23.8372 34.5027 23.1261 33.1004 22.178 31.8734C21.6446 31.1723 21.0521 30.4711 20.578 29.7115C19.3335 27.5497 18.6224 25.2709 19.6298 22.7585C20.0446 21.7652 20.4595 20.8303 21.3484 20.1292C21.6446 19.8955 21.8817 19.6033 22.0595 19.3112C22.2965 18.9606 22.4743 18.9022 22.7706 19.1943C22.8891 19.3112 22.9484 19.3696 23.0669 19.4865C24.1928 20.8303 24.6076 22.4079 24.6076 24.1024C24.6076 25.0372 24.5484 25.9137 24.5484 26.8485C24.4891 29.1857 24.8446 31.406 25.3187 33.6847C25.5558 34.8533 26.0298 35.905 26.6817 36.8983C27.3928 37.9501 28.2224 38.8265 29.4076 39.2939C29.5854 39.3524 29.8817 39.4692 30.0595 39.3524C30.2372 39.2939 30.4743 39.0018 30.415 38.8849C30.3558 38.6512 30.178 38.3591 30.0002 38.3006C28.5187 37.5411 27.5706 36.3725 26.978 34.9117C26.9187 34.7949 26.978 34.678 26.9187 34.5612C27.0372 34.6196 27.1558 34.6196 27.2743 34.678C27.9261 35.087 28.6372 35.496 29.2891 35.8466C29.4669 35.9635 29.7039 36.0219 29.9409 36.0219C30.1187 36.0219 30.415 35.8466 30.4743 35.7297C30.5335 35.5545 30.4743 35.2623 30.3558 35.087C30.2965 34.9702 30.0595 34.9117 29.8817 34.7949C28.0447 33.9769 26.6224 32.8083 26.1484 30.8217C25.9113 29.8284 25.7928 28.8351 25.7928 27.8418C25.7335 26.0889 25.7928 24.3361 25.7928 22.5832C25.7928 22.4663 25.8521 22.4079 25.8521 22.2911C25.9113 22.3495 26.0298 22.4079 26.0891 22.4663C27.0965 23.5765 27.9854 24.6866 28.6372 25.9721C29.4669 27.6665 30.1187 29.361 29.1113 31.2307C28.9335 31.5228 29.0521 31.8734 29.3484 31.9903C29.5261 32.0487 29.8817 31.9903 30.1187 31.815C30.2965 31.6981 30.415 31.406 30.4743 31.1723C30.8891 30.179 30.8891 29.1857 30.6521 28.134C30.6521 28.0171 30.6521 27.9002 30.7113 27.7834C30.8298 27.8418 30.9484 27.8418 31.0669 27.9002C32.1335 28.6014 33.2595 29.3025 34.3261 30.0621C35.7484 31.0554 37.0521 32.1656 38.2372 33.451C38.5928 33.86 38.9484 33.86 39.2447 33.5679C39.4817 33.3342 39.4224 32.9836 39.1261 32.633C38.9484 32.4577 38.7113 32.224 38.5335 32.0487C38.6521 32.1071 38.5928 31.9903 38.5928 31.9319C38.7113 31.9319 38.7706 31.8734 38.8891 31.8734C39.3039 31.9319 39.7187 31.9903 40.1335 32.1071C40.6669 32.224 40.9632 32.0487 41.0224 31.6397C41.0817 31.2307 40.9039 30.997 40.3113 30.9386C38.7113 30.8217 37.2298 30.179 35.8076 29.4778C33.9706 28.543 32.3113 27.316 30.6521 26.0889C30.2965 25.7968 29.9409 25.5047 29.6446 25.1541C29.2298 24.6282 28.8743 23.9855 28.4595 23.4012C28.4002 23.2843 28.3409 23.1675 28.2817 23.0506C28.4002 23.0506 28.578 23.0506 28.6965 23.0506C29.7039 23.2843 30.7706 23.5765 31.778 23.7518C33.6743 24.1024 35.5706 24.3945 37.4669 24.7451C39.3039 25.0956 41.0817 25.6799 42.7409 26.4979C42.9187 26.6148 43.0965 26.7317 43.2743 26.7317C43.5113 26.7317 43.8076 26.6148 43.9261 26.4395C43.9854 26.2642 43.8669 25.9721 43.8076 25.7384C43.7484 25.6215 43.6298 25.5631 43.5113 25.5631C42.5039 25.1541 41.4372 24.6866 40.4298 24.2776C40.3113 24.2192 40.1928 24.1608 40.0743 24.1024C40.1928 24.0439 40.3113 23.9271 40.4891 23.8686C40.8447 23.6933 41.2002 23.5181 41.4965 23.3428C41.8521 23.1091 41.9706 22.7001 41.7335 22.4663C41.4965 22.1742 41.2002 22.1742 40.9039 22.3495C39.6595 23.1675 38.2965 23.2843 36.8743 23.1675C35.2743 23.0506 33.7335 22.8753 32.1335 22.7001C32.015 22.7001 31.8965 22.6416 31.7187 22.5832C31.8372 22.4663 31.9558 22.3495 32.0743 22.3495C33.0224 21.9405 34.0298 21.6483 34.9187 21.1809C35.7484 20.7719 36.4002 20.1292 37.1706 19.6033C37.5854 19.3112 38.0002 18.9606 38.415 18.7269C39.1854 18.3763 39.9558 18.0257 40.7854 17.792C43.0965 17.3246 41.0817 16.4481 40.6076 16.6234C40.1335 16.7987 38.8891 17.0909 38.178 17.4999C37.1113 18.0842 36.1039 18.9022 35.0965 19.6033C34.6817 19.8955 34.2076 20.246 33.7335 20.4213C32.9632 20.7135 32.1928 20.9472 31.4224 21.1809C29.5854 21.7068 27.8076 21.5315 26.1484 20.5382C25.7335 20.3045 25.3187 20.0123 24.9039 19.6617C24.4891 19.3112 24.1928 18.9022 23.778 18.5516" fill="white"/>
<path d="M18.326 20.655C18.2668 20.655 18.2075 20.655 18.1483 20.655H17.9705H17.852C17.4372 20.655 16.9038 20.655 16.252 20.3628L15.9557 20.246C15.6594 20.1291 15.4223 20.0122 15.126 19.8369L14.9483 19.7201C14.652 19.5448 14.2964 19.3695 13.9409 19.1358C13.8223 19.0189 13.7038 18.9021 13.5853 18.7852C13.4075 18.7268 13.2297 18.6684 13.052 18.5515C12.8742 18.4347 12.6964 18.2594 12.6372 18.1425C12.5779 18.0841 12.5186 18.0841 12.5186 18.0256C12.2816 17.8504 12.1631 17.6751 12.0446 17.5582L11.9853 17.4998L11.8075 17.3829C11.6297 17.2661 11.3334 17.0324 11.0964 16.7402C10.9779 16.5649 10.8594 16.3896 10.8001 16.2728C10.6223 16.0975 10.2668 15.8053 10.0297 15.3963L9.91123 15.1626C9.55567 14.5199 9.20012 13.8772 8.96308 13.0592L8.72604 12.358C8.54827 11.8906 8.37049 11.3647 8.25197 10.8973C8.13345 10.5467 8.07419 10.1961 7.95567 9.84557C7.89641 9.55343 7.83715 9.31971 7.71864 9.02757C7.65938 8.79385 7.60012 8.56013 7.54086 8.32642C7.54086 8.20956 7.4816 8.0927 7.4816 7.97584C7.42234 7.74213 7.42234 7.56684 7.42234 7.44998C7.36308 7.33312 7.36308 7.21626 7.30382 7.09941L7.1853 6.74883C7.12604 6.33983 7.00752 5.93082 6.94827 5.46339C6.88901 5.22967 6.82975 4.93753 6.77049 4.70381C6.65197 4.29481 6.59271 3.88581 6.47419 3.4768L6.41493 3.24308C6.29641 2.77565 5.8816 1.13964 6.17789 0.90592C6.17789 0.90592 6.53345 0.730634 7.1853 0.847492C7.95567 0.96435 8.84456 0.789062 9.14086 0.789062C9.79271 0.789062 9.73345 1.19807 9.73345 1.19807C9.79271 1.84079 9.85197 2.13293 9.91123 2.54194L9.97049 2.77565C10.0297 3.12623 10.1483 3.4768 10.2075 3.8858C10.2668 4.17795 10.326 4.41167 10.3853 4.70381C10.5038 5.17124 10.5631 5.63868 10.6816 6.10611L10.7409 6.33983C10.8001 6.45668 10.8594 6.57354 10.8594 6.74883C10.8594 6.86569 10.9186 7.04098 10.9186 7.15783C10.9779 7.33312 10.9779 7.44998 11.0372 7.62527C11.0372 7.74213 11.0964 7.91741 11.1557 8.03427C11.2742 8.32642 11.3334 8.67699 11.3927 8.96914C11.452 9.26128 11.5705 9.55343 11.6297 9.84557C11.8075 10.313 11.926 10.7804 12.1038 11.2479L12.3409 12.0074C12.5186 12.5333 12.7557 13.0007 13.052 13.5266L13.1112 13.6435C13.1112 13.6435 13.1112 13.6435 13.1705 13.7019C13.3483 13.8188 13.526 14.0525 13.7631 14.2862C13.8816 14.403 13.9409 14.5199 14.0001 14.6368C14.0594 14.6952 14.1186 14.7536 14.1779 14.7536C14.3557 14.9289 14.5335 15.1042 14.652 15.2211C14.652 15.2211 14.652 15.2795 14.7112 15.2795C14.8297 15.3379 14.9483 15.3963 15.0668 15.5132C15.126 15.5716 15.126 15.5716 15.1853 15.6301C15.3038 15.6885 15.4816 15.7469 15.6001 15.8638C15.8372 16.0391 16.0149 16.2143 16.1334 16.3312L16.1927 16.3896C16.252 16.4481 16.4297 16.5065 16.6075 16.6233C16.726 16.6818 16.7853 16.7402 16.9038 16.7402C17.0816 16.8571 17.3186 16.9155 17.4964 17.0324C17.6149 17.0908 17.6742 17.1492 17.7927 17.1492C17.852 17.1492 17.9112 17.1492 17.9705 17.1492H18.089H18.2668C18.3853 17.1492 18.5631 17.1492 18.6223 17.1492C19.1557 16.9155 19.8075 16.5649 20.3409 16.1559C20.5186 16.0391 20.6964 15.8638 20.8742 15.7469L21.1705 15.5132C21.2297 15.4548 21.2297 15.4548 21.289 15.3963C21.3483 15.2795 21.4668 15.1042 21.5853 14.9289C21.9409 14.5199 22.1779 13.994 22.4742 13.3513C22.5927 13.1176 22.7112 12.8839 22.7705 12.7086C22.8297 12.5917 22.889 12.5333 22.889 12.4165C23.0075 12.1827 23.0668 11.949 23.1853 11.7153C23.2446 11.5984 23.3038 11.4816 23.3038 11.4232L23.4816 11.0726C23.7186 10.6052 23.8964 10.1961 24.0149 9.78714C24.1335 9.37814 24.252 8.96914 24.3705 8.56013C24.3705 8.5017 24.3705 8.44327 24.3705 8.38484C24.3705 8.20956 24.3705 7.91741 24.489 7.62527C24.489 7.56684 24.489 7.50841 24.489 7.39155C24.489 7.15784 24.489 6.80726 24.5483 6.45668C24.5483 6.2814 24.6075 6.16454 24.6075 5.98925C24.6075 5.81397 24.6668 5.58025 24.726 5.40496C24.726 5.2881 24.726 5.11282 24.726 4.8791C24.726 4.4701 24.726 4.00266 24.8446 3.4768C24.8446 3.41837 24.8446 3.35994 24.8446 3.24308C24.8446 3.0678 24.8446 2.89251 24.8446 2.77565C24.8446 2.30822 24.9631 2.01607 24.9631 1.49021C24.9631 1.13964 25.6149 1.19807 25.6149 1.19807C25.6149 1.19807 26.0297 1.19807 26.4446 1.19807C26.8001 1.19807 27.0964 1.19807 27.0964 1.19807H27.8075C27.8075 1.19807 28.5779 1.08121 28.5779 1.31492C28.5779 1.60707 28.4594 2.48351 28.4594 2.83408C28.4594 2.89251 28.4594 3.00937 28.4594 3.0678C28.4594 3.35994 28.5186 3.82738 28.4001 4.29481C28.4001 4.41167 28.4001 4.64538 28.4001 4.82067C28.4001 5.17125 28.4001 5.58025 28.3409 6.04768C28.3409 6.22297 28.2816 6.33983 28.2816 6.51512C28.2816 6.6904 28.2223 6.92412 28.1631 7.09941C28.1631 7.15784 28.1631 7.27469 28.1631 7.33312C28.1631 7.62527 28.1631 7.97584 28.1038 8.44328C28.1038 8.5017 28.1038 8.56013 28.1038 8.61856C28.1038 8.85228 28.1038 9.20285 27.9853 9.55343C27.8668 9.96243 27.7483 10.313 27.689 10.722C27.5112 11.4232 27.2149 12.0074 26.9779 12.5917L26.8594 12.9423C26.8001 13.0592 26.7409 13.176 26.6816 13.3513C26.6223 13.5266 26.5038 13.7019 26.4446 13.8188C26.326 14.1109 26.2075 14.3446 26.089 14.5199C26.0298 14.5783 25.9705 14.6952 25.9705 14.7536C25.6149 15.6301 25.2001 16.3896 24.726 17.0324C24.6075 17.2076 24.5483 17.3829 24.3705 17.6166C24.1927 17.7919 24.0149 18.0256 23.7186 18.2009L23.4816 18.4347C23.2446 18.6099 23.0075 18.8437 22.7705 19.0189C22.0001 19.6032 21.1112 20.1291 20.1631 20.4797C19.2149 20.655 18.7409 20.655 18.326 20.655Z" fill="white"/>
<path d="M27.748 20.772C27.4517 20.772 27.0962 20.772 26.7406 20.6551L26.4443 20.5967C25.7332 20.4798 24.9628 20.3045 24.1332 19.8955C23.3628 19.4865 22.7702 19.0191 22.2369 18.5517C22.0591 18.3764 21.8814 18.2595 21.7036 18.0842C21.111 17.6168 20.6962 16.9741 20.3406 16.5066C20.2221 16.3313 20.1036 16.1561 19.9851 15.9808C19.6295 15.5718 19.4517 15.1043 19.3332 14.7538C19.3332 14.6953 19.274 14.6369 19.2147 14.52C19.1554 14.4032 19.1554 14.3448 19.0962 14.2279C19.0369 14.0526 18.9184 13.9357 18.8591 13.7605C18.5628 13.1177 18.3851 12.5334 18.2073 11.8907L18.0295 11.4233C18.0295 11.3649 17.9702 11.248 17.911 11.1896C17.7925 10.9559 17.674 10.7221 17.5554 10.3716C17.4962 10.2547 17.4962 10.1379 17.4369 10.021C17.3777 9.84571 17.3184 9.72885 17.2591 9.55356L17.1406 9.20299C16.9628 8.67713 16.7851 8.15127 16.6665 7.56697C16.548 6.92425 16.4295 6.33996 16.311 5.63881C16.311 5.52195 16.2517 5.4051 16.2517 5.22981C16.1925 5.05452 16.1925 4.93766 16.1332 4.76238C16.1332 4.70395 16.074 4.52866 16.074 4.35337C16.074 4.23651 16.0147 4.11966 16.0147 4.0028C15.8962 3.47693 15.8369 1.95778 15.8369 1.54877C15.8369 1.13977 16.7851 1.1982 16.7851 1.1982C16.7851 1.1982 17.5554 1.37349 17.8517 1.37349C18.2665 1.37349 19.3925 1.13977 19.3925 1.54877C19.3925 1.95778 19.4517 3.12636 19.511 3.30165C19.5702 3.47693 19.5702 3.65222 19.6295 3.88594C19.6295 4.0028 19.6888 4.11965 19.6888 4.23651C19.6888 4.35337 19.748 4.47023 19.748 4.52866C19.8073 4.76238 19.8665 4.93766 19.8665 5.17138C19.9851 5.8141 20.0443 6.33996 20.1628 6.92425C20.2814 7.33326 20.3999 7.74226 20.5184 8.20969L20.6369 8.6187C20.6962 8.73556 20.6962 8.85241 20.7554 8.96927C20.8147 9.14456 20.874 9.26142 20.9332 9.43671C20.9332 9.49514 20.9925 9.61199 21.0517 9.67042C21.1702 9.84571 21.2888 10.1379 21.4073 10.43L21.5851 10.9559C21.7628 11.4817 21.9406 12.0076 22.1184 12.4166C22.1777 12.5335 22.1777 12.5919 22.2369 12.6503C22.3554 12.8256 22.4147 13.0009 22.474 13.1762C22.5332 13.293 22.5925 13.4099 22.5925 13.4683C22.6517 13.5852 22.711 13.7605 22.7702 13.8189C23.0073 14.0526 23.1851 14.3448 23.3036 14.5785C23.5406 14.929 23.7184 15.2212 23.8962 15.338C24.1332 15.5133 24.311 15.6886 24.548 15.9223C24.9628 16.2729 25.3184 16.6235 25.674 16.7988C26.0295 16.9741 26.5628 17.0909 27.0962 17.2078L27.4517 17.2662C27.511 17.2662 27.6888 17.2662 27.8665 17.2662C27.9258 17.2662 27.9258 17.2662 27.9851 17.2662C28.2814 17.2078 28.5777 17.2078 28.7554 17.2078C28.8147 17.2078 28.9332 17.1494 28.9925 17.0909C29.111 17.0325 29.1702 16.9741 29.2888 16.9741C29.4665 16.9156 29.7036 16.7403 29.8814 16.6235C30.0591 16.5066 30.1777 16.3898 30.3554 16.3313C30.4739 16.2145 30.5925 16.1561 30.6517 16.0976C30.8295 15.9223 31.1258 15.6302 31.2443 15.3965C31.2443 15.3965 31.3036 15.2212 31.3628 15.1628C31.4221 14.9875 31.5406 14.7538 31.6591 14.4616C31.7184 14.3448 31.7777 14.2863 31.7777 14.2279C31.8962 13.9357 32.0147 13.702 32.1332 13.5267C32.1332 13.4683 32.1925 13.4683 32.1925 13.4099C32.311 13.2346 32.3702 12.9425 32.4295 12.6503C32.4888 12.3582 32.6073 12.0076 32.7851 11.657C32.8443 11.4233 32.9628 11.248 33.0221 11.0727C33.0814 10.839 33.1406 10.6637 33.1999 10.4884C33.2591 10.3131 33.3184 10.1379 33.3777 9.90414C33.4369 9.67042 33.4962 9.43671 33.5554 9.20299C33.6147 9.08613 33.6739 8.91084 33.6739 8.79399L33.7925 8.38498C33.8517 8.15126 33.911 7.85912 33.9702 7.6254L34.0295 7.33326C34.0888 7.04111 34.148 6.74897 34.2073 6.39839C34.2665 6.16468 34.3258 5.93096 34.3258 5.69724C34.3258 5.34667 34.3851 4.99609 34.4443 4.76238C34.5036 4.64552 34.5036 4.47023 34.5036 4.4118C34.5036 4.23651 34.5036 4.0028 34.5036 3.82751C34.5036 3.65222 34.5036 3.53536 34.5036 3.36008V2.54207C34.5036 2.42521 34.5036 2.30835 34.4443 2.24992C34.3851 2.01621 34.5036 1.72406 34.5036 1.54877C34.5036 1.08134 35.0962 1.25663 35.6295 1.31506C36.0443 1.31506 36.2814 1.43192 36.6369 1.43192C37.111 1.49034 37.5258 1.49034 37.5851 1.49034C38.0591 1.49034 37.9406 1.66563 37.9406 1.78249C37.9406 2.01621 37.9999 2.24992 37.9999 2.54207V3.36008C37.9999 3.47693 37.9999 3.59379 37.9999 3.71065C37.9999 4.0028 37.9999 4.35337 37.9999 4.64552C37.9999 4.93766 37.9406 5.22981 37.8814 5.46353C37.8221 5.63881 37.8221 5.75567 37.8221 5.8141C37.8221 6.28153 37.7036 6.8074 37.5851 7.27483C37.5258 7.45012 37.5258 7.6254 37.4665 7.85912L37.4073 8.15127C37.348 8.50184 37.2888 8.79399 37.1702 9.14456L37.111 9.49514C37.0517 9.72885 36.9925 10.021 36.8739 10.2547C36.8147 10.3716 36.7554 10.5469 36.7554 10.6637C36.6962 10.9559 36.6369 11.1896 36.5184 11.4817C36.4591 11.657 36.3999 11.7739 36.3999 11.9492C36.2814 12.2997 36.1628 12.6503 36.0443 12.9425C35.9851 13.1177 35.9258 13.3515 35.8665 13.5852C35.748 13.9942 35.6295 14.4616 35.3925 14.929C35.3332 15.0459 35.274 15.1628 35.2147 15.2796C35.2147 15.338 35.1554 15.338 35.1554 15.3965C35.0369 15.6886 34.9184 15.9808 34.7999 16.1561C34.7406 16.2145 34.7406 16.3313 34.6814 16.3898C34.5628 16.6819 34.4443 17.0325 34.148 17.3831C33.8517 17.7921 33.4369 18.2011 33.1406 18.4932C32.8443 18.7854 32.548 19.0191 32.2517 19.1944C32.1925 19.2528 32.0739 19.3112 32.0147 19.3697C31.5406 19.7202 31.1258 19.954 30.6517 20.1877C30.5925 20.2461 30.5332 20.2461 30.474 20.3045C30.1777 20.4214 29.8221 20.6551 29.348 20.7135C29.0517 20.772 28.8147 20.772 28.6369 20.772C28.4591 20.8304 28.2814 20.8888 27.9851 20.8888C27.9851 20.772 27.8665 20.772 27.748 20.772Z" fill="white"/>
</svg>
