<svg width="350" height="600" viewBox="0 0 350 600" fill="none" xmlns="http://www.w3.org/2000/svg">
<g opacity="0.8">
<path d="M175 586C233.542 586 281 558.689 281 525C281 491.311 233.542 464 175 464C116.458 464 69 491.311 69 525C69 558.689 116.458 586 175 586Z" fill="#707918" fill-opacity="0.3"/>
</g>
<path d="M240.174 368.996L192.906 396.996L176.166 386.996L223.433 358.996L240.174 368.996Z" fill="#A98B5D"/>
<path d="M192.906 415.995L240.173 388.995V368.995L192.906 395.995V415.995Z" fill="#CDB694"/>
<path d="M176.166 386.997V405.997L192.906 415.997V396.997L176.166 386.997Z" fill="#A98B5D"/>
<path d="M120.039 407.999L156.474 428.999L170.26 420.999L133.825 399.999L120.039 407.999Z" fill="#CDB694"/>
<path d="M156.474 444.002L120.039 423.002V408.002L156.474 429.002V444.002Z" fill="#A98B5D"/>
<path d="M170.261 420.996V435.996L156.475 443.996V428.996L170.261 420.996Z" fill="#A98B5D"/>
<path d="M120.039 407.995L133.825 414.995L146.626 407.995V332.995L133.825 325.995L120.039 332.995V407.995Z" fill="#A98B5D"/>
<path d="M133.824 325.995L146.625 332.995V407.995L133.824 414.995V325.995Z" fill="#CDB694"/>
<path d="M192.908 526.996L174.198 537.996L154.503 526.996V217.996L174.198 205.996L192.908 217.996V526.996Z" fill="#CDB694"/>
<path d="M174.198 205.996L154.503 217.996V526.996L174.198 537.996V205.996Z" fill="#A98B5D"/>
<path d="M240.178 368.995L223.437 378.995L205.712 368.995V273.995L222.452 263.995L240.178 273.995V368.995Z" fill="#CDB694"/>
<path d="M223.437 263.995H222.452L205.712 273.995V368.995L223.437 378.995V263.995Z" fill="#A98B5D"/>
<g clip-path="url(#clip0)">
<path d="M167.943 363.711L157.682 357.6V366.155L167.943 372.266V363.711Z" fill="#634C3C"/>
</g>
<path d="M235.375 360.556L223.648 366.858L211.92 360.556V351.733L223.648 358.035L235.375 351.733V360.556Z" fill="#7C6552"/>
<path d="M223.648 358.035L211.92 351.733V360.556L223.648 366.858V358.035Z" fill="#634C3C"/>
<path d="M189.426 468.723L174.287 476.858L159.148 468.723V457.333L174.287 465.468L189.426 457.333V468.723Z" fill="#7C6552"/>
<path d="M174.287 465.468L159.148 457.333V468.723L174.287 476.858V465.468Z" fill="#634C3C"/>
<path d="M189.426 396.856L174.287 404.992L159.148 396.856V385.467L174.287 393.602L189.426 385.467V396.856Z" fill="#7C6552"/>
<path d="M174.287 393.602L159.148 385.467V396.856L174.287 404.992V393.602Z" fill="#634C3C"/>
<path d="M145.955 398.689L134.227 404.991L122.5 398.689V389.866L134.227 396.168L145.955 389.866V398.689Z" fill="#7C6552"/>
<path d="M134.227 396.168L122.5 389.866V398.689L134.227 404.991V396.168Z" fill="#634C3C"/>
<path d="M316 289L187 364L58 289V108L186.015 32L316 108V289Z" fill="#3A8438"/>
<path d="M187 32V364L316 288V107L187 32Z" fill="#468E44"/>
<path d="M185.031 176L58 108L186.015 32L316 108L185.031 176Z" fill="#55A053"/>
<path d="M161.397 376L118.068 401L74.7402 376V315L118.068 290L161.397 315V376Z" fill="#3A8438"/>
<path d="M118.067 290V401L161.395 376V315L118.067 290Z" fill="#468E44"/>
<path d="M118.068 338L74.7402 315L118.068 290L161.397 315L118.068 338Z" fill="#55A053"/>
<g clip-path="url(#clip1)">
<path d="M165.011 415.045L154.75 408.934V417.489L165.011 423.6V415.045Z" fill="#634C3C"/>
</g>
<g clip-path="url(#clip2)">
<path d="M148.886 428.245L138.625 422.134V430.689L148.886 436.8V428.245Z" fill="#634C3C"/>
</g>
<g clip-path="url(#clip3)">
<path d="M132.761 412.111L122.5 406V414.556L132.761 420.667V412.111Z" fill="#634C3C"/>
</g>
<path d="M172.341 444.378L162.08 438.267V446.822L172.341 452.933V444.378Z" fill="#634C3C"/>
<path d="M166.477 483.734L154.75 476.4V486.667L166.477 494V483.734Z" fill="#634C3C"/>
<path d="M170.875 503.9L160.614 498.4V506.1L170.875 511.6V503.9Z" fill="#634C3C"/>
<path d="M166.477 521.5L156.216 516V523.7L166.477 529.2V521.5Z" fill="#634C3C"/>
<path d="M181.136 439.123L192.864 432.4V441.812L181.136 448.534V439.123Z" fill="#7C6552"/>
<path d="M173.807 419.2L187 411.866V422.133L173.807 429.466V419.2Z" fill="#7C6552"/>
<path d="M197.262 395.366L207.523 389.866V397.566L197.262 403.066V395.366Z" fill="#7C6552"/>
<path d="M178.204 373.366L188.466 367.866V375.566L178.204 381.066V373.366Z" fill="#7C6552"/>
<path d="M222.182 389.5L232.443 384V391.7L222.182 397.2V389.5Z" fill="#7C6552"/>
<path d="M176.739 490.7L187 485.2V492.9L176.739 498.4V490.7Z" fill="#7C6552"/>
<path d="M178.205 512.456L191.398 505.733V515.145L178.205 521.867V512.456Z" fill="#7C6552"/>
<defs>
<clipPath id="clip0">
<rect width="10.2614" height="14.6667" fill="white" transform="translate(157.682 357.6)"/>
</clipPath>
<clipPath id="clip1">
<rect width="10.2614" height="14.6667" fill="white" transform="translate(154.75 408.934)"/>
</clipPath>
<clipPath id="clip2">
<rect width="10.2614" height="14.6667" fill="white" transform="translate(138.625 422.134)"/>
</clipPath>
<clipPath id="clip3">
<rect width="10.2614" height="14.6667" fill="white" transform="translate(122.5 406)"/>
</clipPath>
</defs>
</svg>
