<svg width="100" height="160" viewBox="0 0 100 160" fill="none" xmlns="http://www.w3.org/2000/svg">
<path d="M40.2127 73.1646C36.6768 81.1009 41.9807 84.4424 42.1575 107.833C42.3343 122.035 42.3343 129.136 41.2735 137.072C40.2127 144.382 38.9751 149.185 41.2735 153.362C44.279 158.584 51.3508 161.716 55.0636 159.001C58.0691 156.704 57.3619 151.274 57.0083 134.357C56.8315 124.959 56.8315 117.858 57.0083 103.448C57.1851 83.1893 58.0691 77.7593 60.721 72.1204C64.0801 65.4372 67.616 63.1399 66.9089 61.4691C65.1409 57.9187 46.047 60.4249 40.2127 73.1646Z" fill="url(#paint0_linear)"/>
<path d="M23.7805 88.1495C18.5037 83.4605 13.0509 85.805 11.1161 82.3784C9.00535 78.4108 15.1617 73.9022 13.4027 69.0328C11.292 63.6224 2.14547 65.0652 1.0901 60.7369C0.386518 58.0317 3.90441 56.5889 8.12589 48.6536C10.5884 43.9646 12.3474 40.538 11.1161 37.2918C9.70893 33.6849 6.01514 34.4063 4.43209 30.7993C2.14545 25.93 5.48747 17.2733 10.4125 16.7323C13.4027 16.3716 15.1617 20.8803 16.7447 20.1589C18.6796 19.2571 14.9858 12.404 17.8001 6.81323C20.4385 1.76353 28.1779 -1.48271 33.2788 0.681446C38.3798 2.8456 38.9074 9.51843 42.2494 9.33809C45.4156 9.15774 45.5915 3.2063 50.3406 1.40283C54.0344 -0.039938 58.9595 1.76353 61.7738 4.82942C66.5229 9.69878 63.1809 15.8306 67.4024 18.8964C71.0962 21.6016 74.6141 17.634 81.1222 19.9785C85.6955 21.6017 90.0928 25.7496 91.5 30.619C93.2589 36.3901 89.5651 38.0132 90.4446 45.0467C91.3241 53.3426 96.7768 54.064 97.8322 62.5403C98.0081 63.4421 98.8876 73.0004 93.7866 76.9681C89.5651 80.2143 84.9919 77.1484 82.3535 80.3946C79.715 83.4605 83.057 87.4281 80.4186 91.7565C78.132 95.5437 72.8552 97.1669 68.9855 96.9865C60.7184 96.6258 60.0148 88.3299 52.2755 87.0675C42.2495 85.4443 34.686 98.0686 28.5297 94.642C26.0672 93.3796 27.2984 91.2154 23.7805 88.1495Z" fill="url(#paint1_linear)"/>
<defs>
<linearGradient id="paint0_linear" x1="53" y1="60" x2="53" y2="160" gradientUnits="userSpaceOnUse">
<stop offset="0.117214" stop-color="#583F31"/>
<stop offset="0.432292" stop-color="#B57B5A"/>
<stop offset="1" stop-color="#A77C63"/>
</linearGradient>
<linearGradient id="paint1_linear" x1="49.5" y1="0" x2="49.5" y2="97" gradientUnits="userSpaceOnUse">
<stop stop-color="#9EC660"/>
<stop offset="1" stop-color="#6C9A26"/>
</linearGradient>
</defs>
</svg>
