<svg width="350" height="600" viewBox="0 0 350 600" fill="none" xmlns="http://www.w3.org/2000/svg">
<g clip-path="url(#clip0)">
<path d="M191.775 528.533L175.317 538.002L158.227 528.533V264.009L175.317 254.539L191.775 264.009V528.533Z" fill="#B1944A"/>
<path d="M175.317 254.539L158.227 264.009V528.533L175.317 538.002V254.539Z" fill="#957625"/>
<path d="M269 402.265L175.316 456.558L81 402.265V317.668L174.684 263.374L269 317.668V402.265Z" fill="#2F8671"/>
<path d="M175.316 263.374V456.558L268.999 402.265V317.668L175.316 263.374Z" fill="#429581"/>
<path d="M175.316 366.911L81 317.668L174.684 263.374L269 317.668L175.316 366.911Z" fill="#4FA892"/>
<path d="M240.516 317.036L175.317 354.284L110.119 317.036V240.646L174.684 203.398L240.516 240.646V317.036Z" fill="#2F8671"/>
<path d="M175.316 203.398V354.284L240.515 316.405V240.646L175.316 203.398Z" fill="#429581"/>
<path d="M175.317 274.738L110.119 240.646L174.684 203.398L240.516 240.646L175.317 274.738Z" fill="#4FA892"/>
<path d="M213.928 239.385L175.315 262.113L136.703 239.385V173.096L174.682 151L213.928 173.096V239.385Z" fill="#2F8671"/>
<path d="M175.316 151V262.113L213.929 239.385V173.096L175.316 151Z" fill="#429581"/>
<path d="M175.315 193.299L136.703 173.096L174.682 151L213.928 173.096L175.315 193.299Z" fill="#4FA892"/>
</g>
<path opacity="0.8" d="M174.5 564C210.675 564 240 546.763 240 525.5C240 504.237 210.675 487 174.5 487C138.325 487 109 504.237 109 525.5C109 546.763 138.325 564 174.5 564Z" fill="#707918" fill-opacity="0.3"/>
<defs>
<clipPath id="clip0">
<rect width="188" height="387" fill="white" transform="translate(81 151)"/>
</clipPath>
</defs>
</svg>
