<svg width="350" height="600" viewBox="0 0 350 600" fill="none" xmlns="http://www.w3.org/2000/svg">
<g clip-path="url(#clip0)">
<path d="M181.906 528.816L174.64 533L167.095 528.816V411.933L174.64 407.749L181.906 411.933V528.816Z" fill="#B1944A"/>
<path d="M174.64 407.749L167.095 411.933V528.816L174.64 533V407.749Z" fill="#957625"/>
<path d="M216 473.024L174.64 497.014L133 473.024V435.644L174.36 411.653L216 435.644V473.024Z" fill="#2F8671"/>
<path d="M174.64 411.653V497.014L216 473.024V435.644L174.64 411.653Z" fill="#429581"/>
<path d="M174.64 457.402L133 435.644L174.36 411.653L216 435.644L174.64 457.402Z" fill="#4FA892"/>
<path d="M203.424 435.364L174.64 451.823L145.855 435.364V401.611L174.361 385.152L203.424 401.611V435.364Z" fill="#2F8671"/>
<path d="M174.64 385.152V451.823L203.424 435.085V401.611L174.64 385.152Z" fill="#429581"/>
<path d="M174.64 416.674L145.855 401.611L174.361 385.152L203.424 401.611L174.64 416.674Z" fill="#4FA892"/>
</g>
<path d="M175 546.652C194.882 546.652 211 537.25 211 525.652C211 514.054 194.882 504.652 175 504.652C155.118 504.652 139 514.054 139 525.652C139 537.25 155.118 546.652 175 546.652Z" fill="#707918" fill-opacity="0.3"/>
<defs>
<clipPath id="clip0">
<rect width="83" height="171" fill="white" transform="translate(133 362)"/>
</clipPath>
</defs>
</svg>
