<svg width="350" height="600" viewBox="0 0 350 600" fill="none" xmlns="http://www.w3.org/2000/svg">
<path d="M174.5 564C210.675 564 240 546.763 240 525.5C240 504.237 210.675 487 174.5 487C138.325 487 109 504.237 109 525.5C109 546.763 138.325 564 174.5 564Z" fill="#707918" fill-opacity="0.3"/>
<path d="M232.676 382.012L205.341 398.013L178.673 382.012V344.676L205.341 329.342L232.676 344.676V382.012Z" fill="#5E9E4C"/>
<path d="M205.34 329.341V398.012L232.675 382.011V344.675L205.34 329.341Z" fill="#79BC68"/>
<path d="M205.341 359.344L178.673 344.676L205.341 329.342L232.676 344.676L205.341 359.344Z" fill="#8EC57B"/>
<path d="M183.339 525.357L175.339 530.024L167.338 525.357V228.671L175.339 224.004L183.339 228.671V525.357Z" fill="#B17F4A"/>
<path d="M175.339 224.004L167.338 228.671V525.357L175.339 530.024V224.004Z" fill="#936037"/>
<path d="M240.01 300.676L175.339 338.678L110.668 300.676V211.337L174.673 174.001L240.01 211.337V300.676Z" fill="#5E9E4C"/>
<path d="M175.34 174V338.011L240.011 300.675V211.336L175.34 174Z" fill="#79BC68"/>
<path d="M174.673 245.339L110.668 211.337L174.673 174.001L240.01 211.337L174.673 245.339Z" fill="#8EC57B"/>
<path d="M175.339 412.68L132.669 437.349L90 412.68V354.01L132.669 329.342L175.339 354.01V412.68Z" fill="#5E9E4C"/>
<path d="M132.67 329.341V437.348L175.339 412.68V354.009L132.67 329.341Z" fill="#79BC68"/>
<path d="M132.391 375.783L90 354.01L132.669 329.342L175.339 354.01L132.391 375.783Z" fill="#8EC57B"/>
</svg>
