<svg width="95" height="92" viewBox="0 0 95 92" fill="none" xmlns="http://www.w3.org/2000/svg">
<path d="M74.349 15.3675L58.0853 4.98215C52.5749 1.46349 45.9203 0.204208 39.5052 1.46618L26.8306 3.95956C22.2808 4.85461 19 8.84363 19 13.4806C19 16.0542 17.9777 18.5223 16.1579 20.3421L11.9942 24.5058C11 25.5 10.0954 26.5799 9.29088 27.7331L6.91843 31.1336C-0.15345 41.2699 -1.31664 54.3973 3.86271 65.6192C6.25097 70.7938 9.87386 75.3024 14.4129 78.7487L17.746 81.2794C28.4605 89.4145 42.0012 92.8887 55.3089 90.9172L61.6141 89.9831C70.2721 88.7004 78.2226 84.4704 84.1242 78.0069C91.657 69.7566 95.1809 58.6113 93.7603 47.5301L93.5123 45.5958C91.9202 33.1775 84.9011 22.1055 74.349 15.3675Z" stroke="white" stroke-linejoin="round"/>
</svg>
