<svg width="151" height="35" viewBox="0 0 151 35" fill="none" xmlns="http://www.w3.org/2000/svg">
<path d="M5.78646 12.6456C5.44905 13.101 4.98512 13.5356 4.77425 14.0531C4.18379 15.564 3.71986 17.1163 3.19267 18.648C2.87636 19.5794 2.18046 19.9726 1.2526 19.8071C0.430184 19.6622 -0.181359 18.9585 0.050606 18.0271C0.619973 15.7917 1.33695 13.5977 2.05394 11.4038C2.18046 10.9898 2.64439 10.6172 3.06614 10.3896C4.64772 9.52025 6.25038 8.63024 7.91631 7.90582C8.61221 7.61605 9.49789 7.53326 10.236 7.65745C11.5434 7.88512 12.2393 8.96141 12.0706 10.2654C11.691 13.2045 11.2482 16.1435 10.9319 19.0826C10.8686 19.5587 11.1006 20.3452 11.4801 20.5729C14.3059 22.2287 15.4024 24.6503 15.3814 27.7964C15.3814 29.4522 15.7188 31.0874 15.8875 32.7432C16.014 33.9437 15.3603 34.7923 14.2004 34.9372C12.9141 35.1234 12.0495 34.5439 11.9019 33.2606C11.6488 31.1288 11.5645 28.9969 11.3114 26.865C11.2482 26.3062 10.974 25.6645 10.5734 25.2713C9.6455 24.3399 8.65438 23.4292 7.55782 22.7048C5.59667 21.4008 5.13274 19.6415 5.51232 17.4889C5.78646 15.9573 5.93407 14.4256 6.14495 12.894C6.01842 12.7905 5.89189 12.7284 5.78646 12.6456Z" fill="#F6F6F6"/>
<path d="M5.38543 22.0215C6.48199 22.9943 7.47311 23.8429 8.40097 24.7536C8.56967 24.9192 8.56967 25.3952 8.46423 25.6643C7.59963 28.355 6.69286 31.025 5.78609 33.6951C5.4276 34.7299 4.54192 35.1646 3.44536 34.9162C2.36989 34.6678 1.674 33.7364 1.92705 32.6809C2.24336 31.4183 2.66512 30.1764 3.06578 28.9139C3.84603 26.6785 4.60518 24.4431 5.38543 22.0215Z" fill="#F6F6F6"/>
<path d="M10.8268 0C12.6614 0 14.1375 1.42815 14.1165 3.18746C14.0954 4.96747 12.6192 6.39562 10.7846 6.37493C8.99216 6.35423 7.57928 4.98817 7.53711 3.22886C7.53711 1.42815 8.99216 0 10.8268 0Z" fill="#F6F6F6"/>
<path d="M12.9349 12.3145C14.875 13.784 16.7096 15.1294 18.5021 16.5575C19.1347 17.0543 19.1558 17.9029 18.6497 18.4203C18.249 18.855 17.2579 19.3517 16.8994 19.1654C15.36 18.3168 13.9471 17.2198 12.5132 16.1849C12.4077 16.1229 12.3867 15.8745 12.4077 15.7089C12.5764 14.6326 12.7451 13.5563 12.9349 12.3145Z" fill="#F6F6F6"/>
<path d="M5.38543 22.0215C6.48199 22.9943 7.47311 23.8429 8.40097 24.7536C8.56967 24.9192 8.56967 25.3952 8.46423 25.6643C7.59963 28.355 6.69286 31.025 5.78609 33.6951C5.4276 34.7299 4.54192 35.1646 3.44536 34.9162C2.36989 34.6678 1.674 33.7364 1.92705 32.6809C2.24336 31.4183 2.66512 30.1764 3.06578 28.9139C3.84603 26.6785 4.60518 24.4431 5.38543 22.0215Z" fill="white"/>
<path d="M8.5486 0.888672C7.91597 1.46821 7.53639 2.29612 7.55748 3.22752C7.57856 4.11753 7.95814 4.92474 8.5486 5.48359V0.888672Z" fill="white"/>
<path d="M8.54913 7.69922C8.31717 7.74061 8.10629 7.82341 7.9165 7.9062C6.25057 8.63062 4.64791 9.52063 3.06633 10.3899C2.66567 10.6176 2.20174 10.9902 2.05413 11.4041C1.33714 13.5981 0.641251 15.7921 0.0507962 18.0274C-0.181168 18.9381 0.409287 19.6419 1.25279 19.8074C2.18065 19.973 2.87655 19.5798 3.19286 18.6484C3.72005 17.1167 4.18398 15.5644 4.77444 14.0534C4.96423 13.536 5.42815 13.122 5.78664 12.646C5.91317 12.7081 6.01861 12.7909 6.14514 12.853C5.93426 14.3846 5.78664 15.9369 5.51251 17.4479C5.13293 19.6212 5.59686 21.3598 7.55801 22.6637C7.89541 22.8914 8.23282 23.1398 8.54913 23.3882V7.69922Z" fill="white"/>
<path d="M62.0724 4.52406C61.4594 4.92413 61.1338 5.34324 61.1338 5.76236C61.1338 7.22927 65.4437 8.86763 71.6116 8.86763C77.7796 8.86763 82.0895 7.22927 82.0895 5.76236C82.0895 5.34324 81.7639 4.92413 81.1509 4.52406C79.312 3.60962 75.73 3 71.6308 3C67.4741 3 63.9113 3.62868 62.0724 4.52406Z" fill="#F6F6F6"/>
<path d="M79.3698 9.38196C77.2819 10.0487 74.5235 10.4298 71.5928 10.4298C68.6621 10.4298 65.9037 10.0678 63.8158 9.38196C62.5133 8.96285 61.5747 8.44848 61 7.87695L65.0226 27.5373C65.0226 28.8518 67.9533 29.8996 71.5928 29.8996C75.2323 29.8996 78.163 28.8328 78.163 27.5373L82.1856 7.87695C81.6109 8.44848 80.6723 8.96285 79.3698 9.38196Z" fill="#F6F6F6"/>
<path d="M62.0148 4.52406C61.4018 4.92413 61.0762 5.34324 61.0762 5.76236C61.0762 7.22927 65.3861 8.86763 71.554 8.86763V3C67.4165 3 63.8345 3.62868 62.0148 4.52406Z" fill="white"/>
<path d="M71.5928 10.4298C68.6621 10.4298 65.9037 10.0678 63.8158 9.38196C62.5133 8.96285 61.5747 8.44848 61 7.87695L65.0226 27.5373C65.0226 28.8518 67.9533 29.8996 71.5928 29.8996V10.4298Z" fill="white"/>
<path d="M120.951 20.6848C120.043 20.6392 119.271 20.5936 118 20.5481C120.179 17.5394 122.131 14.8042 124.311 11.75C126.444 14.6675 128.442 17.4026 130.576 20.3657C129.759 20.5481 129.168 20.6392 128.578 20.776C130.712 26.2463 135.116 28.5256 141.699 27.6595C139.974 30.1211 135.615 31.5342 131.393 30.7137C125.9 29.7108 122.495 26.2007 120.951 20.6848Z" fill="#F6F6F6"/>
<path d="M144.014 23.2377C141.88 20.2746 139.883 17.5395 137.749 14.5764C138.566 14.4396 139.111 14.3485 139.656 14.2573C140.7 10.6104 132.346 6.27976 126.354 7.37382C130.803 2.35938 140.246 3.04317 144.65 8.78698C145.422 9.78987 146.057 10.9295 146.557 12.1147C147.555 14.3485 147.51 14.3485 150.189 14.4852C148.146 17.4483 146.148 20.1834 144.014 23.2377Z" fill="#F6F6F6"/>
<path d="M133.345 4C130.667 4.22793 128.124 5.32199 126.354 7.32776C128.533 6.91749 131.075 7.28218 133.345 8.01155V4Z" fill="white"/>
<path d="M133.345 26.4749C131.211 25.3352 129.577 23.4206 128.533 20.7311C129.123 20.5943 129.713 20.5031 130.53 20.3208C128.397 17.3577 126.399 14.6682 124.265 11.7051C122.131 14.7137 120.179 17.4945 118 20.5031C119.317 20.5487 120.043 20.5943 120.951 20.6399C122.495 26.1558 125.9 29.6203 131.348 30.7144C132.029 30.8511 132.664 30.8967 133.3 30.9423V26.4749H133.345Z" fill="white"/>
</svg>
