<svg width="170" height="250" viewBox="0 0 170 250" fill="none" xmlns="http://www.w3.org/2000/svg">
<path d="M85.2744 114.777L28.001 81.66L85.2744 48.543L142.583 81.66L85.2744 114.777Z" fill="#B9C95E"/>
<path d="M85.2734 136.867L28 103.75V81.6602L85.2734 114.777V136.867Z" fill="#936037"/>
<path d="M85.2734 136.867L142.582 103.75V81.6602L85.2734 114.777V136.867Z" fill="#B17F4A"/>
<path d="M85.2734 120.326L28 87.2091V81.6602L85.2734 114.777V120.326Z" fill="#A5AE44"/>
<path d="M85.2734 120.326L142.582 87.1738V81.6602L85.2734 114.777V120.326Z" fill="#CED67B"/>
<path d="M85.2734 158.654L28 125.537V103.447L85.2734 136.564V158.654Z" fill="url(#paint0_linear)" fill-opacity="0.4"/>
<path d="M85.291 158.654L142.6 125.537V103.447L85.291 136.564V158.654Z" fill="url(#paint1_linear)" fill-opacity="0.4"/>
<g clip-path="url(#clip0)">
<path d="M85.4235 97.0874C96.2128 97.0874 104.959 92.0385 104.959 85.8103C104.959 79.5821 96.2128 74.5332 85.4235 74.5332C74.6342 74.5332 65.8877 79.5821 65.8877 85.8103C65.8877 92.0385 74.6342 97.0874 85.4235 97.0874Z" fill="#A8B249"/>
<path d="M94.8674 84.6438L85.423 90.0879L75.9785 84.6438V14.648L85.2936 9.07422L94.8674 14.648V84.6438Z" fill="#B17F4A"/>
<path d="M85.423 9.20384L85.2936 9.07422L75.9785 14.648V84.6438L85.423 90.0879V9.20384Z" fill="#936037"/>
<path d="M104.959 63.2555L85.4235 74.5326L65.8877 63.2555V11.2771L85.2941 0L104.959 11.2771V63.2555Z" fill="#5E9E4C"/>
<path d="M85.4238 0V74.5326L104.96 63.2555V11.2771L85.4238 0Z" fill="#79BC68"/>
<path d="M85.1647 21.6469L65.8877 11.2771L85.2941 0L104.959 11.2771L85.1647 21.6469Z" fill="#8EC57B"/>
</g>
<rect x="13.6162" y="196.709" width="155.694" height="13.0238" rx="6.51192" fill="#3B9F8D"/>
<circle cx="13.9118" cy="202.926" r="13.9118" fill="#3B9F8D"/>
<rect x="18.5938" y="199.703" width="80.5811" height="6.9638" rx="3.4819" fill="url(#paint2_linear)"/>
<circle cx="13.8682" cy="202.937" r="10.6944" fill="#FFCC47"/>
<path d="M13.8527 206.219C15.6731 206.219 17.1488 204.743 17.1488 202.923C17.1488 201.103 15.6731 199.627 13.8527 199.627C12.0324 199.627 10.5566 201.103 10.5566 202.923C10.5566 204.743 12.0324 206.219 13.8527 206.219Z" fill="#F6F6F6"/>
<path d="M13.8535 197.978C13.5838 197.978 13.374 197.768 13.374 197.499V194.712C13.374 194.442 13.5838 194.232 13.8535 194.232C14.1231 194.232 14.3329 194.442 14.3329 194.712V197.499C14.3329 197.738 14.1231 197.978 13.8535 197.978Z" fill="#F6F6F6"/>
<path d="M13.8535 211.613C13.5838 211.613 13.374 211.403 13.374 211.133V208.347C13.374 208.077 13.5838 207.867 13.8535 207.867C14.1231 207.867 14.3329 208.077 14.3329 208.347V211.133C14.3329 211.403 14.1231 211.613 13.8535 211.613Z" fill="#F6F6F6"/>
<path d="M18.8271 202.923C18.8271 202.653 19.0369 202.443 19.3066 202.443H22.0933C22.363 202.443 22.5727 202.653 22.5727 202.923C22.5727 203.192 22.363 203.402 22.0933 203.402H19.3066C19.0369 203.402 18.8271 203.192 18.8271 202.923Z" fill="#F6F6F6"/>
<path d="M5.16309 202.923C5.16309 202.653 5.37284 202.443 5.64252 202.443H8.42923C8.69891 202.443 8.90866 202.653 8.90866 202.923C8.90866 203.192 8.69891 203.402 8.42923 203.402H5.64252C5.37284 203.402 5.16309 203.192 5.16309 202.923Z" fill="white"/>
<path d="M19.9358 209.004C19.756 209.184 19.4564 209.184 19.2766 209.004L17.2989 207.026C17.1191 206.847 17.1191 206.547 17.2989 206.367C17.4787 206.187 17.7783 206.187 17.9581 206.367L19.9358 208.345C20.1156 208.495 20.1156 208.794 19.9358 209.004Z" fill="#F6F6F6"/>
<path d="M10.1975 199.295C10.0177 199.475 9.71807 199.475 9.53828 199.295L7.56062 197.318C7.38083 197.138 7.38083 196.838 7.56062 196.658C7.74041 196.478 8.04006 196.478 8.21984 196.658L10.1975 198.636C10.4073 198.786 10.4073 199.085 10.1975 199.295Z" fill="white"/>
<path d="M20.3245 196.87C20.5042 197.05 20.5042 197.35 20.3245 197.529L18.3468 199.507C18.167 199.687 17.8674 199.687 17.6876 199.507C17.5078 199.327 17.5078 199.028 17.6876 198.848L19.6652 196.87C19.845 196.66 20.1447 196.66 20.3245 196.87Z" fill="#F6F6F6"/>
<path d="M10.467 206.727C10.6468 206.906 10.6468 207.206 10.467 207.386L8.48937 209.364C8.30959 209.543 8.00994 209.543 7.83015 209.364C7.65037 209.184 7.65037 208.884 7.83015 208.704L9.80782 206.727C9.9876 206.547 10.2872 206.547 10.467 206.727Z" fill="white"/>
<path d="M13.8234 199.627C11.9956 199.627 10.5273 201.095 10.5273 202.923C10.5273 204.751 11.9956 206.219 13.8234 206.219V199.627Z" fill="white"/>
<path d="M13.8535 194.232C13.5838 194.232 13.374 194.442 13.374 194.712V197.499C13.374 197.768 13.5838 197.978 13.8535 197.978V194.232Z" fill="white"/>
<path d="M13.8535 207.896C13.5838 207.896 13.374 208.106 13.374 208.376V211.163C13.374 211.432 13.5838 211.642 13.8535 211.642V207.896Z" fill="white"/>
<circle cx="13.9118" cy="235.549" r="13.9118" fill="#3B9F8D"/>
<rect x="13.6162" y="229.332" width="155.694" height="13.0238" rx="6.51192" fill="#3B9F8D"/>
<rect x="17.5986" y="232.385" width="104.954" height="6.9638" rx="3.4819" fill="url(#paint3_linear)"/>
<circle cx="13.8682" cy="235.616" r="10.6944" fill="#6ED34B"/>
<path d="M22.0439 233.508C22.0439 233.508 20.3526 232.851 19.7576 232.882C18.9433 232.945 17.534 234.135 16.6884 234.135C15.8428 234.135 14.4021 232.913 13.5878 232.882C12.6169 232.851 10.8318 234.197 9.86089 234.135C9.14056 234.103 7.95045 232.945 7.23012 232.882C6.6977 232.851 5.16309 233.508 5.16309 233.508V235.137C5.16309 235.137 6.76034 234.448 7.32407 234.511C8.0444 234.573 9.2032 235.732 9.89221 235.763C10.8631 235.826 12.6482 234.479 13.6191 234.511C14.4647 234.542 15.9054 235.763 16.751 235.763C17.5653 235.763 18.9433 234.573 19.7576 234.511C20.3526 234.479 22.0752 235.137 22.0752 235.137V233.508H22.0439Z" fill="#F6F6F6"/>
<path d="M8.54588 238.051C8.78804 238.051 8.98434 237.854 8.98434 237.612C8.98434 237.37 8.78804 237.174 8.54588 237.174C8.30373 237.174 8.10742 237.37 8.10742 237.612C8.10742 237.854 8.30373 238.051 8.54588 238.051Z" fill="white"/>
<path d="M11.7715 237.861C12.0136 237.861 12.2099 237.665 12.2099 237.423C12.2099 237.181 12.0136 236.984 11.7715 236.984C11.5293 236.984 11.333 237.181 11.333 237.423C11.333 237.665 11.5293 237.861 11.7715 237.861Z" fill="white"/>
<path d="M14.3086 237.422C14.5507 237.422 14.747 237.226 14.747 236.983C14.747 236.741 14.5507 236.545 14.3086 236.545C14.0664 236.545 13.8701 236.741 13.8701 236.983C13.8701 237.226 14.0664 237.422 14.3086 237.422Z" fill="#F6F6F6"/>
<path d="M14.6529 239.898C14.7913 239.898 14.9034 239.785 14.9034 239.647C14.9034 239.509 14.7913 239.396 14.6529 239.396C14.5145 239.396 14.4023 239.509 14.4023 239.647C14.4023 239.785 14.5145 239.898 14.6529 239.898Z" fill="#F6F6F6"/>
<path d="M10.8316 239.398C10.97 239.398 11.0822 239.285 11.0822 239.147C11.0822 239.009 10.97 238.896 10.8316 238.896C10.6932 238.896 10.5811 239.009 10.5811 239.147C10.5811 239.285 10.6932 239.398 10.8316 239.398Z" fill="white"/>
<path d="M8.16949 241.245C8.30787 241.245 8.42004 241.133 8.42004 240.995C8.42004 240.856 8.30787 240.744 8.16949 240.744C8.03112 240.744 7.91895 240.856 7.91895 240.995C7.91895 241.133 8.03112 241.245 8.16949 241.245Z" fill="white"/>
<path d="M6.82281 239.648C6.96119 239.648 7.07336 239.535 7.07336 239.397C7.07336 239.259 6.96119 239.146 6.82281 239.146C6.68444 239.146 6.57227 239.259 6.57227 239.397C6.57227 239.535 6.68444 239.648 6.82281 239.648Z" fill="white"/>
<path d="M16.6578 241.245C16.7962 241.245 16.9083 241.133 16.9083 240.995C16.9083 240.856 16.7962 240.744 16.6578 240.744C16.5194 240.744 16.4072 240.856 16.4072 240.995C16.4072 241.133 16.5194 241.245 16.6578 241.245Z" fill="#F6F6F6"/>
<path d="M19.3814 239.835C19.5198 239.835 19.632 239.723 19.632 239.585C19.632 239.446 19.5198 239.334 19.3814 239.334C19.243 239.334 19.1309 239.446 19.1309 239.585C19.1309 239.723 19.243 239.835 19.3814 239.835Z" fill="#F6F6F6"/>
<path d="M17.9101 238.332C18.1523 238.332 18.3486 238.136 18.3486 237.894C18.3486 237.651 18.1523 237.455 17.9101 237.455C17.668 237.455 17.4717 237.651 17.4717 237.894C17.4717 238.136 17.668 238.332 17.9101 238.332Z" fill="#F6F6F6"/>
<path d="M20.541 237.141C20.7832 237.141 20.9795 236.944 20.9795 236.702C20.9795 236.46 20.7832 236.264 20.541 236.264C20.2988 236.264 20.1025 236.46 20.1025 236.702C20.1025 236.944 20.2988 237.141 20.541 237.141Z" fill="#F6F6F6"/>
<path d="M6.57225 237.299C6.81441 237.299 7.01071 237.102 7.01071 236.86C7.01071 236.618 6.81441 236.422 6.57225 236.422C6.3301 236.422 6.13379 236.618 6.13379 236.86C6.13379 237.102 6.3301 237.299 6.57225 237.299Z" fill="white"/>
<path d="M13.5878 232.882C12.6169 232.851 10.8318 234.197 9.86089 234.135C9.14056 234.103 7.95045 232.945 7.23012 232.882C6.6977 232.851 5.16309 233.508 5.16309 233.508V235.137C5.16309 235.137 6.76034 234.448 7.32407 234.511C8.0444 234.573 9.2032 235.732 9.89221 235.763C10.8631 235.826 12.6482 234.479 13.6191 234.511V232.882H13.5878Z" fill="white"/>
<rect x="13.6162" y="164.084" width="155.694" height="13.0238" rx="6.51192" fill="#3B9F8D"/>
<circle cx="13.9118" cy="170.301" r="13.9118" fill="#3B9F8D"/>
<rect x="19.5361" y="167.043" width="146.814" height="7.10392" rx="3.55196" fill="url(#paint4_linear)"/>
<circle cx="13.8682" cy="170.257" r="10.6944" fill="#38C3FF"/>
<path d="M17.178 171.959C17.178 173.896 15.5939 175.48 13.6579 175.48C11.7218 175.48 10.1377 173.896 10.1377 171.959C10.1377 170.023 13.6579 164.039 13.6579 164.039C13.6579 164.039 17.178 169.994 17.178 171.959Z" fill="#F6F6F6"/>
<path d="M13.6579 164.039C13.6579 164.039 10.1377 169.994 10.1377 171.959C10.1377 173.925 11.7218 175.48 13.6579 175.48V164.039Z" fill="white"/>
<defs>
<linearGradient id="paint0_linear" x1="56.6367" y1="103.447" x2="40.8905" y2="133.048" gradientUnits="userSpaceOnUse">
<stop stop-color="#936037"/>
<stop offset="1" stop-color="#936037" stop-opacity="0"/>
</linearGradient>
<linearGradient id="paint1_linear" x1="113.945" y1="103.447" x2="129.93" y2="129.706" gradientUnits="userSpaceOnUse">
<stop stop-color="#B17F4A"/>
<stop offset="1" stop-color="#B17F4A" stop-opacity="0"/>
</linearGradient>
<linearGradient id="paint2_linear" x1="20.7498" y1="206.667" x2="99.1749" y2="206.667" gradientUnits="userSpaceOnUse">
<stop stop-color="#F1BD33"/>
<stop offset="1" stop-color="#FFCC47"/>
</linearGradient>
<linearGradient id="paint3_linear" x1="21.7829" y1="239.349" x2="122.553" y2="239.349" gradientUnits="userSpaceOnUse">
<stop stop-color="#59C633"/>
<stop offset="1" stop-color="#6ED34B"/>
</linearGradient>
<linearGradient id="paint4_linear" x1="23.2436" y1="174.147" x2="165.115" y2="174.147" gradientUnits="userSpaceOnUse">
<stop stop-color="#1EB0EF"/>
<stop offset="1" stop-color="#38C3FF"/>
</linearGradient>
<clipPath id="clip0">
<rect width="39.0715" height="97.0869" fill="white" transform="translate(65.8877)"/>
</clipPath>
</defs>
</svg>
