<svg width="335" height="550" viewBox="0 0 335 550" fill="none" xmlns="http://www.w3.org/2000/svg">
<rect x="4" y="178" width="327" height="277" rx="16" fill="#45A694"/>
<path d="M167.274 210.777L110.001 177.66L167.274 144.543L224.583 177.66L167.274 210.777Z" fill="#B9C95E"/>
<path d="M167.273 232.867L110 199.75V177.66L167.273 210.777V232.867Z" fill="#936037"/>
<path d="M167.273 232.867L224.582 199.75V177.66L167.273 210.777V232.867Z" fill="#B17F4A"/>
<path d="M167.273 216.326L110 183.209V177.66L167.273 210.777V216.326Z" fill="#A5AE44"/>
<path d="M167.273 216.326L224.582 183.174V177.66L167.273 210.777V216.326Z" fill="#CED67B"/>
<path d="M167.273 254.654L110 221.537V199.447L167.273 232.564V254.654Z" fill="url(#paint0_linear)" fill-opacity="0.4"/>
<path d="M167.291 254.654L224.6 221.537V199.447L167.291 232.564V254.654Z" fill="url(#paint1_linear)" fill-opacity="0.4"/>
<g clip-path="url(#clip0)">
<path d="M167.423 193.087C178.213 193.087 186.959 188.038 186.959 181.81C186.959 175.582 178.213 170.533 167.423 170.533C156.634 170.533 147.888 175.582 147.888 181.81C147.888 188.038 156.634 193.087 167.423 193.087Z" fill="#A8B249"/>
<path d="M176.867 180.644L167.423 186.088L157.979 180.644V110.648L167.294 105.074L176.867 110.648V180.644Z" fill="#B17F4A"/>
<path d="M167.423 105.204L167.294 105.074L157.979 110.648V180.644L167.423 186.088V105.204Z" fill="#936037"/>
<path d="M186.959 159.256L167.423 170.533L147.888 159.256V107.277L167.294 96L186.959 107.277V159.256Z" fill="#5E9E4C"/>
<path d="M167.424 96V170.533L186.96 159.256V107.277L167.424 96Z" fill="#79BC68"/>
<path d="M167.165 117.647L147.888 107.277L167.294 96L186.959 107.277L167.165 117.647Z" fill="#8EC57B"/>
</g>
<rect x="95.6162" y="292.709" width="155.694" height="13.0238" rx="6.51192" fill="#3B9F8D"/>
<circle cx="95.9118" cy="298.926" r="13.9118" fill="#3B9F8D"/>
<rect x="100.594" y="295.703" width="80.5811" height="6.9638" rx="3.4819" fill="url(#paint2_linear)"/>
<circle cx="95.8682" cy="298.937" r="10.6944" fill="#FFCC47"/>
<path d="M95.8527 302.219C97.6731 302.219 99.1488 300.743 99.1488 298.923C99.1488 297.103 97.6731 295.627 95.8527 295.627C94.0324 295.627 92.5566 297.103 92.5566 298.923C92.5566 300.743 94.0324 302.219 95.8527 302.219Z" fill="#F6F6F6"/>
<path d="M95.8535 293.978C95.5838 293.978 95.374 293.768 95.374 293.499V290.712C95.374 290.442 95.5838 290.232 95.8535 290.232C96.1231 290.232 96.3329 290.442 96.3329 290.712V293.499C96.3329 293.738 96.1231 293.978 95.8535 293.978Z" fill="#F6F6F6"/>
<path d="M95.8535 307.613C95.5838 307.613 95.374 307.403 95.374 307.133V304.347C95.374 304.077 95.5838 303.867 95.8535 303.867C96.1231 303.867 96.3329 304.077 96.3329 304.347V307.133C96.3329 307.403 96.1231 307.613 95.8535 307.613Z" fill="#F6F6F6"/>
<path d="M100.827 298.923C100.827 298.653 101.037 298.443 101.307 298.443H104.093C104.363 298.443 104.573 298.653 104.573 298.923C104.573 299.192 104.363 299.402 104.093 299.402H101.307C101.037 299.402 100.827 299.192 100.827 298.923Z" fill="#F6F6F6"/>
<path d="M87.1631 298.923C87.1631 298.653 87.3728 298.443 87.6425 298.443H90.4292C90.6989 298.443 90.9087 298.653 90.9087 298.923C90.9087 299.192 90.6989 299.402 90.4292 299.402H87.6425C87.3728 299.402 87.1631 299.192 87.1631 298.923Z" fill="white"/>
<path d="M101.936 305.004C101.756 305.184 101.456 305.184 101.277 305.004L99.2989 303.026C99.1191 302.847 99.1191 302.547 99.2989 302.367C99.4787 302.187 99.7783 302.187 99.9581 302.367L101.936 304.345C102.116 304.495 102.116 304.794 101.936 305.004Z" fill="#F6F6F6"/>
<path d="M92.1975 295.295C92.0177 295.475 91.7181 295.475 91.5383 295.295L89.5606 293.318C89.3808 293.138 89.3808 292.838 89.5606 292.658C89.7404 292.478 90.0401 292.478 90.2198 292.658L92.1975 294.636C92.4073 294.786 92.4073 295.085 92.1975 295.295Z" fill="white"/>
<path d="M102.324 292.87C102.504 293.05 102.504 293.35 102.324 293.529L100.347 295.507C100.167 295.687 99.8674 295.687 99.6876 295.507C99.5078 295.327 99.5078 295.028 99.6876 294.848L101.665 292.87C101.845 292.66 102.145 292.66 102.324 292.87Z" fill="#F6F6F6"/>
<path d="M92.467 302.727C92.6468 302.906 92.6468 303.206 92.467 303.386L90.4894 305.364C90.3096 305.543 90.0099 305.543 89.8302 305.364C89.6504 305.184 89.6504 304.884 89.8302 304.704L91.8078 302.727C91.9876 302.547 92.2872 302.547 92.467 302.727Z" fill="white"/>
<path d="M95.8234 295.627C93.9956 295.627 92.5273 297.095 92.5273 298.923C92.5273 300.751 93.9956 302.219 95.8234 302.219V295.627Z" fill="white"/>
<path d="M95.8535 290.232C95.5838 290.232 95.374 290.442 95.374 290.712V293.499C95.374 293.768 95.5838 293.978 95.8535 293.978V290.232Z" fill="white"/>
<path d="M95.8535 303.896C95.5838 303.896 95.374 304.106 95.374 304.376V307.163C95.374 307.432 95.5838 307.642 95.8535 307.642V303.896Z" fill="white"/>
<circle cx="95.9118" cy="331.549" r="13.9118" fill="#3B9F8D"/>
<rect x="95.6162" y="325.332" width="155.694" height="13.0238" rx="6.51192" fill="#3B9F8D"/>
<rect x="99.5986" y="328.385" width="104.954" height="6.9638" rx="3.4819" fill="url(#paint3_linear)"/>
<circle cx="95.8682" cy="331.616" r="10.6944" fill="#6ED34B"/>
<path d="M104.044 329.508C104.044 329.508 102.353 328.851 101.758 328.882C100.943 328.945 99.534 330.135 98.6884 330.135C97.8428 330.135 96.4021 328.913 95.5878 328.882C94.6169 328.851 92.8318 330.197 91.8609 330.135C91.1406 330.103 89.9504 328.945 89.2301 328.882C88.6977 328.851 87.1631 329.508 87.1631 329.508V331.137C87.1631 331.137 88.7603 330.448 89.3241 330.511C90.0444 330.573 91.2032 331.732 91.8922 331.763C92.8631 331.826 94.6482 330.479 95.6191 330.511C96.4647 330.542 97.9054 331.763 98.751 331.763C99.5653 331.763 100.943 330.573 101.758 330.511C102.353 330.479 104.075 331.137 104.075 331.137V329.508H104.044Z" fill="#F6F6F6"/>
<path d="M90.5459 334.051C90.788 334.051 90.9843 333.854 90.9843 333.612C90.9843 333.37 90.788 333.174 90.5459 333.174C90.3037 333.174 90.1074 333.37 90.1074 333.612C90.1074 333.854 90.3037 334.051 90.5459 334.051Z" fill="white"/>
<path d="M93.7715 333.861C94.0136 333.861 94.2099 333.665 94.2099 333.423C94.2099 333.181 94.0136 332.984 93.7715 332.984C93.5293 332.984 93.333 333.181 93.333 333.423C93.333 333.665 93.5293 333.861 93.7715 333.861Z" fill="white"/>
<path d="M96.3086 333.422C96.5507 333.422 96.747 333.226 96.747 332.983C96.747 332.741 96.5507 332.545 96.3086 332.545C96.0664 332.545 95.8701 332.741 95.8701 332.983C95.8701 333.226 96.0664 333.422 96.3086 333.422Z" fill="#F6F6F6"/>
<path d="M96.6529 335.898C96.7913 335.898 96.9034 335.785 96.9034 335.647C96.9034 335.509 96.7913 335.396 96.6529 335.396C96.5145 335.396 96.4023 335.509 96.4023 335.647C96.4023 335.785 96.5145 335.898 96.6529 335.898Z" fill="#F6F6F6"/>
<path d="M92.8316 335.398C92.97 335.398 93.0822 335.285 93.0822 335.147C93.0822 335.009 92.97 334.896 92.8316 334.896C92.6932 334.896 92.5811 335.009 92.5811 335.147C92.5811 335.285 92.6932 335.398 92.8316 335.398Z" fill="white"/>
<path d="M90.1695 337.245C90.3079 337.245 90.42 337.133 90.42 336.995C90.42 336.856 90.3079 336.744 90.1695 336.744C90.0311 336.744 89.9189 336.856 89.9189 336.995C89.9189 337.133 90.0311 337.245 90.1695 337.245Z" fill="white"/>
<path d="M88.8228 335.648C88.9612 335.648 89.0734 335.535 89.0734 335.397C89.0734 335.259 88.9612 335.146 88.8228 335.146C88.6844 335.146 88.5723 335.259 88.5723 335.397C88.5723 335.535 88.6844 335.648 88.8228 335.648Z" fill="white"/>
<path d="M98.6578 337.245C98.7962 337.245 98.9083 337.133 98.9083 336.995C98.9083 336.856 98.7962 336.744 98.6578 336.744C98.5194 336.744 98.4072 336.856 98.4072 336.995C98.4072 337.133 98.5194 337.245 98.6578 337.245Z" fill="#F6F6F6"/>
<path d="M101.381 335.835C101.52 335.835 101.632 335.723 101.632 335.585C101.632 335.446 101.52 335.334 101.381 335.334C101.243 335.334 101.131 335.446 101.131 335.585C101.131 335.723 101.243 335.835 101.381 335.835Z" fill="#F6F6F6"/>
<path d="M99.9101 334.332C100.152 334.332 100.349 334.136 100.349 333.894C100.349 333.651 100.152 333.455 99.9101 333.455C99.668 333.455 99.4717 333.651 99.4717 333.894C99.4717 334.136 99.668 334.332 99.9101 334.332Z" fill="#F6F6F6"/>
<path d="M102.541 333.141C102.783 333.141 102.979 332.944 102.979 332.702C102.979 332.46 102.783 332.264 102.541 332.264C102.299 332.264 102.103 332.46 102.103 332.702C102.103 332.944 102.299 333.141 102.541 333.141Z" fill="#F6F6F6"/>
<path d="M88.5723 333.299C88.8144 333.299 89.0107 333.102 89.0107 332.86C89.0107 332.618 88.8144 332.422 88.5723 332.422C88.3301 332.422 88.1338 332.618 88.1338 332.86C88.1338 333.102 88.3301 333.299 88.5723 333.299Z" fill="white"/>
<path d="M95.5878 328.882C94.6169 328.851 92.8318 330.197 91.8609 330.135C91.1406 330.103 89.9504 328.945 89.2301 328.882C88.6977 328.851 87.1631 329.508 87.1631 329.508V331.137C87.1631 331.137 88.7603 330.448 89.3241 330.511C90.0444 330.573 91.2032 331.732 91.8922 331.763C92.8631 331.826 94.6482 330.479 95.6191 330.511V328.882H95.5878Z" fill="white"/>
<rect x="95.6162" y="260.084" width="155.694" height="13.0238" rx="6.51192" fill="#3B9F8D"/>
<circle cx="95.9118" cy="266.301" r="13.9118" fill="#3B9F8D"/>
<rect x="101.536" y="263.043" width="146.814" height="7.10392" rx="3.55196" fill="url(#paint4_linear)"/>
<circle cx="95.8682" cy="266.257" r="10.6944" fill="#38C3FF"/>
<path d="M99.178 267.959C99.178 269.896 97.5939 271.48 95.6579 271.48C93.7218 271.48 92.1377 269.896 92.1377 267.959C92.1377 266.023 95.6579 260.039 95.6579 260.039C95.6579 260.039 99.178 265.994 99.178 267.959Z" fill="#F6F6F6"/>
<path d="M95.6579 260.039C95.6579 260.039 92.1377 265.994 92.1377 267.959C92.1377 269.925 93.7218 271.48 95.6579 271.48V260.039Z" fill="white"/>
<path d="M42.4389 389.2L38.0709 399H37.3569L32.9889 389.2H33.7729L37.7349 398.076L41.6969 389.2H42.4389ZM49.8286 395.514H43.5426C43.5612 396.083 43.7059 396.592 43.9766 397.04C44.2472 397.479 44.6112 397.819 45.0686 398.062C45.5352 398.305 46.0579 398.426 46.6366 398.426C47.1126 398.426 47.5512 398.342 47.9526 398.174C48.3632 397.997 48.7039 397.74 48.9746 397.404L49.3806 397.866C49.0632 398.249 48.6619 398.543 48.1766 398.748C47.7006 398.953 47.1826 399.056 46.6226 399.056C45.8946 399.056 45.2459 398.897 44.6766 398.58C44.1072 398.263 43.6592 397.824 43.3326 397.264C43.0152 396.704 42.8566 396.065 42.8566 395.346C42.8566 394.637 43.0059 394.002 43.3046 393.442C43.6126 392.873 44.0326 392.429 44.5646 392.112C45.0966 391.795 45.6939 391.636 46.3566 391.636C47.0192 391.636 47.6119 391.795 48.1346 392.112C48.6666 392.42 49.0819 392.854 49.3806 393.414C49.6886 393.974 49.8426 394.609 49.8426 395.318L49.8286 395.514ZM46.3566 392.252C45.8432 392.252 45.3812 392.369 44.9706 392.602C44.5599 392.826 44.2286 393.148 43.9766 393.568C43.7339 393.979 43.5939 394.445 43.5566 394.968H49.1566C49.1286 394.445 48.9886 393.979 48.7366 393.568C48.4846 393.157 48.1532 392.835 47.7426 392.602C47.3319 392.369 46.8699 392.252 46.3566 392.252ZM53.1001 393.288C53.3241 392.756 53.6741 392.35 54.1501 392.07C54.6261 391.781 55.2048 391.636 55.8861 391.636V392.322L55.7181 392.308C54.9061 392.308 54.2714 392.565 53.8141 393.078C53.3568 393.582 53.1281 394.287 53.1281 395.192V399H52.4281V391.692H53.1001V393.288ZM63.2999 398.398V399H57.4899V398.524L62.3059 392.294H57.5599V391.692H63.2159V392.168L58.3859 398.398H63.2999ZM68.5518 399.056C67.8612 399.056 67.2358 398.897 66.6758 398.58C66.1252 398.263 65.6912 397.824 65.3738 397.264C65.0565 396.695 64.8978 396.055 64.8978 395.346C64.8978 394.637 65.0565 394.002 65.3738 393.442C65.6912 392.873 66.1252 392.429 66.6758 392.112C67.2358 391.795 67.8612 391.636 68.5518 391.636C69.2425 391.636 69.8632 391.795 70.4138 392.112C70.9738 392.429 71.4125 392.873 71.7298 393.442C72.0472 394.002 72.2058 394.637 72.2058 395.346C72.2058 396.055 72.0472 396.695 71.7298 397.264C71.4125 397.824 70.9738 398.263 70.4138 398.58C69.8632 398.897 69.2425 399.056 68.5518 399.056ZM68.5518 398.426C69.1118 398.426 69.6112 398.295 70.0498 398.034C70.4978 397.773 70.8478 397.409 71.0998 396.942C71.3612 396.475 71.4918 395.943 71.4918 395.346C71.4918 394.749 71.3612 394.217 71.0998 393.75C70.8478 393.283 70.4978 392.919 70.0498 392.658C69.6112 392.397 69.1118 392.266 68.5518 392.266C67.9918 392.266 67.4878 392.397 67.0398 392.658C66.6012 392.919 66.2512 393.283 65.9898 393.75C65.7378 394.217 65.6118 394.749 65.6118 395.346C65.6118 395.943 65.7378 396.475 65.9898 396.942C66.2512 397.409 66.6012 397.773 67.0398 398.034C67.4878 398.295 67.9918 398.426 68.5518 398.426ZM75.4695 393.288C75.6935 392.756 76.0435 392.35 76.5195 392.07C76.9955 391.781 77.5741 391.636 78.2555 391.636V392.322L78.0875 392.308C77.2755 392.308 76.6408 392.565 76.1835 393.078C75.7261 393.582 75.4975 394.287 75.4975 395.192V399H74.7975V391.692H75.4695V393.288ZM87.1158 391.692V398.216C87.1158 399.429 86.8218 400.325 86.2338 400.904C85.6458 401.483 84.7592 401.772 83.5738 401.772C82.9018 401.772 82.2672 401.669 81.6698 401.464C81.0725 401.259 80.5918 400.974 80.2278 400.61L80.6058 400.078C80.9698 400.414 81.4085 400.675 81.9218 400.862C82.4352 401.049 82.9812 401.142 83.5598 401.142C84.5305 401.142 85.2492 400.909 85.7158 400.442C86.1825 399.985 86.4158 399.271 86.4158 398.3V397.068C86.1172 397.6 85.7018 398.011 85.1698 398.3C84.6378 398.589 84.0405 398.734 83.3778 398.734C82.6965 398.734 82.0758 398.585 81.5158 398.286C80.9652 397.978 80.5312 397.553 80.2138 397.012C79.8965 396.471 79.7378 395.859 79.7378 395.178C79.7378 394.497 79.8965 393.885 80.2138 393.344C80.5312 392.803 80.9652 392.383 81.5158 392.084C82.0758 391.785 82.6965 391.636 83.3778 391.636C84.0498 391.636 84.6565 391.785 85.1978 392.084C85.7392 392.383 86.1545 392.803 86.4438 393.344V391.692H87.1158ZM83.4338 398.104C84.0032 398.104 84.5165 397.983 84.9738 397.74C85.4312 397.488 85.7858 397.143 86.0378 396.704C86.2992 396.256 86.4298 395.747 86.4298 395.178C86.4298 394.609 86.2992 394.105 86.0378 393.666C85.7858 393.227 85.4312 392.887 84.9738 392.644C84.5165 392.392 84.0032 392.266 83.4338 392.266C82.8645 392.266 82.3512 392.392 81.8938 392.644C81.4458 392.887 81.0912 393.227 80.8298 393.666C80.5778 394.105 80.4518 394.609 80.4518 395.178C80.4518 395.747 80.5778 396.256 80.8298 396.704C81.0912 397.143 81.4458 397.488 81.8938 397.74C82.3512 397.983 82.8645 398.104 83.4338 398.104ZM100.689 395.514H94.4025C94.4212 396.083 94.5658 396.592 94.8365 397.04C95.1072 397.479 95.4712 397.819 95.9285 398.062C96.3952 398.305 96.9178 398.426 97.4965 398.426C97.9725 398.426 98.4112 398.342 98.8125 398.174C99.2232 397.997 99.5638 397.74 99.8345 397.404L100.241 397.866C99.9232 398.249 99.5218 398.543 99.0365 398.748C98.5605 398.953 98.0425 399.056 97.4825 399.056C96.7545 399.056 96.1058 398.897 95.5365 398.58C94.9672 398.263 94.5192 397.824 94.1925 397.264C93.8752 396.704 93.7165 396.065 93.7165 395.346C93.7165 394.637 93.8658 394.002 94.1645 393.442C94.4725 392.873 94.8925 392.429 95.4245 392.112C95.9565 391.795 96.5538 391.636 97.2165 391.636C97.8792 391.636 98.4718 391.795 98.9945 392.112C99.5265 392.42 99.9418 392.854 100.241 393.414C100.549 393.974 100.703 394.609 100.703 395.318L100.689 395.514ZM97.2165 392.252C96.7032 392.252 96.2412 392.369 95.8305 392.602C95.4198 392.826 95.0885 393.148 94.8365 393.568C94.5938 393.979 94.4538 394.445 94.4165 394.968H100.017C99.9885 394.445 99.8485 393.979 99.5965 393.568C99.3445 393.157 99.0132 392.835 98.6025 392.602C98.1918 392.369 97.7298 392.252 97.2165 392.252ZM106.858 391.636C107.773 391.636 108.496 391.902 109.028 392.434C109.56 392.966 109.826 393.731 109.826 394.73V399H109.126V394.786C109.126 393.965 108.916 393.339 108.496 392.91C108.085 392.481 107.507 392.266 106.76 392.266C105.901 392.266 105.225 392.523 104.73 393.036C104.235 393.549 103.988 394.24 103.988 395.108V399H103.288V391.692H103.96V393.274C104.212 392.761 104.585 392.359 105.08 392.07C105.584 391.781 106.177 391.636 106.858 391.636ZM123.724 391.692V398.216C123.724 399.429 123.43 400.325 122.842 400.904C122.254 401.483 121.367 401.772 120.182 401.772C119.51 401.772 118.875 401.669 118.278 401.464C117.68 401.259 117.2 400.974 116.836 400.61L117.214 400.078C117.578 400.414 118.016 400.675 118.53 400.862C119.043 401.049 119.589 401.142 120.168 401.142C121.138 401.142 121.857 400.909 122.324 400.442C122.79 399.985 123.024 399.271 123.024 398.3V397.068C122.725 397.6 122.31 398.011 121.778 398.3C121.246 398.589 120.648 398.734 119.986 398.734C119.304 398.734 118.684 398.585 118.124 398.286C117.573 397.978 117.139 397.553 116.822 397.012C116.504 396.471 116.346 395.859 116.346 395.178C116.346 394.497 116.504 393.885 116.822 393.344C117.139 392.803 117.573 392.383 118.124 392.084C118.684 391.785 119.304 391.636 119.986 391.636C120.658 391.636 121.264 391.785 121.806 392.084C122.347 392.383 122.762 392.803 123.052 393.344V391.692H123.724ZM120.042 398.104C120.611 398.104 121.124 397.983 121.582 397.74C122.039 397.488 122.394 397.143 122.646 396.704C122.907 396.256 123.038 395.747 123.038 395.178C123.038 394.609 122.907 394.105 122.646 393.666C122.394 393.227 122.039 392.887 121.582 392.644C121.124 392.392 120.611 392.266 120.042 392.266C119.472 392.266 118.959 392.392 118.502 392.644C118.054 392.887 117.699 393.227 117.438 393.666C117.186 394.105 117.06 394.609 117.06 395.178C117.06 395.747 117.186 396.256 117.438 396.704C117.699 397.143 118.054 397.488 118.502 397.74C118.959 397.983 119.472 398.104 120.042 398.104ZM127.779 393.288C128.003 392.756 128.353 392.35 128.829 392.07C129.305 391.781 129.883 391.636 130.565 391.636V392.322L130.397 392.308C129.585 392.308 128.95 392.565 128.493 393.078C128.035 393.582 127.807 394.287 127.807 395.192V399H127.107V391.692H127.779V393.288ZM135.701 399.056C135.01 399.056 134.385 398.897 133.825 398.58C133.274 398.263 132.84 397.824 132.523 397.264C132.206 396.695 132.047 396.055 132.047 395.346C132.047 394.637 132.206 394.002 132.523 393.442C132.84 392.873 133.274 392.429 133.825 392.112C134.385 391.795 135.01 391.636 135.701 391.636C136.392 391.636 137.012 391.795 137.563 392.112C138.123 392.429 138.562 392.873 138.879 393.442C139.196 394.002 139.355 394.637 139.355 395.346C139.355 396.055 139.196 396.695 138.879 397.264C138.562 397.824 138.123 398.263 137.563 398.58C137.012 398.897 136.392 399.056 135.701 399.056ZM135.701 398.426C136.261 398.426 136.76 398.295 137.199 398.034C137.647 397.773 137.997 397.409 138.249 396.942C138.51 396.475 138.641 395.943 138.641 395.346C138.641 394.749 138.51 394.217 138.249 393.75C137.997 393.283 137.647 392.919 137.199 392.658C136.76 392.397 136.261 392.266 135.701 392.266C135.141 392.266 134.637 392.397 134.189 392.658C133.75 392.919 133.4 393.283 133.139 393.75C132.887 394.217 132.761 394.749 132.761 395.346C132.761 395.943 132.887 396.475 133.139 396.942C133.4 397.409 133.75 397.773 134.189 398.034C134.637 398.295 135.141 398.426 135.701 398.426ZM148.121 395.514H141.835C141.853 396.083 141.998 396.592 142.269 397.04C142.539 397.479 142.903 397.819 143.361 398.062C143.827 398.305 144.35 398.426 144.929 398.426C145.405 398.426 145.843 398.342 146.245 398.174C146.655 397.997 146.996 397.74 147.267 397.404L147.673 397.866C147.355 398.249 146.954 398.543 146.469 398.748C145.993 398.953 145.475 399.056 144.915 399.056C144.187 399.056 143.538 398.897 142.969 398.58C142.399 398.263 141.951 397.824 141.625 397.264C141.307 396.704 141.149 396.065 141.149 395.346C141.149 394.637 141.298 394.002 141.597 393.442C141.905 392.873 142.325 392.429 142.857 392.112C143.389 391.795 143.986 391.636 144.649 391.636C145.311 391.636 145.904 391.795 146.427 392.112C146.959 392.42 147.374 392.854 147.673 393.414C147.981 393.974 148.135 394.609 148.135 395.318L148.121 395.514ZM144.649 392.252C144.135 392.252 143.673 392.369 143.263 392.602C142.852 392.826 142.521 393.148 142.269 393.568C142.026 393.979 141.886 394.445 141.849 394.968H147.449C147.421 394.445 147.281 393.979 147.029 393.568C146.777 393.157 146.445 392.835 146.035 392.602C145.624 392.369 145.162 392.252 144.649 392.252ZM150.72 391.692H151.42V399H150.72V391.692ZM151.07 389.914C150.911 389.914 150.776 389.863 150.664 389.76C150.552 389.648 150.496 389.513 150.496 389.354C150.496 389.195 150.552 389.06 150.664 388.948C150.776 388.836 150.911 388.78 151.07 388.78C151.229 388.78 151.364 388.836 151.476 388.948C151.588 389.051 151.644 389.181 151.644 389.34C151.644 389.499 151.588 389.634 151.476 389.746C151.364 389.858 151.229 389.914 151.07 389.914ZM157.602 401.772C157.294 401.772 157.01 401.73 156.748 401.646C156.478 401.562 156.258 401.441 156.09 401.282L156.37 400.764C156.669 401.035 157.066 401.17 157.56 401.17C157.99 401.17 158.316 401.044 158.54 400.792C158.764 400.54 158.876 400.176 158.876 399.7V391.692H159.576V399.728C159.576 400.353 159.404 400.848 159.058 401.212C158.713 401.585 158.228 401.772 157.602 401.772ZM159.226 389.914C159.068 389.914 158.932 389.863 158.82 389.76C158.708 389.648 158.652 389.513 158.652 389.354C158.652 389.195 158.708 389.06 158.82 388.948C158.932 388.836 159.068 388.78 159.226 388.78C159.385 388.78 159.52 388.836 159.632 388.948C159.744 389.051 159.8 389.181 159.8 389.34C159.8 389.499 159.744 389.634 159.632 389.746C159.52 389.858 159.385 389.914 159.226 389.914ZM169.119 395.514H162.833C162.852 396.083 162.996 396.592 163.267 397.04C163.538 397.479 163.902 397.819 164.359 398.062C164.826 398.305 165.348 398.426 165.927 398.426C166.403 398.426 166.842 398.342 167.243 398.174C167.654 397.997 167.994 397.74 168.265 397.404L168.671 397.866C168.354 398.249 167.952 398.543 167.467 398.748C166.991 398.953 166.473 399.056 165.913 399.056C165.185 399.056 164.536 398.897 163.967 398.58C163.398 398.263 162.95 397.824 162.623 397.264C162.306 396.704 162.147 396.065 162.147 395.346C162.147 394.637 162.296 394.002 162.595 393.442C162.903 392.873 163.323 392.429 163.855 392.112C164.387 391.795 164.984 391.636 165.647 391.636C166.31 391.636 166.902 391.795 167.425 392.112C167.957 392.42 168.372 392.854 168.671 393.414C168.979 393.974 169.133 394.609 169.133 395.318L169.119 395.514ZM165.647 392.252C165.134 392.252 164.672 392.369 164.261 392.602C163.85 392.826 163.519 393.148 163.267 393.568C163.024 393.979 162.884 394.445 162.847 394.968H168.447C168.419 394.445 168.279 393.979 168.027 393.568C167.775 393.157 167.444 392.835 167.033 392.602C166.622 392.369 166.16 392.252 165.647 392.252ZM181.908 395.514H175.622C175.641 396.083 175.786 396.592 176.056 397.04C176.327 397.479 176.691 397.819 177.148 398.062C177.615 398.305 178.138 398.426 178.716 398.426C179.192 398.426 179.631 398.342 180.032 398.174C180.443 397.997 180.784 397.74 181.054 397.404L181.46 397.866C181.143 398.249 180.742 398.543 180.256 398.748C179.78 398.953 179.262 399.056 178.702 399.056C177.974 399.056 177.326 398.897 176.756 398.58C176.187 398.263 175.739 397.824 175.412 397.264C175.095 396.704 174.936 396.065 174.936 395.346C174.936 394.637 175.086 394.002 175.384 393.442C175.692 392.873 176.112 392.429 176.644 392.112C177.176 391.795 177.774 391.636 178.436 391.636C179.099 391.636 179.692 391.795 180.214 392.112C180.746 392.42 181.162 392.854 181.46 393.414C181.768 393.974 181.922 394.609 181.922 395.318L181.908 395.514ZM178.436 392.252C177.923 392.252 177.461 392.369 177.05 392.602C176.64 392.826 176.308 393.148 176.056 393.568C175.814 393.979 175.674 394.445 175.636 394.968H181.236C181.208 394.445 181.068 393.979 180.816 393.568C180.564 393.157 180.233 392.835 179.822 392.602C179.412 392.369 178.95 392.252 178.436 392.252ZM184.508 391.692H185.208V399H184.508V391.692ZM184.858 389.914C184.699 389.914 184.564 389.863 184.452 389.76C184.34 389.648 184.284 389.513 184.284 389.354C184.284 389.195 184.34 389.06 184.452 388.948C184.564 388.836 184.699 388.78 184.858 388.78C185.016 388.78 185.152 388.836 185.264 388.948C185.376 389.051 185.432 389.181 185.432 389.34C185.432 389.499 185.376 389.634 185.264 389.746C185.152 389.858 185.016 389.914 184.858 389.914ZM195.158 391.692V398.216C195.158 399.429 194.864 400.325 194.276 400.904C193.688 401.483 192.801 401.772 191.616 401.772C190.944 401.772 190.309 401.669 189.712 401.464C189.115 401.259 188.634 400.974 188.27 400.61L188.648 400.078C189.012 400.414 189.451 400.675 189.964 400.862C190.477 401.049 191.023 401.142 191.602 401.142C192.573 401.142 193.291 400.909 193.758 400.442C194.225 399.985 194.458 399.271 194.458 398.3V397.068C194.159 397.6 193.744 398.011 193.212 398.3C192.68 398.589 192.083 398.734 191.42 398.734C190.739 398.734 190.118 398.585 189.558 398.286C189.007 397.978 188.573 397.553 188.256 397.012C187.939 396.471 187.78 395.859 187.78 395.178C187.78 394.497 187.939 393.885 188.256 393.344C188.573 392.803 189.007 392.383 189.558 392.084C190.118 391.785 190.739 391.636 191.42 391.636C192.092 391.636 192.699 391.785 193.24 392.084C193.781 392.383 194.197 392.803 194.486 393.344V391.692H195.158ZM191.476 398.104C192.045 398.104 192.559 397.983 193.016 397.74C193.473 397.488 193.828 397.143 194.08 396.704C194.341 396.256 194.472 395.747 194.472 395.178C194.472 394.609 194.341 394.105 194.08 393.666C193.828 393.227 193.473 392.887 193.016 392.644C192.559 392.392 192.045 392.266 191.476 392.266C190.907 392.266 190.393 392.392 189.936 392.644C189.488 392.887 189.133 393.227 188.872 393.666C188.62 394.105 188.494 394.609 188.494 395.178C188.494 395.747 188.62 396.256 188.872 396.704C189.133 397.143 189.488 397.488 189.936 397.74C190.393 397.983 190.907 398.104 191.476 398.104ZM204.715 395.514H198.429C198.448 396.083 198.592 396.592 198.863 397.04C199.134 397.479 199.498 397.819 199.955 398.062C200.422 398.305 200.944 398.426 201.523 398.426C201.999 398.426 202.438 398.342 202.839 398.174C203.25 397.997 203.59 397.74 203.861 397.404L204.267 397.866C203.95 398.249 203.548 398.543 203.063 398.748C202.587 398.953 202.069 399.056 201.509 399.056C200.781 399.056 200.132 398.897 199.563 398.58C198.994 398.263 198.546 397.824 198.219 397.264C197.902 396.704 197.743 396.065 197.743 395.346C197.743 394.637 197.892 394.002 198.191 393.442C198.499 392.873 198.919 392.429 199.451 392.112C199.983 391.795 200.58 391.636 201.243 391.636C201.906 391.636 202.498 391.795 203.021 392.112C203.553 392.42 203.968 392.854 204.267 393.414C204.575 393.974 204.729 394.609 204.729 395.318L204.715 395.514ZM201.243 392.252C200.73 392.252 200.268 392.369 199.857 392.602C199.446 392.826 199.115 393.148 198.863 393.568C198.62 393.979 198.48 394.445 198.443 394.968H204.043C204.015 394.445 203.875 393.979 203.623 393.568C203.371 393.157 203.04 392.835 202.629 392.602C202.218 392.369 201.756 392.252 201.243 392.252ZM210.885 391.636C211.799 391.636 212.523 391.902 213.055 392.434C213.587 392.966 213.853 393.731 213.853 394.73V399H213.153V394.786C213.153 393.965 212.943 393.339 212.523 392.91C212.112 392.481 211.533 392.266 210.787 392.266C209.928 392.266 209.251 392.523 208.757 393.036C208.262 393.549 208.015 394.24 208.015 395.108V399H207.315V391.692H207.987V393.274C208.239 392.761 208.612 392.359 209.107 392.07C209.611 391.781 210.203 391.636 210.885 391.636ZM224.838 391.636C225.52 391.636 226.136 391.795 226.686 392.112C227.237 392.42 227.666 392.859 227.974 393.428C228.292 393.988 228.45 394.627 228.45 395.346C228.45 396.065 228.292 396.704 227.974 397.264C227.666 397.824 227.237 398.263 226.686 398.58C226.136 398.897 225.52 399.056 224.838 399.056C224.185 399.056 223.592 398.902 223.06 398.594C222.538 398.277 222.132 397.838 221.842 397.278V399H221.17V388.612H221.87V393.358C222.16 392.817 222.566 392.397 223.088 392.098C223.611 391.79 224.194 391.636 224.838 391.636ZM224.796 398.426C225.356 398.426 225.86 398.295 226.308 398.034C226.756 397.773 227.106 397.409 227.358 396.942C227.62 396.475 227.75 395.943 227.75 395.346C227.75 394.749 227.62 394.217 227.358 393.75C227.106 393.283 226.756 392.919 226.308 392.658C225.86 392.397 225.356 392.266 224.796 392.266C224.236 392.266 223.732 392.397 223.284 392.658C222.846 392.919 222.496 393.283 222.234 393.75C221.982 394.217 221.856 394.749 221.856 395.346C221.856 395.943 221.982 396.475 222.234 396.942C222.496 397.409 222.846 397.773 223.284 398.034C223.732 398.295 224.236 398.426 224.796 398.426ZM233.893 399.056C233.203 399.056 232.577 398.897 232.017 398.58C231.467 398.263 231.033 397.824 230.715 397.264C230.398 396.695 230.239 396.055 230.239 395.346C230.239 394.637 230.398 394.002 230.715 393.442C231.033 392.873 231.467 392.429 232.017 392.112C232.577 391.795 233.203 391.636 233.893 391.636C234.584 391.636 235.205 391.795 235.755 392.112C236.315 392.429 236.754 392.873 237.071 393.442C237.389 394.002 237.547 394.637 237.547 395.346C237.547 396.055 237.389 396.695 237.071 397.264C236.754 397.824 236.315 398.263 235.755 398.58C235.205 398.897 234.584 399.056 233.893 399.056ZM233.893 398.426C234.453 398.426 234.953 398.295 235.391 398.034C235.839 397.773 236.189 397.409 236.441 396.942C236.703 396.475 236.833 395.943 236.833 395.346C236.833 394.749 236.703 394.217 236.441 393.75C236.189 393.283 235.839 392.919 235.391 392.658C234.953 392.397 234.453 392.266 233.893 392.266C233.333 392.266 232.829 392.397 232.381 392.658C231.943 392.919 231.593 393.283 231.331 393.75C231.079 394.217 230.953 394.749 230.953 395.346C230.953 395.943 231.079 396.475 231.331 396.942C231.593 397.409 231.943 397.773 232.381 398.034C232.829 398.295 233.333 398.426 233.893 398.426ZM242.995 399.056C242.304 399.056 241.679 398.897 241.119 398.58C240.568 398.263 240.134 397.824 239.817 397.264C239.5 396.695 239.341 396.055 239.341 395.346C239.341 394.637 239.5 394.002 239.817 393.442C240.134 392.873 240.568 392.429 241.119 392.112C241.679 391.795 242.304 391.636 242.995 391.636C243.686 391.636 244.306 391.795 244.857 392.112C245.417 392.429 245.856 392.873 246.173 393.442C246.49 394.002 246.649 394.637 246.649 395.346C246.649 396.055 246.49 396.695 246.173 397.264C245.856 397.824 245.417 398.263 244.857 398.58C244.306 398.897 243.686 399.056 242.995 399.056ZM242.995 398.426C243.555 398.426 244.054 398.295 244.493 398.034C244.941 397.773 245.291 397.409 245.543 396.942C245.804 396.475 245.935 395.943 245.935 395.346C245.935 394.749 245.804 394.217 245.543 393.75C245.291 393.283 244.941 392.919 244.493 392.658C244.054 392.397 243.555 392.266 242.995 392.266C242.435 392.266 241.931 392.397 241.483 392.658C241.044 392.919 240.694 393.283 240.433 393.75C240.181 394.217 240.055 394.749 240.055 395.346C240.055 395.943 240.181 396.475 240.433 396.942C240.694 397.409 241.044 397.773 241.483 398.034C241.931 398.295 242.435 398.426 242.995 398.426ZM258.341 391.636C259.246 391.636 259.955 391.902 260.469 392.434C260.991 392.966 261.253 393.731 261.253 394.73V399H260.553V394.786C260.553 393.965 260.352 393.339 259.951 392.91C259.549 392.481 258.989 392.266 258.271 392.266C257.449 392.266 256.796 392.523 256.311 393.036C255.835 393.549 255.597 394.24 255.597 395.108V399H254.897V394.786C254.897 393.965 254.696 393.339 254.295 392.91C253.893 392.481 253.333 392.266 252.615 392.266C251.793 392.266 251.14 392.523 250.655 393.036C250.179 393.549 249.941 394.24 249.941 395.108V399H249.241V391.692H249.913V393.26C250.155 392.747 250.515 392.35 250.991 392.07C251.476 391.781 252.05 391.636 252.713 391.636C253.375 391.636 253.935 391.785 254.393 392.084C254.859 392.383 255.191 392.821 255.387 393.4C255.629 392.859 256.007 392.429 256.521 392.112C257.043 391.795 257.65 391.636 258.341 391.636ZM275.075 388.612V399H274.389V397.278C274.099 397.847 273.693 398.286 273.171 398.594C272.648 398.902 272.055 399.056 271.393 399.056C270.711 399.056 270.095 398.897 269.545 398.58C268.994 398.263 268.56 397.824 268.243 397.264C267.935 396.704 267.781 396.065 267.781 395.346C267.781 394.627 267.935 393.988 268.243 393.428C268.56 392.859 268.994 392.42 269.545 392.112C270.095 391.795 270.711 391.636 271.393 391.636C272.046 391.636 272.629 391.79 273.143 392.098C273.665 392.406 274.076 392.835 274.375 393.386V388.612H275.075ZM271.435 398.426C271.995 398.426 272.494 398.295 272.933 398.034C273.381 397.773 273.731 397.409 273.983 396.942C274.244 396.475 274.375 395.943 274.375 395.346C274.375 394.749 274.244 394.217 273.983 393.75C273.731 393.283 273.381 392.919 272.933 392.658C272.494 392.397 271.995 392.266 271.435 392.266C270.875 392.266 270.371 392.397 269.923 392.658C269.484 392.919 269.134 393.283 268.873 393.75C268.621 394.217 268.495 394.749 268.495 395.346C268.495 395.943 268.621 396.475 268.873 396.942C269.134 397.409 269.484 397.773 269.923 398.034C270.371 398.295 270.875 398.426 271.435 398.426ZM281.302 399.056C280.611 399.056 279.986 398.897 279.426 398.58C278.875 398.263 278.441 397.824 278.124 397.264C277.807 396.695 277.648 396.055 277.648 395.346C277.648 394.637 277.807 394.002 278.124 393.442C278.441 392.873 278.875 392.429 279.426 392.112C279.986 391.795 280.611 391.636 281.302 391.636C281.993 391.636 282.613 391.795 283.164 392.112C283.724 392.429 284.163 392.873 284.48 393.442C284.797 394.002 284.956 394.637 284.956 395.346C284.956 396.055 284.797 396.695 284.48 397.264C284.163 397.824 283.724 398.263 283.164 398.58C282.613 398.897 281.993 399.056 281.302 399.056ZM281.302 398.426C281.862 398.426 282.361 398.295 282.8 398.034C283.248 397.773 283.598 397.409 283.85 396.942C284.111 396.475 284.242 395.943 284.242 395.346C284.242 394.749 284.111 394.217 283.85 393.75C283.598 393.283 283.248 392.919 282.8 392.658C282.361 392.397 281.862 392.266 281.302 392.266C280.742 392.266 280.238 392.397 279.79 392.658C279.351 392.919 279.001 393.283 278.74 393.75C278.488 394.217 278.362 394.749 278.362 395.346C278.362 395.943 278.488 396.475 278.74 396.942C279.001 397.409 279.351 397.773 279.79 398.034C280.238 398.295 280.742 398.426 281.302 398.426ZM290.404 399.056C289.713 399.056 289.088 398.897 288.528 398.58C287.977 398.263 287.543 397.824 287.226 397.264C286.908 396.695 286.75 396.055 286.75 395.346C286.75 394.637 286.908 394.002 287.226 393.442C287.543 392.873 287.977 392.429 288.528 392.112C289.088 391.795 289.713 391.636 290.404 391.636C291.094 391.636 291.715 391.795 292.266 392.112C292.826 392.429 293.264 392.873 293.582 393.442C293.899 394.002 294.058 394.637 294.058 395.346C294.058 396.055 293.899 396.695 293.582 397.264C293.264 397.824 292.826 398.263 292.266 398.58C291.715 398.897 291.094 399.056 290.404 399.056ZM290.404 398.426C290.964 398.426 291.463 398.295 291.902 398.034C292.35 397.773 292.7 397.409 292.952 396.942C293.213 396.475 293.344 395.943 293.344 395.346C293.344 394.749 293.213 394.217 292.952 393.75C292.7 393.283 292.35 392.919 291.902 392.658C291.463 392.397 290.964 392.266 290.404 392.266C289.844 392.266 289.34 392.397 288.892 392.658C288.453 392.919 288.103 393.283 287.842 393.75C287.59 394.217 287.464 394.749 287.464 395.346C287.464 395.943 287.59 396.475 287.842 396.942C288.103 397.409 288.453 397.773 288.892 398.034C289.34 398.295 289.844 398.426 290.404 398.426ZM297.321 393.288C297.545 392.756 297.895 392.35 298.371 392.07C298.847 391.781 299.426 391.636 300.107 391.636V392.322L299.939 392.308C299.127 392.308 298.493 392.565 298.035 393.078C297.578 393.582 297.349 394.287 297.349 395.192V399H296.649V391.692H297.321V393.288ZM99.267 418.398V419H93.457V418.524L98.273 412.294H93.527V411.692H99.183V412.168L94.353 418.398H99.267ZM107.837 415.514H101.551C101.57 416.083 101.714 416.592 101.985 417.04C102.256 417.479 102.62 417.819 103.077 418.062C103.544 418.305 104.066 418.426 104.645 418.426C105.121 418.426 105.56 418.342 105.961 418.174C106.372 417.997 106.712 417.74 106.983 417.404L107.389 417.866C107.072 418.249 106.67 418.543 106.185 418.748C105.709 418.953 105.191 419.056 104.631 419.056C103.903 419.056 103.254 418.897 102.685 418.58C102.116 418.263 101.668 417.824 101.341 417.264C101.024 416.704 100.865 416.065 100.865 415.346C100.865 414.637 101.014 414.002 101.313 413.442C101.621 412.873 102.041 412.429 102.573 412.112C103.105 411.795 103.702 411.636 104.365 411.636C105.028 411.636 105.62 411.795 106.143 412.112C106.675 412.42 107.09 412.854 107.389 413.414C107.697 413.974 107.851 414.609 107.851 415.318L107.837 415.514ZM104.365 412.252C103.852 412.252 103.39 412.369 102.979 412.602C102.568 412.826 102.237 413.148 101.985 413.568C101.742 413.979 101.602 414.445 101.565 414.968H107.165C107.137 414.445 106.997 413.979 106.745 413.568C106.493 413.157 106.162 412.835 105.751 412.602C105.34 412.369 104.878 412.252 104.365 412.252ZM110.436 408.612H111.136V419H110.436V408.612ZM116.705 409.158C115.79 409.158 115.333 409.648 115.333 410.628V411.692H117.671V412.294H115.347V419H114.647V412.294H113.303V411.692H114.647V410.572C114.647 409.956 114.824 409.466 115.179 409.102C115.534 408.738 116.033 408.556 116.677 408.556C116.957 408.556 117.223 408.598 117.475 408.682C117.736 408.757 117.951 408.873 118.119 409.032L117.839 409.564C117.54 409.293 117.162 409.158 116.705 409.158ZM130.116 411.692V418.216C130.116 419.429 129.822 420.325 129.234 420.904C128.646 421.483 127.76 421.772 126.574 421.772C125.902 421.772 125.268 421.669 124.67 421.464C124.073 421.259 123.592 420.974 123.228 420.61L123.606 420.078C123.97 420.414 124.409 420.675 124.922 420.862C125.436 421.049 125.982 421.142 126.56 421.142C127.531 421.142 128.25 420.909 128.716 420.442C129.183 419.985 129.416 419.271 129.416 418.3V417.068C129.118 417.6 128.702 418.011 128.17 418.3C127.638 418.589 127.041 418.734 126.378 418.734C125.697 418.734 125.076 418.585 124.516 418.286C123.966 417.978 123.532 417.553 123.214 417.012C122.897 416.471 122.738 415.859 122.738 415.178C122.738 414.497 122.897 413.885 123.214 413.344C123.532 412.803 123.966 412.383 124.516 412.084C125.076 411.785 125.697 411.636 126.378 411.636C127.05 411.636 127.657 411.785 128.198 412.084C128.74 412.383 129.155 412.803 129.444 413.344V411.692H130.116ZM126.434 418.104C127.004 418.104 127.517 417.983 127.974 417.74C128.432 417.488 128.786 417.143 129.038 416.704C129.3 416.256 129.43 415.747 129.43 415.178C129.43 414.609 129.3 414.105 129.038 413.666C128.786 413.227 128.432 412.887 127.974 412.644C127.517 412.392 127.004 412.266 126.434 412.266C125.865 412.266 125.352 412.392 124.894 412.644C124.446 412.887 124.092 413.227 123.83 413.666C123.578 414.105 123.452 414.609 123.452 415.178C123.452 415.747 123.578 416.256 123.83 416.704C124.092 417.143 124.446 417.488 124.894 417.74C125.352 417.983 125.865 418.104 126.434 418.104ZM139.673 415.514H133.387C133.406 416.083 133.551 416.592 133.821 417.04C134.092 417.479 134.456 417.819 134.913 418.062C135.38 418.305 135.903 418.426 136.481 418.426C136.957 418.426 137.396 418.342 137.797 418.174C138.208 417.997 138.549 417.74 138.819 417.404L139.225 417.866C138.908 418.249 138.507 418.543 138.021 418.748C137.545 418.953 137.027 419.056 136.467 419.056C135.739 419.056 135.091 418.897 134.521 418.58C133.952 418.263 133.504 417.824 133.177 417.264C132.86 416.704 132.701 416.065 132.701 415.346C132.701 414.637 132.851 414.002 133.149 413.442C133.457 412.873 133.877 412.429 134.409 412.112C134.941 411.795 135.539 411.636 136.201 411.636C136.864 411.636 137.457 411.795 137.979 412.112C138.511 412.42 138.927 412.854 139.225 413.414C139.533 413.974 139.687 414.609 139.687 415.318L139.673 415.514ZM136.201 412.252C135.688 412.252 135.226 412.369 134.815 412.602C134.405 412.826 134.073 413.148 133.821 413.568C133.579 413.979 133.439 414.445 133.401 414.968H139.001C138.973 414.445 138.833 413.979 138.581 413.568C138.329 413.157 137.998 412.835 137.587 412.602C137.177 412.369 136.715 412.252 136.201 412.252ZM147.146 418.398V419H141.336V418.524L146.152 412.294H141.406V411.692H147.062V412.168L142.232 418.398H147.146ZM152.398 419.056C151.708 419.056 151.082 418.897 150.522 418.58C149.972 418.263 149.538 417.824 149.22 417.264C148.903 416.695 148.744 416.055 148.744 415.346C148.744 414.637 148.903 414.002 149.22 413.442C149.538 412.873 149.972 412.429 150.522 412.112C151.082 411.795 151.708 411.636 152.398 411.636C153.089 411.636 153.71 411.795 154.26 412.112C154.82 412.429 155.259 412.873 155.576 413.442C155.894 414.002 156.052 414.637 156.052 415.346C156.052 416.055 155.894 416.695 155.576 417.264C155.259 417.824 154.82 418.263 154.26 418.58C153.71 418.897 153.089 419.056 152.398 419.056ZM152.398 418.426C152.958 418.426 153.458 418.295 153.896 418.034C154.344 417.773 154.694 417.409 154.946 416.942C155.208 416.475 155.338 415.943 155.338 415.346C155.338 414.749 155.208 414.217 154.946 413.75C154.694 413.283 154.344 412.919 153.896 412.658C153.458 412.397 152.958 412.266 152.398 412.266C151.838 412.266 151.334 412.397 150.886 412.658C150.448 412.919 150.098 413.283 149.836 413.75C149.584 414.217 149.458 414.749 149.458 415.346C149.458 415.943 149.584 416.475 149.836 416.942C150.098 417.409 150.448 417.773 150.886 418.034C151.334 418.295 151.838 418.426 152.398 418.426ZM162.214 411.636C163.129 411.636 163.852 411.902 164.384 412.434C164.916 412.966 165.182 413.731 165.182 414.73V419H164.482V414.786C164.482 413.965 164.272 413.339 163.852 412.91C163.441 412.481 162.863 412.266 162.116 412.266C161.257 412.266 160.581 412.523 160.086 413.036C159.591 413.549 159.344 414.24 159.344 415.108V419H158.644V411.692H159.316V413.274C159.568 412.761 159.941 412.359 160.436 412.07C160.94 411.781 161.533 411.636 162.214 411.636ZM174.994 408.612V419H174.308V417.278C174.018 417.847 173.612 418.286 173.09 418.594C172.567 418.902 171.974 419.056 171.312 419.056C170.63 419.056 170.014 418.897 169.464 418.58C168.913 418.263 168.479 417.824 168.162 417.264C167.854 416.704 167.7 416.065 167.7 415.346C167.7 414.627 167.854 413.988 168.162 413.428C168.479 412.859 168.913 412.42 169.464 412.112C170.014 411.795 170.63 411.636 171.312 411.636C171.965 411.636 172.548 411.79 173.062 412.098C173.584 412.406 173.995 412.835 174.294 413.386V408.612H174.994ZM171.354 418.426C171.914 418.426 172.413 418.295 172.852 418.034C173.3 417.773 173.65 417.409 173.902 416.942C174.163 416.475 174.294 415.943 174.294 415.346C174.294 414.749 174.163 414.217 173.902 413.75C173.65 413.283 173.3 412.919 172.852 412.658C172.413 412.397 171.914 412.266 171.354 412.266C170.794 412.266 170.29 412.397 169.842 412.658C169.403 412.919 169.053 413.283 168.792 413.75C168.54 414.217 168.414 414.749 168.414 415.346C168.414 415.943 168.54 416.475 168.792 416.942C169.053 417.409 169.403 417.773 169.842 418.034C170.29 418.295 170.794 418.426 171.354 418.426ZM186.007 418.538C185.829 418.706 185.605 418.837 185.335 418.93C185.073 419.014 184.798 419.056 184.509 419.056C183.874 419.056 183.384 418.883 183.039 418.538C182.693 418.183 182.521 417.693 182.521 417.068V412.294H181.177V411.692H182.521V410.096H183.221V411.692H185.545V412.294H183.221V416.998C183.221 417.474 183.333 417.838 183.557 418.09C183.79 418.333 184.131 418.454 184.579 418.454C185.036 418.454 185.414 418.319 185.713 418.048L186.007 418.538ZM194.293 415.514H188.007C188.026 416.083 188.17 416.592 188.441 417.04C188.712 417.479 189.076 417.819 189.533 418.062C190 418.305 190.522 418.426 191.101 418.426C191.577 418.426 192.016 418.342 192.417 418.174C192.828 417.997 193.168 417.74 193.439 417.404L193.845 417.866C193.528 418.249 193.126 418.543 192.641 418.748C192.165 418.953 191.647 419.056 191.087 419.056C190.359 419.056 189.71 418.897 189.141 418.58C188.572 418.263 188.124 417.824 187.797 417.264C187.48 416.704 187.321 416.065 187.321 415.346C187.321 414.637 187.47 414.002 187.769 413.442C188.077 412.873 188.497 412.429 189.029 412.112C189.561 411.795 190.158 411.636 190.821 411.636C191.484 411.636 192.076 411.795 192.599 412.112C193.131 412.42 193.546 412.854 193.845 413.414C194.153 413.974 194.307 414.609 194.307 415.318L194.293 415.514ZM190.821 412.252C190.308 412.252 189.846 412.369 189.435 412.602C189.024 412.826 188.693 413.148 188.441 413.568C188.198 413.979 188.058 414.445 188.021 414.968H193.621C193.593 414.445 193.453 413.979 193.201 413.568C192.949 413.157 192.618 412.835 192.207 412.602C191.796 412.369 191.334 412.252 190.821 412.252ZM200.908 408.612H201.608V419H200.908V408.612ZM211.153 415.514H204.867C204.885 416.083 205.03 416.592 205.301 417.04C205.571 417.479 205.935 417.819 206.393 418.062C206.859 418.305 207.382 418.426 207.961 418.426C208.437 418.426 208.875 418.342 209.277 418.174C209.687 417.997 210.028 417.74 210.299 417.404L210.705 417.866C210.387 418.249 209.986 418.543 209.501 418.748C209.025 418.953 208.507 419.056 207.947 419.056C207.219 419.056 206.57 418.897 206.001 418.58C205.431 418.263 204.983 417.824 204.657 417.264C204.339 416.704 204.181 416.065 204.181 415.346C204.181 414.637 204.33 414.002 204.629 413.442C204.937 412.873 205.357 412.429 205.889 412.112C206.421 411.795 207.018 411.636 207.681 411.636C208.343 411.636 208.936 411.795 209.459 412.112C209.991 412.42 210.406 412.854 210.705 413.414C211.013 413.974 211.167 414.609 211.167 415.318L211.153 415.514ZM207.681 412.252C207.167 412.252 206.705 412.369 206.295 412.602C205.884 412.826 205.553 413.148 205.301 413.568C205.058 413.979 204.918 414.445 204.881 414.968H210.481C210.453 414.445 210.313 413.979 210.061 413.568C209.809 413.157 209.477 412.835 209.067 412.602C208.656 412.369 208.194 412.252 207.681 412.252ZM219.481 411.692L216.177 419H215.463L212.173 411.692H212.915L215.827 418.23L218.767 411.692H219.481ZM227.401 415.514H221.115C221.133 416.083 221.278 416.592 221.549 417.04C221.819 417.479 222.183 417.819 222.641 418.062C223.107 418.305 223.63 418.426 224.209 418.426C224.685 418.426 225.123 418.342 225.525 418.174C225.935 417.997 226.276 417.74 226.547 417.404L226.953 417.866C226.635 418.249 226.234 418.543 225.749 418.748C225.273 418.953 224.755 419.056 224.195 419.056C223.467 419.056 222.818 418.897 222.249 418.58C221.679 418.263 221.231 417.824 220.905 417.264C220.587 416.704 220.429 416.065 220.429 415.346C220.429 414.637 220.578 414.002 220.877 413.442C221.185 412.873 221.605 412.429 222.137 412.112C222.669 411.795 223.266 411.636 223.929 411.636C224.591 411.636 225.184 411.795 225.707 412.112C226.239 412.42 226.654 412.854 226.953 413.414C227.261 413.974 227.415 414.609 227.415 415.318L227.401 415.514ZM223.929 412.252C223.415 412.252 222.953 412.369 222.543 412.602C222.132 412.826 221.801 413.148 221.549 413.568C221.306 413.979 221.166 414.445 221.129 414.968H226.729C226.701 414.445 226.561 413.979 226.309 413.568C226.057 413.157 225.725 412.835 225.315 412.602C224.904 412.369 224.442 412.252 223.929 412.252ZM233.57 411.636C234.485 411.636 235.208 411.902 235.74 412.434C236.272 412.966 236.538 413.731 236.538 414.73V419H235.838V414.786C235.838 413.965 235.628 413.339 235.208 412.91C234.798 412.481 234.219 412.266 233.472 412.266C232.614 412.266 231.937 412.523 231.442 413.036C230.948 413.549 230.7 414.24 230.7 415.108V419H230V411.692H230.672V413.274C230.924 412.761 231.298 412.359 231.792 412.07C232.296 411.781 232.889 411.636 233.57 411.636ZM239.756 419.056C239.598 419.056 239.458 419 239.336 418.888C239.224 418.767 239.168 418.622 239.168 418.454C239.168 418.286 239.224 418.146 239.336 418.034C239.458 417.922 239.598 417.866 239.756 417.866C239.915 417.866 240.05 417.922 240.162 418.034C240.284 418.146 240.344 418.286 240.344 418.454C240.344 418.622 240.284 418.767 240.162 418.888C240.05 419 239.915 419.056 239.756 419.056Z" fill="white"/>
<defs>
<linearGradient id="paint0_linear" x1="138.637" y1="199.447" x2="122.89" y2="229.048" gradientUnits="userSpaceOnUse">
<stop stop-color="#936037"/>
<stop offset="1" stop-color="#936037" stop-opacity="0"/>
</linearGradient>
<linearGradient id="paint1_linear" x1="195.945" y1="199.447" x2="211.93" y2="225.706" gradientUnits="userSpaceOnUse">
<stop stop-color="#B17F4A"/>
<stop offset="1" stop-color="#B17F4A" stop-opacity="0"/>
</linearGradient>
<linearGradient id="paint2_linear" x1="102.75" y1="302.667" x2="181.175" y2="302.667" gradientUnits="userSpaceOnUse">
<stop stop-color="#F1BD33"/>
<stop offset="1" stop-color="#FFCC47"/>
</linearGradient>
<linearGradient id="paint3_linear" x1="103.783" y1="335.349" x2="204.553" y2="335.349" gradientUnits="userSpaceOnUse">
<stop stop-color="#59C633"/>
<stop offset="1" stop-color="#6ED34B"/>
</linearGradient>
<linearGradient id="paint4_linear" x1="105.244" y1="270.147" x2="247.115" y2="270.147" gradientUnits="userSpaceOnUse">
<stop stop-color="#1EB0EF"/>
<stop offset="1" stop-color="#38C3FF"/>
</linearGradient>
<clipPath id="clip0">
<rect width="39.0715" height="97.0869" fill="white" transform="translate(147.888 96)"/>
</clipPath>
</defs>
</svg>
